<?xml version="1.0" encoding="UTF-8" standalone="no"?>
<svg
   version="1.0"
   width="418.000000pt"
   height="418.000000pt"
   viewBox="0 0 418.000000 418.000000"
   preserveAspectRatio="xMidYMid meet"
   id="svg56"
   sodipodi:docname="rit.svg"
   inkscape:version="1.2.2 (732a01da63, 2022-12-09, custom)"
   xmlns:inkscape="http://www.inkscape.org/namespaces/inkscape"
   xmlns:sodipodi="http://sodipodi.sourceforge.net/DTD/sodipodi-0.dtd"
   xmlns="http://www.w3.org/2000/svg"
   xmlns:svg="http://www.w3.org/2000/svg">
  <defs
     id="defs60" />
  <sodipodi:namedview
     id="namedview58"
     pagecolor="#ffffff"
     bordercolor="#000000"
     borderopacity="0.25"
     inkscape:showpageshadow="2"
     inkscape:pageopacity="0.0"
     inkscape:pagecheckerboard="0"
     inkscape:deskcolor="#d1d1d1"
     inkscape:document-units="pt"
     showgrid="false"
     inkscape:zoom="4.6595247"
     inkscape:cx="298.09907"
     inkscape:cy="463.35198"
     inkscape:window-width="1920"
     inkscape:window-height="941"
     inkscape:window-x="0"
     inkscape:window-y="0"
     inkscape:window-maximized="1"
     inkscape:current-layer="g54" />
  <g
     transform="translate(0.000000,418.000000) scale(0.100000,-0.100000)"
     fill="#000000"
     stroke="none"
     id="g54">
    <path
       d="M2205 3594 c-120 -12 -221 -30 -410 -74 -345 -81 -348 -81 -680 -86 -165 -3 -310 -7 -323 -10 -36 -7 -62 -40 -62 -78 0 -94 199 -363 311 -421 l30 -16 -43 -52 c-24 -28 -109 -117 -189 -197 -152 -153 -250 -283 -304 -405 -15 -33 -59 -174 -99 -312 l-72 -253 38 0 c21 0 61 9 90 20 28 11 53 18 55 17 1 -2 -6 -40 -17 -86 -24 -100 -58 -173 -105 -229 -20 -23 -34 -46 -30 -51 13 -22 122 -53 192 -54 l73 -2 0 -85 c0 -74 -13 -160 -36 -237 l-6 -22 69 19 c83 23 155 53 195 81 16 12 30 20 32 18 1 -2 23 -33 48 -69 57 -81 158 -177 231 -219 30 -17 57 -31 59 -31 3 0 8 13 11 28 6 32 64 120 89 136 13 8 30 -3 86 -56 118 -111 354 -283 366 -267 1 2 8 23 14 46 17 57 98 145 160 171 66 28 183 46 259 39 34 -4 109 -21 167 -38 l104 -32 29 -76 c43 -117 115 -180 236 -205 25 -6 27 -10 27 -52 l0 -47 33 7 c17 3 44 9 59 12 23 5 26 4 21 -15 -3 -12 -2 -21 2 -21 31 0 272 87 308 111 56 37 118 113 159 194 17 33 50 77 74 98 32 28 48 52 59 90 20 68 19 85 -9 143 -19 39 -25 69 -28 144 -5 121 -25 163 -80 168 -30 3 -38 -1 -56 -29 l-20 -32 -36 112 c-20 61 -43 154 -52 206 -15 86 -15 101 0 172 16 79 94 251 139 306 21 27 29 29 104 33 95 4 88 13 99 -131 10 -136 40 -166 101 -102 45 46 91 151 110 249 9 46 34 133 56 193 52 144 60 248 27 345 -57 169 -119 221 -369 311 -51 19 -95 39 -96 44 -2 6 -8 36 -15 68 -15 74 -52 117 -136 157 -60 29 -63 32 -58 60 17 82 -19 106 -138 90 l-79 -11 -83 51 c-107 64 -144 79 -231 95 -38 7 -112 24 -164 39 -92 25 -217 38 -296 30z m177 -135 c-61 -30 -84 -57 -39 -46 12 4 70 9 129 13 103 7 109 6 163 -20 35 -18 73 -48 102 -82 32 -37 68 -65 111 -86 34 -17 64 -29 67 -27 2 3 -18 31 -46 63 -54 64 -60 75 -26 54 96 -62 184 -107 283 -144 151 -56 187 -87 121 -105 -22 -6 -33 -2 -56 22 -23 23 -39 29 -70 29 -23 0 -41 -3 -41 -6 0 -4 27 -37 60 -74 l61 -69 197 -66 c194 -64 292 -108 300 -132 5 -18 -43 -17 -130 3 -159 36 -278 -11 -278 -110 0 -39 54 -92 128 -127 137 -63 137 -63 140 -90 l3 -26 -103 -6 c-57 -4 -190 -25 -298 -47 -142 -30 -239 -44 -355 -51 -207 -14 -323 -32 -380 -59 -108 -52 -203 -200 -231 -360 -29 -166 14 -287 161 -450 47 -52 148 -181 226 -287 77 -106 159 -209 181 -229 80 -72 210 -114 354 -114 81 0 192 20 258 46 38 15 -5 -38 -45 -55 -27 -11 -42 -25 -49 -46 -17 -48 -69 -118 -110 -148 l-38 -27 -7 30 c-4 16 -10 30 -13 30 -4 0 -20 -16 -36 -36 l-29 -36 -13 32 -14 32 -45 -37 c-25 -21 -45 -33 -45 -27 0 16 -32 31 -91 42 -84 16 -100 34 -193 219 -92 182 -139 250 -205 295 -38 27 -141 69 -149 61 -2 -2 19 -43 47 -91 28 -48 49 -90 47 -92 -7 -6 -326 88 -456 135 -175 62 -333 142 -411 207 -71 58 -155 159 -217 259 l-37 61 -3 -73 c-5 -130 46 -253 154 -370 l62 -67 -60 -13 c-73 -15 -155 -50 -203 -87 l-36 -27 -25 24 c-36 34 -102 172 -110 230 l-7 49 -65 -35 c-36 -19 -68 -33 -70 -30 -10 10 31 185 69 295 50 145 101 319 97 331 -2 5 -75 -65 -162 -156 -87 -91 -160 -164 -162 -162 -2 2 10 89 27 193 46 278 71 335 224 500 66 71 82 95 64 90 -95 -28 -162 -52 -214 -76 -33 -16 -61 -28 -62 -26 -1 1 14 35 34 76 33 69 56 95 287 322 l251 248 81 29 c89 32 223 61 285 61 21 0 39 4 39 8 0 16 -66 71 -115 95 -62 31 -184 57 -267 57 -95 0 -223 18 -281 40 -29 11 -85 42 -125 69 l-73 48 178 -5 c185 -5 356 10 541 47 45 10 82 16 82 14 0 -2 -7 -14 -14 -26 -8 -12 -27 -49 -41 -82 l-27 -59 51 51 c61 62 112 98 201 143 58 29 160 64 160 55 0 -2 -10 -20 -21 -40 -12 -20 -19 -38 -17 -41 3 -2 40 12 82 32 103 47 205 73 295 73 l74 1 -61 -31z m1184 -715 c51 -11 100 -14 139 -10 l60 6 -25 -20 c-31 -24 -75 -25 -170 -4 -61 14 -81 15 -127 5 -33 -8 -59 -20 -66 -32 -16 -26 -27 -24 -27 6 0 26 23 43 75 56 46 11 57 10 141 -7z m170 -149 c-20 -18 -36 -41 -36 -51 0 -11 -12 -37 -26 -59 -14 -22 -23 -33 -20 -25 2 8 10 41 17 73 11 46 20 63 44 80 16 11 34 28 40 36 8 14 10 14 13 -2 2 -12 -10 -31 -32 -52z m64 -102 c0 -16 -5 -45 -11 -66 -9 -33 -13 -37 -32 -31 -44 13 -45 18 -10 72 38 58 53 65 53 25z m-114 -189 c32 -8 60 -17 63 -19 9 -9 -36 -210 -59 -263 -12 -29 -24 -51 -26 -49 -2 2 -9 39 -14 82 -5 43 -19 98 -31 122 -21 43 -21 43 -49 28 -34 -18 -62 -19 -77 -4 -8 8 -17 8 -31 0 -27 -15 -68 -14 -92 1 -15 10 -22 10 -32 0 -17 -17 -73 -15 -88 3 -11 13 -16 12 -42 -6 -19 -14 -38 -19 -56 -16 -68 14 -65 16 -77 -43 -19 -90 -44 -155 -85 -218 -21 -33 -42 -62 -48 -66 -5 -3 -11 36 -15 97 -3 56 -13 126 -22 155 -15 48 -19 53 -38 47 -52 -16 -64 -16 -87 3 -22 18 -26 18 -47 5 -29 -19 -73 -10 -103 22 l-22 23 54 6 c29 3 107 8 173 11 75 3 175 17 265 35 151 32 273 56 325 64 50 7 200 -4 261 -20z m-881 -618 c56 -26 74 -43 135 -131 40 -57 42 -58 35 -25 -4 19 -22 63 -40 97 -19 33 -31 64 -28 67 11 11 64 6 91 -8 87 -46 136 -144 181 -367 7 -31 27 -80 46 -110 38 -58 41 -69 23 -70 -7 0 -41 -2 -76 -4 -97 -6 -105 0 -132 95 -48 168 -91 171 -175 13 -15 -29 -36 -60 -46 -69 -16 -15 -19 -14 -32 13 -8 15 -24 68 -36 117 -26 107 -61 177 -99 205 -38 27 -132 51 -198 51 -44 0 -54 4 -68 25 -9 13 -16 27 -16 30 0 7 120 67 165 81 22 7 81 13 130 13 75 1 99 -3 140 -23z m173 -476 c6 -19 14 -62 17 -95 3 -33 8 -71 11 -84 4 -21 7 -22 22 -8 26 23 57 29 86 16 18 -8 29 -9 38 -1 7 5 44 9 81 8 l69 -2 23 45 c12 25 31 72 41 104 26 83 39 59 39 -74 0 -130 3 -126 -123 -166 -73 -22 -95 -25 -180 -21 -112 6 -206 38 -267 92 l-38 32 34 25 c19 15 54 61 79 102 24 42 47 73 51 69 4 -4 11 -23 17 -42z"
       id="path34" />
    <path
       d="M2310 3184 c-63 -19 -151 -37 -194 -41 -67 -5 -76 -8 -62 -19 10 -7 40 -18 68 -25 37 -10 45 -15 31 -20 -27 -11 -173 -10 -213 1 l-35 9 23 -19 c31 -25 142 -60 193 -60 21 0 39 -5 39 -10 0 -13 -77 -49 -103 -50 -10 0 -15 -4 -12 -10 8 -13 106 -13 141 0 22 9 30 7 49 -14 38 -41 85 -59 167 -64 84 -5 158 13 211 50 25 18 33 19 72 9 61 -15 161 -14 194 3 46 24 61 75 40 135 l-11 32 -19 -31 c-25 -41 -61 -54 -102 -36 -18 7 -96 54 -175 105 -80 51 -152 91 -165 90 -12 -1 -74 -17 -137 -35z m140 -191 l1 -48 28 34 28 34 31 -23 c18 -13 32 -27 32 -31 0 -4 -17 -13 -37 -20 -105 -34 -231 12 -206 76 4 13 32 20 96 23 26 2 27 0 27 -45z"
       id="path36" />
    <path
       d="M1768 2925 c-54 -20 -88 -45 -119 -89 -37 -49 -37 -63 -1 -29 88 83 263 94 398 25 l36 -19 -62 -22 c-37 -14 -81 -40 -107 -63 -52 -48 -50 -59 4 -24 67 44 138 57 280 54 113 -3 132 -1 161 17 17 10 32 22 32 25 0 3 -31 4 -69 2 -65 -3 -73 -1 -168 47 -56 27 -128 59 -161 70 -70 24 -168 27 -224 6z"
       id="path38" />
    <path
       d="M2884 2840 c-61 -13 -104 -33 -185 -88 -41 -27 -114 -66 -164 -86 -87 -36 -88 -37 -40 -31 95 12 166 36 272 91 l107 56 77 -4 c62 -4 91 -12 155 -42 l79 -37 -50 51 c-77 79 -160 108 -251 90z"
       id="path40" />
    <path
       d="M2865 2676 c-27 -7 -90 -33 -140 -58 -112 -57 -202 -85 -302 -95 -96 -9 -62 -20 67 -22 98 -1 157 12 296 67 54 22 120 43 147 46 57 9 133 -11 221 -57 34 -18 66 -34 71 -36 24 -9 -104 113 -143 136 -52 31 -143 39 -217 19z"
       id="path42" />
    <path
       d="M1918 2483 c-55 -52 -123 -143 -157 -211 -60 -119 -141 -369 -141 -436 0 -19 1 -19 16 4 10 14 37 46 61 71 41 43 46 53 59 130 29 167 85 300 179 429 25 33 43 60 40 60 -3 0 -29 -21 -57 -47z"
       id="path44" />
    <path
       d="M2985 2504 c-11 -3 -74 -22 -140 -42 -107 -33 -132 -37 -229 -37 -107 0 -108 0 -65 -14 68 -22 278 -20 359 3 36 10 121 24 190 30 l125 12 -58 22 c-59 22 -146 35 -182 26z"
       id="path46" />
    <path
       d="M2024 2355 c-108 -195 -153 -402 -133 -619 15 -154 64 -281 135 -348 43 -40 149 -86 228 -98 66 -10 99 -7 60 6 -108 37 -228 145 -281 254 -54 111 -67 178 -67 340 0 159 20 277 74 440 16 46 27 86 25 88 -2 2 -20 -27 -41 -63z"
       id="path48" />
  </g>
</svg>
