%TF.GenerationSoftware,KiCad,Pcbnew,6.0.10-86aedd382b~118~ubuntu22.10.1*%
%TF.CreationDate,2023-02-13T13:29:29-05:00*%
%TF.ProjectId,WerfenMc_power_edit,57657266-656e-44d6-935f-706f7765725f,rev?*%
%TF.SameCoordinates,Original*%
%TF.FileFunction,Soldermask,Bot*%
%TF.FilePolarity,Negative*%
%FSLAX46Y46*%
G04 Gerber Fmt 4.6, Leading zero omitted, Abs format (unit mm)*
G04 Created by KiCad (PCBNEW 6.0.10-86aedd382b~118~ubuntu22.10.1) date 2023-02-13 13:29:29*
%MOMM*%
%LPD*%
G01*
G04 APERTURE LIST*
G04 Aperture macros list*
%AMRoundRect*
0 Rectangle with rounded corners*
0 $1 Rounding radius*
0 $2 $3 $4 $5 $6 $7 $8 $9 X,Y pos of 4 corners*
0 Add a 4 corners polygon primitive as box body*
4,1,4,$2,$3,$4,$5,$6,$7,$8,$9,$2,$3,0*
0 Add four circle primitives for the rounded corners*
1,1,$1+$1,$2,$3*
1,1,$1+$1,$4,$5*
1,1,$1+$1,$6,$7*
1,1,$1+$1,$8,$9*
0 Add four rect primitives between the rounded corners*
20,1,$1+$1,$2,$3,$4,$5,0*
20,1,$1+$1,$4,$5,$6,$7,0*
20,1,$1+$1,$6,$7,$8,$9,0*
20,1,$1+$1,$8,$9,$2,$3,0*%
G04 Aperture macros list end*
%ADD10R,1.700000X1.700000*%
%ADD11O,1.700000X1.700000*%
%ADD12C,1.100000*%
%ADD13R,2.200000X2.200000*%
%ADD14C,2.200000*%
%ADD15C,2.400000*%
%ADD16O,2.400000X2.400000*%
%ADD17R,1.600000X1.600000*%
%ADD18O,1.600000X1.600000*%
%ADD19R,3.500000X3.500000*%
%ADD20RoundRect,0.750000X0.750000X1.000000X-0.750000X1.000000X-0.750000X-1.000000X0.750000X-1.000000X0*%
%ADD21RoundRect,0.875000X0.875000X0.875000X-0.875000X0.875000X-0.875000X-0.875000X0.875000X-0.875000X0*%
%ADD22R,1.900000X1.900000*%
%ADD23C,1.900000*%
%ADD24C,2.000000*%
G04 APERTURE END LIST*
D10*
%TO.C,S2*%
X75975000Y-81000000D03*
D11*
X78515000Y-81000000D03*
X81055000Y-81000000D03*
%TD*%
D10*
%TO.C,J1*%
X93900000Y-50800000D03*
D11*
X96440000Y-50800000D03*
X98980000Y-50800000D03*
X101520000Y-50800000D03*
%TD*%
D12*
%TO.C,D9*%
X33960000Y-35600000D03*
X33960000Y-38140000D03*
D13*
X36500000Y-35600000D03*
D14*
X36500000Y-38140000D03*
%TD*%
D10*
%TO.C,Q1*%
X43776453Y-72206402D03*
D11*
X43776453Y-74746402D03*
%TD*%
D14*
%TO.C,H2*%
X101000000Y-79500000D03*
%TD*%
D12*
%TO.C,J6*%
X103000000Y-44230000D03*
X103000000Y-46770000D03*
D13*
X100460000Y-46770000D03*
D14*
X100460000Y-44230000D03*
%TD*%
D15*
%TO.C,R1*%
X35000000Y-74620000D03*
D16*
X35000000Y-59380000D03*
%TD*%
D10*
%TO.C,J5*%
X42400000Y-29000000D03*
D11*
X44940000Y-29000000D03*
X47480000Y-29000000D03*
X50020000Y-29000000D03*
%TD*%
D14*
%TO.C,H4*%
X36000000Y-79500000D03*
%TD*%
D10*
%TO.C,J4*%
X54650000Y-81000000D03*
D11*
X57190000Y-81000000D03*
X59730000Y-81000000D03*
X62270000Y-81000000D03*
%TD*%
D14*
%TO.C,H3*%
X36000000Y-29500000D03*
%TD*%
D17*
%TO.C,A1*%
X102000000Y-54500000D03*
D18*
X99460000Y-54500000D03*
X96920000Y-54500000D03*
X94380000Y-54500000D03*
X91840000Y-54500000D03*
X89300000Y-54500000D03*
X86760000Y-54500000D03*
X84220000Y-54500000D03*
X84220000Y-67200000D03*
X86760000Y-67200000D03*
X89300000Y-67200000D03*
X91840000Y-67200000D03*
X94380000Y-67200000D03*
X96920000Y-67200000D03*
X99460000Y-67200000D03*
X102000000Y-67200000D03*
%TD*%
D10*
%TO.C,S3*%
X71750000Y-81000000D03*
D11*
X69210000Y-81000000D03*
X66670000Y-81000000D03*
%TD*%
D19*
%TO.C,J3*%
X90400000Y-37400000D03*
D20*
X96400000Y-37400000D03*
D21*
X93400000Y-32700000D03*
%TD*%
D14*
%TO.C,H1*%
X101000000Y-29500000D03*
%TD*%
D10*
%TO.C,J2*%
X48750000Y-35675000D03*
D11*
X48750000Y-38215000D03*
X48750000Y-40755000D03*
X48750000Y-43295000D03*
X48750000Y-45835000D03*
%TD*%
D22*
%TO.C,S1*%
X48950000Y-80530000D03*
D23*
X46450000Y-80530000D03*
X43950000Y-80530000D03*
%TD*%
D24*
%TO.C,SW1*%
X39000000Y-65760000D03*
X39000000Y-59260000D03*
X43500000Y-65760000D03*
X43500000Y-59260000D03*
%TD*%
D10*
%TO.C,SW2*%
X91100000Y-81000000D03*
D11*
X88560000Y-81000000D03*
%TD*%
M02*
