%TF.GenerationSoftware,KiCad,Pcbnew,6.0.10-86aedd382b~118~ubuntu22.10.1*%
%TF.CreationDate,2023-02-13T13:29:29-05:00*%
%TF.ProjectId,WerfenMc_power_edit,57657266-656e-44d6-935f-706f7765725f,rev?*%
%TF.SameCoordinates,Original*%
%TF.FileFunction,Copper,L2,Bot*%
%TF.FilePolarity,Positive*%
%FSLAX46Y46*%
G04 Gerber Fmt 4.6, Leading zero omitted, Abs format (unit mm)*
G04 Created by KiCad (PCBNEW 6.0.10-86aedd382b~118~ubuntu22.10.1) date 2023-02-13 13:29:29*
%MOMM*%
%LPD*%
G01*
G04 APERTURE LIST*
G04 Aperture macros list*
%AMRoundRect*
0 Rectangle with rounded corners*
0 $1 Rounding radius*
0 $2 $3 $4 $5 $6 $7 $8 $9 X,Y pos of 4 corners*
0 Add a 4 corners polygon primitive as box body*
4,1,4,$2,$3,$4,$5,$6,$7,$8,$9,$2,$3,0*
0 Add four circle primitives for the rounded corners*
1,1,$1+$1,$2,$3*
1,1,$1+$1,$4,$5*
1,1,$1+$1,$6,$7*
1,1,$1+$1,$8,$9*
0 Add four rect primitives between the rounded corners*
20,1,$1+$1,$2,$3,$4,$5,0*
20,1,$1+$1,$4,$5,$6,$7,0*
20,1,$1+$1,$6,$7,$8,$9,0*
20,1,$1+$1,$8,$9,$2,$3,0*%
G04 Aperture macros list end*
%TA.AperFunction,ComponentPad*%
%ADD10R,1.700000X1.700000*%
%TD*%
%TA.AperFunction,ComponentPad*%
%ADD11O,1.700000X1.700000*%
%TD*%
%TA.AperFunction,ComponentPad*%
%ADD12R,2.200000X2.200000*%
%TD*%
%TA.AperFunction,ComponentPad*%
%ADD13C,2.200000*%
%TD*%
%TA.AperFunction,ComponentPad*%
%ADD14C,2.400000*%
%TD*%
%TA.AperFunction,ComponentPad*%
%ADD15O,2.400000X2.400000*%
%TD*%
%TA.AperFunction,ComponentPad*%
%ADD16R,1.600000X1.600000*%
%TD*%
%TA.AperFunction,ComponentPad*%
%ADD17O,1.600000X1.600000*%
%TD*%
%TA.AperFunction,ComponentPad*%
%ADD18R,3.500000X3.500000*%
%TD*%
%TA.AperFunction,ComponentPad*%
%ADD19RoundRect,0.750000X0.750000X1.000000X-0.750000X1.000000X-0.750000X-1.000000X0.750000X-1.000000X0*%
%TD*%
%TA.AperFunction,ComponentPad*%
%ADD20RoundRect,0.875000X0.875000X0.875000X-0.875000X0.875000X-0.875000X-0.875000X0.875000X-0.875000X0*%
%TD*%
%TA.AperFunction,ComponentPad*%
%ADD21R,1.900000X1.900000*%
%TD*%
%TA.AperFunction,ComponentPad*%
%ADD22C,1.900000*%
%TD*%
%TA.AperFunction,ComponentPad*%
%ADD23C,2.000000*%
%TD*%
%TA.AperFunction,ViaPad*%
%ADD24C,0.800000*%
%TD*%
%TA.AperFunction,ViaPad*%
%ADD25C,0.700000*%
%TD*%
%TA.AperFunction,Conductor*%
%ADD26C,0.500000*%
%TD*%
%TA.AperFunction,Conductor*%
%ADD27C,0.300000*%
%TD*%
G04 APERTURE END LIST*
D10*
%TO.P,S2,1*%
%TO.N,GND*%
X75975000Y-81000000D03*
D11*
%TO.P,S2,2*%
%TO.N,Net-(D6-Pad2)*%
X78515000Y-81000000D03*
%TO.P,S2,3*%
%TO.N,+3.3V*%
X81055000Y-81000000D03*
%TD*%
D10*
%TO.P,J1,1,Pin_1*%
%TO.N,2A*%
X93900000Y-50800000D03*
D11*
%TO.P,J1,2,Pin_2*%
%TO.N,1B*%
X96440000Y-50800000D03*
%TO.P,J1,3,Pin_3*%
%TO.N,2B*%
X98980000Y-50800000D03*
%TO.P,J1,4,Pin_4*%
%TO.N,1A*%
X101520000Y-50800000D03*
%TD*%
D12*
%TO.P,D9,1,A*%
%TO.N,+5V*%
X36500000Y-35600000D03*
D13*
%TO.P,D9,2,K*%
%TO.N,Net-(D9-Pad2)*%
X36500000Y-38140000D03*
%TD*%
D10*
%TO.P,Q1,1,C*%
%TO.N,+3.3V*%
X43776453Y-72206402D03*
D11*
%TO.P,Q1,2,E*%
%TO.N,LIGHT_S*%
X43776453Y-74746402D03*
%TD*%
D12*
%TO.P,J6,1,Pin_1*%
%TO.N,+12V*%
X100460000Y-46770000D03*
D13*
%TO.P,J6,2,Pin_2*%
%TO.N,GND*%
X100460000Y-44230000D03*
%TD*%
D14*
%TO.P,R1,1*%
%TO.N,LIGHT_S*%
X35000000Y-74620000D03*
D15*
%TO.P,R1,2*%
%TO.N,GND*%
X35000000Y-59380000D03*
%TD*%
D10*
%TO.P,J5,1,Pin_1*%
%TO.N,GND*%
X42400000Y-29000000D03*
D11*
%TO.P,J5,2,Pin_2*%
%TO.N,RX1*%
X44940000Y-29000000D03*
%TO.P,J5,3,Pin_3*%
%TO.N,TX1*%
X47480000Y-29000000D03*
%TO.P,J5,4,Pin_4*%
%TO.N,+5V*%
X50020000Y-29000000D03*
%TD*%
D10*
%TO.P,J4,1,Pin_1*%
%TO.N,GND*%
X54650000Y-81000000D03*
D11*
%TO.P,J4,2,Pin_2*%
%TO.N,TX3*%
X57190000Y-81000000D03*
%TO.P,J4,3,Pin_3*%
%TO.N,RX3*%
X59730000Y-81000000D03*
%TO.P,J4,4,Pin_4*%
%TO.N,+3.3V*%
X62270000Y-81000000D03*
%TD*%
D16*
%TO.P,A1,1,GND*%
%TO.N,GND*%
X102000000Y-54500000D03*
D17*
%TO.P,A1,2,VDD*%
%TO.N,+3.3V*%
X99460000Y-54500000D03*
%TO.P,A1,3,1B*%
%TO.N,1B*%
X96920000Y-54500000D03*
%TO.P,A1,4,1A*%
%TO.N,1A*%
X94380000Y-54500000D03*
%TO.P,A1,5,2A*%
%TO.N,2A*%
X91840000Y-54500000D03*
%TO.P,A1,6,2B*%
%TO.N,2B*%
X89300000Y-54500000D03*
%TO.P,A1,7,GND*%
%TO.N,GND*%
X86760000Y-54500000D03*
%TO.P,A1,8,VMOT*%
%TO.N,+12V*%
X84220000Y-54500000D03*
%TO.P,A1,9,~{ENABLE}*%
%TO.N,ENABLE*%
X84220000Y-67200000D03*
%TO.P,A1,10,MS1*%
%TO.N,MS1*%
X86760000Y-67200000D03*
%TO.P,A1,11,MS2*%
%TO.N,MS2*%
X89300000Y-67200000D03*
%TO.P,A1,12,MS3*%
%TO.N,MS3*%
X91840000Y-67200000D03*
%TO.P,A1,13,~{RESET}*%
%TO.N,Net-(A1-Pad13)*%
X94380000Y-67200000D03*
%TO.P,A1,14,~{SLEEP}*%
X96920000Y-67200000D03*
%TO.P,A1,15,STEP*%
%TO.N,STEP*%
X99460000Y-67200000D03*
%TO.P,A1,16,DIR*%
%TO.N,DIR*%
X102000000Y-67200000D03*
%TD*%
D10*
%TO.P,S3,1*%
%TO.N,GND*%
X71750000Y-81000000D03*
D11*
%TO.P,S3,2*%
%TO.N,Net-(D7-Pad2)*%
X69210000Y-81000000D03*
%TO.P,S3,3*%
%TO.N,+3.3V*%
X66670000Y-81000000D03*
%TD*%
D18*
%TO.P,J3,1*%
%TO.N,+12V*%
X90400000Y-37400000D03*
D19*
%TO.P,J3,2*%
%TO.N,GND*%
X96400000Y-37400000D03*
D20*
%TO.P,J3,3*%
X93400000Y-32700000D03*
%TD*%
D10*
%TO.P,J2,1,Pin_1*%
%TO.N,JTCK*%
X48750000Y-35675000D03*
D11*
%TO.P,J2,2,Pin_2*%
%TO.N,GND*%
X48750000Y-38215000D03*
%TO.P,J2,3,Pin_3*%
%TO.N,JTMS*%
X48750000Y-40755000D03*
%TO.P,J2,4,Pin_4*%
%TO.N,NRST*%
X48750000Y-43295000D03*
%TO.P,J2,5,Pin_5*%
%TO.N,SWO*%
X48750000Y-45835000D03*
%TD*%
D21*
%TO.P,S1,1*%
%TO.N,GND*%
X48950000Y-80530000D03*
D22*
%TO.P,S1,2*%
%TO.N,Net-(R2-Pad1)*%
X46450000Y-80530000D03*
%TO.P,S1,3*%
%TO.N,+3.3V*%
X43950000Y-80530000D03*
%TD*%
D23*
%TO.P,SW1,1,1*%
%TO.N,GND*%
X39000000Y-65760000D03*
X39000000Y-59260000D03*
%TO.P,SW1,2,2*%
%TO.N,NRST*%
X43500000Y-65760000D03*
X43500000Y-59260000D03*
%TD*%
D10*
%TO.P,SW2,1,1*%
%TO.N,Net-(D5-Pad2)*%
X91100000Y-81000000D03*
D11*
%TO.P,SW2,2,2*%
%TO.N,+3.3V*%
X88560000Y-81000000D03*
%TD*%
D24*
%TO.N,GND*%
X80750000Y-29750000D03*
X79000000Y-28500000D03*
D25*
X41000000Y-45000000D03*
X53300000Y-78300000D03*
X74800000Y-78800000D03*
D24*
X60700000Y-37600000D03*
X69800000Y-48200000D03*
X74600000Y-45000000D03*
D25*
X95450000Y-76150000D03*
D24*
X96200000Y-34800000D03*
X94000000Y-73500000D03*
X70000000Y-54000000D03*
D25*
X41500000Y-31000000D03*
D24*
X73000000Y-55800000D03*
X78500000Y-70500000D03*
D25*
X50170000Y-77580000D03*
D24*
X50350000Y-60650000D03*
X79600000Y-55800000D03*
X64000000Y-66500000D03*
X102000000Y-56500000D03*
X52850000Y-57450000D03*
X89600000Y-31500000D03*
D25*
X56000000Y-70250000D03*
X73100000Y-78850000D03*
D24*
X69250000Y-70500000D03*
X58206677Y-66456677D03*
X78000000Y-45000000D03*
X55500000Y-39200000D03*
X92600000Y-30000000D03*
X74000000Y-55800000D03*
D25*
X42250000Y-45000000D03*
D24*
X48500000Y-65500000D03*
X79800000Y-45000000D03*
X57500000Y-58500000D03*
D25*
X69650000Y-59450000D03*
D24*
X69800000Y-47200000D03*
X69600000Y-52400000D03*
D25*
X42900000Y-31000000D03*
D24*
X60700000Y-39200000D03*
X80600000Y-55800000D03*
D25*
X35000000Y-57000000D03*
D24*
X39000000Y-62480000D03*
X98600000Y-37000000D03*
X56900000Y-38200000D03*
X51000000Y-37000000D03*
X85600000Y-29600000D03*
D25*
X39740000Y-57240000D03*
D24*
X94200000Y-30000000D03*
X89600000Y-28600000D03*
X55500000Y-37200000D03*
X85600000Y-31200000D03*
%TO.N,+3.3V*%
X56500000Y-50000000D03*
X56500000Y-54000000D03*
%TO.N,STEP*%
X76250000Y-63200500D03*
X71028223Y-63238177D03*
D25*
%TO.N,NRST*%
X50000000Y-53949500D03*
D24*
X48000000Y-68750000D03*
D25*
X45500000Y-68750000D03*
D24*
X50000000Y-51500500D03*
%TO.N,TX3*%
X60000000Y-70750000D03*
X60000000Y-75000000D03*
%TO.N,RX3*%
X61000000Y-71000000D03*
X61000000Y-75000000D03*
%TO.N,USR_LED*%
X64950000Y-52850000D03*
X62745023Y-55054977D03*
%TO.N,/BOOT0*%
X51350688Y-72149312D03*
X49750000Y-73750000D03*
%TO.N,LIGHT_S*%
X62750000Y-73750000D03*
X62750000Y-70750000D03*
%TD*%
D26*
%TO.N,+3.3V*%
X56500000Y-54000000D02*
X56500000Y-50000000D01*
D27*
%TO.N,STEP*%
X71065900Y-63200500D02*
X71028223Y-63238177D01*
X76250000Y-63200500D02*
X71065900Y-63200500D01*
%TO.N,NRST*%
X48000000Y-68750000D02*
X45500000Y-68750000D01*
X50000000Y-51500500D02*
X50000000Y-53949500D01*
%TO.N,TX3*%
X60000000Y-70750000D02*
X60000000Y-75000000D01*
%TO.N,RX3*%
X61000000Y-71000000D02*
X61000000Y-75000000D01*
%TO.N,USR_LED*%
X62745023Y-55054977D02*
X64950000Y-52850000D01*
%TO.N,/BOOT0*%
X51350688Y-72149312D02*
X49750000Y-73750000D01*
%TO.N,LIGHT_S*%
X62750000Y-70750000D02*
X62750000Y-73750000D01*
%TD*%
%TA.AperFunction,Conductor*%
%TO.N,GND*%
G36*
X100984391Y-26302384D02*
G01*
X101000000Y-26305136D01*
X101010684Y-26303252D01*
X101018842Y-26303252D01*
X101034374Y-26302301D01*
X101327953Y-26317687D01*
X101340860Y-26319044D01*
X101658799Y-26369401D01*
X101671475Y-26372095D01*
X101982435Y-26455416D01*
X101994764Y-26459423D01*
X102295292Y-26574784D01*
X102307131Y-26580055D01*
X102546322Y-26701929D01*
X102593964Y-26726204D01*
X102605204Y-26732694D01*
X102875166Y-26908009D01*
X102885667Y-26915638D01*
X103135836Y-27118221D01*
X103145481Y-27126906D01*
X103373094Y-27354519D01*
X103381779Y-27364164D01*
X103584362Y-27614333D01*
X103591991Y-27624834D01*
X103767306Y-27894796D01*
X103773796Y-27906036D01*
X103798071Y-27953678D01*
X103919945Y-28192869D01*
X103925216Y-28204708D01*
X104037150Y-28496307D01*
X104040575Y-28505229D01*
X104044584Y-28517565D01*
X104127905Y-28828525D01*
X104130599Y-28841201D01*
X104156329Y-29003653D01*
X104180956Y-29159140D01*
X104182313Y-29172047D01*
X104197644Y-29464565D01*
X104197699Y-29465622D01*
X104196748Y-29481158D01*
X104196748Y-29489316D01*
X104194864Y-29500000D01*
X104196748Y-29510683D01*
X104197616Y-29515606D01*
X104199500Y-29537139D01*
X104199500Y-79462861D01*
X104197616Y-79484391D01*
X104194864Y-79500000D01*
X104196748Y-79510684D01*
X104196748Y-79518842D01*
X104197699Y-79534374D01*
X104183784Y-79799876D01*
X104182313Y-79827952D01*
X104180956Y-79840860D01*
X104130599Y-80158799D01*
X104127905Y-80171475D01*
X104059400Y-80427141D01*
X104044586Y-80482428D01*
X104040577Y-80494764D01*
X103925216Y-80795292D01*
X103919945Y-80807131D01*
X103819812Y-81003653D01*
X103773796Y-81093964D01*
X103767306Y-81105204D01*
X103591991Y-81375166D01*
X103584362Y-81385667D01*
X103381779Y-81635836D01*
X103373094Y-81645481D01*
X103145481Y-81873094D01*
X103135836Y-81881779D01*
X102885667Y-82084362D01*
X102875166Y-82091991D01*
X102605204Y-82267306D01*
X102593964Y-82273796D01*
X102550027Y-82296183D01*
X102307131Y-82419945D01*
X102295292Y-82425216D01*
X101994764Y-82540577D01*
X101982435Y-82544584D01*
X101671475Y-82627905D01*
X101658799Y-82630599D01*
X101342613Y-82680678D01*
X101340860Y-82680956D01*
X101327953Y-82682313D01*
X101034374Y-82697699D01*
X101018842Y-82696748D01*
X101010684Y-82696748D01*
X101000000Y-82694864D01*
X100984391Y-82697616D01*
X100962861Y-82699500D01*
X36037139Y-82699500D01*
X36015609Y-82697616D01*
X36000000Y-82694864D01*
X35989316Y-82696748D01*
X35981158Y-82696748D01*
X35965626Y-82697699D01*
X35672047Y-82682313D01*
X35659140Y-82680956D01*
X35657387Y-82680678D01*
X35341201Y-82630599D01*
X35328525Y-82627905D01*
X35017565Y-82544584D01*
X35005236Y-82540577D01*
X34704708Y-82425216D01*
X34692869Y-82419945D01*
X34449973Y-82296183D01*
X34406036Y-82273796D01*
X34394796Y-82267306D01*
X34124834Y-82091991D01*
X34114333Y-82084362D01*
X33864164Y-81881779D01*
X33854519Y-81873094D01*
X33626906Y-81645481D01*
X33618221Y-81635836D01*
X33415638Y-81385667D01*
X33408009Y-81375166D01*
X33232694Y-81105204D01*
X33226204Y-81093964D01*
X33180188Y-81003653D01*
X33080055Y-80807131D01*
X33074784Y-80795292D01*
X32959423Y-80494764D01*
X32955414Y-80482428D01*
X32940600Y-80427141D01*
X32872095Y-80171475D01*
X32869401Y-80158799D01*
X32819044Y-79840860D01*
X32817687Y-79827952D01*
X32816216Y-79799876D01*
X32802301Y-79534374D01*
X32803252Y-79518842D01*
X32803252Y-79510684D01*
X32805136Y-79500000D01*
X32802384Y-79484391D01*
X32800500Y-79462861D01*
X32800500Y-79433789D01*
X34595996Y-79433789D01*
X34604913Y-79671295D01*
X34605990Y-79676430D01*
X34605991Y-79676435D01*
X34652464Y-79897923D01*
X34653719Y-79903904D01*
X34655648Y-79908788D01*
X34655649Y-79908792D01*
X34686657Y-79987309D01*
X34741020Y-80124963D01*
X34743741Y-80129447D01*
X34743743Y-80129451D01*
X34845594Y-80297295D01*
X34864319Y-80328153D01*
X35020090Y-80507664D01*
X35203880Y-80658362D01*
X35208441Y-80660958D01*
X35208442Y-80660959D01*
X35405875Y-80773345D01*
X35405880Y-80773347D01*
X35410433Y-80775939D01*
X35633844Y-80857034D01*
X35867725Y-80899326D01*
X35892619Y-80900500D01*
X36059680Y-80900500D01*
X36062296Y-80900278D01*
X36062297Y-80900278D01*
X36231590Y-80885913D01*
X36236823Y-80885469D01*
X36466874Y-80825760D01*
X36683576Y-80728143D01*
X36880732Y-80595409D01*
X36949298Y-80530000D01*
X42694723Y-80530000D01*
X42713793Y-80747977D01*
X42715195Y-80753209D01*
X42764292Y-80936440D01*
X42770425Y-80959330D01*
X42862898Y-81157638D01*
X42866005Y-81162075D01*
X42866006Y-81162077D01*
X42985296Y-81332442D01*
X42985300Y-81332446D01*
X42988402Y-81336877D01*
X43143123Y-81491598D01*
X43322361Y-81617102D01*
X43520670Y-81709575D01*
X43525893Y-81710974D01*
X43525897Y-81710976D01*
X43655684Y-81745752D01*
X43732023Y-81766207D01*
X43950000Y-81785277D01*
X44167977Y-81766207D01*
X44244316Y-81745752D01*
X44374103Y-81710976D01*
X44374107Y-81710974D01*
X44379330Y-81709575D01*
X44577639Y-81617102D01*
X44756877Y-81491598D01*
X44911598Y-81336877D01*
X44914700Y-81332446D01*
X44914704Y-81332442D01*
X45033994Y-81162077D01*
X45033995Y-81162075D01*
X45037102Y-81157638D01*
X45058515Y-81111718D01*
X45087618Y-81049307D01*
X45133791Y-80996868D01*
X45200984Y-80977716D01*
X45267865Y-80997932D01*
X45312382Y-81049307D01*
X45341485Y-81111718D01*
X45362898Y-81157638D01*
X45366005Y-81162075D01*
X45366006Y-81162077D01*
X45485296Y-81332442D01*
X45485300Y-81332446D01*
X45488402Y-81336877D01*
X45643123Y-81491598D01*
X45822361Y-81617102D01*
X46020670Y-81709575D01*
X46025893Y-81710974D01*
X46025897Y-81710976D01*
X46155684Y-81745752D01*
X46232023Y-81766207D01*
X46450000Y-81785277D01*
X46667977Y-81766207D01*
X46744316Y-81745752D01*
X46874103Y-81710976D01*
X46874107Y-81710974D01*
X46879330Y-81709575D01*
X47077639Y-81617102D01*
X47256877Y-81491598D01*
X47289670Y-81458805D01*
X47350993Y-81425320D01*
X47420685Y-81430304D01*
X47476618Y-81472176D01*
X47500626Y-81533094D01*
X47505803Y-81580744D01*
X47509371Y-81595753D01*
X47553817Y-81714311D01*
X47562212Y-81729646D01*
X47637516Y-81830124D01*
X47649876Y-81842484D01*
X47750354Y-81917788D01*
X47765689Y-81926183D01*
X47884247Y-81970629D01*
X47899256Y-81974197D01*
X47949331Y-81979637D01*
X47956028Y-81980000D01*
X48682170Y-81980000D01*
X48697169Y-81975596D01*
X48698356Y-81974226D01*
X48700000Y-81966668D01*
X48700000Y-81962170D01*
X49200000Y-81962170D01*
X49204404Y-81977169D01*
X49205774Y-81978356D01*
X49213332Y-81980000D01*
X49943972Y-81980000D01*
X49950669Y-81979637D01*
X50000744Y-81974197D01*
X50015753Y-81970629D01*
X50134311Y-81926183D01*
X50149646Y-81917788D01*
X50181424Y-81893972D01*
X53300000Y-81893972D01*
X53300363Y-81900669D01*
X53305803Y-81950744D01*
X53309371Y-81965753D01*
X53353817Y-82084311D01*
X53362212Y-82099646D01*
X53437516Y-82200124D01*
X53449876Y-82212484D01*
X53550354Y-82287788D01*
X53565689Y-82296183D01*
X53684247Y-82340629D01*
X53699256Y-82344197D01*
X53749331Y-82349637D01*
X53756028Y-82350000D01*
X54382170Y-82350000D01*
X54397169Y-82345596D01*
X54398356Y-82344226D01*
X54400000Y-82336668D01*
X54400000Y-82332170D01*
X54900000Y-82332170D01*
X54904404Y-82347169D01*
X54905774Y-82348356D01*
X54913332Y-82350000D01*
X55543972Y-82350000D01*
X55550669Y-82349637D01*
X55600744Y-82344197D01*
X55615753Y-82340629D01*
X55734311Y-82296183D01*
X55749646Y-82287788D01*
X55850124Y-82212484D01*
X55862484Y-82200124D01*
X55937788Y-82099646D01*
X55946183Y-82084311D01*
X55990629Y-81965753D01*
X55994197Y-81950744D01*
X55999637Y-81900669D01*
X56000000Y-81893972D01*
X56000000Y-81700070D01*
X56019685Y-81633031D01*
X56072489Y-81587276D01*
X56141647Y-81577332D01*
X56205203Y-81606357D01*
X56225263Y-81628503D01*
X56240090Y-81649483D01*
X56296744Y-81729646D01*
X56311405Y-81750391D01*
X56315476Y-81754357D01*
X56315477Y-81754358D01*
X56328125Y-81766679D01*
X56462865Y-81897937D01*
X56467588Y-81901093D01*
X56467592Y-81901096D01*
X56538663Y-81948584D01*
X56638677Y-82015411D01*
X56832953Y-82098878D01*
X56868277Y-82106871D01*
X57033638Y-82144289D01*
X57033642Y-82144290D01*
X57039186Y-82145544D01*
X57165315Y-82150500D01*
X57244789Y-82153623D01*
X57244791Y-82153623D01*
X57250470Y-82153846D01*
X57256090Y-82153031D01*
X57256092Y-82153031D01*
X57454103Y-82124320D01*
X57454104Y-82124320D01*
X57459730Y-82123504D01*
X57478588Y-82117103D01*
X57654565Y-82057367D01*
X57654568Y-82057366D01*
X57659955Y-82055537D01*
X57664916Y-82052759D01*
X57664922Y-82052756D01*
X57771530Y-81993052D01*
X57844442Y-81952219D01*
X57882165Y-81920846D01*
X58002645Y-81820644D01*
X58007012Y-81817012D01*
X58050432Y-81764805D01*
X58138584Y-81658813D01*
X58138585Y-81658811D01*
X58142219Y-81654442D01*
X58188078Y-81572556D01*
X58242756Y-81474922D01*
X58242759Y-81474916D01*
X58245537Y-81469955D01*
X58260689Y-81425320D01*
X58311675Y-81275118D01*
X58313504Y-81269730D01*
X58315954Y-81252831D01*
X58337820Y-81102033D01*
X58366921Y-81038512D01*
X58420225Y-81004346D01*
X58500974Y-81004346D01*
X58554347Y-81038736D01*
X58583296Y-81102327D01*
X58584271Y-81111707D01*
X58588796Y-81180749D01*
X58640845Y-81385690D01*
X58643219Y-81390841D01*
X58643221Y-81390845D01*
X58707681Y-81530669D01*
X58729369Y-81577714D01*
X58732647Y-81582352D01*
X58836744Y-81729646D01*
X58851405Y-81750391D01*
X58855476Y-81754357D01*
X58855477Y-81754358D01*
X58868125Y-81766679D01*
X59002865Y-81897937D01*
X59007588Y-81901093D01*
X59007592Y-81901096D01*
X59078663Y-81948584D01*
X59178677Y-82015411D01*
X59372953Y-82098878D01*
X59408277Y-82106871D01*
X59573638Y-82144289D01*
X59573642Y-82144290D01*
X59579186Y-82145544D01*
X59705315Y-82150500D01*
X59784789Y-82153623D01*
X59784791Y-82153623D01*
X59790470Y-82153846D01*
X59796090Y-82153031D01*
X59796092Y-82153031D01*
X59994103Y-82124320D01*
X59994104Y-82124320D01*
X59999730Y-82123504D01*
X60018588Y-82117103D01*
X60194565Y-82057367D01*
X60194568Y-82057366D01*
X60199955Y-82055537D01*
X60204916Y-82052759D01*
X60204922Y-82052756D01*
X60311530Y-81993052D01*
X60384442Y-81952219D01*
X60422165Y-81920846D01*
X60542645Y-81820644D01*
X60547012Y-81817012D01*
X60590432Y-81764805D01*
X60678584Y-81658813D01*
X60678585Y-81658811D01*
X60682219Y-81654442D01*
X60728078Y-81572556D01*
X60782756Y-81474922D01*
X60782759Y-81474916D01*
X60785537Y-81469955D01*
X60800689Y-81425320D01*
X60851675Y-81275118D01*
X60853504Y-81269730D01*
X60855954Y-81252831D01*
X60877820Y-81102033D01*
X60906921Y-81038512D01*
X60960225Y-81004346D01*
X61040974Y-81004346D01*
X61094347Y-81038736D01*
X61123296Y-81102327D01*
X61124271Y-81111707D01*
X61128796Y-81180749D01*
X61180845Y-81385690D01*
X61183219Y-81390841D01*
X61183221Y-81390845D01*
X61247681Y-81530669D01*
X61269369Y-81577714D01*
X61272647Y-81582352D01*
X61376744Y-81729646D01*
X61391405Y-81750391D01*
X61395476Y-81754357D01*
X61395477Y-81754358D01*
X61408125Y-81766679D01*
X61542865Y-81897937D01*
X61547588Y-81901093D01*
X61547592Y-81901096D01*
X61618663Y-81948584D01*
X61718677Y-82015411D01*
X61912953Y-82098878D01*
X61948277Y-82106871D01*
X62113638Y-82144289D01*
X62113642Y-82144290D01*
X62119186Y-82145544D01*
X62245315Y-82150500D01*
X62324789Y-82153623D01*
X62324791Y-82153623D01*
X62330470Y-82153846D01*
X62336090Y-82153031D01*
X62336092Y-82153031D01*
X62534103Y-82124320D01*
X62534104Y-82124320D01*
X62539730Y-82123504D01*
X62558588Y-82117103D01*
X62734565Y-82057367D01*
X62734568Y-82057366D01*
X62739955Y-82055537D01*
X62744916Y-82052759D01*
X62744922Y-82052756D01*
X62851530Y-81993052D01*
X62924442Y-81952219D01*
X62962165Y-81920846D01*
X63082645Y-81820644D01*
X63087012Y-81817012D01*
X63130432Y-81764805D01*
X63218584Y-81658813D01*
X63218585Y-81658811D01*
X63222219Y-81654442D01*
X63268078Y-81572556D01*
X63322756Y-81474922D01*
X63322759Y-81474916D01*
X63325537Y-81469955D01*
X63340689Y-81425320D01*
X63391675Y-81275118D01*
X63393504Y-81269730D01*
X63423846Y-81060470D01*
X63425429Y-81000000D01*
X63422650Y-80969754D01*
X65514967Y-80969754D01*
X65515338Y-80975416D01*
X65515338Y-80975420D01*
X65519488Y-81038736D01*
X65528796Y-81180749D01*
X65580845Y-81385690D01*
X65583219Y-81390841D01*
X65583221Y-81390845D01*
X65647681Y-81530669D01*
X65669369Y-81577714D01*
X65672647Y-81582352D01*
X65776744Y-81729646D01*
X65791405Y-81750391D01*
X65795476Y-81754357D01*
X65795477Y-81754358D01*
X65808125Y-81766679D01*
X65942865Y-81897937D01*
X65947588Y-81901093D01*
X65947592Y-81901096D01*
X66018663Y-81948584D01*
X66118677Y-82015411D01*
X66312953Y-82098878D01*
X66348277Y-82106871D01*
X66513638Y-82144289D01*
X66513642Y-82144290D01*
X66519186Y-82145544D01*
X66645315Y-82150500D01*
X66724789Y-82153623D01*
X66724791Y-82153623D01*
X66730470Y-82153846D01*
X66736090Y-82153031D01*
X66736092Y-82153031D01*
X66934103Y-82124320D01*
X66934104Y-82124320D01*
X66939730Y-82123504D01*
X66958588Y-82117103D01*
X67134565Y-82057367D01*
X67134568Y-82057366D01*
X67139955Y-82055537D01*
X67144916Y-82052759D01*
X67144922Y-82052756D01*
X67251530Y-81993052D01*
X67324442Y-81952219D01*
X67362165Y-81920846D01*
X67482645Y-81820644D01*
X67487012Y-81817012D01*
X67530432Y-81764805D01*
X67618584Y-81658813D01*
X67618585Y-81658811D01*
X67622219Y-81654442D01*
X67668078Y-81572556D01*
X67722756Y-81474922D01*
X67722759Y-81474916D01*
X67725537Y-81469955D01*
X67740689Y-81425320D01*
X67791675Y-81275118D01*
X67793504Y-81269730D01*
X67795954Y-81252831D01*
X67817820Y-81102033D01*
X67846921Y-81038512D01*
X67900225Y-81004346D01*
X67980974Y-81004346D01*
X68034347Y-81038736D01*
X68063296Y-81102327D01*
X68064271Y-81111707D01*
X68068796Y-81180749D01*
X68120845Y-81385690D01*
X68123219Y-81390841D01*
X68123221Y-81390845D01*
X68187681Y-81530669D01*
X68209369Y-81577714D01*
X68212647Y-81582352D01*
X68316744Y-81729646D01*
X68331405Y-81750391D01*
X68335476Y-81754357D01*
X68335477Y-81754358D01*
X68348125Y-81766679D01*
X68482865Y-81897937D01*
X68487588Y-81901093D01*
X68487592Y-81901096D01*
X68558663Y-81948584D01*
X68658677Y-82015411D01*
X68852953Y-82098878D01*
X68888277Y-82106871D01*
X69053638Y-82144289D01*
X69053642Y-82144290D01*
X69059186Y-82145544D01*
X69185315Y-82150500D01*
X69264789Y-82153623D01*
X69264791Y-82153623D01*
X69270470Y-82153846D01*
X69276090Y-82153031D01*
X69276092Y-82153031D01*
X69474103Y-82124320D01*
X69474104Y-82124320D01*
X69479730Y-82123504D01*
X69498588Y-82117103D01*
X69674565Y-82057367D01*
X69674568Y-82057366D01*
X69679955Y-82055537D01*
X69684916Y-82052759D01*
X69684922Y-82052756D01*
X69791530Y-81993052D01*
X69864442Y-81952219D01*
X69902165Y-81920846D01*
X70022645Y-81820644D01*
X70027012Y-81817012D01*
X70070432Y-81764805D01*
X70158584Y-81658813D01*
X70158585Y-81658811D01*
X70162219Y-81654442D01*
X70167812Y-81644455D01*
X70217743Y-81595583D01*
X70286171Y-81581464D01*
X70351370Y-81606581D01*
X70392640Y-81662960D01*
X70400000Y-81705046D01*
X70400000Y-81893972D01*
X70400363Y-81900669D01*
X70405803Y-81950744D01*
X70409371Y-81965753D01*
X70453817Y-82084311D01*
X70462212Y-82099646D01*
X70537516Y-82200124D01*
X70549876Y-82212484D01*
X70650354Y-82287788D01*
X70665689Y-82296183D01*
X70784247Y-82340629D01*
X70799256Y-82344197D01*
X70849331Y-82349637D01*
X70856028Y-82350000D01*
X71482170Y-82350000D01*
X71497169Y-82345596D01*
X71498356Y-82344226D01*
X71500000Y-82336668D01*
X71500000Y-82332170D01*
X72000000Y-82332170D01*
X72004404Y-82347169D01*
X72005774Y-82348356D01*
X72013332Y-82350000D01*
X72643972Y-82350000D01*
X72650669Y-82349637D01*
X72700744Y-82344197D01*
X72715753Y-82340629D01*
X72834311Y-82296183D01*
X72849646Y-82287788D01*
X72950124Y-82212484D01*
X72962484Y-82200124D01*
X73037788Y-82099646D01*
X73046183Y-82084311D01*
X73090629Y-81965753D01*
X73094197Y-81950744D01*
X73099637Y-81900669D01*
X73100000Y-81893972D01*
X74625000Y-81893972D01*
X74625363Y-81900669D01*
X74630803Y-81950744D01*
X74634371Y-81965753D01*
X74678817Y-82084311D01*
X74687212Y-82099646D01*
X74762516Y-82200124D01*
X74774876Y-82212484D01*
X74875354Y-82287788D01*
X74890689Y-82296183D01*
X75009247Y-82340629D01*
X75024256Y-82344197D01*
X75074331Y-82349637D01*
X75081028Y-82350000D01*
X75707170Y-82350000D01*
X75722169Y-82345596D01*
X75723356Y-82344226D01*
X75725000Y-82336668D01*
X75725000Y-82332170D01*
X76225000Y-82332170D01*
X76229404Y-82347169D01*
X76230774Y-82348356D01*
X76238332Y-82350000D01*
X76868972Y-82350000D01*
X76875669Y-82349637D01*
X76925744Y-82344197D01*
X76940753Y-82340629D01*
X77059311Y-82296183D01*
X77074646Y-82287788D01*
X77175124Y-82212484D01*
X77187484Y-82200124D01*
X77262788Y-82099646D01*
X77271183Y-82084311D01*
X77315629Y-81965753D01*
X77319197Y-81950744D01*
X77324637Y-81900669D01*
X77325000Y-81893972D01*
X77325000Y-81700070D01*
X77344685Y-81633031D01*
X77397489Y-81587276D01*
X77466647Y-81577332D01*
X77530203Y-81606357D01*
X77550263Y-81628503D01*
X77565090Y-81649483D01*
X77621744Y-81729646D01*
X77636405Y-81750391D01*
X77640476Y-81754357D01*
X77640477Y-81754358D01*
X77653125Y-81766679D01*
X77787865Y-81897937D01*
X77792588Y-81901093D01*
X77792592Y-81901096D01*
X77863663Y-81948584D01*
X77963677Y-82015411D01*
X78157953Y-82098878D01*
X78193277Y-82106871D01*
X78358638Y-82144289D01*
X78358642Y-82144290D01*
X78364186Y-82145544D01*
X78490315Y-82150500D01*
X78569789Y-82153623D01*
X78569791Y-82153623D01*
X78575470Y-82153846D01*
X78581090Y-82153031D01*
X78581092Y-82153031D01*
X78779103Y-82124320D01*
X78779104Y-82124320D01*
X78784730Y-82123504D01*
X78803588Y-82117103D01*
X78979565Y-82057367D01*
X78979568Y-82057366D01*
X78984955Y-82055537D01*
X78989916Y-82052759D01*
X78989922Y-82052756D01*
X79096530Y-81993052D01*
X79169442Y-81952219D01*
X79207165Y-81920846D01*
X79327645Y-81820644D01*
X79332012Y-81817012D01*
X79375432Y-81764805D01*
X79463584Y-81658813D01*
X79463585Y-81658811D01*
X79467219Y-81654442D01*
X79513078Y-81572556D01*
X79567756Y-81474922D01*
X79567759Y-81474916D01*
X79570537Y-81469955D01*
X79585689Y-81425320D01*
X79636675Y-81275118D01*
X79638504Y-81269730D01*
X79640954Y-81252831D01*
X79662820Y-81102033D01*
X79691921Y-81038512D01*
X79745225Y-81004346D01*
X79825974Y-81004346D01*
X79879347Y-81038736D01*
X79908296Y-81102327D01*
X79909271Y-81111707D01*
X79913796Y-81180749D01*
X79965845Y-81385690D01*
X79968219Y-81390841D01*
X79968221Y-81390845D01*
X80032681Y-81530669D01*
X80054369Y-81577714D01*
X80057647Y-81582352D01*
X80161744Y-81729646D01*
X80176405Y-81750391D01*
X80180476Y-81754357D01*
X80180477Y-81754358D01*
X80193125Y-81766679D01*
X80327865Y-81897937D01*
X80332588Y-81901093D01*
X80332592Y-81901096D01*
X80403663Y-81948584D01*
X80503677Y-82015411D01*
X80697953Y-82098878D01*
X80733277Y-82106871D01*
X80898638Y-82144289D01*
X80898642Y-82144290D01*
X80904186Y-82145544D01*
X81030315Y-82150500D01*
X81109789Y-82153623D01*
X81109791Y-82153623D01*
X81115470Y-82153846D01*
X81121090Y-82153031D01*
X81121092Y-82153031D01*
X81319103Y-82124320D01*
X81319104Y-82124320D01*
X81324730Y-82123504D01*
X81343588Y-82117103D01*
X81519565Y-82057367D01*
X81519568Y-82057366D01*
X81524955Y-82055537D01*
X81529916Y-82052759D01*
X81529922Y-82052756D01*
X81636530Y-81993052D01*
X81709442Y-81952219D01*
X81747165Y-81920846D01*
X81867645Y-81820644D01*
X81872012Y-81817012D01*
X81915432Y-81764805D01*
X82003584Y-81658813D01*
X82003585Y-81658811D01*
X82007219Y-81654442D01*
X82053078Y-81572556D01*
X82107756Y-81474922D01*
X82107759Y-81474916D01*
X82110537Y-81469955D01*
X82125689Y-81425320D01*
X82176675Y-81275118D01*
X82178504Y-81269730D01*
X82208846Y-81060470D01*
X82210429Y-81000000D01*
X82207650Y-80969754D01*
X87404967Y-80969754D01*
X87405338Y-80975416D01*
X87405338Y-80975420D01*
X87409488Y-81038736D01*
X87418796Y-81180749D01*
X87470845Y-81385690D01*
X87473219Y-81390841D01*
X87473221Y-81390845D01*
X87537681Y-81530669D01*
X87559369Y-81577714D01*
X87562647Y-81582352D01*
X87666744Y-81729646D01*
X87681405Y-81750391D01*
X87685476Y-81754357D01*
X87685477Y-81754358D01*
X87698125Y-81766679D01*
X87832865Y-81897937D01*
X87837588Y-81901093D01*
X87837592Y-81901096D01*
X87908663Y-81948584D01*
X88008677Y-82015411D01*
X88202953Y-82098878D01*
X88238277Y-82106871D01*
X88403638Y-82144289D01*
X88403642Y-82144290D01*
X88409186Y-82145544D01*
X88535315Y-82150500D01*
X88614789Y-82153623D01*
X88614791Y-82153623D01*
X88620470Y-82153846D01*
X88626090Y-82153031D01*
X88626092Y-82153031D01*
X88824103Y-82124320D01*
X88824104Y-82124320D01*
X88829730Y-82123504D01*
X88848588Y-82117103D01*
X89024565Y-82057367D01*
X89024568Y-82057366D01*
X89029955Y-82055537D01*
X89034916Y-82052759D01*
X89034922Y-82052756D01*
X89141530Y-81993052D01*
X89214442Y-81952219D01*
X89252165Y-81920846D01*
X89372645Y-81820644D01*
X89377012Y-81817012D01*
X89420432Y-81764805D01*
X89508584Y-81658813D01*
X89508585Y-81658811D01*
X89512219Y-81654442D01*
X89558078Y-81572556D01*
X89612756Y-81474922D01*
X89612759Y-81474916D01*
X89615537Y-81469955D01*
X89630689Y-81425320D01*
X89681675Y-81275118D01*
X89683504Y-81269730D01*
X89696406Y-81180749D01*
X89702783Y-81136769D01*
X89731884Y-81073248D01*
X89790707Y-81035543D01*
X89860577Y-81035627D01*
X89919310Y-81073471D01*
X89948259Y-81137061D01*
X89949500Y-81154562D01*
X89949500Y-81894646D01*
X89952618Y-81920846D01*
X89998061Y-82023153D01*
X90077287Y-82102241D01*
X90087758Y-82106870D01*
X90087759Y-82106871D01*
X90171147Y-82143737D01*
X90171149Y-82143738D01*
X90179673Y-82147506D01*
X90205354Y-82150500D01*
X91994646Y-82150500D01*
X91998300Y-82150065D01*
X91998302Y-82150065D01*
X92003266Y-82149474D01*
X92020846Y-82147382D01*
X92123153Y-82101939D01*
X92202241Y-82022713D01*
X92206871Y-82012241D01*
X92243737Y-81928853D01*
X92243738Y-81928851D01*
X92247506Y-81920327D01*
X92250500Y-81894646D01*
X92250500Y-80105354D01*
X92247382Y-80079154D01*
X92201939Y-79976847D01*
X92122713Y-79897759D01*
X92112242Y-79893130D01*
X92112241Y-79893129D01*
X92028853Y-79856263D01*
X92028851Y-79856262D01*
X92020327Y-79852494D01*
X91994646Y-79849500D01*
X90205354Y-79849500D01*
X90201700Y-79849935D01*
X90201698Y-79849935D01*
X90196734Y-79850526D01*
X90179154Y-79852618D01*
X90076847Y-79898061D01*
X89997759Y-79977287D01*
X89993130Y-79987758D01*
X89993129Y-79987759D01*
X89958876Y-80065238D01*
X89952494Y-80079673D01*
X89949500Y-80105354D01*
X89949500Y-80842727D01*
X89929815Y-80909766D01*
X89877011Y-80955521D01*
X89807853Y-80965465D01*
X89744297Y-80936440D01*
X89706523Y-80877662D01*
X89702020Y-80854073D01*
X89699220Y-80823603D01*
X89696081Y-80789440D01*
X89638686Y-80585931D01*
X89545165Y-80396290D01*
X89418651Y-80226867D01*
X89414481Y-80223012D01*
X89414478Y-80223009D01*
X89313267Y-80129451D01*
X89263381Y-80083337D01*
X89257574Y-80079673D01*
X89089363Y-79973539D01*
X89089361Y-79973538D01*
X89084554Y-79970505D01*
X88888160Y-79892152D01*
X88882579Y-79891042D01*
X88882576Y-79891041D01*
X88784467Y-79871526D01*
X88680775Y-79850901D01*
X88675088Y-79850827D01*
X88675083Y-79850826D01*
X88475034Y-79848207D01*
X88475029Y-79848207D01*
X88469346Y-79848133D01*
X88463742Y-79849096D01*
X88463741Y-79849096D01*
X88266550Y-79882979D01*
X88266547Y-79882980D01*
X88260953Y-79883941D01*
X88062575Y-79957127D01*
X88057697Y-79960029D01*
X88057695Y-79960030D01*
X87885740Y-80062332D01*
X87885737Y-80062334D01*
X87880856Y-80065238D01*
X87721881Y-80204655D01*
X87718362Y-80209119D01*
X87718359Y-80209122D01*
X87690171Y-80244879D01*
X87590976Y-80370708D01*
X87492523Y-80557836D01*
X87490837Y-80563267D01*
X87490835Y-80563271D01*
X87440552Y-80725209D01*
X87429820Y-80759773D01*
X87429152Y-80765418D01*
X87429151Y-80765422D01*
X87418659Y-80854073D01*
X87404967Y-80969754D01*
X82207650Y-80969754D01*
X82191081Y-80789440D01*
X82133686Y-80585931D01*
X82040165Y-80396290D01*
X81913651Y-80226867D01*
X81909481Y-80223012D01*
X81909478Y-80223009D01*
X81808267Y-80129451D01*
X81758381Y-80083337D01*
X81752574Y-80079673D01*
X81584363Y-79973539D01*
X81584361Y-79973538D01*
X81579554Y-79970505D01*
X81383160Y-79892152D01*
X81377579Y-79891042D01*
X81377576Y-79891041D01*
X81279467Y-79871526D01*
X81175775Y-79850901D01*
X81170088Y-79850827D01*
X81170083Y-79850826D01*
X80970034Y-79848207D01*
X80970029Y-79848207D01*
X80964346Y-79848133D01*
X80958742Y-79849096D01*
X80958741Y-79849096D01*
X80761550Y-79882979D01*
X80761547Y-79882980D01*
X80755953Y-79883941D01*
X80557575Y-79957127D01*
X80552697Y-79960029D01*
X80552695Y-79960030D01*
X80380740Y-80062332D01*
X80380737Y-80062334D01*
X80375856Y-80065238D01*
X80216881Y-80204655D01*
X80213362Y-80209119D01*
X80213359Y-80209122D01*
X80185171Y-80244879D01*
X80085976Y-80370708D01*
X79987523Y-80557836D01*
X79985837Y-80563267D01*
X79985835Y-80563271D01*
X79935552Y-80725209D01*
X79924820Y-80759773D01*
X79907851Y-80903140D01*
X79880425Y-80967398D01*
X79825974Y-81004346D01*
X79745225Y-81004346D01*
X79745667Y-81004063D01*
X79693057Y-80972081D01*
X79662453Y-80909271D01*
X79661232Y-80899909D01*
X79654220Y-80823603D01*
X79651081Y-80789440D01*
X79593686Y-80585931D01*
X79500165Y-80396290D01*
X79373651Y-80226867D01*
X79369481Y-80223012D01*
X79369478Y-80223009D01*
X79268267Y-80129451D01*
X79218381Y-80083337D01*
X79212574Y-80079673D01*
X79044363Y-79973539D01*
X79044361Y-79973538D01*
X79039554Y-79970505D01*
X78843160Y-79892152D01*
X78837579Y-79891042D01*
X78837576Y-79891041D01*
X78739467Y-79871526D01*
X78635775Y-79850901D01*
X78630088Y-79850827D01*
X78630083Y-79850826D01*
X78430034Y-79848207D01*
X78430029Y-79848207D01*
X78424346Y-79848133D01*
X78418742Y-79849096D01*
X78418741Y-79849096D01*
X78221550Y-79882979D01*
X78221547Y-79882980D01*
X78215953Y-79883941D01*
X78017575Y-79957127D01*
X78012697Y-79960029D01*
X78012695Y-79960030D01*
X77840740Y-80062332D01*
X77840737Y-80062334D01*
X77835856Y-80065238D01*
X77676881Y-80204655D01*
X77546377Y-80370199D01*
X77489417Y-80410658D01*
X77419623Y-80413900D01*
X77359155Y-80378893D01*
X77327213Y-80316753D01*
X77325000Y-80293430D01*
X77325000Y-80106028D01*
X77324637Y-80099331D01*
X77319197Y-80049256D01*
X77315629Y-80034247D01*
X77271183Y-79915689D01*
X77262788Y-79900354D01*
X77187484Y-79799876D01*
X77175124Y-79787516D01*
X77074646Y-79712212D01*
X77059311Y-79703817D01*
X76940753Y-79659371D01*
X76925744Y-79655803D01*
X76875669Y-79650363D01*
X76868972Y-79650000D01*
X76242830Y-79650000D01*
X76227831Y-79654404D01*
X76226644Y-79655774D01*
X76225000Y-79663332D01*
X76225000Y-82332170D01*
X75725000Y-82332170D01*
X75725000Y-81267830D01*
X75720596Y-81252831D01*
X75719226Y-81251644D01*
X75711668Y-81250000D01*
X74642830Y-81250000D01*
X74627831Y-81254404D01*
X74626644Y-81255774D01*
X74625000Y-81263332D01*
X74625000Y-81893972D01*
X73100000Y-81893972D01*
X73100000Y-81267830D01*
X73095596Y-81252831D01*
X73094226Y-81251644D01*
X73086668Y-81250000D01*
X72017830Y-81250000D01*
X72002831Y-81254404D01*
X72001644Y-81255774D01*
X72000000Y-81263332D01*
X72000000Y-82332170D01*
X71500000Y-82332170D01*
X71500000Y-80732170D01*
X72000000Y-80732170D01*
X72004404Y-80747169D01*
X72005774Y-80748356D01*
X72013332Y-80750000D01*
X73082170Y-80750000D01*
X73097169Y-80745596D01*
X73098356Y-80744226D01*
X73100000Y-80736668D01*
X73100000Y-80732170D01*
X74625000Y-80732170D01*
X74629404Y-80747169D01*
X74630774Y-80748356D01*
X74638332Y-80750000D01*
X75707170Y-80750000D01*
X75722169Y-80745596D01*
X75723356Y-80744226D01*
X75725000Y-80736668D01*
X75725000Y-79667830D01*
X75720596Y-79652831D01*
X75719226Y-79651644D01*
X75711668Y-79650000D01*
X75081028Y-79650000D01*
X75074331Y-79650363D01*
X75024256Y-79655803D01*
X75009247Y-79659371D01*
X74890689Y-79703817D01*
X74875354Y-79712212D01*
X74774876Y-79787516D01*
X74762516Y-79799876D01*
X74687212Y-79900354D01*
X74678817Y-79915689D01*
X74634371Y-80034247D01*
X74630803Y-80049256D01*
X74625363Y-80099331D01*
X74625000Y-80106028D01*
X74625000Y-80732170D01*
X73100000Y-80732170D01*
X73100000Y-80106028D01*
X73099637Y-80099331D01*
X73094197Y-80049256D01*
X73090629Y-80034247D01*
X73046183Y-79915689D01*
X73037788Y-79900354D01*
X72962484Y-79799876D01*
X72950124Y-79787516D01*
X72849646Y-79712212D01*
X72834311Y-79703817D01*
X72715753Y-79659371D01*
X72700744Y-79655803D01*
X72650669Y-79650363D01*
X72643972Y-79650000D01*
X72017830Y-79650000D01*
X72002831Y-79654404D01*
X72001644Y-79655774D01*
X72000000Y-79663332D01*
X72000000Y-80732170D01*
X71500000Y-80732170D01*
X71500000Y-79667830D01*
X71495596Y-79652831D01*
X71494226Y-79651644D01*
X71486668Y-79650000D01*
X70856028Y-79650000D01*
X70849331Y-79650363D01*
X70799256Y-79655803D01*
X70784247Y-79659371D01*
X70665689Y-79703817D01*
X70650354Y-79712212D01*
X70549876Y-79787516D01*
X70537516Y-79799876D01*
X70462212Y-79900354D01*
X70453817Y-79915689D01*
X70409371Y-80034247D01*
X70405803Y-80049256D01*
X70400363Y-80099331D01*
X70400000Y-80106028D01*
X70400000Y-80297295D01*
X70380315Y-80364334D01*
X70327511Y-80410089D01*
X70258353Y-80420033D01*
X70194797Y-80391008D01*
X70176645Y-80371487D01*
X70072056Y-80231426D01*
X70072050Y-80231419D01*
X70068651Y-80226867D01*
X70064481Y-80223012D01*
X70064478Y-80223009D01*
X69963267Y-80129451D01*
X69913381Y-80083337D01*
X69907574Y-80079673D01*
X69739363Y-79973539D01*
X69739361Y-79973538D01*
X69734554Y-79970505D01*
X69538160Y-79892152D01*
X69532579Y-79891042D01*
X69532576Y-79891041D01*
X69434467Y-79871526D01*
X69330775Y-79850901D01*
X69325088Y-79850827D01*
X69325083Y-79850826D01*
X69125034Y-79848207D01*
X69125029Y-79848207D01*
X69119346Y-79848133D01*
X69113742Y-79849096D01*
X69113741Y-79849096D01*
X68916550Y-79882979D01*
X68916547Y-79882980D01*
X68910953Y-79883941D01*
X68712575Y-79957127D01*
X68707697Y-79960029D01*
X68707695Y-79960030D01*
X68535740Y-80062332D01*
X68535737Y-80062334D01*
X68530856Y-80065238D01*
X68371881Y-80204655D01*
X68368362Y-80209119D01*
X68368359Y-80209122D01*
X68340171Y-80244879D01*
X68240976Y-80370708D01*
X68142523Y-80557836D01*
X68140837Y-80563267D01*
X68140835Y-80563271D01*
X68090552Y-80725209D01*
X68079820Y-80759773D01*
X68062851Y-80903140D01*
X68035425Y-80967398D01*
X67980974Y-81004346D01*
X67900225Y-81004346D01*
X67900667Y-81004063D01*
X67848057Y-80972081D01*
X67817453Y-80909271D01*
X67816232Y-80899909D01*
X67809220Y-80823603D01*
X67806081Y-80789440D01*
X67748686Y-80585931D01*
X67655165Y-80396290D01*
X67528651Y-80226867D01*
X67524481Y-80223012D01*
X67524478Y-80223009D01*
X67423267Y-80129451D01*
X67373381Y-80083337D01*
X67367574Y-80079673D01*
X67199363Y-79973539D01*
X67199361Y-79973538D01*
X67194554Y-79970505D01*
X66998160Y-79892152D01*
X66992579Y-79891042D01*
X66992576Y-79891041D01*
X66894467Y-79871526D01*
X66790775Y-79850901D01*
X66785088Y-79850827D01*
X66785083Y-79850826D01*
X66585034Y-79848207D01*
X66585029Y-79848207D01*
X66579346Y-79848133D01*
X66573742Y-79849096D01*
X66573741Y-79849096D01*
X66376550Y-79882979D01*
X66376547Y-79882980D01*
X66370953Y-79883941D01*
X66172575Y-79957127D01*
X66167697Y-79960029D01*
X66167695Y-79960030D01*
X65995740Y-80062332D01*
X65995737Y-80062334D01*
X65990856Y-80065238D01*
X65831881Y-80204655D01*
X65828362Y-80209119D01*
X65828359Y-80209122D01*
X65800171Y-80244879D01*
X65700976Y-80370708D01*
X65602523Y-80557836D01*
X65600837Y-80563267D01*
X65600835Y-80563271D01*
X65550552Y-80725209D01*
X65539820Y-80759773D01*
X65539152Y-80765418D01*
X65539151Y-80765422D01*
X65528659Y-80854073D01*
X65514967Y-80969754D01*
X63422650Y-80969754D01*
X63406081Y-80789440D01*
X63348686Y-80585931D01*
X63255165Y-80396290D01*
X63128651Y-80226867D01*
X63124481Y-80223012D01*
X63124478Y-80223009D01*
X63023267Y-80129451D01*
X62973381Y-80083337D01*
X62967574Y-80079673D01*
X62799363Y-79973539D01*
X62799361Y-79973538D01*
X62794554Y-79970505D01*
X62598160Y-79892152D01*
X62592579Y-79891042D01*
X62592576Y-79891041D01*
X62494467Y-79871526D01*
X62390775Y-79850901D01*
X62385088Y-79850827D01*
X62385083Y-79850826D01*
X62185034Y-79848207D01*
X62185029Y-79848207D01*
X62179346Y-79848133D01*
X62173742Y-79849096D01*
X62173741Y-79849096D01*
X61976550Y-79882979D01*
X61976547Y-79882980D01*
X61970953Y-79883941D01*
X61772575Y-79957127D01*
X61767697Y-79960029D01*
X61767695Y-79960030D01*
X61595740Y-80062332D01*
X61595737Y-80062334D01*
X61590856Y-80065238D01*
X61431881Y-80204655D01*
X61428362Y-80209119D01*
X61428359Y-80209122D01*
X61400171Y-80244879D01*
X61300976Y-80370708D01*
X61202523Y-80557836D01*
X61200837Y-80563267D01*
X61200835Y-80563271D01*
X61150552Y-80725209D01*
X61139820Y-80759773D01*
X61122851Y-80903140D01*
X61095425Y-80967398D01*
X61040974Y-81004346D01*
X60960225Y-81004346D01*
X60960667Y-81004063D01*
X60908057Y-80972081D01*
X60877453Y-80909271D01*
X60876232Y-80899909D01*
X60869220Y-80823603D01*
X60866081Y-80789440D01*
X60808686Y-80585931D01*
X60715165Y-80396290D01*
X60588651Y-80226867D01*
X60584481Y-80223012D01*
X60584478Y-80223009D01*
X60483267Y-80129451D01*
X60433381Y-80083337D01*
X60427574Y-80079673D01*
X60259363Y-79973539D01*
X60259361Y-79973538D01*
X60254554Y-79970505D01*
X60058160Y-79892152D01*
X60052579Y-79891042D01*
X60052576Y-79891041D01*
X59954467Y-79871526D01*
X59850775Y-79850901D01*
X59845088Y-79850827D01*
X59845083Y-79850826D01*
X59645034Y-79848207D01*
X59645029Y-79848207D01*
X59639346Y-79848133D01*
X59633742Y-79849096D01*
X59633741Y-79849096D01*
X59436550Y-79882979D01*
X59436547Y-79882980D01*
X59430953Y-79883941D01*
X59232575Y-79957127D01*
X59227697Y-79960029D01*
X59227695Y-79960030D01*
X59055740Y-80062332D01*
X59055737Y-80062334D01*
X59050856Y-80065238D01*
X58891881Y-80204655D01*
X58888362Y-80209119D01*
X58888359Y-80209122D01*
X58860171Y-80244879D01*
X58760976Y-80370708D01*
X58662523Y-80557836D01*
X58660837Y-80563267D01*
X58660835Y-80563271D01*
X58610552Y-80725209D01*
X58599820Y-80759773D01*
X58582851Y-80903140D01*
X58555425Y-80967398D01*
X58500974Y-81004346D01*
X58420225Y-81004346D01*
X58420667Y-81004063D01*
X58368057Y-80972081D01*
X58337453Y-80909271D01*
X58336232Y-80899909D01*
X58329220Y-80823603D01*
X58326081Y-80789440D01*
X58268686Y-80585931D01*
X58175165Y-80396290D01*
X58048651Y-80226867D01*
X58044481Y-80223012D01*
X58044478Y-80223009D01*
X57943267Y-80129451D01*
X57893381Y-80083337D01*
X57887574Y-80079673D01*
X57719363Y-79973539D01*
X57719361Y-79973538D01*
X57714554Y-79970505D01*
X57518160Y-79892152D01*
X57512579Y-79891042D01*
X57512576Y-79891041D01*
X57414467Y-79871526D01*
X57310775Y-79850901D01*
X57305088Y-79850827D01*
X57305083Y-79850826D01*
X57105034Y-79848207D01*
X57105029Y-79848207D01*
X57099346Y-79848133D01*
X57093742Y-79849096D01*
X57093741Y-79849096D01*
X56896550Y-79882979D01*
X56896547Y-79882980D01*
X56890953Y-79883941D01*
X56692575Y-79957127D01*
X56687697Y-79960029D01*
X56687695Y-79960030D01*
X56515740Y-80062332D01*
X56515737Y-80062334D01*
X56510856Y-80065238D01*
X56351881Y-80204655D01*
X56221377Y-80370199D01*
X56164417Y-80410658D01*
X56094623Y-80413900D01*
X56034155Y-80378893D01*
X56002213Y-80316753D01*
X56000000Y-80293430D01*
X56000000Y-80106028D01*
X55999637Y-80099331D01*
X55994197Y-80049256D01*
X55990629Y-80034247D01*
X55946183Y-79915689D01*
X55937788Y-79900354D01*
X55862484Y-79799876D01*
X55850124Y-79787516D01*
X55749646Y-79712212D01*
X55734311Y-79703817D01*
X55615753Y-79659371D01*
X55600744Y-79655803D01*
X55550669Y-79650363D01*
X55543972Y-79650000D01*
X54917830Y-79650000D01*
X54902831Y-79654404D01*
X54901644Y-79655774D01*
X54900000Y-79663332D01*
X54900000Y-82332170D01*
X54400000Y-82332170D01*
X54400000Y-81267830D01*
X54395596Y-81252831D01*
X54394226Y-81251644D01*
X54386668Y-81250000D01*
X53317830Y-81250000D01*
X53302831Y-81254404D01*
X53301644Y-81255774D01*
X53300000Y-81263332D01*
X53300000Y-81893972D01*
X50181424Y-81893972D01*
X50250124Y-81842484D01*
X50262484Y-81830124D01*
X50337788Y-81729646D01*
X50346183Y-81714311D01*
X50390629Y-81595753D01*
X50394197Y-81580744D01*
X50399637Y-81530669D01*
X50400000Y-81523972D01*
X50400000Y-80797830D01*
X50395596Y-80782831D01*
X50394226Y-80781644D01*
X50386668Y-80780000D01*
X49217830Y-80780000D01*
X49202831Y-80784404D01*
X49201644Y-80785774D01*
X49200000Y-80793332D01*
X49200000Y-81962170D01*
X48700000Y-81962170D01*
X48700000Y-80732170D01*
X53300000Y-80732170D01*
X53304404Y-80747169D01*
X53305774Y-80748356D01*
X53313332Y-80750000D01*
X54382170Y-80750000D01*
X54397169Y-80745596D01*
X54398356Y-80744226D01*
X54400000Y-80736668D01*
X54400000Y-79667830D01*
X54395596Y-79652831D01*
X54394226Y-79651644D01*
X54386668Y-79650000D01*
X53756028Y-79650000D01*
X53749331Y-79650363D01*
X53699256Y-79655803D01*
X53684247Y-79659371D01*
X53565689Y-79703817D01*
X53550354Y-79712212D01*
X53449876Y-79787516D01*
X53437516Y-79799876D01*
X53362212Y-79900354D01*
X53353817Y-79915689D01*
X53309371Y-80034247D01*
X53305803Y-80049256D01*
X53300363Y-80099331D01*
X53300000Y-80106028D01*
X53300000Y-80732170D01*
X48700000Y-80732170D01*
X48700000Y-80262170D01*
X49200000Y-80262170D01*
X49204404Y-80277169D01*
X49205774Y-80278356D01*
X49213332Y-80280000D01*
X50382170Y-80280000D01*
X50397169Y-80275596D01*
X50398356Y-80274226D01*
X50400000Y-80266668D01*
X50400000Y-79536028D01*
X50399637Y-79529331D01*
X50394197Y-79479256D01*
X50390629Y-79464247D01*
X50379211Y-79433789D01*
X99595996Y-79433789D01*
X99604913Y-79671295D01*
X99605990Y-79676430D01*
X99605991Y-79676435D01*
X99652464Y-79897923D01*
X99653719Y-79903904D01*
X99655648Y-79908788D01*
X99655649Y-79908792D01*
X99686657Y-79987309D01*
X99741020Y-80124963D01*
X99743741Y-80129447D01*
X99743743Y-80129451D01*
X99845594Y-80297295D01*
X99864319Y-80328153D01*
X100020090Y-80507664D01*
X100203880Y-80658362D01*
X100208441Y-80660958D01*
X100208442Y-80660959D01*
X100405875Y-80773345D01*
X100405880Y-80773347D01*
X100410433Y-80775939D01*
X100633844Y-80857034D01*
X100867725Y-80899326D01*
X100892619Y-80900500D01*
X101059680Y-80900500D01*
X101062296Y-80900278D01*
X101062297Y-80900278D01*
X101231590Y-80885913D01*
X101236823Y-80885469D01*
X101466874Y-80825760D01*
X101683576Y-80728143D01*
X101880732Y-80595409D01*
X102052705Y-80431355D01*
X102194579Y-80240670D01*
X102199279Y-80231426D01*
X102299913Y-80033493D01*
X102299915Y-80033488D01*
X102302295Y-80028807D01*
X102315181Y-79987309D01*
X102371215Y-79806848D01*
X102372775Y-79801824D01*
X102373466Y-79796612D01*
X102403315Y-79571412D01*
X102403315Y-79571408D01*
X102404004Y-79566211D01*
X102395988Y-79352713D01*
X102395284Y-79333949D01*
X102395284Y-79333948D01*
X102395087Y-79328705D01*
X102371758Y-79217516D01*
X102347361Y-79101242D01*
X102347360Y-79101239D01*
X102346281Y-79096096D01*
X102343626Y-79089371D01*
X102260908Y-78879920D01*
X102258980Y-78875037D01*
X102191607Y-78764009D01*
X102138408Y-78676341D01*
X102135681Y-78671847D01*
X101979910Y-78492336D01*
X101796120Y-78341638D01*
X101678687Y-78274791D01*
X101594125Y-78226655D01*
X101594120Y-78226653D01*
X101589567Y-78224061D01*
X101366156Y-78142966D01*
X101132275Y-78100674D01*
X101107381Y-78099500D01*
X100940320Y-78099500D01*
X100937704Y-78099722D01*
X100937703Y-78099722D01*
X100926484Y-78100674D01*
X100763177Y-78114531D01*
X100533126Y-78174240D01*
X100316424Y-78271857D01*
X100119268Y-78404591D01*
X99947295Y-78568645D01*
X99805421Y-78759330D01*
X99803042Y-78764008D01*
X99803042Y-78764009D01*
X99748875Y-78870549D01*
X99697705Y-78971193D01*
X99696146Y-78976213D01*
X99696145Y-78976216D01*
X99662552Y-79084404D01*
X99627225Y-79198176D01*
X99626534Y-79203386D01*
X99626534Y-79203388D01*
X99609706Y-79330354D01*
X99595996Y-79433789D01*
X50379211Y-79433789D01*
X50346183Y-79345689D01*
X50337788Y-79330354D01*
X50262484Y-79229876D01*
X50250124Y-79217516D01*
X50149646Y-79142212D01*
X50134311Y-79133817D01*
X50015753Y-79089371D01*
X50000744Y-79085803D01*
X49950669Y-79080363D01*
X49943972Y-79080000D01*
X49217830Y-79080000D01*
X49202831Y-79084404D01*
X49201644Y-79085774D01*
X49200000Y-79093332D01*
X49200000Y-80262170D01*
X48700000Y-80262170D01*
X48700000Y-79097830D01*
X48695596Y-79082831D01*
X48694226Y-79081644D01*
X48686668Y-79080000D01*
X47956028Y-79080000D01*
X47949331Y-79080363D01*
X47899256Y-79085803D01*
X47884247Y-79089371D01*
X47765689Y-79133817D01*
X47750354Y-79142212D01*
X47649876Y-79217516D01*
X47637516Y-79229876D01*
X47562212Y-79330354D01*
X47553817Y-79345689D01*
X47509371Y-79464247D01*
X47505803Y-79479256D01*
X47500626Y-79526906D01*
X47473816Y-79591427D01*
X47416379Y-79631212D01*
X47346552Y-79633628D01*
X47289670Y-79601195D01*
X47256877Y-79568402D01*
X47077639Y-79442898D01*
X46879330Y-79350425D01*
X46874107Y-79349026D01*
X46874103Y-79349024D01*
X46673209Y-79295195D01*
X46673210Y-79295195D01*
X46667977Y-79293793D01*
X46450000Y-79274723D01*
X46232023Y-79293793D01*
X46226790Y-79295195D01*
X46226791Y-79295195D01*
X46025897Y-79349024D01*
X46025893Y-79349026D01*
X46020670Y-79350425D01*
X45822362Y-79442898D01*
X45817925Y-79446005D01*
X45817923Y-79446006D01*
X45647558Y-79565296D01*
X45647557Y-79565297D01*
X45643123Y-79568402D01*
X45488402Y-79723123D01*
X45485300Y-79727554D01*
X45485296Y-79727558D01*
X45366121Y-79897759D01*
X45362898Y-79902362D01*
X45350092Y-79929824D01*
X45312382Y-80010693D01*
X45266209Y-80063132D01*
X45199016Y-80082284D01*
X45132135Y-80062068D01*
X45087618Y-80010693D01*
X45049908Y-79929824D01*
X45037102Y-79902362D01*
X45033879Y-79897759D01*
X44914704Y-79727558D01*
X44914700Y-79727554D01*
X44911598Y-79723123D01*
X44756877Y-79568402D01*
X44577639Y-79442898D01*
X44379330Y-79350425D01*
X44374107Y-79349026D01*
X44374103Y-79349024D01*
X44173209Y-79295195D01*
X44173210Y-79295195D01*
X44167977Y-79293793D01*
X43950000Y-79274723D01*
X43732023Y-79293793D01*
X43726790Y-79295195D01*
X43726791Y-79295195D01*
X43525897Y-79349024D01*
X43525893Y-79349026D01*
X43520670Y-79350425D01*
X43322362Y-79442898D01*
X43317925Y-79446005D01*
X43317923Y-79446006D01*
X43147558Y-79565296D01*
X43147557Y-79565297D01*
X43143123Y-79568402D01*
X42988402Y-79723123D01*
X42985300Y-79727554D01*
X42985296Y-79727558D01*
X42866121Y-79897759D01*
X42862898Y-79902362D01*
X42770425Y-80100670D01*
X42769026Y-80105893D01*
X42769024Y-80105897D01*
X42735391Y-80231419D01*
X42713793Y-80312023D01*
X42694723Y-80530000D01*
X36949298Y-80530000D01*
X37052705Y-80431355D01*
X37194579Y-80240670D01*
X37199279Y-80231426D01*
X37299913Y-80033493D01*
X37299915Y-80033488D01*
X37302295Y-80028807D01*
X37315181Y-79987309D01*
X37371215Y-79806848D01*
X37372775Y-79801824D01*
X37373466Y-79796612D01*
X37403315Y-79571412D01*
X37403315Y-79571408D01*
X37404004Y-79566211D01*
X37395988Y-79352713D01*
X37395284Y-79333949D01*
X37395284Y-79333948D01*
X37395087Y-79328705D01*
X37371758Y-79217516D01*
X37347361Y-79101242D01*
X37347360Y-79101239D01*
X37346281Y-79096096D01*
X37343626Y-79089371D01*
X37260908Y-78879920D01*
X37258980Y-78875037D01*
X37191607Y-78764009D01*
X37138408Y-78676341D01*
X37135681Y-78671847D01*
X36979910Y-78492336D01*
X36796120Y-78341638D01*
X36678687Y-78274791D01*
X36594125Y-78226655D01*
X36594120Y-78226653D01*
X36589567Y-78224061D01*
X36366156Y-78142966D01*
X36132275Y-78100674D01*
X36107381Y-78099500D01*
X35940320Y-78099500D01*
X35937704Y-78099722D01*
X35937703Y-78099722D01*
X35926484Y-78100674D01*
X35763177Y-78114531D01*
X35533126Y-78174240D01*
X35316424Y-78271857D01*
X35119268Y-78404591D01*
X34947295Y-78568645D01*
X34805421Y-78759330D01*
X34803042Y-78764008D01*
X34803042Y-78764009D01*
X34748875Y-78870549D01*
X34697705Y-78971193D01*
X34696146Y-78976213D01*
X34696145Y-78976216D01*
X34662552Y-79084404D01*
X34627225Y-79198176D01*
X34626534Y-79203386D01*
X34626534Y-79203388D01*
X34609706Y-79330354D01*
X34595996Y-79433789D01*
X32800500Y-79433789D01*
X32800500Y-74583214D01*
X33494806Y-74583214D01*
X33509010Y-74829545D01*
X33532247Y-74932655D01*
X33545759Y-74992611D01*
X33563255Y-75070249D01*
X33656084Y-75298861D01*
X33658746Y-75303205D01*
X33782344Y-75504898D01*
X33782348Y-75504903D01*
X33785006Y-75509241D01*
X33788338Y-75513087D01*
X33788339Y-75513089D01*
X33919000Y-75663928D01*
X33946557Y-75695741D01*
X33950467Y-75698988D01*
X33950471Y-75698991D01*
X34036007Y-75770004D01*
X34136399Y-75853351D01*
X34238967Y-75913287D01*
X34345036Y-75975269D01*
X34345040Y-75975271D01*
X34349433Y-75977838D01*
X34579939Y-76065859D01*
X34700832Y-76090455D01*
X34816741Y-76114038D01*
X34816744Y-76114038D01*
X34821726Y-76115052D01*
X34983367Y-76120979D01*
X35063221Y-76123907D01*
X35063224Y-76123907D01*
X35068300Y-76124093D01*
X35313041Y-76092741D01*
X35402644Y-76065859D01*
X35544502Y-76023300D01*
X35544506Y-76023299D01*
X35549374Y-76021838D01*
X35770954Y-75913287D01*
X35775099Y-75910330D01*
X35775103Y-75910328D01*
X35967686Y-75772959D01*
X35971829Y-75770004D01*
X36146605Y-75595837D01*
X36290588Y-75395463D01*
X36376653Y-75221324D01*
X36397654Y-75178831D01*
X36397655Y-75178830D01*
X36399911Y-75174264D01*
X36471639Y-74938180D01*
X36500869Y-74716156D01*
X42621420Y-74716156D01*
X42621791Y-74721818D01*
X42621791Y-74721822D01*
X42623402Y-74746402D01*
X42635249Y-74927151D01*
X42687298Y-75132092D01*
X42689672Y-75137243D01*
X42689674Y-75137247D01*
X42728434Y-75221324D01*
X42775822Y-75324116D01*
X42787010Y-75339947D01*
X42887748Y-75482487D01*
X42897858Y-75496793D01*
X43049318Y-75644339D01*
X43054041Y-75647495D01*
X43054045Y-75647498D01*
X43132785Y-75700110D01*
X43225130Y-75761813D01*
X43419406Y-75845280D01*
X43440703Y-75850099D01*
X43620091Y-75890691D01*
X43620095Y-75890692D01*
X43625639Y-75891946D01*
X43752104Y-75896915D01*
X43831242Y-75900025D01*
X43831244Y-75900025D01*
X43836923Y-75900248D01*
X43842543Y-75899433D01*
X43842545Y-75899433D01*
X44040556Y-75870722D01*
X44040557Y-75870722D01*
X44046183Y-75869906D01*
X44125343Y-75843035D01*
X44241018Y-75803769D01*
X44241021Y-75803768D01*
X44246408Y-75801939D01*
X44251369Y-75799161D01*
X44251375Y-75799158D01*
X44357983Y-75739454D01*
X44430895Y-75698621D01*
X44486324Y-75652522D01*
X44589098Y-75567046D01*
X44593465Y-75563414D01*
X44642132Y-75504898D01*
X44725037Y-75405215D01*
X44725038Y-75405213D01*
X44728672Y-75400844D01*
X44783353Y-75303205D01*
X44829209Y-75221324D01*
X44829212Y-75221318D01*
X44831990Y-75216357D01*
X44843438Y-75182634D01*
X44898128Y-75021520D01*
X44899957Y-75016132D01*
X44903368Y-74992611D01*
X59294394Y-74992611D01*
X59295214Y-75000039D01*
X59295214Y-75000041D01*
X59302417Y-75065285D01*
X59312999Y-75161135D01*
X59315565Y-75168147D01*
X59315566Y-75168151D01*
X59335025Y-75221324D01*
X59371266Y-75320356D01*
X59375433Y-75326558D01*
X59375435Y-75326561D01*
X59436421Y-75417317D01*
X59465830Y-75461083D01*
X59471360Y-75466115D01*
X59585702Y-75570159D01*
X59585706Y-75570162D01*
X59591233Y-75575191D01*
X59740235Y-75656092D01*
X59835585Y-75681107D01*
X59897005Y-75697220D01*
X59897007Y-75697220D01*
X59904233Y-75699116D01*
X59987178Y-75700419D01*
X60066290Y-75701662D01*
X60066293Y-75701662D01*
X60073760Y-75701779D01*
X60196209Y-75673735D01*
X60231738Y-75665598D01*
X60231739Y-75665598D01*
X60239029Y-75663928D01*
X60390498Y-75587747D01*
X60418035Y-75564228D01*
X60481794Y-75535659D01*
X60550880Y-75546096D01*
X60582011Y-75566800D01*
X60591233Y-75575191D01*
X60597802Y-75578758D01*
X60597804Y-75578759D01*
X60614358Y-75587747D01*
X60740235Y-75656092D01*
X60835585Y-75681107D01*
X60897005Y-75697220D01*
X60897007Y-75697220D01*
X60904233Y-75699116D01*
X60987178Y-75700419D01*
X61066290Y-75701662D01*
X61066293Y-75701662D01*
X61073760Y-75701779D01*
X61196209Y-75673735D01*
X61231738Y-75665598D01*
X61231739Y-75665598D01*
X61239029Y-75663928D01*
X61374413Y-75595837D01*
X61383820Y-75591106D01*
X61383823Y-75591104D01*
X61390498Y-75587747D01*
X61396180Y-75582894D01*
X61396183Y-75582892D01*
X61513741Y-75482487D01*
X61519423Y-75477634D01*
X61618361Y-75339947D01*
X61681601Y-75182634D01*
X61685718Y-75153707D01*
X61704918Y-75018800D01*
X61704918Y-75018794D01*
X61705490Y-75014778D01*
X61705645Y-75000000D01*
X61698164Y-74938180D01*
X61686175Y-74839105D01*
X61686174Y-74839101D01*
X61685276Y-74831680D01*
X61653052Y-74746402D01*
X61627989Y-74680073D01*
X61627987Y-74680070D01*
X61625345Y-74673077D01*
X61616657Y-74660436D01*
X61533549Y-74539513D01*
X61533546Y-74539510D01*
X61529312Y-74533349D01*
X61492011Y-74500115D01*
X61455052Y-74440821D01*
X61450500Y-74407532D01*
X61450500Y-73742611D01*
X62044394Y-73742611D01*
X62045214Y-73750039D01*
X62045214Y-73750041D01*
X62046841Y-73764778D01*
X62062999Y-73911135D01*
X62065565Y-73918147D01*
X62065566Y-73918151D01*
X62118697Y-74063336D01*
X62121266Y-74070356D01*
X62125433Y-74076558D01*
X62125435Y-74076561D01*
X62186421Y-74167317D01*
X62215830Y-74211083D01*
X62221360Y-74216115D01*
X62335702Y-74320159D01*
X62335706Y-74320162D01*
X62341233Y-74325191D01*
X62490235Y-74406092D01*
X62585585Y-74431107D01*
X62647005Y-74447220D01*
X62647007Y-74447220D01*
X62654233Y-74449116D01*
X62737178Y-74450419D01*
X62816290Y-74451662D01*
X62816293Y-74451662D01*
X62823760Y-74451779D01*
X62946209Y-74423735D01*
X62981738Y-74415598D01*
X62981739Y-74415598D01*
X62989029Y-74413928D01*
X63130199Y-74342927D01*
X63133820Y-74341106D01*
X63133822Y-74341105D01*
X63140498Y-74337747D01*
X63146180Y-74332894D01*
X63146183Y-74332892D01*
X63263741Y-74232487D01*
X63269423Y-74227634D01*
X63368361Y-74089947D01*
X63431601Y-73932634D01*
X63438961Y-73880919D01*
X63454918Y-73768800D01*
X63454918Y-73768794D01*
X63455490Y-73764778D01*
X63455645Y-73750000D01*
X63454751Y-73742611D01*
X63436175Y-73589105D01*
X63436174Y-73589101D01*
X63435276Y-73581680D01*
X63426254Y-73557805D01*
X63377989Y-73430073D01*
X63377987Y-73430070D01*
X63375345Y-73423077D01*
X63338229Y-73369073D01*
X63283549Y-73289513D01*
X63283546Y-73289510D01*
X63279312Y-73283349D01*
X63242011Y-73250115D01*
X63205052Y-73190821D01*
X63200500Y-73157532D01*
X63200500Y-71343665D01*
X63220185Y-71276626D01*
X63243968Y-71249375D01*
X63263741Y-71232487D01*
X63269423Y-71227634D01*
X63368361Y-71089947D01*
X63431601Y-70932634D01*
X63445969Y-70831680D01*
X63454918Y-70768800D01*
X63454918Y-70768794D01*
X63455490Y-70764778D01*
X63455645Y-70750000D01*
X63447183Y-70680073D01*
X63436175Y-70589105D01*
X63436174Y-70589101D01*
X63435276Y-70581680D01*
X63426254Y-70557805D01*
X63377989Y-70430073D01*
X63377987Y-70430070D01*
X63375345Y-70423077D01*
X63323014Y-70346935D01*
X63283549Y-70289513D01*
X63283546Y-70289510D01*
X63279312Y-70283349D01*
X63152721Y-70170560D01*
X63138347Y-70162949D01*
X63009489Y-70094723D01*
X63002881Y-70091224D01*
X62838441Y-70049919D01*
X62752248Y-70049468D01*
X62676368Y-70049070D01*
X62676367Y-70049070D01*
X62668895Y-70049031D01*
X62647235Y-70054231D01*
X62511295Y-70086868D01*
X62511293Y-70086869D01*
X62504032Y-70088612D01*
X62497399Y-70092035D01*
X62497395Y-70092037D01*
X62430465Y-70126583D01*
X62353369Y-70166375D01*
X62225604Y-70277831D01*
X62128113Y-70416547D01*
X62066524Y-70574513D01*
X62044394Y-70742611D01*
X62045214Y-70750039D01*
X62045214Y-70750041D01*
X62046841Y-70764778D01*
X62062999Y-70911135D01*
X62065565Y-70918147D01*
X62065566Y-70918151D01*
X62116129Y-71056318D01*
X62121266Y-71070356D01*
X62125433Y-71076558D01*
X62125435Y-71076561D01*
X62149629Y-71112565D01*
X62215830Y-71211083D01*
X62239353Y-71232487D01*
X62258954Y-71250323D01*
X62295290Y-71310001D01*
X62299500Y-71342037D01*
X62299500Y-73156989D01*
X62279815Y-73224028D01*
X62257015Y-73250430D01*
X62240564Y-73264781D01*
X62231241Y-73272914D01*
X62225604Y-73277831D01*
X62128113Y-73416547D01*
X62066524Y-73574513D01*
X62065548Y-73581923D01*
X62065548Y-73581925D01*
X62062837Y-73602519D01*
X62044394Y-73742611D01*
X61450500Y-73742611D01*
X61450500Y-71593665D01*
X61470185Y-71526626D01*
X61493968Y-71499375D01*
X61513741Y-71482487D01*
X61519423Y-71477634D01*
X61618361Y-71339947D01*
X61681601Y-71182634D01*
X61682654Y-71175237D01*
X61704918Y-71018800D01*
X61704918Y-71018794D01*
X61705490Y-71014778D01*
X61705645Y-71000000D01*
X61705157Y-70995967D01*
X61686175Y-70839105D01*
X61686174Y-70839101D01*
X61685276Y-70831680D01*
X61625345Y-70673077D01*
X61621108Y-70666912D01*
X61533549Y-70539513D01*
X61533546Y-70539510D01*
X61529312Y-70533349D01*
X61487340Y-70495953D01*
X61408303Y-70425533D01*
X61408301Y-70425532D01*
X61402721Y-70420560D01*
X61395832Y-70416912D01*
X61259489Y-70344723D01*
X61252881Y-70341224D01*
X61088441Y-70299919D01*
X61002248Y-70299468D01*
X60926368Y-70299070D01*
X60926367Y-70299070D01*
X60918895Y-70299031D01*
X60897235Y-70304231D01*
X60761295Y-70336868D01*
X60761293Y-70336869D01*
X60754032Y-70338612D01*
X60747396Y-70342037D01*
X60747391Y-70342039D01*
X60713334Y-70359617D01*
X60644733Y-70372872D01*
X60579856Y-70346935D01*
X60554272Y-70319664D01*
X60533551Y-70289516D01*
X60533548Y-70289513D01*
X60529312Y-70283349D01*
X60402721Y-70170560D01*
X60388347Y-70162949D01*
X60259489Y-70094723D01*
X60252881Y-70091224D01*
X60088441Y-70049919D01*
X60002248Y-70049468D01*
X59926368Y-70049070D01*
X59926367Y-70049070D01*
X59918895Y-70049031D01*
X59897235Y-70054231D01*
X59761295Y-70086868D01*
X59761293Y-70086869D01*
X59754032Y-70088612D01*
X59747399Y-70092035D01*
X59747395Y-70092037D01*
X59680465Y-70126583D01*
X59603369Y-70166375D01*
X59475604Y-70277831D01*
X59378113Y-70416547D01*
X59316524Y-70574513D01*
X59294394Y-70742611D01*
X59295214Y-70750039D01*
X59295214Y-70750041D01*
X59296841Y-70764778D01*
X59312999Y-70911135D01*
X59315565Y-70918147D01*
X59315566Y-70918151D01*
X59366129Y-71056318D01*
X59371266Y-71070356D01*
X59375433Y-71076558D01*
X59375435Y-71076561D01*
X59399629Y-71112565D01*
X59465830Y-71211083D01*
X59489353Y-71232487D01*
X59508954Y-71250323D01*
X59545290Y-71310001D01*
X59549500Y-71342037D01*
X59549500Y-74406989D01*
X59529815Y-74474028D01*
X59507015Y-74500430D01*
X59475604Y-74527831D01*
X59378113Y-74666547D01*
X59316524Y-74824513D01*
X59294394Y-74992611D01*
X44903368Y-74992611D01*
X44925625Y-74839105D01*
X44930299Y-74806872D01*
X44931882Y-74746402D01*
X44912534Y-74535842D01*
X44855139Y-74332333D01*
X44761618Y-74142692D01*
X44635104Y-73973269D01*
X44630934Y-73969414D01*
X44630931Y-73969411D01*
X44525650Y-73872091D01*
X44479834Y-73829739D01*
X44347064Y-73745967D01*
X44341745Y-73742611D01*
X49044394Y-73742611D01*
X49045214Y-73750039D01*
X49045214Y-73750041D01*
X49046841Y-73764778D01*
X49062999Y-73911135D01*
X49065565Y-73918147D01*
X49065566Y-73918151D01*
X49118697Y-74063336D01*
X49121266Y-74070356D01*
X49125433Y-74076558D01*
X49125435Y-74076561D01*
X49186421Y-74167317D01*
X49215830Y-74211083D01*
X49221360Y-74216115D01*
X49335702Y-74320159D01*
X49335706Y-74320162D01*
X49341233Y-74325191D01*
X49490235Y-74406092D01*
X49585585Y-74431107D01*
X49647005Y-74447220D01*
X49647007Y-74447220D01*
X49654233Y-74449116D01*
X49737178Y-74450419D01*
X49816290Y-74451662D01*
X49816293Y-74451662D01*
X49823760Y-74451779D01*
X49946209Y-74423735D01*
X49981738Y-74415598D01*
X49981739Y-74415598D01*
X49989029Y-74413928D01*
X50130199Y-74342927D01*
X50133820Y-74341106D01*
X50133822Y-74341105D01*
X50140498Y-74337747D01*
X50146180Y-74332894D01*
X50146183Y-74332892D01*
X50263741Y-74232487D01*
X50269423Y-74227634D01*
X50368361Y-74089947D01*
X50431601Y-73932634D01*
X50438961Y-73880919D01*
X50454918Y-73768800D01*
X50454918Y-73768794D01*
X50455490Y-73764778D01*
X50455645Y-73750000D01*
X50455157Y-73745965D01*
X50454934Y-73741914D01*
X50456666Y-73741819D01*
X50466960Y-73679895D01*
X50490916Y-73646187D01*
X51251024Y-72886079D01*
X51312347Y-72852594D01*
X51340652Y-72849775D01*
X51416978Y-72850974D01*
X51416981Y-72850974D01*
X51424448Y-72851091D01*
X51546897Y-72823047D01*
X51582426Y-72814910D01*
X51582427Y-72814910D01*
X51589717Y-72813240D01*
X51664799Y-72775478D01*
X51734508Y-72740418D01*
X51734510Y-72740417D01*
X51741186Y-72737059D01*
X51746868Y-72732206D01*
X51746871Y-72732204D01*
X51864429Y-72631799D01*
X51870111Y-72626946D01*
X51969049Y-72489259D01*
X52032289Y-72331946D01*
X52056178Y-72164090D01*
X52056333Y-72149312D01*
X52035964Y-71980992D01*
X51976033Y-71822389D01*
X51967345Y-71809748D01*
X51884237Y-71688825D01*
X51884234Y-71688822D01*
X51880000Y-71682661D01*
X51753409Y-71569872D01*
X51739035Y-71562261D01*
X51610177Y-71494035D01*
X51603569Y-71490536D01*
X51439129Y-71449231D01*
X51352936Y-71448780D01*
X51277056Y-71448382D01*
X51277055Y-71448382D01*
X51269583Y-71448343D01*
X51247923Y-71453543D01*
X51111983Y-71486180D01*
X51111981Y-71486181D01*
X51104720Y-71487924D01*
X51098087Y-71491347D01*
X51098083Y-71491349D01*
X51031153Y-71525895D01*
X50954057Y-71565687D01*
X50826292Y-71677143D01*
X50728801Y-71815859D01*
X50667212Y-71973825D01*
X50645082Y-72141923D01*
X50646093Y-72151084D01*
X50645871Y-72152337D01*
X50645824Y-72156828D01*
X50645075Y-72156820D01*
X50633887Y-72219875D01*
X50610524Y-72252373D01*
X49849699Y-73013198D01*
X49788376Y-73046683D01*
X49761369Y-73049515D01*
X49676368Y-73049070D01*
X49676367Y-73049070D01*
X49668895Y-73049031D01*
X49661631Y-73050775D01*
X49511295Y-73086868D01*
X49511293Y-73086869D01*
X49504032Y-73088612D01*
X49497399Y-73092035D01*
X49497395Y-73092037D01*
X49430465Y-73126583D01*
X49353369Y-73166375D01*
X49347737Y-73171288D01*
X49257376Y-73250115D01*
X49225604Y-73277831D01*
X49128113Y-73416547D01*
X49066524Y-73574513D01*
X49065548Y-73581923D01*
X49065548Y-73581925D01*
X49062837Y-73602519D01*
X49044394Y-73742611D01*
X44341745Y-73742611D01*
X44305816Y-73719941D01*
X44305814Y-73719940D01*
X44301007Y-73716907D01*
X44104613Y-73638554D01*
X44099032Y-73637444D01*
X44099029Y-73637443D01*
X43923451Y-73602519D01*
X43861540Y-73570134D01*
X43826966Y-73509419D01*
X43830705Y-73439649D01*
X43871571Y-73382977D01*
X43936589Y-73357396D01*
X43947642Y-73356902D01*
X44671099Y-73356902D01*
X44674753Y-73356467D01*
X44674755Y-73356467D01*
X44679719Y-73355876D01*
X44697299Y-73353784D01*
X44799606Y-73308341D01*
X44878694Y-73229115D01*
X44895624Y-73190821D01*
X44920190Y-73135255D01*
X44920191Y-73135253D01*
X44923959Y-73126729D01*
X44926953Y-73101048D01*
X44926953Y-71311756D01*
X44923835Y-71285556D01*
X44878392Y-71183249D01*
X44799166Y-71104161D01*
X44788695Y-71099532D01*
X44788694Y-71099531D01*
X44705306Y-71062665D01*
X44705304Y-71062664D01*
X44696780Y-71058896D01*
X44671099Y-71055902D01*
X42881807Y-71055902D01*
X42878153Y-71056337D01*
X42878151Y-71056337D01*
X42873187Y-71056928D01*
X42855607Y-71059020D01*
X42753300Y-71104463D01*
X42674212Y-71183689D01*
X42669583Y-71194160D01*
X42669582Y-71194161D01*
X42664845Y-71204877D01*
X42628947Y-71286075D01*
X42625953Y-71311756D01*
X42625953Y-73101048D01*
X42629071Y-73127248D01*
X42674514Y-73229555D01*
X42753740Y-73308643D01*
X42764211Y-73313272D01*
X42764212Y-73313273D01*
X42847600Y-73350139D01*
X42847602Y-73350140D01*
X42856126Y-73353908D01*
X42881807Y-73356902D01*
X43614890Y-73356902D01*
X43681929Y-73376587D01*
X43727684Y-73429391D01*
X43737628Y-73498549D01*
X43708603Y-73562105D01*
X43649825Y-73599879D01*
X43635889Y-73603111D01*
X43483003Y-73629381D01*
X43483000Y-73629382D01*
X43477406Y-73630343D01*
X43279028Y-73703529D01*
X43274150Y-73706431D01*
X43274148Y-73706432D01*
X43102193Y-73808734D01*
X43102190Y-73808736D01*
X43097309Y-73811640D01*
X42938334Y-73951057D01*
X42934815Y-73955521D01*
X42934812Y-73955524D01*
X42917235Y-73977821D01*
X42807429Y-74117110D01*
X42708976Y-74304238D01*
X42707290Y-74309669D01*
X42707288Y-74309673D01*
X42677071Y-74406989D01*
X42646273Y-74506175D01*
X42645605Y-74511820D01*
X42645604Y-74511824D01*
X42637155Y-74583214D01*
X42621420Y-74716156D01*
X36500869Y-74716156D01*
X36503845Y-74693550D01*
X36504175Y-74680073D01*
X36505562Y-74623308D01*
X36505643Y-74620000D01*
X36503037Y-74588297D01*
X36495838Y-74500742D01*
X36485425Y-74374089D01*
X36425316Y-74134783D01*
X36326928Y-73908507D01*
X36192905Y-73701339D01*
X36084024Y-73581680D01*
X36030278Y-73522613D01*
X36030274Y-73522609D01*
X36026846Y-73518842D01*
X35833210Y-73365918D01*
X35737844Y-73313273D01*
X35621653Y-73249132D01*
X35621650Y-73249131D01*
X35617198Y-73246673D01*
X35384610Y-73164309D01*
X35176551Y-73127248D01*
X35146702Y-73121931D01*
X35146701Y-73121931D01*
X35141694Y-73121039D01*
X35055090Y-73119981D01*
X34900062Y-73118087D01*
X34900060Y-73118087D01*
X34894972Y-73118025D01*
X34651070Y-73155347D01*
X34416540Y-73232003D01*
X34412026Y-73234353D01*
X34202194Y-73343584D01*
X34202188Y-73343588D01*
X34197679Y-73345935D01*
X34000364Y-73494083D01*
X33996848Y-73497762D01*
X33996846Y-73497764D01*
X33909559Y-73589105D01*
X33829896Y-73672468D01*
X33827032Y-73676667D01*
X33827030Y-73676669D01*
X33693722Y-73872091D01*
X33690851Y-73876300D01*
X33586965Y-74100104D01*
X33585605Y-74105008D01*
X33523976Y-74327235D01*
X33521026Y-74337871D01*
X33494806Y-74583214D01*
X32800500Y-74583214D01*
X32800500Y-68743138D01*
X44844758Y-68743138D01*
X44862035Y-68899633D01*
X44864601Y-68906645D01*
X44864602Y-68906649D01*
X44894206Y-68987544D01*
X44916143Y-69047490D01*
X45003958Y-69178172D01*
X45029748Y-69201639D01*
X45114878Y-69279102D01*
X45114882Y-69279105D01*
X45120410Y-69284135D01*
X45126980Y-69287702D01*
X45126981Y-69287703D01*
X45225337Y-69341106D01*
X45258776Y-69359262D01*
X45361031Y-69386088D01*
X45403841Y-69397319D01*
X45403843Y-69397319D01*
X45411069Y-69399215D01*
X45488127Y-69400425D01*
X45561025Y-69401571D01*
X45561028Y-69401571D01*
X45568495Y-69401688D01*
X45575776Y-69400020D01*
X45575780Y-69400020D01*
X45714681Y-69368207D01*
X45721968Y-69366538D01*
X45862625Y-69295795D01*
X45868306Y-69290943D01*
X45868309Y-69290941D01*
X45939415Y-69230210D01*
X46003177Y-69201639D01*
X46019947Y-69200500D01*
X47406227Y-69200500D01*
X47473266Y-69220185D01*
X47489680Y-69232786D01*
X47585698Y-69320155D01*
X47585700Y-69320157D01*
X47591233Y-69325191D01*
X47740235Y-69406092D01*
X47835585Y-69431107D01*
X47897005Y-69447220D01*
X47897007Y-69447220D01*
X47904233Y-69449116D01*
X47987178Y-69450419D01*
X48066290Y-69451662D01*
X48066293Y-69451662D01*
X48073760Y-69451779D01*
X48196209Y-69423735D01*
X48231738Y-69415598D01*
X48231739Y-69415598D01*
X48239029Y-69413928D01*
X48329935Y-69368207D01*
X48383820Y-69341106D01*
X48383822Y-69341105D01*
X48390498Y-69337747D01*
X48396180Y-69332894D01*
X48396183Y-69332892D01*
X48513741Y-69232487D01*
X48519423Y-69227634D01*
X48618361Y-69089947D01*
X48681601Y-68932634D01*
X48705490Y-68764778D01*
X48705645Y-68750000D01*
X48685276Y-68581680D01*
X48676254Y-68557805D01*
X48627989Y-68430073D01*
X48627987Y-68430070D01*
X48625345Y-68423077D01*
X48552887Y-68317650D01*
X48533549Y-68289513D01*
X48533546Y-68289510D01*
X48529312Y-68283349D01*
X48445215Y-68208421D01*
X48408303Y-68175533D01*
X48408301Y-68175532D01*
X48402721Y-68170560D01*
X48388347Y-68162949D01*
X48295163Y-68113611D01*
X48252881Y-68091224D01*
X48088441Y-68049919D01*
X48002248Y-68049468D01*
X47926368Y-68049070D01*
X47926367Y-68049070D01*
X47918895Y-68049031D01*
X47897235Y-68054231D01*
X47761295Y-68086868D01*
X47761293Y-68086869D01*
X47754032Y-68088612D01*
X47747399Y-68092035D01*
X47747395Y-68092037D01*
X47705597Y-68113611D01*
X47603369Y-68166375D01*
X47486779Y-68268083D01*
X47485794Y-68268942D01*
X47422336Y-68298178D01*
X47404280Y-68299500D01*
X46019502Y-68299500D01*
X45952463Y-68279815D01*
X45937013Y-68268083D01*
X45879559Y-68216893D01*
X45879557Y-68216892D01*
X45873976Y-68211919D01*
X45734831Y-68138245D01*
X45625714Y-68110837D01*
X45589378Y-68101710D01*
X45582128Y-68099889D01*
X45500329Y-68099461D01*
X45432158Y-68099104D01*
X45432157Y-68099104D01*
X45424684Y-68099065D01*
X45417421Y-68100809D01*
X45417418Y-68100809D01*
X45364095Y-68113611D01*
X45271588Y-68135820D01*
X45131679Y-68208032D01*
X45013034Y-68311533D01*
X44922501Y-68440348D01*
X44865309Y-68587039D01*
X44844758Y-68743138D01*
X32800500Y-68743138D01*
X32800500Y-66986121D01*
X38133370Y-66986121D01*
X38138999Y-66994048D01*
X38141083Y-66995508D01*
X38345256Y-67114818D01*
X38354408Y-67119202D01*
X38575321Y-67203560D01*
X38585064Y-67206391D01*
X38816800Y-67253539D01*
X38826870Y-67254739D01*
X39063199Y-67263406D01*
X39073320Y-67262946D01*
X39307893Y-67232896D01*
X39317806Y-67230789D01*
X39516863Y-67171069D01*
X83115164Y-67171069D01*
X83115535Y-67176731D01*
X83115535Y-67176735D01*
X83120648Y-67254739D01*
X83128392Y-67372894D01*
X83178178Y-67568928D01*
X83262856Y-67752607D01*
X83379588Y-67917780D01*
X83524466Y-68058913D01*
X83692637Y-68171282D01*
X83878470Y-68251122D01*
X83974502Y-68272852D01*
X84070193Y-68294505D01*
X84070195Y-68294505D01*
X84075740Y-68295760D01*
X84193135Y-68300372D01*
X84272161Y-68303477D01*
X84272163Y-68303477D01*
X84277842Y-68303700D01*
X84283462Y-68302885D01*
X84283465Y-68302885D01*
X84472387Y-68275493D01*
X84472389Y-68275493D01*
X84478007Y-68274678D01*
X84483384Y-68272853D01*
X84483387Y-68272852D01*
X84568090Y-68244099D01*
X84669531Y-68209664D01*
X84797060Y-68138245D01*
X84841048Y-68113611D01*
X84841050Y-68113610D01*
X84846001Y-68110837D01*
X84858059Y-68100809D01*
X84997138Y-67985137D01*
X85001505Y-67981505D01*
X85130837Y-67826001D01*
X85229664Y-67649531D01*
X85294678Y-67458007D01*
X85307840Y-67367228D01*
X85323176Y-67261458D01*
X85323176Y-67261453D01*
X85323700Y-67257842D01*
X85325215Y-67200000D01*
X85322557Y-67171069D01*
X85655164Y-67171069D01*
X85655535Y-67176731D01*
X85655535Y-67176735D01*
X85660648Y-67254739D01*
X85668392Y-67372894D01*
X85718178Y-67568928D01*
X85802856Y-67752607D01*
X85919588Y-67917780D01*
X86064466Y-68058913D01*
X86232637Y-68171282D01*
X86418470Y-68251122D01*
X86514502Y-68272852D01*
X86610193Y-68294505D01*
X86610195Y-68294505D01*
X86615740Y-68295760D01*
X86733135Y-68300372D01*
X86812161Y-68303477D01*
X86812163Y-68303477D01*
X86817842Y-68303700D01*
X86823462Y-68302885D01*
X86823465Y-68302885D01*
X87012387Y-68275493D01*
X87012389Y-68275493D01*
X87018007Y-68274678D01*
X87023384Y-68272853D01*
X87023387Y-68272852D01*
X87108090Y-68244099D01*
X87209531Y-68209664D01*
X87337060Y-68138245D01*
X87381048Y-68113611D01*
X87381050Y-68113610D01*
X87386001Y-68110837D01*
X87398059Y-68100809D01*
X87537138Y-67985137D01*
X87541505Y-67981505D01*
X87670837Y-67826001D01*
X87769664Y-67649531D01*
X87834678Y-67458007D01*
X87847840Y-67367228D01*
X87863176Y-67261458D01*
X87863176Y-67261453D01*
X87863700Y-67257842D01*
X87865215Y-67200000D01*
X87862557Y-67171069D01*
X88195164Y-67171069D01*
X88195535Y-67176731D01*
X88195535Y-67176735D01*
X88200648Y-67254739D01*
X88208392Y-67372894D01*
X88258178Y-67568928D01*
X88342856Y-67752607D01*
X88459588Y-67917780D01*
X88604466Y-68058913D01*
X88772637Y-68171282D01*
X88958470Y-68251122D01*
X89054502Y-68272852D01*
X89150193Y-68294505D01*
X89150195Y-68294505D01*
X89155740Y-68295760D01*
X89273135Y-68300372D01*
X89352161Y-68303477D01*
X89352163Y-68303477D01*
X89357842Y-68303700D01*
X89363462Y-68302885D01*
X89363465Y-68302885D01*
X89552387Y-68275493D01*
X89552389Y-68275493D01*
X89558007Y-68274678D01*
X89563384Y-68272853D01*
X89563387Y-68272852D01*
X89648090Y-68244099D01*
X89749531Y-68209664D01*
X89877060Y-68138245D01*
X89921048Y-68113611D01*
X89921050Y-68113610D01*
X89926001Y-68110837D01*
X89938059Y-68100809D01*
X90077138Y-67985137D01*
X90081505Y-67981505D01*
X90210837Y-67826001D01*
X90309664Y-67649531D01*
X90374678Y-67458007D01*
X90387840Y-67367228D01*
X90403176Y-67261458D01*
X90403176Y-67261453D01*
X90403700Y-67257842D01*
X90405215Y-67200000D01*
X90402557Y-67171069D01*
X90735164Y-67171069D01*
X90735535Y-67176731D01*
X90735535Y-67176735D01*
X90740648Y-67254739D01*
X90748392Y-67372894D01*
X90798178Y-67568928D01*
X90882856Y-67752607D01*
X90999588Y-67917780D01*
X91144466Y-68058913D01*
X91312637Y-68171282D01*
X91498470Y-68251122D01*
X91594502Y-68272852D01*
X91690193Y-68294505D01*
X91690195Y-68294505D01*
X91695740Y-68295760D01*
X91813135Y-68300372D01*
X91892161Y-68303477D01*
X91892163Y-68303477D01*
X91897842Y-68303700D01*
X91903462Y-68302885D01*
X91903465Y-68302885D01*
X92092387Y-68275493D01*
X92092389Y-68275493D01*
X92098007Y-68274678D01*
X92103384Y-68272853D01*
X92103387Y-68272852D01*
X92188090Y-68244099D01*
X92289531Y-68209664D01*
X92417060Y-68138245D01*
X92461048Y-68113611D01*
X92461050Y-68113610D01*
X92466001Y-68110837D01*
X92478059Y-68100809D01*
X92617138Y-67985137D01*
X92621505Y-67981505D01*
X92750837Y-67826001D01*
X92849664Y-67649531D01*
X92914678Y-67458007D01*
X92927840Y-67367228D01*
X92943176Y-67261458D01*
X92943176Y-67261453D01*
X92943700Y-67257842D01*
X92945215Y-67200000D01*
X92942557Y-67171069D01*
X93275164Y-67171069D01*
X93275535Y-67176731D01*
X93275535Y-67176735D01*
X93280648Y-67254739D01*
X93288392Y-67372894D01*
X93338178Y-67568928D01*
X93422856Y-67752607D01*
X93539588Y-67917780D01*
X93684466Y-68058913D01*
X93852637Y-68171282D01*
X94038470Y-68251122D01*
X94134502Y-68272852D01*
X94230193Y-68294505D01*
X94230195Y-68294505D01*
X94235740Y-68295760D01*
X94353135Y-68300372D01*
X94432161Y-68303477D01*
X94432163Y-68303477D01*
X94437842Y-68303700D01*
X94443462Y-68302885D01*
X94443465Y-68302885D01*
X94632387Y-68275493D01*
X94632389Y-68275493D01*
X94638007Y-68274678D01*
X94643384Y-68272853D01*
X94643387Y-68272852D01*
X94728090Y-68244099D01*
X94829531Y-68209664D01*
X94957060Y-68138245D01*
X95001048Y-68113611D01*
X95001050Y-68113610D01*
X95006001Y-68110837D01*
X95018059Y-68100809D01*
X95157138Y-67985137D01*
X95161505Y-67981505D01*
X95290837Y-67826001D01*
X95389664Y-67649531D01*
X95454678Y-67458007D01*
X95467840Y-67367228D01*
X95483176Y-67261458D01*
X95483176Y-67261453D01*
X95483700Y-67257842D01*
X95485215Y-67200000D01*
X95482557Y-67171069D01*
X95815164Y-67171069D01*
X95815535Y-67176731D01*
X95815535Y-67176735D01*
X95820648Y-67254739D01*
X95828392Y-67372894D01*
X95878178Y-67568928D01*
X95962856Y-67752607D01*
X96079588Y-67917780D01*
X96224466Y-68058913D01*
X96392637Y-68171282D01*
X96578470Y-68251122D01*
X96674502Y-68272852D01*
X96770193Y-68294505D01*
X96770195Y-68294505D01*
X96775740Y-68295760D01*
X96893135Y-68300372D01*
X96972161Y-68303477D01*
X96972163Y-68303477D01*
X96977842Y-68303700D01*
X96983462Y-68302885D01*
X96983465Y-68302885D01*
X97172387Y-68275493D01*
X97172389Y-68275493D01*
X97178007Y-68274678D01*
X97183384Y-68272853D01*
X97183387Y-68272852D01*
X97268090Y-68244099D01*
X97369531Y-68209664D01*
X97497060Y-68138245D01*
X97541048Y-68113611D01*
X97541050Y-68113610D01*
X97546001Y-68110837D01*
X97558059Y-68100809D01*
X97697138Y-67985137D01*
X97701505Y-67981505D01*
X97830837Y-67826001D01*
X97929664Y-67649531D01*
X97994678Y-67458007D01*
X98007840Y-67367228D01*
X98023176Y-67261458D01*
X98023176Y-67261453D01*
X98023700Y-67257842D01*
X98025215Y-67200000D01*
X98022557Y-67171069D01*
X98355164Y-67171069D01*
X98355535Y-67176731D01*
X98355535Y-67176735D01*
X98360648Y-67254739D01*
X98368392Y-67372894D01*
X98418178Y-67568928D01*
X98502856Y-67752607D01*
X98619588Y-67917780D01*
X98764466Y-68058913D01*
X98932637Y-68171282D01*
X99118470Y-68251122D01*
X99214502Y-68272852D01*
X99310193Y-68294505D01*
X99310195Y-68294505D01*
X99315740Y-68295760D01*
X99433135Y-68300372D01*
X99512161Y-68303477D01*
X99512163Y-68303477D01*
X99517842Y-68303700D01*
X99523462Y-68302885D01*
X99523465Y-68302885D01*
X99712387Y-68275493D01*
X99712389Y-68275493D01*
X99718007Y-68274678D01*
X99723384Y-68272853D01*
X99723387Y-68272852D01*
X99808090Y-68244099D01*
X99909531Y-68209664D01*
X100037060Y-68138245D01*
X100081048Y-68113611D01*
X100081050Y-68113610D01*
X100086001Y-68110837D01*
X100098059Y-68100809D01*
X100237138Y-67985137D01*
X100241505Y-67981505D01*
X100370837Y-67826001D01*
X100469664Y-67649531D01*
X100534678Y-67458007D01*
X100547840Y-67367228D01*
X100563176Y-67261458D01*
X100563176Y-67261453D01*
X100563700Y-67257842D01*
X100565215Y-67200000D01*
X100562557Y-67171069D01*
X100895164Y-67171069D01*
X100895535Y-67176731D01*
X100895535Y-67176735D01*
X100900648Y-67254739D01*
X100908392Y-67372894D01*
X100958178Y-67568928D01*
X101042856Y-67752607D01*
X101159588Y-67917780D01*
X101304466Y-68058913D01*
X101472637Y-68171282D01*
X101658470Y-68251122D01*
X101754502Y-68272852D01*
X101850193Y-68294505D01*
X101850195Y-68294505D01*
X101855740Y-68295760D01*
X101973135Y-68300372D01*
X102052161Y-68303477D01*
X102052163Y-68303477D01*
X102057842Y-68303700D01*
X102063462Y-68302885D01*
X102063465Y-68302885D01*
X102252387Y-68275493D01*
X102252389Y-68275493D01*
X102258007Y-68274678D01*
X102263384Y-68272853D01*
X102263387Y-68272852D01*
X102348090Y-68244099D01*
X102449531Y-68209664D01*
X102577060Y-68138245D01*
X102621048Y-68113611D01*
X102621050Y-68113610D01*
X102626001Y-68110837D01*
X102638059Y-68100809D01*
X102777138Y-67985137D01*
X102781505Y-67981505D01*
X102910837Y-67826001D01*
X103009664Y-67649531D01*
X103074678Y-67458007D01*
X103087840Y-67367228D01*
X103103176Y-67261458D01*
X103103176Y-67261453D01*
X103103700Y-67257842D01*
X103105215Y-67200000D01*
X103086708Y-66998591D01*
X103056888Y-66892858D01*
X103033352Y-66809403D01*
X103033351Y-66809400D01*
X103031807Y-66803926D01*
X102942351Y-66622527D01*
X102821335Y-66460467D01*
X102672812Y-66323174D01*
X102501757Y-66215246D01*
X102313898Y-66140298D01*
X102308317Y-66139188D01*
X102308314Y-66139187D01*
X102226830Y-66122979D01*
X102115526Y-66100839D01*
X102109839Y-66100765D01*
X102109834Y-66100764D01*
X101918975Y-66098266D01*
X101918970Y-66098266D01*
X101913286Y-66098192D01*
X101907682Y-66099155D01*
X101907681Y-66099155D01*
X101719546Y-66131482D01*
X101719543Y-66131483D01*
X101713949Y-66132444D01*
X101692660Y-66140298D01*
X101529521Y-66200483D01*
X101529517Y-66200485D01*
X101524193Y-66202449D01*
X101519310Y-66205354D01*
X101519308Y-66205355D01*
X101503416Y-66214810D01*
X101350371Y-66305862D01*
X101198305Y-66439220D01*
X101073089Y-66598057D01*
X100978914Y-66777053D01*
X100977229Y-66782479D01*
X100977228Y-66782482D01*
X100970570Y-66803926D01*
X100918937Y-66970213D01*
X100895164Y-67171069D01*
X100562557Y-67171069D01*
X100546708Y-66998591D01*
X100516888Y-66892858D01*
X100493352Y-66809403D01*
X100493351Y-66809400D01*
X100491807Y-66803926D01*
X100402351Y-66622527D01*
X100281335Y-66460467D01*
X100132812Y-66323174D01*
X99961757Y-66215246D01*
X99773898Y-66140298D01*
X99768317Y-66139188D01*
X99768314Y-66139187D01*
X99686830Y-66122979D01*
X99575526Y-66100839D01*
X99569839Y-66100765D01*
X99569834Y-66100764D01*
X99378975Y-66098266D01*
X99378970Y-66098266D01*
X99373286Y-66098192D01*
X99367682Y-66099155D01*
X99367681Y-66099155D01*
X99179546Y-66131482D01*
X99179543Y-66131483D01*
X99173949Y-66132444D01*
X99152660Y-66140298D01*
X98989521Y-66200483D01*
X98989517Y-66200485D01*
X98984193Y-66202449D01*
X98979310Y-66205354D01*
X98979308Y-66205355D01*
X98963416Y-66214810D01*
X98810371Y-66305862D01*
X98658305Y-66439220D01*
X98533089Y-66598057D01*
X98438914Y-66777053D01*
X98437229Y-66782479D01*
X98437228Y-66782482D01*
X98430570Y-66803926D01*
X98378937Y-66970213D01*
X98355164Y-67171069D01*
X98022557Y-67171069D01*
X98006708Y-66998591D01*
X97976888Y-66892858D01*
X97953352Y-66809403D01*
X97953351Y-66809400D01*
X97951807Y-66803926D01*
X97862351Y-66622527D01*
X97741335Y-66460467D01*
X97592812Y-66323174D01*
X97421757Y-66215246D01*
X97233898Y-66140298D01*
X97228317Y-66139188D01*
X97228314Y-66139187D01*
X97146830Y-66122979D01*
X97035526Y-66100839D01*
X97029839Y-66100765D01*
X97029834Y-66100764D01*
X96838975Y-66098266D01*
X96838970Y-66098266D01*
X96833286Y-66098192D01*
X96827682Y-66099155D01*
X96827681Y-66099155D01*
X96639546Y-66131482D01*
X96639543Y-66131483D01*
X96633949Y-66132444D01*
X96612660Y-66140298D01*
X96449521Y-66200483D01*
X96449517Y-66200485D01*
X96444193Y-66202449D01*
X96439310Y-66205354D01*
X96439308Y-66205355D01*
X96423416Y-66214810D01*
X96270371Y-66305862D01*
X96118305Y-66439220D01*
X95993089Y-66598057D01*
X95898914Y-66777053D01*
X95897229Y-66782479D01*
X95897228Y-66782482D01*
X95890570Y-66803926D01*
X95838937Y-66970213D01*
X95815164Y-67171069D01*
X95482557Y-67171069D01*
X95466708Y-66998591D01*
X95436888Y-66892858D01*
X95413352Y-66809403D01*
X95413351Y-66809400D01*
X95411807Y-66803926D01*
X95322351Y-66622527D01*
X95201335Y-66460467D01*
X95052812Y-66323174D01*
X94881757Y-66215246D01*
X94693898Y-66140298D01*
X94688317Y-66139188D01*
X94688314Y-66139187D01*
X94606830Y-66122979D01*
X94495526Y-66100839D01*
X94489839Y-66100765D01*
X94489834Y-66100764D01*
X94298975Y-66098266D01*
X94298970Y-66098266D01*
X94293286Y-66098192D01*
X94287682Y-66099155D01*
X94287681Y-66099155D01*
X94099546Y-66131482D01*
X94099543Y-66131483D01*
X94093949Y-66132444D01*
X94072660Y-66140298D01*
X93909521Y-66200483D01*
X93909517Y-66200485D01*
X93904193Y-66202449D01*
X93899310Y-66205354D01*
X93899308Y-66205355D01*
X93883416Y-66214810D01*
X93730371Y-66305862D01*
X93578305Y-66439220D01*
X93453089Y-66598057D01*
X93358914Y-66777053D01*
X93357229Y-66782479D01*
X93357228Y-66782482D01*
X93350570Y-66803926D01*
X93298937Y-66970213D01*
X93275164Y-67171069D01*
X92942557Y-67171069D01*
X92926708Y-66998591D01*
X92896888Y-66892858D01*
X92873352Y-66809403D01*
X92873351Y-66809400D01*
X92871807Y-66803926D01*
X92782351Y-66622527D01*
X92661335Y-66460467D01*
X92512812Y-66323174D01*
X92341757Y-66215246D01*
X92153898Y-66140298D01*
X92148317Y-66139188D01*
X92148314Y-66139187D01*
X92066830Y-66122979D01*
X91955526Y-66100839D01*
X91949839Y-66100765D01*
X91949834Y-66100764D01*
X91758975Y-66098266D01*
X91758970Y-66098266D01*
X91753286Y-66098192D01*
X91747682Y-66099155D01*
X91747681Y-66099155D01*
X91559546Y-66131482D01*
X91559543Y-66131483D01*
X91553949Y-66132444D01*
X91532660Y-66140298D01*
X91369521Y-66200483D01*
X91369517Y-66200485D01*
X91364193Y-66202449D01*
X91359310Y-66205354D01*
X91359308Y-66205355D01*
X91343416Y-66214810D01*
X91190371Y-66305862D01*
X91038305Y-66439220D01*
X90913089Y-66598057D01*
X90818914Y-66777053D01*
X90817229Y-66782479D01*
X90817228Y-66782482D01*
X90810570Y-66803926D01*
X90758937Y-66970213D01*
X90735164Y-67171069D01*
X90402557Y-67171069D01*
X90386708Y-66998591D01*
X90356888Y-66892858D01*
X90333352Y-66809403D01*
X90333351Y-66809400D01*
X90331807Y-66803926D01*
X90242351Y-66622527D01*
X90121335Y-66460467D01*
X89972812Y-66323174D01*
X89801757Y-66215246D01*
X89613898Y-66140298D01*
X89608317Y-66139188D01*
X89608314Y-66139187D01*
X89526830Y-66122979D01*
X89415526Y-66100839D01*
X89409839Y-66100765D01*
X89409834Y-66100764D01*
X89218975Y-66098266D01*
X89218970Y-66098266D01*
X89213286Y-66098192D01*
X89207682Y-66099155D01*
X89207681Y-66099155D01*
X89019546Y-66131482D01*
X89019543Y-66131483D01*
X89013949Y-66132444D01*
X88992660Y-66140298D01*
X88829521Y-66200483D01*
X88829517Y-66200485D01*
X88824193Y-66202449D01*
X88819310Y-66205354D01*
X88819308Y-66205355D01*
X88803416Y-66214810D01*
X88650371Y-66305862D01*
X88498305Y-66439220D01*
X88373089Y-66598057D01*
X88278914Y-66777053D01*
X88277229Y-66782479D01*
X88277228Y-66782482D01*
X88270570Y-66803926D01*
X88218937Y-66970213D01*
X88195164Y-67171069D01*
X87862557Y-67171069D01*
X87846708Y-66998591D01*
X87816888Y-66892858D01*
X87793352Y-66809403D01*
X87793351Y-66809400D01*
X87791807Y-66803926D01*
X87702351Y-66622527D01*
X87581335Y-66460467D01*
X87432812Y-66323174D01*
X87261757Y-66215246D01*
X87073898Y-66140298D01*
X87068317Y-66139188D01*
X87068314Y-66139187D01*
X86986830Y-66122979D01*
X86875526Y-66100839D01*
X86869839Y-66100765D01*
X86869834Y-66100764D01*
X86678975Y-66098266D01*
X86678970Y-66098266D01*
X86673286Y-66098192D01*
X86667682Y-66099155D01*
X86667681Y-66099155D01*
X86479546Y-66131482D01*
X86479543Y-66131483D01*
X86473949Y-66132444D01*
X86452660Y-66140298D01*
X86289521Y-66200483D01*
X86289517Y-66200485D01*
X86284193Y-66202449D01*
X86279310Y-66205354D01*
X86279308Y-66205355D01*
X86263416Y-66214810D01*
X86110371Y-66305862D01*
X85958305Y-66439220D01*
X85833089Y-66598057D01*
X85738914Y-66777053D01*
X85737229Y-66782479D01*
X85737228Y-66782482D01*
X85730570Y-66803926D01*
X85678937Y-66970213D01*
X85655164Y-67171069D01*
X85322557Y-67171069D01*
X85306708Y-66998591D01*
X85276888Y-66892858D01*
X85253352Y-66809403D01*
X85253351Y-66809400D01*
X85251807Y-66803926D01*
X85162351Y-66622527D01*
X85041335Y-66460467D01*
X84892812Y-66323174D01*
X84721757Y-66215246D01*
X84533898Y-66140298D01*
X84528317Y-66139188D01*
X84528314Y-66139187D01*
X84446830Y-66122979D01*
X84335526Y-66100839D01*
X84329839Y-66100765D01*
X84329834Y-66100764D01*
X84138975Y-66098266D01*
X84138970Y-66098266D01*
X84133286Y-66098192D01*
X84127682Y-66099155D01*
X84127681Y-66099155D01*
X83939546Y-66131482D01*
X83939543Y-66131483D01*
X83933949Y-66132444D01*
X83912660Y-66140298D01*
X83749521Y-66200483D01*
X83749517Y-66200485D01*
X83744193Y-66202449D01*
X83739310Y-66205354D01*
X83739308Y-66205355D01*
X83723416Y-66214810D01*
X83570371Y-66305862D01*
X83418305Y-66439220D01*
X83293089Y-66598057D01*
X83198914Y-66777053D01*
X83197229Y-66782479D01*
X83197228Y-66782482D01*
X83190570Y-66803926D01*
X83138937Y-66970213D01*
X83115164Y-67171069D01*
X39516863Y-67171069D01*
X39544325Y-67162830D01*
X39553752Y-67159136D01*
X39766126Y-67055095D01*
X39774841Y-67049900D01*
X39854592Y-66993014D01*
X39862860Y-66982482D01*
X39855984Y-66969537D01*
X39012607Y-66126160D01*
X38998887Y-66118668D01*
X38997081Y-66118797D01*
X38990574Y-66122979D01*
X38140512Y-66973041D01*
X38133370Y-66986121D01*
X32800500Y-66986121D01*
X32800500Y-65728309D01*
X37495601Y-65728309D01*
X37509214Y-65964394D01*
X37510626Y-65974439D01*
X37562615Y-66205135D01*
X37565647Y-66214810D01*
X37654617Y-66433918D01*
X37659194Y-66442978D01*
X37765490Y-66616437D01*
X37775784Y-66625749D01*
X37784421Y-66622026D01*
X38633840Y-65772607D01*
X38640116Y-65761113D01*
X39358668Y-65761113D01*
X39358797Y-65762919D01*
X39362979Y-65769426D01*
X40210066Y-66616513D01*
X40221884Y-66622966D01*
X40233437Y-66614140D01*
X40287186Y-66539341D01*
X40292414Y-66530640D01*
X40397188Y-66318646D01*
X40400925Y-66309206D01*
X40469670Y-66082942D01*
X40471813Y-66073028D01*
X40502913Y-65836801D01*
X40503425Y-65830226D01*
X40505060Y-65763308D01*
X40504965Y-65760000D01*
X42194532Y-65760000D01*
X42214365Y-65986692D01*
X42273261Y-66206496D01*
X42275548Y-66211400D01*
X42275550Y-66211406D01*
X42325558Y-66318646D01*
X42369432Y-66412734D01*
X42372539Y-66417171D01*
X42372540Y-66417173D01*
X42496847Y-66594704D01*
X42496851Y-66594708D01*
X42499953Y-66599139D01*
X42660861Y-66760047D01*
X42665292Y-66763149D01*
X42665296Y-66763153D01*
X42716242Y-66798825D01*
X42847266Y-66890568D01*
X42852177Y-66892858D01*
X43048594Y-66984450D01*
X43048600Y-66984452D01*
X43053504Y-66986739D01*
X43273308Y-67045635D01*
X43278693Y-67046106D01*
X43278698Y-67046107D01*
X43494605Y-67064996D01*
X43500000Y-67065468D01*
X43505395Y-67064996D01*
X43721302Y-67046107D01*
X43721307Y-67046106D01*
X43726692Y-67045635D01*
X43946496Y-66986739D01*
X43951400Y-66984452D01*
X43951406Y-66984450D01*
X44147823Y-66892858D01*
X44152734Y-66890568D01*
X44283758Y-66798825D01*
X44334704Y-66763153D01*
X44334708Y-66763149D01*
X44339139Y-66760047D01*
X44500047Y-66599139D01*
X44503149Y-66594708D01*
X44503153Y-66594704D01*
X44627460Y-66417173D01*
X44627461Y-66417171D01*
X44630568Y-66412734D01*
X44674442Y-66318646D01*
X44724450Y-66211406D01*
X44724452Y-66211400D01*
X44726739Y-66206496D01*
X44785635Y-65986692D01*
X44805468Y-65760000D01*
X44785635Y-65533308D01*
X44726739Y-65313504D01*
X44724452Y-65308600D01*
X44724450Y-65308594D01*
X44632858Y-65112177D01*
X44630568Y-65107266D01*
X44627460Y-65102827D01*
X44503153Y-64925296D01*
X44503149Y-64925292D01*
X44500047Y-64920861D01*
X44339139Y-64759953D01*
X44334708Y-64756851D01*
X44334704Y-64756847D01*
X44157173Y-64632540D01*
X44157171Y-64632539D01*
X44152734Y-64629432D01*
X44131761Y-64619652D01*
X43951406Y-64535550D01*
X43951400Y-64535548D01*
X43946496Y-64533261D01*
X43726692Y-64474365D01*
X43721307Y-64473894D01*
X43721302Y-64473893D01*
X43505395Y-64455004D01*
X43500000Y-64454532D01*
X43494605Y-64455004D01*
X43278698Y-64473893D01*
X43278693Y-64473894D01*
X43273308Y-64474365D01*
X43053504Y-64533261D01*
X43048600Y-64535548D01*
X43048594Y-64535550D01*
X42868239Y-64619652D01*
X42847266Y-64629432D01*
X42842829Y-64632539D01*
X42842827Y-64632540D01*
X42665296Y-64756847D01*
X42665292Y-64756851D01*
X42660861Y-64759953D01*
X42499953Y-64920861D01*
X42496851Y-64925292D01*
X42496847Y-64925296D01*
X42372540Y-65102827D01*
X42369432Y-65107266D01*
X42367142Y-65112177D01*
X42275550Y-65308594D01*
X42275548Y-65308600D01*
X42273261Y-65313504D01*
X42214365Y-65533308D01*
X42194532Y-65760000D01*
X40504965Y-65760000D01*
X40504870Y-65756701D01*
X40485347Y-65519246D01*
X40483689Y-65509232D01*
X40426081Y-65279882D01*
X40422811Y-65270276D01*
X40328514Y-65053409D01*
X40323725Y-65044476D01*
X40233380Y-64904824D01*
X40222865Y-64895769D01*
X40213451Y-64900102D01*
X39366160Y-65747393D01*
X39358668Y-65761113D01*
X38640116Y-65761113D01*
X38641332Y-65758887D01*
X38641203Y-65757081D01*
X38637021Y-65750574D01*
X37789747Y-64903300D01*
X37778396Y-64897102D01*
X37766307Y-64906573D01*
X37694156Y-65012344D01*
X37689144Y-65021166D01*
X37589581Y-65235658D01*
X37586076Y-65245183D01*
X37522878Y-65473064D01*
X37520979Y-65483020D01*
X37495849Y-65718166D01*
X37495601Y-65728309D01*
X32800500Y-65728309D01*
X32800500Y-64537418D01*
X38136468Y-64537418D01*
X38143105Y-64549552D01*
X38987393Y-65393840D01*
X39001113Y-65401332D01*
X39002919Y-65401203D01*
X39009426Y-65397021D01*
X39857860Y-64548587D01*
X39864767Y-64535937D01*
X39857117Y-64525436D01*
X39836927Y-64509491D01*
X39828478Y-64503877D01*
X39621447Y-64389590D01*
X39612190Y-64385431D01*
X39389283Y-64306494D01*
X39379468Y-64303901D01*
X39146656Y-64262431D01*
X39136562Y-64261477D01*
X38900097Y-64258587D01*
X38889972Y-64259295D01*
X38656222Y-64295065D01*
X38646348Y-64297417D01*
X38421569Y-64370886D01*
X38412220Y-64374816D01*
X38202461Y-64484009D01*
X38193876Y-64489416D01*
X38144786Y-64526273D01*
X38136468Y-64537418D01*
X32800500Y-64537418D01*
X32800500Y-63230788D01*
X70322617Y-63230788D01*
X70341222Y-63399312D01*
X70343788Y-63406324D01*
X70343789Y-63406328D01*
X70390333Y-63533514D01*
X70399489Y-63558533D01*
X70403656Y-63564735D01*
X70403658Y-63564738D01*
X70461624Y-63651000D01*
X70494053Y-63699260D01*
X70499583Y-63704292D01*
X70613925Y-63808336D01*
X70613929Y-63808339D01*
X70619456Y-63813368D01*
X70768458Y-63894269D01*
X70863808Y-63919284D01*
X70925228Y-63935397D01*
X70925230Y-63935397D01*
X70932456Y-63937293D01*
X71015401Y-63938596D01*
X71094513Y-63939839D01*
X71094516Y-63939839D01*
X71101983Y-63939956D01*
X71224432Y-63911912D01*
X71259961Y-63903775D01*
X71259962Y-63903775D01*
X71267252Y-63902105D01*
X71353971Y-63858490D01*
X71412043Y-63829283D01*
X71412045Y-63829282D01*
X71418721Y-63825924D01*
X71424403Y-63821071D01*
X71424406Y-63821069D01*
X71483432Y-63770655D01*
X71547646Y-63715811D01*
X71552006Y-63709744D01*
X71552011Y-63709738D01*
X71557112Y-63702639D01*
X71612219Y-63659685D01*
X71657809Y-63651000D01*
X75656227Y-63651000D01*
X75723266Y-63670685D01*
X75739680Y-63683286D01*
X75835698Y-63770655D01*
X75835700Y-63770657D01*
X75841233Y-63775691D01*
X75990235Y-63856592D01*
X76085585Y-63881607D01*
X76147005Y-63897720D01*
X76147007Y-63897720D01*
X76154233Y-63899616D01*
X76237178Y-63900919D01*
X76316290Y-63902162D01*
X76316293Y-63902162D01*
X76323760Y-63902279D01*
X76446209Y-63874235D01*
X76481738Y-63866098D01*
X76481739Y-63866098D01*
X76489029Y-63864428D01*
X76583454Y-63816937D01*
X76633820Y-63791606D01*
X76633822Y-63791605D01*
X76640498Y-63788247D01*
X76646180Y-63783394D01*
X76646183Y-63783392D01*
X76763741Y-63682987D01*
X76769423Y-63678134D01*
X76868361Y-63540447D01*
X76931601Y-63383134D01*
X76932654Y-63375737D01*
X76954918Y-63219300D01*
X76954918Y-63219294D01*
X76955490Y-63215278D01*
X76955645Y-63200500D01*
X76939865Y-63070102D01*
X76936175Y-63039605D01*
X76936174Y-63039601D01*
X76935276Y-63032180D01*
X76889744Y-62911683D01*
X76877989Y-62880573D01*
X76877987Y-62880570D01*
X76875345Y-62873577D01*
X76805619Y-62772125D01*
X76783549Y-62740013D01*
X76783546Y-62740010D01*
X76779312Y-62733849D01*
X76695009Y-62658737D01*
X76658303Y-62626033D01*
X76658301Y-62626032D01*
X76652721Y-62621060D01*
X76638347Y-62613449D01*
X76569107Y-62576789D01*
X76502881Y-62541724D01*
X76338441Y-62500419D01*
X76252248Y-62499968D01*
X76176368Y-62499570D01*
X76176367Y-62499570D01*
X76168895Y-62499531D01*
X76147235Y-62504731D01*
X76011295Y-62537368D01*
X76011293Y-62537369D01*
X76004032Y-62539112D01*
X75997399Y-62542535D01*
X75997395Y-62542537D01*
X75934413Y-62575045D01*
X75853369Y-62616875D01*
X75736779Y-62718583D01*
X75735794Y-62719442D01*
X75672336Y-62748678D01*
X75654280Y-62750000D01*
X71580602Y-62750000D01*
X71513563Y-62730315D01*
X71498113Y-62718583D01*
X71436526Y-62663710D01*
X71436524Y-62663709D01*
X71430944Y-62658737D01*
X71416570Y-62651126D01*
X71287712Y-62582900D01*
X71281104Y-62579401D01*
X71116664Y-62538096D01*
X71030471Y-62537645D01*
X70954591Y-62537247D01*
X70954590Y-62537247D01*
X70947118Y-62537208D01*
X70928308Y-62541724D01*
X70789518Y-62575045D01*
X70789516Y-62575046D01*
X70782255Y-62576789D01*
X70775622Y-62580212D01*
X70775618Y-62580214D01*
X70711228Y-62613449D01*
X70631592Y-62654552D01*
X70625960Y-62659465D01*
X70523693Y-62748678D01*
X70503827Y-62766008D01*
X70406336Y-62904724D01*
X70344747Y-63062690D01*
X70322617Y-63230788D01*
X32800500Y-63230788D01*
X32800500Y-59649151D01*
X33320152Y-59649151D01*
X33356337Y-59831064D01*
X33358790Y-59839909D01*
X33441066Y-60069068D01*
X33444792Y-60077437D01*
X33560036Y-60291918D01*
X33564969Y-60299661D01*
X33710639Y-60494736D01*
X33716665Y-60501668D01*
X33889578Y-60673080D01*
X33896551Y-60679034D01*
X34092893Y-60822998D01*
X34100693Y-60827871D01*
X34316148Y-60941229D01*
X34324574Y-60944893D01*
X34554430Y-61025161D01*
X34563292Y-61027536D01*
X34732486Y-61059659D01*
X34745336Y-61058396D01*
X34749586Y-61045035D01*
X35250000Y-61045035D01*
X35254106Y-61059017D01*
X35266665Y-61061040D01*
X35306099Y-61056721D01*
X35315112Y-61055051D01*
X35550573Y-60993059D01*
X35559245Y-60990073D01*
X35782939Y-60893967D01*
X35791089Y-60889724D01*
X35998124Y-60761607D01*
X36005552Y-60756209D01*
X36191373Y-60598901D01*
X36197922Y-60592465D01*
X36291183Y-60486121D01*
X38133370Y-60486121D01*
X38138999Y-60494048D01*
X38141083Y-60495508D01*
X38345256Y-60614818D01*
X38354408Y-60619202D01*
X38575321Y-60703560D01*
X38585064Y-60706391D01*
X38816800Y-60753539D01*
X38826870Y-60754739D01*
X39063199Y-60763406D01*
X39073320Y-60762946D01*
X39307893Y-60732896D01*
X39317806Y-60730789D01*
X39544325Y-60662830D01*
X39553752Y-60659136D01*
X39766126Y-60555095D01*
X39774841Y-60549900D01*
X39854592Y-60493014D01*
X39862860Y-60482482D01*
X39855984Y-60469537D01*
X39012607Y-59626160D01*
X38998887Y-59618668D01*
X38997081Y-59618797D01*
X38990574Y-59622979D01*
X38140512Y-60473041D01*
X38133370Y-60486121D01*
X36291183Y-60486121D01*
X36358454Y-60409412D01*
X36363974Y-60402087D01*
X36495688Y-60197315D01*
X36500070Y-60189244D01*
X36600065Y-59967266D01*
X36603208Y-59958630D01*
X36669294Y-59724304D01*
X36671123Y-59715319D01*
X36679727Y-59647686D01*
X36677475Y-59633649D01*
X36664664Y-59630000D01*
X35267830Y-59630000D01*
X35252831Y-59634404D01*
X35251644Y-59635774D01*
X35250000Y-59643332D01*
X35250000Y-61045035D01*
X34749586Y-61045035D01*
X34750000Y-61043734D01*
X34750000Y-59647830D01*
X34745596Y-59632831D01*
X34744226Y-59631644D01*
X34736668Y-59630000D01*
X33334172Y-59630000D01*
X33321966Y-59633584D01*
X33320152Y-59649151D01*
X32800500Y-59649151D01*
X32800500Y-59228309D01*
X37495601Y-59228309D01*
X37509214Y-59464394D01*
X37510626Y-59474439D01*
X37562615Y-59705135D01*
X37565647Y-59714810D01*
X37654617Y-59933918D01*
X37659194Y-59942978D01*
X37765490Y-60116437D01*
X37775784Y-60125749D01*
X37784421Y-60122026D01*
X38633840Y-59272607D01*
X38640116Y-59261113D01*
X39358668Y-59261113D01*
X39358797Y-59262919D01*
X39362979Y-59269426D01*
X40210066Y-60116513D01*
X40221884Y-60122966D01*
X40233437Y-60114140D01*
X40287186Y-60039341D01*
X40292414Y-60030640D01*
X40397188Y-59818646D01*
X40400925Y-59809206D01*
X40469670Y-59582942D01*
X40471813Y-59573028D01*
X40502913Y-59336801D01*
X40503425Y-59330226D01*
X40505060Y-59263308D01*
X40504965Y-59260000D01*
X42194532Y-59260000D01*
X42214365Y-59486692D01*
X42273261Y-59706496D01*
X42275548Y-59711400D01*
X42275550Y-59711406D01*
X42277375Y-59715319D01*
X42369432Y-59912734D01*
X42372539Y-59917171D01*
X42372540Y-59917173D01*
X42496847Y-60094704D01*
X42496851Y-60094708D01*
X42499953Y-60099139D01*
X42660861Y-60260047D01*
X42665292Y-60263149D01*
X42665296Y-60263153D01*
X42842827Y-60387460D01*
X42847266Y-60390568D01*
X42852177Y-60392858D01*
X43048594Y-60484450D01*
X43048600Y-60484452D01*
X43053504Y-60486739D01*
X43273308Y-60545635D01*
X43278693Y-60546106D01*
X43278698Y-60546107D01*
X43494605Y-60564996D01*
X43500000Y-60565468D01*
X43505395Y-60564996D01*
X43721302Y-60546107D01*
X43721307Y-60546106D01*
X43726692Y-60545635D01*
X43946496Y-60486739D01*
X43951400Y-60484452D01*
X43951406Y-60484450D01*
X44147823Y-60392858D01*
X44152734Y-60390568D01*
X44157173Y-60387460D01*
X44334704Y-60263153D01*
X44334708Y-60263149D01*
X44339139Y-60260047D01*
X44500047Y-60099139D01*
X44503149Y-60094708D01*
X44503153Y-60094704D01*
X44627460Y-59917173D01*
X44627461Y-59917171D01*
X44630568Y-59912734D01*
X44722625Y-59715319D01*
X44724450Y-59711406D01*
X44724452Y-59711400D01*
X44726739Y-59706496D01*
X44785635Y-59486692D01*
X44805468Y-59260000D01*
X44801808Y-59218166D01*
X44786107Y-59038698D01*
X44786106Y-59038693D01*
X44785635Y-59033308D01*
X44726739Y-58813504D01*
X44724452Y-58808600D01*
X44724450Y-58808594D01*
X44632858Y-58612177D01*
X44630568Y-58607266D01*
X44626962Y-58602116D01*
X44503153Y-58425296D01*
X44503149Y-58425292D01*
X44500047Y-58420861D01*
X44339139Y-58259953D01*
X44334708Y-58256851D01*
X44334704Y-58256847D01*
X44157173Y-58132540D01*
X44157171Y-58132539D01*
X44152734Y-58129432D01*
X44131761Y-58119652D01*
X43951406Y-58035550D01*
X43951400Y-58035548D01*
X43946496Y-58033261D01*
X43726692Y-57974365D01*
X43721307Y-57973894D01*
X43721302Y-57973893D01*
X43505395Y-57955004D01*
X43500000Y-57954532D01*
X43494605Y-57955004D01*
X43278698Y-57973893D01*
X43278693Y-57973894D01*
X43273308Y-57974365D01*
X43053504Y-58033261D01*
X43048600Y-58035548D01*
X43048594Y-58035550D01*
X42868239Y-58119652D01*
X42847266Y-58129432D01*
X42842829Y-58132539D01*
X42842827Y-58132540D01*
X42665296Y-58256847D01*
X42665292Y-58256851D01*
X42660861Y-58259953D01*
X42499953Y-58420861D01*
X42496851Y-58425292D01*
X42496847Y-58425296D01*
X42373038Y-58602116D01*
X42369432Y-58607266D01*
X42367142Y-58612177D01*
X42275550Y-58808594D01*
X42275548Y-58808600D01*
X42273261Y-58813504D01*
X42214365Y-59033308D01*
X42213894Y-59038693D01*
X42213893Y-59038698D01*
X42198192Y-59218166D01*
X42194532Y-59260000D01*
X40504965Y-59260000D01*
X40504870Y-59256701D01*
X40485347Y-59019246D01*
X40483689Y-59009232D01*
X40426081Y-58779882D01*
X40422811Y-58770276D01*
X40328514Y-58553409D01*
X40323725Y-58544476D01*
X40233380Y-58404824D01*
X40222865Y-58395769D01*
X40213451Y-58400102D01*
X39366160Y-59247393D01*
X39358668Y-59261113D01*
X38640116Y-59261113D01*
X38641332Y-59258887D01*
X38641203Y-59257081D01*
X38637021Y-59250574D01*
X37789747Y-58403300D01*
X37778396Y-58397102D01*
X37766307Y-58406573D01*
X37694156Y-58512344D01*
X37689144Y-58521166D01*
X37589581Y-58735658D01*
X37586076Y-58745183D01*
X37522878Y-58973064D01*
X37520979Y-58983020D01*
X37495849Y-59218166D01*
X37495601Y-59228309D01*
X32800500Y-59228309D01*
X32800500Y-59112259D01*
X33318283Y-59112259D01*
X33321000Y-59126755D01*
X33332986Y-59130000D01*
X34732170Y-59130000D01*
X34747169Y-59125596D01*
X34748356Y-59124226D01*
X34750000Y-59116668D01*
X34750000Y-59112170D01*
X35250000Y-59112170D01*
X35254404Y-59127169D01*
X35255774Y-59128356D01*
X35263332Y-59130000D01*
X36668359Y-59130000D01*
X36683004Y-59125700D01*
X36684114Y-59119499D01*
X36631293Y-58886063D01*
X36628609Y-58877286D01*
X36540365Y-58650365D01*
X36536418Y-58642089D01*
X36415596Y-58430695D01*
X36410470Y-58423096D01*
X36259731Y-58231885D01*
X36253540Y-58225128D01*
X36076197Y-58058300D01*
X36069063Y-58052523D01*
X36047289Y-58037418D01*
X38136468Y-58037418D01*
X38143105Y-58049552D01*
X38987393Y-58893840D01*
X39001113Y-58901332D01*
X39002919Y-58901203D01*
X39009426Y-58897021D01*
X39857860Y-58048587D01*
X39864767Y-58035937D01*
X39857117Y-58025436D01*
X39836927Y-58009491D01*
X39828478Y-58003877D01*
X39621447Y-57889590D01*
X39612190Y-57885431D01*
X39389283Y-57806494D01*
X39379468Y-57803901D01*
X39146656Y-57762431D01*
X39136562Y-57761477D01*
X38900097Y-57758587D01*
X38889972Y-57759295D01*
X38656222Y-57795065D01*
X38646348Y-57797417D01*
X38421569Y-57870886D01*
X38412220Y-57874816D01*
X38202461Y-57984009D01*
X38193876Y-57989416D01*
X38144786Y-58026273D01*
X38136468Y-58037418D01*
X36047289Y-58037418D01*
X35869011Y-57913743D01*
X35861113Y-57909090D01*
X35642747Y-57801404D01*
X35634232Y-57797964D01*
X35402352Y-57723739D01*
X35393427Y-57721596D01*
X35267600Y-57701103D01*
X35254217Y-57702773D01*
X35250000Y-57716656D01*
X35250000Y-59112170D01*
X34750000Y-59112170D01*
X34750000Y-57716102D01*
X34746045Y-57702633D01*
X34732571Y-57700644D01*
X34650114Y-57711866D01*
X34641146Y-57713772D01*
X34407391Y-57781906D01*
X34398806Y-57785115D01*
X34177693Y-57887050D01*
X34169664Y-57891501D01*
X33966052Y-58024994D01*
X33958768Y-58030584D01*
X33777129Y-58192703D01*
X33770750Y-58199307D01*
X33615062Y-58386503D01*
X33609737Y-58393968D01*
X33483430Y-58602116D01*
X33479260Y-58610298D01*
X33385106Y-58834832D01*
X33382199Y-58843520D01*
X33322265Y-59079510D01*
X33320671Y-59088551D01*
X33318283Y-59112259D01*
X32800500Y-59112259D01*
X32800500Y-55047588D01*
X62039417Y-55047588D01*
X62040237Y-55055016D01*
X62040237Y-55055018D01*
X62041864Y-55069755D01*
X62058022Y-55216112D01*
X62060588Y-55223124D01*
X62060589Y-55223128D01*
X62104812Y-55343972D01*
X62116289Y-55375333D01*
X62120456Y-55381535D01*
X62120458Y-55381538D01*
X62143450Y-55415753D01*
X62210853Y-55516060D01*
X62216383Y-55521092D01*
X62330725Y-55625136D01*
X62330729Y-55625139D01*
X62336256Y-55630168D01*
X62485258Y-55711069D01*
X62548534Y-55727669D01*
X62642028Y-55752197D01*
X62642030Y-55752197D01*
X62649256Y-55754093D01*
X62732201Y-55755396D01*
X62811313Y-55756639D01*
X62811316Y-55756639D01*
X62818783Y-55756756D01*
X62945786Y-55727669D01*
X62976761Y-55720575D01*
X62976762Y-55720575D01*
X62984052Y-55718905D01*
X63120808Y-55650124D01*
X63128843Y-55646083D01*
X63128845Y-55646082D01*
X63135521Y-55642724D01*
X63141203Y-55637871D01*
X63141206Y-55637869D01*
X63258764Y-55537464D01*
X63264446Y-55532611D01*
X63363384Y-55394924D01*
X63426624Y-55237611D01*
X63428882Y-55221744D01*
X63449941Y-55073777D01*
X63449941Y-55073771D01*
X63450513Y-55069755D01*
X63450668Y-55054977D01*
X63450180Y-55050942D01*
X63449957Y-55046891D01*
X63451689Y-55046796D01*
X63461983Y-54984872D01*
X63485939Y-54951164D01*
X63966034Y-54471069D01*
X83115164Y-54471069D01*
X83115535Y-54476731D01*
X83115535Y-54476735D01*
X83120678Y-54555196D01*
X83128392Y-54672894D01*
X83178178Y-54868928D01*
X83180554Y-54874082D01*
X83216121Y-54951231D01*
X83262856Y-55052607D01*
X83379588Y-55217780D01*
X83524466Y-55358913D01*
X83692637Y-55471282D01*
X83878470Y-55551122D01*
X83974502Y-55572852D01*
X84070193Y-55594505D01*
X84070195Y-55594505D01*
X84075740Y-55595760D01*
X84193135Y-55600372D01*
X84272161Y-55603477D01*
X84272163Y-55603477D01*
X84277842Y-55603700D01*
X84283462Y-55602885D01*
X84283465Y-55602885D01*
X84472387Y-55575493D01*
X84472389Y-55575493D01*
X84478007Y-55574678D01*
X84483384Y-55572853D01*
X84483387Y-55572852D01*
X84587635Y-55537464D01*
X84669531Y-55509664D01*
X84846001Y-55410837D01*
X84858137Y-55400744D01*
X84997138Y-55285137D01*
X85001505Y-55281505D01*
X85130837Y-55126001D01*
X85168336Y-55059042D01*
X85175140Y-55046891D01*
X85229664Y-54949531D01*
X85255276Y-54874082D01*
X85268681Y-54834592D01*
X85308870Y-54777438D01*
X85373579Y-54751085D01*
X85442264Y-54763899D01*
X85493117Y-54811814D01*
X85505875Y-54842358D01*
X85532331Y-54941095D01*
X85536021Y-54951231D01*
X85627580Y-55147580D01*
X85632968Y-55156913D01*
X85757233Y-55334381D01*
X85764169Y-55342647D01*
X85917353Y-55495831D01*
X85925619Y-55502767D01*
X86103087Y-55627032D01*
X86112420Y-55632420D01*
X86308765Y-55723977D01*
X86318908Y-55727669D01*
X86492779Y-55774258D01*
X86506653Y-55773927D01*
X86510000Y-55766111D01*
X86510000Y-55761042D01*
X87010000Y-55761042D01*
X87013910Y-55774359D01*
X87022326Y-55775569D01*
X87201092Y-55727669D01*
X87211235Y-55723977D01*
X87407580Y-55632420D01*
X87416913Y-55627032D01*
X87594381Y-55502767D01*
X87602647Y-55495831D01*
X87755831Y-55342647D01*
X87762767Y-55334381D01*
X87887032Y-55156913D01*
X87892420Y-55147580D01*
X87983979Y-54951231D01*
X87987668Y-54941098D01*
X88012967Y-54846680D01*
X88049332Y-54787020D01*
X88112179Y-54756491D01*
X88181555Y-54764786D01*
X88235433Y-54809271D01*
X88252927Y-54848253D01*
X88256779Y-54863423D01*
X88256782Y-54863432D01*
X88258178Y-54868928D01*
X88260554Y-54874082D01*
X88296121Y-54951231D01*
X88342856Y-55052607D01*
X88459588Y-55217780D01*
X88604466Y-55358913D01*
X88772637Y-55471282D01*
X88958470Y-55551122D01*
X89054502Y-55572852D01*
X89150193Y-55594505D01*
X89150195Y-55594505D01*
X89155740Y-55595760D01*
X89273135Y-55600372D01*
X89352161Y-55603477D01*
X89352163Y-55603477D01*
X89357842Y-55603700D01*
X89363462Y-55602885D01*
X89363465Y-55602885D01*
X89552387Y-55575493D01*
X89552389Y-55575493D01*
X89558007Y-55574678D01*
X89563384Y-55572853D01*
X89563387Y-55572852D01*
X89667635Y-55537464D01*
X89749531Y-55509664D01*
X89926001Y-55410837D01*
X89938137Y-55400744D01*
X90077138Y-55285137D01*
X90081505Y-55281505D01*
X90210837Y-55126001D01*
X90248336Y-55059042D01*
X90255140Y-55046891D01*
X90309664Y-54949531D01*
X90357276Y-54809271D01*
X90372852Y-54763387D01*
X90372853Y-54763384D01*
X90374678Y-54758007D01*
X90382831Y-54701779D01*
X90403176Y-54561458D01*
X90403176Y-54561453D01*
X90403700Y-54557842D01*
X90405215Y-54500000D01*
X90402557Y-54471069D01*
X90735164Y-54471069D01*
X90735535Y-54476731D01*
X90735535Y-54476735D01*
X90740678Y-54555196D01*
X90748392Y-54672894D01*
X90798178Y-54868928D01*
X90800554Y-54874082D01*
X90836121Y-54951231D01*
X90882856Y-55052607D01*
X90999588Y-55217780D01*
X91144466Y-55358913D01*
X91312637Y-55471282D01*
X91498470Y-55551122D01*
X91594502Y-55572852D01*
X91690193Y-55594505D01*
X91690195Y-55594505D01*
X91695740Y-55595760D01*
X91813135Y-55600372D01*
X91892161Y-55603477D01*
X91892163Y-55603477D01*
X91897842Y-55603700D01*
X91903462Y-55602885D01*
X91903465Y-55602885D01*
X92092387Y-55575493D01*
X92092389Y-55575493D01*
X92098007Y-55574678D01*
X92103384Y-55572853D01*
X92103387Y-55572852D01*
X92207635Y-55537464D01*
X92289531Y-55509664D01*
X92466001Y-55410837D01*
X92478137Y-55400744D01*
X92617138Y-55285137D01*
X92621505Y-55281505D01*
X92750837Y-55126001D01*
X92788336Y-55059042D01*
X92795140Y-55046891D01*
X92849664Y-54949531D01*
X92897276Y-54809271D01*
X92912852Y-54763387D01*
X92912853Y-54763384D01*
X92914678Y-54758007D01*
X92922831Y-54701779D01*
X92943176Y-54561458D01*
X92943176Y-54561453D01*
X92943700Y-54557842D01*
X92945215Y-54500000D01*
X92942557Y-54471069D01*
X93275164Y-54471069D01*
X93275535Y-54476731D01*
X93275535Y-54476735D01*
X93280678Y-54555196D01*
X93288392Y-54672894D01*
X93338178Y-54868928D01*
X93340554Y-54874082D01*
X93376121Y-54951231D01*
X93422856Y-55052607D01*
X93539588Y-55217780D01*
X93684466Y-55358913D01*
X93852637Y-55471282D01*
X94038470Y-55551122D01*
X94134502Y-55572852D01*
X94230193Y-55594505D01*
X94230195Y-55594505D01*
X94235740Y-55595760D01*
X94353135Y-55600372D01*
X94432161Y-55603477D01*
X94432163Y-55603477D01*
X94437842Y-55603700D01*
X94443462Y-55602885D01*
X94443465Y-55602885D01*
X94632387Y-55575493D01*
X94632389Y-55575493D01*
X94638007Y-55574678D01*
X94643384Y-55572853D01*
X94643387Y-55572852D01*
X94747635Y-55537464D01*
X94829531Y-55509664D01*
X95006001Y-55410837D01*
X95018137Y-55400744D01*
X95157138Y-55285137D01*
X95161505Y-55281505D01*
X95290837Y-55126001D01*
X95328336Y-55059042D01*
X95335140Y-55046891D01*
X95389664Y-54949531D01*
X95437276Y-54809271D01*
X95452852Y-54763387D01*
X95452853Y-54763384D01*
X95454678Y-54758007D01*
X95462831Y-54701779D01*
X95483176Y-54561458D01*
X95483176Y-54561453D01*
X95483700Y-54557842D01*
X95485215Y-54500000D01*
X95482557Y-54471069D01*
X95815164Y-54471069D01*
X95815535Y-54476731D01*
X95815535Y-54476735D01*
X95820678Y-54555196D01*
X95828392Y-54672894D01*
X95878178Y-54868928D01*
X95880554Y-54874082D01*
X95916121Y-54951231D01*
X95962856Y-55052607D01*
X96079588Y-55217780D01*
X96224466Y-55358913D01*
X96392637Y-55471282D01*
X96578470Y-55551122D01*
X96674502Y-55572852D01*
X96770193Y-55594505D01*
X96770195Y-55594505D01*
X96775740Y-55595760D01*
X96893135Y-55600372D01*
X96972161Y-55603477D01*
X96972163Y-55603477D01*
X96977842Y-55603700D01*
X96983462Y-55602885D01*
X96983465Y-55602885D01*
X97172387Y-55575493D01*
X97172389Y-55575493D01*
X97178007Y-55574678D01*
X97183384Y-55572853D01*
X97183387Y-55572852D01*
X97287635Y-55537464D01*
X97369531Y-55509664D01*
X97546001Y-55410837D01*
X97558137Y-55400744D01*
X97697138Y-55285137D01*
X97701505Y-55281505D01*
X97830837Y-55126001D01*
X97868336Y-55059042D01*
X97875140Y-55046891D01*
X97929664Y-54949531D01*
X97977276Y-54809271D01*
X97992852Y-54763387D01*
X97992853Y-54763384D01*
X97994678Y-54758007D01*
X98002831Y-54701779D01*
X98023176Y-54561458D01*
X98023176Y-54561453D01*
X98023700Y-54557842D01*
X98025215Y-54500000D01*
X98022557Y-54471069D01*
X98355164Y-54471069D01*
X98355535Y-54476731D01*
X98355535Y-54476735D01*
X98360678Y-54555196D01*
X98368392Y-54672894D01*
X98418178Y-54868928D01*
X98420554Y-54874082D01*
X98456121Y-54951231D01*
X98502856Y-55052607D01*
X98619588Y-55217780D01*
X98764466Y-55358913D01*
X98932637Y-55471282D01*
X99118470Y-55551122D01*
X99214502Y-55572852D01*
X99310193Y-55594505D01*
X99310195Y-55594505D01*
X99315740Y-55595760D01*
X99433135Y-55600372D01*
X99512161Y-55603477D01*
X99512163Y-55603477D01*
X99517842Y-55603700D01*
X99523462Y-55602885D01*
X99523465Y-55602885D01*
X99712387Y-55575493D01*
X99712389Y-55575493D01*
X99718007Y-55574678D01*
X99723384Y-55572853D01*
X99723387Y-55572852D01*
X99827635Y-55537464D01*
X99909531Y-55509664D01*
X100086001Y-55410837D01*
X100098137Y-55400744D01*
X100237138Y-55285137D01*
X100241505Y-55281505D01*
X100370837Y-55126001D01*
X100402336Y-55069755D01*
X100467810Y-54952842D01*
X100517742Y-54903969D01*
X100586170Y-54889849D01*
X100651369Y-54914965D01*
X100692639Y-54971344D01*
X100700000Y-55013431D01*
X100700000Y-55343972D01*
X100700363Y-55350669D01*
X100705803Y-55400744D01*
X100709371Y-55415753D01*
X100753817Y-55534311D01*
X100762212Y-55549646D01*
X100837516Y-55650124D01*
X100849876Y-55662484D01*
X100950354Y-55737788D01*
X100965689Y-55746183D01*
X101084247Y-55790629D01*
X101099256Y-55794197D01*
X101149331Y-55799637D01*
X101156028Y-55800000D01*
X101732170Y-55800000D01*
X101747169Y-55795596D01*
X101748356Y-55794226D01*
X101750000Y-55786668D01*
X101750000Y-55782170D01*
X102250000Y-55782170D01*
X102254404Y-55797169D01*
X102255774Y-55798356D01*
X102263332Y-55800000D01*
X102843972Y-55800000D01*
X102850669Y-55799637D01*
X102900744Y-55794197D01*
X102915753Y-55790629D01*
X103034311Y-55746183D01*
X103049646Y-55737788D01*
X103150124Y-55662484D01*
X103162484Y-55650124D01*
X103237788Y-55549646D01*
X103246183Y-55534311D01*
X103290629Y-55415753D01*
X103294197Y-55400744D01*
X103299637Y-55350669D01*
X103300000Y-55343972D01*
X103300000Y-54767830D01*
X103295596Y-54752831D01*
X103294226Y-54751644D01*
X103286668Y-54750000D01*
X102267830Y-54750000D01*
X102252831Y-54754404D01*
X102251644Y-54755774D01*
X102250000Y-54763332D01*
X102250000Y-55782170D01*
X101750000Y-55782170D01*
X101750000Y-54232170D01*
X102250000Y-54232170D01*
X102254404Y-54247169D01*
X102255774Y-54248356D01*
X102263332Y-54250000D01*
X103282170Y-54250000D01*
X103297169Y-54245596D01*
X103298356Y-54244226D01*
X103300000Y-54236668D01*
X103300000Y-53656028D01*
X103299637Y-53649331D01*
X103294197Y-53599256D01*
X103290629Y-53584247D01*
X103246183Y-53465689D01*
X103237788Y-53450354D01*
X103162484Y-53349876D01*
X103150124Y-53337516D01*
X103049646Y-53262212D01*
X103034311Y-53253817D01*
X102915753Y-53209371D01*
X102900744Y-53205803D01*
X102850669Y-53200363D01*
X102843972Y-53200000D01*
X102267830Y-53200000D01*
X102252831Y-53204404D01*
X102251644Y-53205774D01*
X102250000Y-53213332D01*
X102250000Y-54232170D01*
X101750000Y-54232170D01*
X101750000Y-53217830D01*
X101745596Y-53202831D01*
X101744226Y-53201644D01*
X101736668Y-53200000D01*
X101156028Y-53200000D01*
X101149331Y-53200363D01*
X101099256Y-53205803D01*
X101084247Y-53209371D01*
X100965689Y-53253817D01*
X100950354Y-53262212D01*
X100849876Y-53337516D01*
X100837516Y-53349876D01*
X100762212Y-53450354D01*
X100753817Y-53465689D01*
X100709371Y-53584247D01*
X100705803Y-53599256D01*
X100700363Y-53649331D01*
X100700000Y-53656028D01*
X100700000Y-53994293D01*
X100680315Y-54061332D01*
X100627511Y-54107087D01*
X100558353Y-54117031D01*
X100494797Y-54088006D01*
X100464788Y-54049137D01*
X100449828Y-54018800D01*
X100402351Y-53922527D01*
X100281335Y-53760467D01*
X100150741Y-53639747D01*
X100136988Y-53627034D01*
X100136986Y-53627033D01*
X100132812Y-53623174D01*
X100100762Y-53602952D01*
X99966566Y-53518280D01*
X99966564Y-53518279D01*
X99961757Y-53515246D01*
X99773898Y-53440298D01*
X99768317Y-53439188D01*
X99768314Y-53439187D01*
X99692566Y-53424120D01*
X99575526Y-53400839D01*
X99569839Y-53400765D01*
X99569834Y-53400764D01*
X99378975Y-53398266D01*
X99378970Y-53398266D01*
X99373286Y-53398192D01*
X99367682Y-53399155D01*
X99367681Y-53399155D01*
X99179546Y-53431482D01*
X99179543Y-53431483D01*
X99173949Y-53432444D01*
X99152660Y-53440298D01*
X98989521Y-53500483D01*
X98989517Y-53500485D01*
X98984193Y-53502449D01*
X98979310Y-53505354D01*
X98979308Y-53505355D01*
X98815262Y-53602952D01*
X98810371Y-53605862D01*
X98658305Y-53739220D01*
X98533089Y-53898057D01*
X98530442Y-53903088D01*
X98503885Y-53953564D01*
X98438914Y-54077053D01*
X98437229Y-54082479D01*
X98437228Y-54082482D01*
X98414253Y-54156475D01*
X98378937Y-54270213D01*
X98355164Y-54471069D01*
X98022557Y-54471069D01*
X98006708Y-54298591D01*
X97951807Y-54103926D01*
X97862351Y-53922527D01*
X97741335Y-53760467D01*
X97610741Y-53639747D01*
X97596988Y-53627034D01*
X97596986Y-53627033D01*
X97592812Y-53623174D01*
X97560762Y-53602952D01*
X97426566Y-53518280D01*
X97426564Y-53518279D01*
X97421757Y-53515246D01*
X97233898Y-53440298D01*
X97228317Y-53439188D01*
X97228314Y-53439187D01*
X97152566Y-53424120D01*
X97035526Y-53400839D01*
X97029839Y-53400765D01*
X97029834Y-53400764D01*
X96838975Y-53398266D01*
X96838970Y-53398266D01*
X96833286Y-53398192D01*
X96827682Y-53399155D01*
X96827681Y-53399155D01*
X96639546Y-53431482D01*
X96639543Y-53431483D01*
X96633949Y-53432444D01*
X96612660Y-53440298D01*
X96449521Y-53500483D01*
X96449517Y-53500485D01*
X96444193Y-53502449D01*
X96439310Y-53505354D01*
X96439308Y-53505355D01*
X96275262Y-53602952D01*
X96270371Y-53605862D01*
X96118305Y-53739220D01*
X95993089Y-53898057D01*
X95990442Y-53903088D01*
X95963885Y-53953564D01*
X95898914Y-54077053D01*
X95897229Y-54082479D01*
X95897228Y-54082482D01*
X95874253Y-54156475D01*
X95838937Y-54270213D01*
X95815164Y-54471069D01*
X95482557Y-54471069D01*
X95466708Y-54298591D01*
X95411807Y-54103926D01*
X95322351Y-53922527D01*
X95201335Y-53760467D01*
X95070741Y-53639747D01*
X95056988Y-53627034D01*
X95056986Y-53627033D01*
X95052812Y-53623174D01*
X95020762Y-53602952D01*
X94886566Y-53518280D01*
X94886564Y-53518279D01*
X94881757Y-53515246D01*
X94693898Y-53440298D01*
X94688317Y-53439188D01*
X94688314Y-53439187D01*
X94612566Y-53424120D01*
X94495526Y-53400839D01*
X94489839Y-53400765D01*
X94489834Y-53400764D01*
X94298975Y-53398266D01*
X94298970Y-53398266D01*
X94293286Y-53398192D01*
X94287682Y-53399155D01*
X94287681Y-53399155D01*
X94099546Y-53431482D01*
X94099543Y-53431483D01*
X94093949Y-53432444D01*
X94072660Y-53440298D01*
X93909521Y-53500483D01*
X93909517Y-53500485D01*
X93904193Y-53502449D01*
X93899310Y-53505354D01*
X93899308Y-53505355D01*
X93735262Y-53602952D01*
X93730371Y-53605862D01*
X93578305Y-53739220D01*
X93453089Y-53898057D01*
X93450442Y-53903088D01*
X93423885Y-53953564D01*
X93358914Y-54077053D01*
X93357229Y-54082479D01*
X93357228Y-54082482D01*
X93334253Y-54156475D01*
X93298937Y-54270213D01*
X93275164Y-54471069D01*
X92942557Y-54471069D01*
X92926708Y-54298591D01*
X92871807Y-54103926D01*
X92782351Y-53922527D01*
X92661335Y-53760467D01*
X92530741Y-53639747D01*
X92516988Y-53627034D01*
X92516986Y-53627033D01*
X92512812Y-53623174D01*
X92480762Y-53602952D01*
X92346566Y-53518280D01*
X92346564Y-53518279D01*
X92341757Y-53515246D01*
X92153898Y-53440298D01*
X92148317Y-53439188D01*
X92148314Y-53439187D01*
X92072566Y-53424120D01*
X91955526Y-53400839D01*
X91949839Y-53400765D01*
X91949834Y-53400764D01*
X91758975Y-53398266D01*
X91758970Y-53398266D01*
X91753286Y-53398192D01*
X91747682Y-53399155D01*
X91747681Y-53399155D01*
X91559546Y-53431482D01*
X91559543Y-53431483D01*
X91553949Y-53432444D01*
X91532660Y-53440298D01*
X91369521Y-53500483D01*
X91369517Y-53500485D01*
X91364193Y-53502449D01*
X91359310Y-53505354D01*
X91359308Y-53505355D01*
X91195262Y-53602952D01*
X91190371Y-53605862D01*
X91038305Y-53739220D01*
X90913089Y-53898057D01*
X90910442Y-53903088D01*
X90883885Y-53953564D01*
X90818914Y-54077053D01*
X90817229Y-54082479D01*
X90817228Y-54082482D01*
X90794253Y-54156475D01*
X90758937Y-54270213D01*
X90735164Y-54471069D01*
X90402557Y-54471069D01*
X90386708Y-54298591D01*
X90331807Y-54103926D01*
X90242351Y-53922527D01*
X90121335Y-53760467D01*
X89990741Y-53639747D01*
X89976988Y-53627034D01*
X89976986Y-53627033D01*
X89972812Y-53623174D01*
X89940762Y-53602952D01*
X89806566Y-53518280D01*
X89806564Y-53518279D01*
X89801757Y-53515246D01*
X89613898Y-53440298D01*
X89608317Y-53439188D01*
X89608314Y-53439187D01*
X89532566Y-53424120D01*
X89415526Y-53400839D01*
X89409839Y-53400765D01*
X89409834Y-53400764D01*
X89218975Y-53398266D01*
X89218970Y-53398266D01*
X89213286Y-53398192D01*
X89207682Y-53399155D01*
X89207681Y-53399155D01*
X89019546Y-53431482D01*
X89019543Y-53431483D01*
X89013949Y-53432444D01*
X88992660Y-53440298D01*
X88829521Y-53500483D01*
X88829517Y-53500485D01*
X88824193Y-53502449D01*
X88819310Y-53505354D01*
X88819308Y-53505355D01*
X88655262Y-53602952D01*
X88650371Y-53605862D01*
X88498305Y-53739220D01*
X88373089Y-53898057D01*
X88370442Y-53903088D01*
X88343885Y-53953564D01*
X88278914Y-54077053D01*
X88277230Y-54082478D01*
X88277227Y-54082484D01*
X88252377Y-54162518D01*
X88213698Y-54220705D01*
X88149701Y-54248744D01*
X88080705Y-54237733D01*
X88028615Y-54191167D01*
X88014179Y-54157842D01*
X87987668Y-54058902D01*
X87983979Y-54048769D01*
X87892420Y-53852420D01*
X87887032Y-53843087D01*
X87762767Y-53665619D01*
X87755831Y-53657353D01*
X87602647Y-53504169D01*
X87594381Y-53497233D01*
X87416913Y-53372968D01*
X87407580Y-53367580D01*
X87211235Y-53276023D01*
X87201092Y-53272331D01*
X87027221Y-53225742D01*
X87013347Y-53226073D01*
X87010000Y-53233889D01*
X87010000Y-55761042D01*
X86510000Y-55761042D01*
X86510000Y-53238958D01*
X86506090Y-53225641D01*
X86497674Y-53224431D01*
X86318908Y-53272331D01*
X86308765Y-53276023D01*
X86112420Y-53367580D01*
X86103087Y-53372968D01*
X85925619Y-53497233D01*
X85917353Y-53504169D01*
X85764169Y-53657353D01*
X85757233Y-53665619D01*
X85632968Y-53843087D01*
X85627580Y-53852420D01*
X85536021Y-54048769D01*
X85532331Y-54058905D01*
X85506188Y-54156475D01*
X85469823Y-54216136D01*
X85406976Y-54246665D01*
X85337601Y-54238370D01*
X85283723Y-54193885D01*
X85267069Y-54158041D01*
X85253351Y-54109401D01*
X85251807Y-54103926D01*
X85162351Y-53922527D01*
X85041335Y-53760467D01*
X84910741Y-53639747D01*
X84896988Y-53627034D01*
X84896986Y-53627033D01*
X84892812Y-53623174D01*
X84860762Y-53602952D01*
X84726566Y-53518280D01*
X84726564Y-53518279D01*
X84721757Y-53515246D01*
X84533898Y-53440298D01*
X84528317Y-53439188D01*
X84528314Y-53439187D01*
X84452566Y-53424120D01*
X84335526Y-53400839D01*
X84329839Y-53400765D01*
X84329834Y-53400764D01*
X84138975Y-53398266D01*
X84138970Y-53398266D01*
X84133286Y-53398192D01*
X84127682Y-53399155D01*
X84127681Y-53399155D01*
X83939546Y-53431482D01*
X83939543Y-53431483D01*
X83933949Y-53432444D01*
X83912660Y-53440298D01*
X83749521Y-53500483D01*
X83749517Y-53500485D01*
X83744193Y-53502449D01*
X83739310Y-53505354D01*
X83739308Y-53505355D01*
X83575262Y-53602952D01*
X83570371Y-53605862D01*
X83418305Y-53739220D01*
X83293089Y-53898057D01*
X83290442Y-53903088D01*
X83263885Y-53953564D01*
X83198914Y-54077053D01*
X83197229Y-54082479D01*
X83197228Y-54082482D01*
X83174253Y-54156475D01*
X83138937Y-54270213D01*
X83115164Y-54471069D01*
X63966034Y-54471069D01*
X64850336Y-53586767D01*
X64911659Y-53553282D01*
X64939964Y-53550463D01*
X65016290Y-53551662D01*
X65016293Y-53551662D01*
X65023760Y-53551779D01*
X65179297Y-53516157D01*
X65181738Y-53515598D01*
X65181739Y-53515598D01*
X65189029Y-53513928D01*
X65315432Y-53450354D01*
X65333820Y-53441106D01*
X65333822Y-53441105D01*
X65340498Y-53437747D01*
X65346180Y-53432894D01*
X65346183Y-53432892D01*
X65463741Y-53332487D01*
X65469423Y-53327634D01*
X65568361Y-53189947D01*
X65631601Y-53032634D01*
X65655490Y-52864778D01*
X65655645Y-52850000D01*
X65635276Y-52681680D01*
X65575345Y-52523077D01*
X65566657Y-52510436D01*
X65483549Y-52389513D01*
X65483546Y-52389510D01*
X65479312Y-52383349D01*
X65352721Y-52270560D01*
X65338347Y-52262949D01*
X65209489Y-52194723D01*
X65202881Y-52191224D01*
X65038441Y-52149919D01*
X64952248Y-52149468D01*
X64876368Y-52149070D01*
X64876367Y-52149070D01*
X64868895Y-52149031D01*
X64847235Y-52154231D01*
X64711295Y-52186868D01*
X64711293Y-52186869D01*
X64704032Y-52188612D01*
X64697399Y-52192035D01*
X64697395Y-52192037D01*
X64630465Y-52226583D01*
X64553369Y-52266375D01*
X64425604Y-52377831D01*
X64328113Y-52516547D01*
X64266524Y-52674513D01*
X64244394Y-52842611D01*
X64245405Y-52851772D01*
X64245183Y-52853025D01*
X64245136Y-52857516D01*
X64244387Y-52857508D01*
X64233199Y-52920563D01*
X64209836Y-52953061D01*
X62844722Y-54318175D01*
X62783399Y-54351660D01*
X62756392Y-54354492D01*
X62671391Y-54354047D01*
X62671390Y-54354047D01*
X62663918Y-54354008D01*
X62656654Y-54355752D01*
X62506318Y-54391845D01*
X62506316Y-54391846D01*
X62499055Y-54393589D01*
X62492422Y-54397012D01*
X62492418Y-54397014D01*
X62425488Y-54431560D01*
X62348392Y-54471352D01*
X62342760Y-54476265D01*
X62229359Y-54575191D01*
X62220627Y-54582808D01*
X62123136Y-54721524D01*
X62061547Y-54879490D01*
X62039417Y-55047588D01*
X32800500Y-55047588D01*
X32800500Y-51493111D01*
X49294394Y-51493111D01*
X49295214Y-51500539D01*
X49295214Y-51500541D01*
X49308073Y-51617012D01*
X49312999Y-51661635D01*
X49315565Y-51668647D01*
X49315566Y-51668651D01*
X49331089Y-51711068D01*
X49371266Y-51820856D01*
X49375433Y-51827058D01*
X49375435Y-51827061D01*
X49425751Y-51901939D01*
X49465830Y-51961583D01*
X49489353Y-51982987D01*
X49508954Y-52000823D01*
X49545290Y-52060501D01*
X49549500Y-52092537D01*
X49549500Y-53424277D01*
X49529815Y-53491316D01*
X49518204Y-53506523D01*
X49513034Y-53511033D01*
X49422501Y-53639848D01*
X49365309Y-53786539D01*
X49344758Y-53942638D01*
X49345578Y-53950066D01*
X49345578Y-53950068D01*
X49357594Y-54058905D01*
X49362035Y-54099133D01*
X49364601Y-54106145D01*
X49364602Y-54106149D01*
X49387292Y-54168151D01*
X49416143Y-54246990D01*
X49503958Y-54377672D01*
X49521451Y-54393589D01*
X49614878Y-54478602D01*
X49614882Y-54478605D01*
X49620410Y-54483635D01*
X49626980Y-54487202D01*
X49626981Y-54487203D01*
X49648071Y-54498654D01*
X49758776Y-54558762D01*
X49850435Y-54582808D01*
X49903841Y-54596819D01*
X49903843Y-54596819D01*
X49911069Y-54598715D01*
X49988127Y-54599925D01*
X50061025Y-54601071D01*
X50061028Y-54601071D01*
X50068495Y-54601188D01*
X50075776Y-54599520D01*
X50075780Y-54599520D01*
X50214681Y-54567707D01*
X50221968Y-54566038D01*
X50362625Y-54495295D01*
X50368306Y-54490443D01*
X50368309Y-54490441D01*
X50476666Y-54397895D01*
X50476667Y-54397894D01*
X50482348Y-54393042D01*
X50493393Y-54377672D01*
X50536145Y-54318175D01*
X50574224Y-54265183D01*
X50632950Y-54119098D01*
X50634330Y-54109401D01*
X50650952Y-53992611D01*
X55794394Y-53992611D01*
X55795214Y-54000039D01*
X55795214Y-54000041D01*
X55808130Y-54117031D01*
X55812999Y-54161135D01*
X55815565Y-54168147D01*
X55815566Y-54168151D01*
X55861297Y-54293114D01*
X55871266Y-54320356D01*
X55875433Y-54326558D01*
X55875435Y-54326561D01*
X55920476Y-54393589D01*
X55965830Y-54461083D01*
X55971360Y-54466115D01*
X56085702Y-54570159D01*
X56085706Y-54570162D01*
X56091233Y-54575191D01*
X56240235Y-54656092D01*
X56304281Y-54672894D01*
X56397005Y-54697220D01*
X56397007Y-54697220D01*
X56404233Y-54699116D01*
X56487178Y-54700419D01*
X56566290Y-54701662D01*
X56566293Y-54701662D01*
X56573760Y-54701779D01*
X56699881Y-54672894D01*
X56731738Y-54665598D01*
X56731739Y-54665598D01*
X56739029Y-54663928D01*
X56863774Y-54601188D01*
X56883820Y-54591106D01*
X56883822Y-54591105D01*
X56890498Y-54587747D01*
X56896180Y-54582894D01*
X56896183Y-54582892D01*
X57013741Y-54482487D01*
X57019423Y-54477634D01*
X57118361Y-54339947D01*
X57181601Y-54182634D01*
X57185101Y-54158041D01*
X57204918Y-54018800D01*
X57204918Y-54018794D01*
X57205490Y-54014778D01*
X57205645Y-54000000D01*
X57201681Y-53967244D01*
X57186175Y-53839105D01*
X57186174Y-53839101D01*
X57185276Y-53831680D01*
X57168219Y-53786539D01*
X57127989Y-53680073D01*
X57127987Y-53680070D01*
X57125345Y-53673077D01*
X57113628Y-53656028D01*
X57072309Y-53595910D01*
X57050500Y-53525675D01*
X57050500Y-51694646D01*
X92749500Y-51694646D01*
X92752618Y-51720846D01*
X92798061Y-51823153D01*
X92877287Y-51902241D01*
X92887758Y-51906870D01*
X92887759Y-51906871D01*
X92971147Y-51943737D01*
X92971149Y-51943738D01*
X92979673Y-51947506D01*
X93005354Y-51950500D01*
X94794646Y-51950500D01*
X94798300Y-51950065D01*
X94798302Y-51950065D01*
X94803266Y-51949474D01*
X94820846Y-51947382D01*
X94923153Y-51901939D01*
X95002241Y-51822713D01*
X95047506Y-51720327D01*
X95050500Y-51694646D01*
X95050500Y-50980300D01*
X95070185Y-50913261D01*
X95122989Y-50867506D01*
X95192147Y-50857562D01*
X95255703Y-50886587D01*
X95293477Y-50945365D01*
X95298234Y-50972190D01*
X95298423Y-50975072D01*
X95298425Y-50975082D01*
X95298796Y-50980749D01*
X95350845Y-51185690D01*
X95353219Y-51190841D01*
X95353221Y-51190845D01*
X95436991Y-51372556D01*
X95439369Y-51377714D01*
X95442647Y-51382352D01*
X95536590Y-51515278D01*
X95561405Y-51550391D01*
X95712865Y-51697937D01*
X95717588Y-51701093D01*
X95717592Y-51701096D01*
X95788663Y-51748584D01*
X95888677Y-51815411D01*
X96082953Y-51898878D01*
X96118277Y-51906871D01*
X96283638Y-51944289D01*
X96283642Y-51944290D01*
X96289186Y-51945544D01*
X96415315Y-51950500D01*
X96494789Y-51953623D01*
X96494791Y-51953623D01*
X96500470Y-51953846D01*
X96506090Y-51953031D01*
X96506092Y-51953031D01*
X96704103Y-51924320D01*
X96704104Y-51924320D01*
X96709730Y-51923504D01*
X96728588Y-51917103D01*
X96904565Y-51857367D01*
X96904568Y-51857366D01*
X96909955Y-51855537D01*
X96914916Y-51852759D01*
X96914922Y-51852756D01*
X97021530Y-51793052D01*
X97094442Y-51752219D01*
X97132165Y-51720846D01*
X97252645Y-51620644D01*
X97257012Y-51617012D01*
X97260644Y-51612645D01*
X97388584Y-51458813D01*
X97388585Y-51458811D01*
X97392219Y-51454442D01*
X97460552Y-51332425D01*
X97492756Y-51274922D01*
X97492759Y-51274916D01*
X97495537Y-51269955D01*
X97526009Y-51180189D01*
X97561675Y-51075118D01*
X97563504Y-51069730D01*
X97576471Y-50980300D01*
X97587820Y-50902033D01*
X97616921Y-50838512D01*
X97670225Y-50804346D01*
X97750974Y-50804346D01*
X97804347Y-50838736D01*
X97833296Y-50902327D01*
X97834271Y-50911707D01*
X97838796Y-50980749D01*
X97890845Y-51185690D01*
X97893219Y-51190841D01*
X97893221Y-51190845D01*
X97976991Y-51372556D01*
X97979369Y-51377714D01*
X97982647Y-51382352D01*
X98076590Y-51515278D01*
X98101405Y-51550391D01*
X98252865Y-51697937D01*
X98257588Y-51701093D01*
X98257592Y-51701096D01*
X98328663Y-51748584D01*
X98428677Y-51815411D01*
X98622953Y-51898878D01*
X98658277Y-51906871D01*
X98823638Y-51944289D01*
X98823642Y-51944290D01*
X98829186Y-51945544D01*
X98955315Y-51950500D01*
X99034789Y-51953623D01*
X99034791Y-51953623D01*
X99040470Y-51953846D01*
X99046090Y-51953031D01*
X99046092Y-51953031D01*
X99244103Y-51924320D01*
X99244104Y-51924320D01*
X99249730Y-51923504D01*
X99268588Y-51917103D01*
X99444565Y-51857367D01*
X99444568Y-51857366D01*
X99449955Y-51855537D01*
X99454916Y-51852759D01*
X99454922Y-51852756D01*
X99561530Y-51793052D01*
X99634442Y-51752219D01*
X99672165Y-51720846D01*
X99792645Y-51620644D01*
X99797012Y-51617012D01*
X99800644Y-51612645D01*
X99928584Y-51458813D01*
X99928585Y-51458811D01*
X99932219Y-51454442D01*
X100000552Y-51332425D01*
X100032756Y-51274922D01*
X100032759Y-51274916D01*
X100035537Y-51269955D01*
X100066009Y-51180189D01*
X100101675Y-51075118D01*
X100103504Y-51069730D01*
X100116471Y-50980300D01*
X100127820Y-50902033D01*
X100156921Y-50838512D01*
X100210225Y-50804346D01*
X100290974Y-50804346D01*
X100344347Y-50838736D01*
X100373296Y-50902327D01*
X100374271Y-50911707D01*
X100378796Y-50980749D01*
X100430845Y-51185690D01*
X100433219Y-51190841D01*
X100433221Y-51190845D01*
X100516991Y-51372556D01*
X100519369Y-51377714D01*
X100522647Y-51382352D01*
X100616590Y-51515278D01*
X100641405Y-51550391D01*
X100792865Y-51697937D01*
X100797588Y-51701093D01*
X100797592Y-51701096D01*
X100868663Y-51748584D01*
X100968677Y-51815411D01*
X101162953Y-51898878D01*
X101198277Y-51906871D01*
X101363638Y-51944289D01*
X101363642Y-51944290D01*
X101369186Y-51945544D01*
X101495315Y-51950500D01*
X101574789Y-51953623D01*
X101574791Y-51953623D01*
X101580470Y-51953846D01*
X101586090Y-51953031D01*
X101586092Y-51953031D01*
X101784103Y-51924320D01*
X101784104Y-51924320D01*
X101789730Y-51923504D01*
X101808588Y-51917103D01*
X101984565Y-51857367D01*
X101984568Y-51857366D01*
X101989955Y-51855537D01*
X101994916Y-51852759D01*
X101994922Y-51852756D01*
X102101530Y-51793052D01*
X102174442Y-51752219D01*
X102212165Y-51720846D01*
X102332645Y-51620644D01*
X102337012Y-51617012D01*
X102340644Y-51612645D01*
X102468584Y-51458813D01*
X102468585Y-51458811D01*
X102472219Y-51454442D01*
X102540552Y-51332425D01*
X102572756Y-51274922D01*
X102572759Y-51274916D01*
X102575537Y-51269955D01*
X102606009Y-51180189D01*
X102641675Y-51075118D01*
X102643504Y-51069730D01*
X102673846Y-50860470D01*
X102675429Y-50800000D01*
X102656081Y-50589440D01*
X102598686Y-50385931D01*
X102505165Y-50196290D01*
X102378651Y-50026867D01*
X102374481Y-50023012D01*
X102374478Y-50023009D01*
X102310319Y-49963702D01*
X102223381Y-49883337D01*
X102217574Y-49879673D01*
X102049363Y-49773539D01*
X102049361Y-49773538D01*
X102044554Y-49770505D01*
X101848160Y-49692152D01*
X101842579Y-49691042D01*
X101842576Y-49691041D01*
X101744467Y-49671526D01*
X101640775Y-49650901D01*
X101635088Y-49650827D01*
X101635083Y-49650826D01*
X101435034Y-49648207D01*
X101435029Y-49648207D01*
X101429346Y-49648133D01*
X101423742Y-49649096D01*
X101423741Y-49649096D01*
X101226550Y-49682979D01*
X101226547Y-49682980D01*
X101220953Y-49683941D01*
X101022575Y-49757127D01*
X101017697Y-49760029D01*
X101017695Y-49760030D01*
X100845740Y-49862332D01*
X100845737Y-49862334D01*
X100840856Y-49865238D01*
X100681881Y-50004655D01*
X100678362Y-50009119D01*
X100678359Y-50009122D01*
X100660782Y-50031419D01*
X100550976Y-50170708D01*
X100452523Y-50357836D01*
X100450837Y-50363267D01*
X100450835Y-50363271D01*
X100428010Y-50436781D01*
X100389820Y-50559773D01*
X100372851Y-50703140D01*
X100345425Y-50767398D01*
X100290974Y-50804346D01*
X100210225Y-50804346D01*
X100210667Y-50804063D01*
X100158057Y-50772081D01*
X100127453Y-50709271D01*
X100126232Y-50699909D01*
X100116601Y-50595100D01*
X100116081Y-50589440D01*
X100058686Y-50385931D01*
X99965165Y-50196290D01*
X99838651Y-50026867D01*
X99834481Y-50023012D01*
X99834478Y-50023009D01*
X99770319Y-49963702D01*
X99683381Y-49883337D01*
X99677574Y-49879673D01*
X99509363Y-49773539D01*
X99509361Y-49773538D01*
X99504554Y-49770505D01*
X99308160Y-49692152D01*
X99302579Y-49691042D01*
X99302576Y-49691041D01*
X99204467Y-49671526D01*
X99100775Y-49650901D01*
X99095088Y-49650827D01*
X99095083Y-49650826D01*
X98895034Y-49648207D01*
X98895029Y-49648207D01*
X98889346Y-49648133D01*
X98883742Y-49649096D01*
X98883741Y-49649096D01*
X98686550Y-49682979D01*
X98686547Y-49682980D01*
X98680953Y-49683941D01*
X98482575Y-49757127D01*
X98477697Y-49760029D01*
X98477695Y-49760030D01*
X98305740Y-49862332D01*
X98305737Y-49862334D01*
X98300856Y-49865238D01*
X98141881Y-50004655D01*
X98138362Y-50009119D01*
X98138359Y-50009122D01*
X98120782Y-50031419D01*
X98010976Y-50170708D01*
X97912523Y-50357836D01*
X97910837Y-50363267D01*
X97910835Y-50363271D01*
X97888010Y-50436781D01*
X97849820Y-50559773D01*
X97832851Y-50703140D01*
X97805425Y-50767398D01*
X97750974Y-50804346D01*
X97670225Y-50804346D01*
X97670667Y-50804063D01*
X97618057Y-50772081D01*
X97587453Y-50709271D01*
X97586232Y-50699909D01*
X97576601Y-50595100D01*
X97576081Y-50589440D01*
X97518686Y-50385931D01*
X97425165Y-50196290D01*
X97298651Y-50026867D01*
X97294481Y-50023012D01*
X97294478Y-50023009D01*
X97230319Y-49963702D01*
X97143381Y-49883337D01*
X97137574Y-49879673D01*
X96969363Y-49773539D01*
X96969361Y-49773538D01*
X96964554Y-49770505D01*
X96768160Y-49692152D01*
X96762579Y-49691042D01*
X96762576Y-49691041D01*
X96664467Y-49671526D01*
X96560775Y-49650901D01*
X96555088Y-49650827D01*
X96555083Y-49650826D01*
X96355034Y-49648207D01*
X96355029Y-49648207D01*
X96349346Y-49648133D01*
X96343742Y-49649096D01*
X96343741Y-49649096D01*
X96146550Y-49682979D01*
X96146547Y-49682980D01*
X96140953Y-49683941D01*
X95942575Y-49757127D01*
X95937697Y-49760029D01*
X95937695Y-49760030D01*
X95765740Y-49862332D01*
X95765737Y-49862334D01*
X95760856Y-49865238D01*
X95601881Y-50004655D01*
X95598362Y-50009119D01*
X95598359Y-50009122D01*
X95580782Y-50031419D01*
X95470976Y-50170708D01*
X95372523Y-50357836D01*
X95370837Y-50363267D01*
X95370835Y-50363271D01*
X95348010Y-50436781D01*
X95309820Y-50559773D01*
X95309152Y-50565418D01*
X95309151Y-50565422D01*
X95297640Y-50662681D01*
X95270213Y-50726942D01*
X95212397Y-50766173D01*
X95142549Y-50767919D01*
X95082845Y-50731625D01*
X95052241Y-50668814D01*
X95050500Y-50648106D01*
X95050500Y-49905354D01*
X95047382Y-49879154D01*
X95001939Y-49776847D01*
X94922713Y-49697759D01*
X94912242Y-49693130D01*
X94912241Y-49693129D01*
X94828853Y-49656263D01*
X94828851Y-49656262D01*
X94820327Y-49652494D01*
X94794646Y-49649500D01*
X93005354Y-49649500D01*
X93001700Y-49649935D01*
X93001698Y-49649935D01*
X92996734Y-49650526D01*
X92979154Y-49652618D01*
X92876847Y-49698061D01*
X92797759Y-49777287D01*
X92793130Y-49787758D01*
X92793129Y-49787759D01*
X92758876Y-49865238D01*
X92752494Y-49879673D01*
X92749500Y-49905354D01*
X92749500Y-51694646D01*
X57050500Y-51694646D01*
X57050500Y-50474318D01*
X57073802Y-50401959D01*
X57113999Y-50346019D01*
X57114003Y-50346012D01*
X57118361Y-50339947D01*
X57181601Y-50182634D01*
X57182654Y-50175237D01*
X57204918Y-50018800D01*
X57204918Y-50018794D01*
X57205490Y-50014778D01*
X57205550Y-50009122D01*
X57205602Y-50004065D01*
X57205645Y-50000000D01*
X57194637Y-49909035D01*
X57186175Y-49839105D01*
X57186174Y-49839101D01*
X57185276Y-49831680D01*
X57134672Y-49697759D01*
X57127989Y-49680073D01*
X57127987Y-49680070D01*
X57125345Y-49673077D01*
X57111199Y-49652494D01*
X57033549Y-49539513D01*
X57033546Y-49539510D01*
X57029312Y-49533349D01*
X56902721Y-49420560D01*
X56888347Y-49412949D01*
X56759489Y-49344723D01*
X56752881Y-49341224D01*
X56588441Y-49299919D01*
X56502248Y-49299468D01*
X56426368Y-49299070D01*
X56426367Y-49299070D01*
X56418895Y-49299031D01*
X56397235Y-49304231D01*
X56261295Y-49336868D01*
X56261293Y-49336869D01*
X56254032Y-49338612D01*
X56247399Y-49342035D01*
X56247395Y-49342037D01*
X56180465Y-49376583D01*
X56103369Y-49416375D01*
X55975604Y-49527831D01*
X55878113Y-49666547D01*
X55816524Y-49824513D01*
X55815548Y-49831923D01*
X55815548Y-49831925D01*
X55809262Y-49879673D01*
X55794394Y-49992611D01*
X55795214Y-50000039D01*
X55795214Y-50000041D01*
X55796841Y-50014778D01*
X55812999Y-50161135D01*
X55815565Y-50168147D01*
X55815566Y-50168151D01*
X55824196Y-50191733D01*
X55871266Y-50320356D01*
X55875433Y-50326557D01*
X55875438Y-50326567D01*
X55928421Y-50405413D01*
X55949500Y-50474573D01*
X55949500Y-53525757D01*
X55926951Y-53597057D01*
X55878113Y-53666547D01*
X55816524Y-53824513D01*
X55815548Y-53831923D01*
X55815548Y-53831925D01*
X55806842Y-53898057D01*
X55794394Y-53992611D01*
X50650952Y-53992611D01*
X50654562Y-53967244D01*
X50654562Y-53967240D01*
X50655134Y-53963223D01*
X50655278Y-53949500D01*
X50641050Y-53831925D01*
X50637262Y-53800619D01*
X50637261Y-53800615D01*
X50636363Y-53793194D01*
X50614553Y-53735474D01*
X50583354Y-53652908D01*
X50583352Y-53652905D01*
X50580710Y-53645912D01*
X50572337Y-53633729D01*
X50495768Y-53522321D01*
X50495765Y-53522318D01*
X50491531Y-53516157D01*
X50485945Y-53511180D01*
X50481488Y-53506125D01*
X50451918Y-53442821D01*
X50450500Y-53424120D01*
X50450500Y-52094165D01*
X50470185Y-52027126D01*
X50493968Y-51999875D01*
X50513741Y-51982987D01*
X50519423Y-51978134D01*
X50618361Y-51840447D01*
X50681601Y-51683134D01*
X50685718Y-51654207D01*
X50704918Y-51519300D01*
X50704918Y-51519294D01*
X50705490Y-51515278D01*
X50705645Y-51500500D01*
X50700600Y-51458813D01*
X50686175Y-51339605D01*
X50686174Y-51339601D01*
X50685276Y-51332180D01*
X50661763Y-51269955D01*
X50627989Y-51180573D01*
X50627987Y-51180570D01*
X50625345Y-51173577D01*
X50557676Y-51075118D01*
X50533549Y-51040013D01*
X50533546Y-51040010D01*
X50529312Y-51033849D01*
X50463355Y-50975083D01*
X50408303Y-50926033D01*
X50408301Y-50926032D01*
X50402721Y-50921060D01*
X50388347Y-50913449D01*
X50259489Y-50845223D01*
X50252881Y-50841724D01*
X50088441Y-50800419D01*
X50002248Y-50799968D01*
X49926368Y-50799570D01*
X49926367Y-50799570D01*
X49918895Y-50799531D01*
X49901726Y-50803653D01*
X49761295Y-50837368D01*
X49761293Y-50837369D01*
X49754032Y-50839112D01*
X49747399Y-50842535D01*
X49747395Y-50842537D01*
X49680465Y-50877083D01*
X49603369Y-50916875D01*
X49597737Y-50921788D01*
X49530149Y-50980749D01*
X49475604Y-51028331D01*
X49378113Y-51167047D01*
X49316524Y-51325013D01*
X49294394Y-51493111D01*
X32800500Y-51493111D01*
X32800500Y-38092244D01*
X33105819Y-38092244D01*
X33115490Y-38276781D01*
X33164562Y-38454936D01*
X33167694Y-38460876D01*
X33245231Y-38607937D01*
X33250746Y-38618398D01*
X33255077Y-38623523D01*
X33255079Y-38623526D01*
X33365687Y-38754413D01*
X33370020Y-38759540D01*
X33516820Y-38871777D01*
X33522907Y-38874616D01*
X33522908Y-38874616D01*
X33678214Y-38947037D01*
X33678218Y-38947039D01*
X33684297Y-38949873D01*
X33690845Y-38951337D01*
X33690846Y-38951337D01*
X33859674Y-38989074D01*
X33859678Y-38989075D01*
X33864637Y-38990183D01*
X33870307Y-38990500D01*
X34006164Y-38990500D01*
X34143709Y-38975558D01*
X34173195Y-38965635D01*
X34312477Y-38918761D01*
X34312476Y-38918761D01*
X34318848Y-38916617D01*
X34477244Y-38821443D01*
X34611507Y-38694476D01*
X34715375Y-38541640D01*
X34784000Y-38370065D01*
X34814181Y-38187756D01*
X34809879Y-38105665D01*
X35095119Y-38105665D01*
X35095412Y-38110747D01*
X35095412Y-38110748D01*
X35099852Y-38187756D01*
X35108376Y-38335580D01*
X35109495Y-38340544D01*
X35156065Y-38547190D01*
X35159006Y-38560242D01*
X35160919Y-38564953D01*
X35239933Y-38759540D01*
X35245649Y-38773618D01*
X35248311Y-38777962D01*
X35363317Y-38965635D01*
X35363321Y-38965640D01*
X35365979Y-38969978D01*
X35369311Y-38973824D01*
X35369312Y-38973826D01*
X35469865Y-39089907D01*
X35516763Y-39144048D01*
X35520673Y-39147294D01*
X35520677Y-39147298D01*
X35618911Y-39228853D01*
X35693953Y-39291154D01*
X35793516Y-39349334D01*
X35884056Y-39402241D01*
X35892790Y-39407345D01*
X35897543Y-39409160D01*
X35897545Y-39409161D01*
X35965584Y-39435142D01*
X36107934Y-39489501D01*
X36112920Y-39490515D01*
X36112922Y-39490516D01*
X36183822Y-39504940D01*
X36333607Y-39535414D01*
X36483235Y-39540901D01*
X36558670Y-39543667D01*
X36558673Y-39543667D01*
X36563749Y-39543853D01*
X36792178Y-39514591D01*
X36797048Y-39513130D01*
X37007892Y-39449874D01*
X37007895Y-39449873D01*
X37012761Y-39448413D01*
X37017324Y-39446177D01*
X37017328Y-39446176D01*
X37141186Y-39385498D01*
X37219574Y-39347096D01*
X37407062Y-39213363D01*
X37570190Y-39050803D01*
X37704577Y-38863783D01*
X37758631Y-38754413D01*
X37804358Y-38661892D01*
X37804359Y-38661890D01*
X37806615Y-38657325D01*
X37861303Y-38477326D01*
X47422667Y-38477326D01*
X47475168Y-38673264D01*
X47478857Y-38683397D01*
X47574110Y-38887667D01*
X47579508Y-38897017D01*
X47708784Y-39081643D01*
X47715719Y-39089907D01*
X47875091Y-39249279D01*
X47883357Y-39256215D01*
X48067992Y-39385498D01*
X48077324Y-39390886D01*
X48269698Y-39480592D01*
X48322137Y-39526764D01*
X48341289Y-39593958D01*
X48321073Y-39660839D01*
X48267908Y-39706174D01*
X48260212Y-39709309D01*
X48252575Y-39712127D01*
X48247697Y-39715029D01*
X48247695Y-39715030D01*
X48075740Y-39817332D01*
X48075737Y-39817334D01*
X48070856Y-39820238D01*
X47911881Y-39959655D01*
X47908362Y-39964119D01*
X47908359Y-39964122D01*
X47890782Y-39986419D01*
X47780976Y-40125708D01*
X47682523Y-40312836D01*
X47619820Y-40514773D01*
X47619152Y-40520418D01*
X47619151Y-40520422D01*
X47595635Y-40719110D01*
X47594967Y-40724754D01*
X47595338Y-40730416D01*
X47595338Y-40730420D01*
X47596949Y-40755000D01*
X47608796Y-40935749D01*
X47660845Y-41140690D01*
X47663219Y-41145841D01*
X47663221Y-41145845D01*
X47701981Y-41229922D01*
X47749369Y-41332714D01*
X47871405Y-41505391D01*
X48022865Y-41652937D01*
X48027588Y-41656093D01*
X48027592Y-41656096D01*
X48098663Y-41703584D01*
X48198677Y-41770411D01*
X48392953Y-41853878D01*
X48456283Y-41868208D01*
X48593638Y-41899289D01*
X48593642Y-41899290D01*
X48599186Y-41900544D01*
X48618328Y-41901296D01*
X48684543Y-41923596D01*
X48728190Y-41978156D01*
X48735412Y-42047651D01*
X48703914Y-42110018D01*
X48643699Y-42145457D01*
X48634460Y-42147409D01*
X48456550Y-42177979D01*
X48456547Y-42177980D01*
X48450953Y-42178941D01*
X48252575Y-42252127D01*
X48247697Y-42255029D01*
X48247695Y-42255030D01*
X48075740Y-42357332D01*
X48075737Y-42357334D01*
X48070856Y-42360238D01*
X47911881Y-42499655D01*
X47908362Y-42504119D01*
X47908359Y-42504122D01*
X47890782Y-42526419D01*
X47780976Y-42665708D01*
X47682523Y-42852836D01*
X47680837Y-42858267D01*
X47680835Y-42858271D01*
X47659577Y-42926734D01*
X47619820Y-43054773D01*
X47619152Y-43060418D01*
X47619151Y-43060422D01*
X47595635Y-43259110D01*
X47594967Y-43264754D01*
X47595338Y-43270416D01*
X47595338Y-43270420D01*
X47596918Y-43294527D01*
X47608796Y-43475749D01*
X47660845Y-43680690D01*
X47663219Y-43685841D01*
X47663221Y-43685845D01*
X47745278Y-43863840D01*
X47749369Y-43872714D01*
X47871405Y-44045391D01*
X48022865Y-44192937D01*
X48027588Y-44196093D01*
X48027592Y-44196096D01*
X48071069Y-44225146D01*
X48198677Y-44310411D01*
X48392953Y-44393878D01*
X48456283Y-44408208D01*
X48593638Y-44439289D01*
X48593642Y-44439290D01*
X48599186Y-44440544D01*
X48618328Y-44441296D01*
X48684543Y-44463596D01*
X48728190Y-44518156D01*
X48735412Y-44587651D01*
X48703914Y-44650018D01*
X48643699Y-44685457D01*
X48634460Y-44687409D01*
X48456550Y-44717979D01*
X48456547Y-44717980D01*
X48450953Y-44718941D01*
X48252575Y-44792127D01*
X48247697Y-44795029D01*
X48247695Y-44795030D01*
X48075740Y-44897332D01*
X48075737Y-44897334D01*
X48070856Y-44900238D01*
X47911881Y-45039655D01*
X47908362Y-45044119D01*
X47908359Y-45044122D01*
X47849731Y-45118492D01*
X47780976Y-45205708D01*
X47682523Y-45392836D01*
X47680837Y-45398267D01*
X47680835Y-45398271D01*
X47623203Y-45583879D01*
X47619820Y-45594773D01*
X47619152Y-45600418D01*
X47619151Y-45600422D01*
X47595635Y-45799110D01*
X47594967Y-45804754D01*
X47595338Y-45810416D01*
X47595338Y-45810420D01*
X47596949Y-45835000D01*
X47608796Y-46015749D01*
X47660845Y-46220690D01*
X47663219Y-46225841D01*
X47663221Y-46225845D01*
X47731795Y-46374593D01*
X47749369Y-46412714D01*
X47871405Y-46585391D01*
X48022865Y-46732937D01*
X48027588Y-46736093D01*
X48027592Y-46736096D01*
X48098663Y-46783584D01*
X48198677Y-46850411D01*
X48392953Y-46933878D01*
X48456283Y-46948208D01*
X48593638Y-46979289D01*
X48593642Y-46979290D01*
X48599186Y-46980544D01*
X48725651Y-46985513D01*
X48804789Y-46988623D01*
X48804791Y-46988623D01*
X48810470Y-46988846D01*
X48816090Y-46988031D01*
X48816092Y-46988031D01*
X49014103Y-46959320D01*
X49014104Y-46959320D01*
X49019730Y-46958504D01*
X49172102Y-46906781D01*
X49214565Y-46892367D01*
X49214568Y-46892366D01*
X49219955Y-46890537D01*
X49224916Y-46887759D01*
X49224922Y-46887756D01*
X49361896Y-46811046D01*
X49404442Y-46787219D01*
X49567012Y-46652012D01*
X49588025Y-46626747D01*
X49698584Y-46493813D01*
X49698585Y-46493811D01*
X49702219Y-46489442D01*
X49766538Y-46374593D01*
X49802756Y-46309922D01*
X49802759Y-46309916D01*
X49805537Y-46304955D01*
X49808054Y-46297542D01*
X49871675Y-46110118D01*
X49873504Y-46104730D01*
X49903846Y-45895470D01*
X49905429Y-45835000D01*
X49886081Y-45624440D01*
X49828686Y-45420931D01*
X49735165Y-45231290D01*
X49608651Y-45061867D01*
X49604481Y-45058012D01*
X49604478Y-45058009D01*
X49492098Y-44954127D01*
X49453381Y-44918337D01*
X49274554Y-44805505D01*
X49078160Y-44727152D01*
X49072579Y-44726042D01*
X49072576Y-44726041D01*
X48876355Y-44687011D01*
X48876356Y-44687011D01*
X48870775Y-44685901D01*
X48870744Y-44685901D01*
X48807828Y-44660019D01*
X48767841Y-44602723D01*
X48765178Y-44532904D01*
X48800684Y-44472729D01*
X48867606Y-44440562D01*
X49014103Y-44419320D01*
X49014104Y-44419320D01*
X49019730Y-44418504D01*
X49172102Y-44366781D01*
X49214565Y-44352367D01*
X49214568Y-44352366D01*
X49219955Y-44350537D01*
X49224916Y-44347759D01*
X49224922Y-44347756D01*
X49361896Y-44271046D01*
X49404442Y-44247219D01*
X49419310Y-44234854D01*
X98855434Y-44234854D01*
X98874430Y-44476217D01*
X98875948Y-44485803D01*
X98932467Y-44721220D01*
X98935468Y-44730456D01*
X99028115Y-44954127D01*
X99032530Y-44962790D01*
X99159023Y-45169208D01*
X99164735Y-45177070D01*
X99214538Y-45235383D01*
X99243108Y-45299144D01*
X99232671Y-45368230D01*
X99192730Y-45415448D01*
X99186847Y-45418061D01*
X99178763Y-45426159D01*
X99148310Y-45456665D01*
X99107759Y-45497287D01*
X99062494Y-45599673D01*
X99059500Y-45625354D01*
X99059500Y-47914646D01*
X99062618Y-47940846D01*
X99108061Y-48043153D01*
X99187287Y-48122241D01*
X99197758Y-48126870D01*
X99197759Y-48126871D01*
X99281147Y-48163737D01*
X99281149Y-48163738D01*
X99289673Y-48167506D01*
X99315354Y-48170500D01*
X101604646Y-48170500D01*
X101608300Y-48170065D01*
X101608302Y-48170065D01*
X101613266Y-48169474D01*
X101630846Y-48167382D01*
X101733153Y-48121939D01*
X101812241Y-48042713D01*
X101857506Y-47940327D01*
X101860500Y-47914646D01*
X101860500Y-46722244D01*
X102145819Y-46722244D01*
X102155490Y-46906781D01*
X102204562Y-47084936D01*
X102290746Y-47248398D01*
X102295077Y-47253523D01*
X102295079Y-47253526D01*
X102405687Y-47384413D01*
X102410020Y-47389540D01*
X102556820Y-47501777D01*
X102562907Y-47504616D01*
X102562908Y-47504616D01*
X102718214Y-47577037D01*
X102718218Y-47577039D01*
X102724297Y-47579873D01*
X102730845Y-47581337D01*
X102730846Y-47581337D01*
X102899674Y-47619074D01*
X102899678Y-47619075D01*
X102904637Y-47620183D01*
X102910307Y-47620500D01*
X103046164Y-47620500D01*
X103183709Y-47605558D01*
X103358848Y-47546617D01*
X103517244Y-47451443D01*
X103651507Y-47324476D01*
X103755375Y-47171640D01*
X103824000Y-47000065D01*
X103825097Y-46993440D01*
X103853084Y-46824384D01*
X103853084Y-46824382D01*
X103854181Y-46817756D01*
X103844510Y-46633219D01*
X103795438Y-46455064D01*
X103716294Y-46304955D01*
X103712386Y-46297542D01*
X103712385Y-46297541D01*
X103709254Y-46291602D01*
X103653686Y-46225845D01*
X103594313Y-46155587D01*
X103594311Y-46155585D01*
X103589980Y-46150460D01*
X103443180Y-46038223D01*
X103406788Y-46021253D01*
X103281786Y-45962963D01*
X103281782Y-45962961D01*
X103275703Y-45960127D01*
X103269155Y-45958663D01*
X103269154Y-45958663D01*
X103100326Y-45920926D01*
X103100322Y-45920925D01*
X103095363Y-45919817D01*
X103089693Y-45919500D01*
X102953836Y-45919500D01*
X102816291Y-45934442D01*
X102641152Y-45993383D01*
X102482756Y-46088557D01*
X102348493Y-46215524D01*
X102244625Y-46368360D01*
X102176000Y-46539935D01*
X102174904Y-46546558D01*
X102174903Y-46546560D01*
X102156845Y-46655644D01*
X102145819Y-46722244D01*
X101860500Y-46722244D01*
X101860500Y-45625354D01*
X101857382Y-45599154D01*
X101811939Y-45496847D01*
X101732713Y-45417759D01*
X101727384Y-45415403D01*
X101685500Y-45364116D01*
X101677579Y-45294697D01*
X101705459Y-45235387D01*
X101755265Y-45177070D01*
X101760977Y-45169208D01*
X101887470Y-44962790D01*
X101891885Y-44954127D01*
X101984532Y-44730456D01*
X101987533Y-44721220D01*
X102007708Y-44637185D01*
X102042499Y-44576593D01*
X102104525Y-44544429D01*
X102174094Y-44550905D01*
X102229118Y-44593965D01*
X102237970Y-44608300D01*
X102278885Y-44685901D01*
X102290746Y-44708398D01*
X102295077Y-44713523D01*
X102295079Y-44713526D01*
X102405687Y-44844413D01*
X102410020Y-44849540D01*
X102556820Y-44961777D01*
X102562907Y-44964616D01*
X102562908Y-44964616D01*
X102718214Y-45037037D01*
X102718218Y-45037039D01*
X102724297Y-45039873D01*
X102730845Y-45041337D01*
X102730846Y-45041337D01*
X102899674Y-45079074D01*
X102899678Y-45079075D01*
X102904637Y-45080183D01*
X102910307Y-45080500D01*
X103046164Y-45080500D01*
X103183709Y-45065558D01*
X103358848Y-45006617D01*
X103517244Y-44911443D01*
X103651507Y-44784476D01*
X103755375Y-44631640D01*
X103824000Y-44460065D01*
X103825097Y-44453440D01*
X103853084Y-44284384D01*
X103853084Y-44284382D01*
X103854181Y-44277756D01*
X103844510Y-44093219D01*
X103795438Y-43915064D01*
X103716294Y-43764955D01*
X103712386Y-43757542D01*
X103712385Y-43757541D01*
X103709254Y-43751602D01*
X103653686Y-43685845D01*
X103594313Y-43615587D01*
X103594311Y-43615585D01*
X103589980Y-43610460D01*
X103443180Y-43498223D01*
X103406788Y-43481253D01*
X103281786Y-43422963D01*
X103281782Y-43422961D01*
X103275703Y-43420127D01*
X103269155Y-43418663D01*
X103269154Y-43418663D01*
X103100326Y-43380926D01*
X103100322Y-43380925D01*
X103095363Y-43379817D01*
X103089693Y-43379500D01*
X102953836Y-43379500D01*
X102816291Y-43394442D01*
X102641152Y-43453383D01*
X102482756Y-43548557D01*
X102348493Y-43675524D01*
X102244625Y-43828360D01*
X102242132Y-43834593D01*
X102238979Y-43840523D01*
X102237916Y-43839958D01*
X102198956Y-43889525D01*
X102132935Y-43912395D01*
X102065030Y-43895941D01*
X102016801Y-43845386D01*
X102006428Y-43817484D01*
X101987533Y-43738780D01*
X101984532Y-43729544D01*
X101891885Y-43505873D01*
X101887470Y-43497210D01*
X101764189Y-43296033D01*
X101756606Y-43291082D01*
X101746560Y-43296994D01*
X100547681Y-44495872D01*
X100486358Y-44529357D01*
X100416666Y-44524373D01*
X100372319Y-44495872D01*
X99174873Y-43298427D01*
X99161554Y-43291154D01*
X99156734Y-43294527D01*
X99032530Y-43497210D01*
X99028115Y-43505873D01*
X98935468Y-43729544D01*
X98932467Y-43738780D01*
X98875948Y-43974197D01*
X98874430Y-43983783D01*
X98855434Y-44225146D01*
X98855434Y-44234854D01*
X49419310Y-44234854D01*
X49562645Y-44115644D01*
X49567012Y-44112012D01*
X49588025Y-44086747D01*
X49698584Y-43953813D01*
X49698585Y-43953811D01*
X49702219Y-43949442D01*
X49750159Y-43863840D01*
X49802756Y-43769922D01*
X49802759Y-43769916D01*
X49805537Y-43764955D01*
X49808054Y-43757542D01*
X49871675Y-43570118D01*
X49873504Y-43564730D01*
X49903846Y-43355470D01*
X49905429Y-43295000D01*
X49886081Y-43084440D01*
X49843482Y-42933394D01*
X99521082Y-42933394D01*
X99526994Y-42943440D01*
X100447393Y-43863840D01*
X100461113Y-43871332D01*
X100462918Y-43871203D01*
X100469427Y-43867020D01*
X101391573Y-42944873D01*
X101398846Y-42931554D01*
X101395473Y-42926734D01*
X101192790Y-42802530D01*
X101184127Y-42798115D01*
X100960456Y-42705468D01*
X100951220Y-42702467D01*
X100715803Y-42645948D01*
X100706217Y-42644430D01*
X100464854Y-42625434D01*
X100455146Y-42625434D01*
X100213783Y-42644430D01*
X100204197Y-42645948D01*
X99968780Y-42702467D01*
X99959544Y-42705468D01*
X99735873Y-42798115D01*
X99727210Y-42802530D01*
X99526033Y-42925811D01*
X99521082Y-42933394D01*
X49843482Y-42933394D01*
X49828686Y-42880931D01*
X49735165Y-42691290D01*
X49608651Y-42521867D01*
X49604481Y-42518012D01*
X49604478Y-42518009D01*
X49540319Y-42458702D01*
X49453381Y-42378337D01*
X49274554Y-42265505D01*
X49078160Y-42187152D01*
X49072579Y-42186042D01*
X49072576Y-42186041D01*
X48876355Y-42147011D01*
X48876356Y-42147011D01*
X48870775Y-42145901D01*
X48870744Y-42145901D01*
X48807828Y-42120019D01*
X48767841Y-42062723D01*
X48765178Y-41992904D01*
X48800684Y-41932729D01*
X48867606Y-41900562D01*
X49014103Y-41879320D01*
X49014104Y-41879320D01*
X49019730Y-41878504D01*
X49098890Y-41851633D01*
X49214565Y-41812367D01*
X49214568Y-41812366D01*
X49219955Y-41810537D01*
X49224916Y-41807759D01*
X49224922Y-41807756D01*
X49331530Y-41748052D01*
X49404442Y-41707219D01*
X49567012Y-41572012D01*
X49570644Y-41567645D01*
X49698584Y-41413813D01*
X49698585Y-41413811D01*
X49702219Y-41409442D01*
X49748078Y-41327556D01*
X49802756Y-41229922D01*
X49802759Y-41229916D01*
X49805537Y-41224955D01*
X49836009Y-41135189D01*
X49871675Y-41030118D01*
X49873504Y-41024730D01*
X49903846Y-40815470D01*
X49905429Y-40755000D01*
X49886081Y-40544440D01*
X49828686Y-40340931D01*
X49735165Y-40151290D01*
X49608651Y-39981867D01*
X49604481Y-39978012D01*
X49604478Y-39978009D01*
X49540319Y-39918702D01*
X49453381Y-39838337D01*
X49274554Y-39725505D01*
X49234122Y-39709374D01*
X49179151Y-39666251D01*
X49156220Y-39600251D01*
X49172611Y-39532332D01*
X49227667Y-39481821D01*
X49422676Y-39390886D01*
X49432008Y-39385498D01*
X49616643Y-39256215D01*
X49624909Y-39249279D01*
X49679542Y-39194646D01*
X88349500Y-39194646D01*
X88352618Y-39220846D01*
X88398061Y-39323153D01*
X88477287Y-39402241D01*
X88487758Y-39406870D01*
X88487759Y-39406871D01*
X88571147Y-39443737D01*
X88571149Y-39443738D01*
X88579673Y-39447506D01*
X88605354Y-39450500D01*
X92194646Y-39450500D01*
X92198300Y-39450065D01*
X92198302Y-39450065D01*
X92203266Y-39449474D01*
X92220846Y-39447382D01*
X92323153Y-39401939D01*
X92402241Y-39322713D01*
X92415057Y-39293724D01*
X92443737Y-39228853D01*
X92443738Y-39228851D01*
X92447506Y-39220327D01*
X92450500Y-39194646D01*
X92450500Y-38459594D01*
X94400001Y-38459594D01*
X94400205Y-38464617D01*
X94411017Y-38597560D01*
X94412758Y-38607937D01*
X94465561Y-38813591D01*
X94469237Y-38823970D01*
X94557524Y-39016808D01*
X94562971Y-39026357D01*
X94684014Y-39200515D01*
X94691077Y-39208962D01*
X94841038Y-39358923D01*
X94849485Y-39365986D01*
X95023643Y-39487029D01*
X95033192Y-39492476D01*
X95226030Y-39580763D01*
X95236409Y-39584439D01*
X95442062Y-39637241D01*
X95452441Y-39638983D01*
X95585385Y-39649796D01*
X95590404Y-39650000D01*
X96132170Y-39650000D01*
X96147169Y-39645596D01*
X96148356Y-39644226D01*
X96150000Y-39636668D01*
X96150000Y-39632169D01*
X96650000Y-39632169D01*
X96654404Y-39647168D01*
X96655774Y-39648355D01*
X96663332Y-39649999D01*
X97209594Y-39649999D01*
X97214617Y-39649795D01*
X97347560Y-39638983D01*
X97357937Y-39637242D01*
X97563591Y-39584439D01*
X97573970Y-39580763D01*
X97766808Y-39492476D01*
X97776357Y-39487029D01*
X97950515Y-39365986D01*
X97958962Y-39358923D01*
X98108923Y-39208962D01*
X98115986Y-39200515D01*
X98237029Y-39026357D01*
X98242476Y-39016808D01*
X98330763Y-38823970D01*
X98334439Y-38813591D01*
X98387241Y-38607938D01*
X98388983Y-38597559D01*
X98399796Y-38464615D01*
X98400000Y-38459596D01*
X98400000Y-37667830D01*
X98395596Y-37652831D01*
X98394226Y-37651644D01*
X98386668Y-37650000D01*
X96667830Y-37650000D01*
X96652831Y-37654404D01*
X96651644Y-37655774D01*
X96650000Y-37663332D01*
X96650000Y-39632169D01*
X96150000Y-39632169D01*
X96150000Y-37667830D01*
X96145596Y-37652831D01*
X96144226Y-37651644D01*
X96136668Y-37650000D01*
X94417831Y-37650000D01*
X94402832Y-37654404D01*
X94401645Y-37655774D01*
X94400001Y-37663332D01*
X94400001Y-38459594D01*
X92450500Y-38459594D01*
X92450500Y-37132170D01*
X94400000Y-37132170D01*
X94404404Y-37147169D01*
X94405774Y-37148356D01*
X94413332Y-37150000D01*
X96132170Y-37150000D01*
X96147169Y-37145596D01*
X96148356Y-37144226D01*
X96150000Y-37136668D01*
X96150000Y-37132170D01*
X96650000Y-37132170D01*
X96654404Y-37147169D01*
X96655774Y-37148356D01*
X96663332Y-37150000D01*
X98382169Y-37150000D01*
X98397168Y-37145596D01*
X98398355Y-37144226D01*
X98399999Y-37136668D01*
X98399999Y-36340406D01*
X98399795Y-36335383D01*
X98388983Y-36202440D01*
X98387242Y-36192063D01*
X98334439Y-35986409D01*
X98330763Y-35976030D01*
X98242476Y-35783192D01*
X98237029Y-35773643D01*
X98115986Y-35599485D01*
X98108923Y-35591038D01*
X97958962Y-35441077D01*
X97950515Y-35434014D01*
X97776357Y-35312971D01*
X97766808Y-35307524D01*
X97573970Y-35219237D01*
X97563591Y-35215561D01*
X97357938Y-35162759D01*
X97347559Y-35161017D01*
X97214615Y-35150204D01*
X97209596Y-35150000D01*
X96667830Y-35150000D01*
X96652831Y-35154404D01*
X96651644Y-35155774D01*
X96650000Y-35163332D01*
X96650000Y-37132170D01*
X96150000Y-37132170D01*
X96150000Y-35167831D01*
X96145596Y-35152832D01*
X96144226Y-35151645D01*
X96136668Y-35150001D01*
X95590406Y-35150001D01*
X95585383Y-35150205D01*
X95452440Y-35161017D01*
X95442063Y-35162758D01*
X95236409Y-35215561D01*
X95226030Y-35219237D01*
X95033192Y-35307524D01*
X95023643Y-35312971D01*
X94849485Y-35434014D01*
X94841038Y-35441077D01*
X94691077Y-35591038D01*
X94684014Y-35599485D01*
X94562971Y-35773643D01*
X94557524Y-35783192D01*
X94469237Y-35976030D01*
X94465561Y-35986409D01*
X94412759Y-36192062D01*
X94411017Y-36202441D01*
X94400204Y-36335385D01*
X94400000Y-36340404D01*
X94400000Y-37132170D01*
X92450500Y-37132170D01*
X92450500Y-35605354D01*
X92447382Y-35579154D01*
X92401939Y-35476847D01*
X92322713Y-35397759D01*
X92312242Y-35393130D01*
X92312241Y-35393129D01*
X92228853Y-35356263D01*
X92228851Y-35356262D01*
X92220327Y-35352494D01*
X92194646Y-35349500D01*
X88605354Y-35349500D01*
X88601700Y-35349935D01*
X88601698Y-35349935D01*
X88596734Y-35350526D01*
X88579154Y-35352618D01*
X88476847Y-35398061D01*
X88397759Y-35477287D01*
X88393130Y-35487758D01*
X88393129Y-35487759D01*
X88367551Y-35545616D01*
X88352494Y-35579673D01*
X88349500Y-35605354D01*
X88349500Y-39194646D01*
X49679542Y-39194646D01*
X49784281Y-39089907D01*
X49791216Y-39081643D01*
X49920492Y-38897017D01*
X49925890Y-38887667D01*
X50021143Y-38683397D01*
X50024832Y-38673264D01*
X50076022Y-38482221D01*
X50075691Y-38468347D01*
X50067875Y-38465000D01*
X47437194Y-38465000D01*
X47423877Y-38468910D01*
X47422667Y-38477326D01*
X37861303Y-38477326D01*
X37873563Y-38436975D01*
X37903622Y-38208649D01*
X37905300Y-38140000D01*
X37901926Y-38098954D01*
X37894055Y-38003219D01*
X37889497Y-37947779D01*
X47423978Y-37947779D01*
X47424309Y-37961653D01*
X47432125Y-37965000D01*
X50062806Y-37965000D01*
X50076123Y-37961090D01*
X50077333Y-37952674D01*
X50024832Y-37756736D01*
X50021143Y-37746603D01*
X49925890Y-37542333D01*
X49920492Y-37532983D01*
X49791216Y-37348357D01*
X49784281Y-37340093D01*
X49624909Y-37180721D01*
X49616643Y-37173785D01*
X49441396Y-37051075D01*
X49397772Y-36996498D01*
X49390579Y-36926999D01*
X49422101Y-36864645D01*
X49482331Y-36829231D01*
X49512520Y-36825500D01*
X49644646Y-36825500D01*
X49648300Y-36825065D01*
X49648302Y-36825065D01*
X49653266Y-36824474D01*
X49670846Y-36822382D01*
X49773153Y-36776939D01*
X49852241Y-36697713D01*
X49897506Y-36595327D01*
X49900500Y-36569646D01*
X49900500Y-34780354D01*
X49897382Y-34754154D01*
X49851939Y-34651847D01*
X49772713Y-34572759D01*
X49762242Y-34568130D01*
X49762241Y-34568129D01*
X49678853Y-34531263D01*
X49678851Y-34531262D01*
X49670327Y-34527494D01*
X49644646Y-34524500D01*
X47855354Y-34524500D01*
X47851700Y-34524935D01*
X47851698Y-34524935D01*
X47846734Y-34525526D01*
X47829154Y-34527618D01*
X47726847Y-34573061D01*
X47647759Y-34652287D01*
X47602494Y-34754673D01*
X47599500Y-34780354D01*
X47599500Y-36569646D01*
X47602618Y-36595846D01*
X47648061Y-36698153D01*
X47727287Y-36777241D01*
X47737758Y-36781870D01*
X47737759Y-36781871D01*
X47821147Y-36818737D01*
X47821149Y-36818738D01*
X47829673Y-36822506D01*
X47855354Y-36825500D01*
X47987482Y-36825500D01*
X48054521Y-36845185D01*
X48100276Y-36897989D01*
X48110220Y-36967147D01*
X48081195Y-37030703D01*
X48058605Y-37051075D01*
X47883357Y-37173784D01*
X47875093Y-37180719D01*
X47715719Y-37340093D01*
X47708784Y-37348357D01*
X47579508Y-37532983D01*
X47574110Y-37542333D01*
X47478857Y-37746603D01*
X47475168Y-37756736D01*
X47423978Y-37947779D01*
X37889497Y-37947779D01*
X37886430Y-37910478D01*
X37830326Y-37687120D01*
X37738496Y-37475924D01*
X37735736Y-37471658D01*
X37735733Y-37471652D01*
X37616167Y-37286832D01*
X37616165Y-37286830D01*
X37613405Y-37282563D01*
X37585540Y-37251940D01*
X37545516Y-37207954D01*
X37514957Y-37145121D01*
X37523218Y-37075742D01*
X37567678Y-37021843D01*
X37637230Y-37000500D01*
X37644646Y-37000500D01*
X37648300Y-37000065D01*
X37648302Y-37000065D01*
X37653266Y-36999474D01*
X37670846Y-36997382D01*
X37773153Y-36951939D01*
X37852241Y-36872713D01*
X37864411Y-36845185D01*
X37893737Y-36778853D01*
X37893738Y-36778851D01*
X37897506Y-36770327D01*
X37900500Y-36744646D01*
X37900500Y-34455354D01*
X37897382Y-34429154D01*
X37851939Y-34326847D01*
X37772713Y-34247759D01*
X37762242Y-34243130D01*
X37762241Y-34243129D01*
X37678853Y-34206263D01*
X37678851Y-34206262D01*
X37670327Y-34202494D01*
X37644646Y-34199500D01*
X35355354Y-34199500D01*
X35351700Y-34199935D01*
X35351698Y-34199935D01*
X35346734Y-34200526D01*
X35329154Y-34202618D01*
X35226847Y-34248061D01*
X35147759Y-34327287D01*
X35143130Y-34337758D01*
X35143129Y-34337759D01*
X35126031Y-34376435D01*
X35102494Y-34429673D01*
X35099500Y-34455354D01*
X35099500Y-36744646D01*
X35102618Y-36770846D01*
X35148061Y-36873153D01*
X35227287Y-36952241D01*
X35237758Y-36956870D01*
X35237759Y-36956871D01*
X35321147Y-36993737D01*
X35321149Y-36993738D01*
X35329673Y-36997506D01*
X35355354Y-37000500D01*
X35361659Y-37000500D01*
X35362328Y-37000696D01*
X35362544Y-37000709D01*
X35362541Y-37000759D01*
X35428698Y-37020185D01*
X35474453Y-37072989D01*
X35484397Y-37142147D01*
X35451307Y-37210169D01*
X35407877Y-37255616D01*
X35405013Y-37259815D01*
X35405011Y-37259817D01*
X35374570Y-37304442D01*
X35278099Y-37445863D01*
X35275957Y-37450477D01*
X35275955Y-37450481D01*
X35183282Y-37650128D01*
X35181136Y-37654752D01*
X35179774Y-37659662D01*
X35179774Y-37659663D01*
X35135552Y-37819124D01*
X35119592Y-37876673D01*
X35119052Y-37881728D01*
X35119051Y-37881732D01*
X35110570Y-37961090D01*
X35095119Y-38105665D01*
X34809879Y-38105665D01*
X34804510Y-38003219D01*
X34755438Y-37825064D01*
X34669254Y-37661602D01*
X34663466Y-37654752D01*
X34554313Y-37525587D01*
X34554311Y-37525585D01*
X34549980Y-37520460D01*
X34403180Y-37408223D01*
X34307021Y-37363383D01*
X34241786Y-37332963D01*
X34241782Y-37332961D01*
X34235703Y-37330127D01*
X34229155Y-37328663D01*
X34229154Y-37328663D01*
X34060326Y-37290926D01*
X34060322Y-37290925D01*
X34055363Y-37289817D01*
X34049693Y-37289500D01*
X33913836Y-37289500D01*
X33776291Y-37304442D01*
X33601152Y-37363383D01*
X33442756Y-37458557D01*
X33308493Y-37585524D01*
X33204625Y-37738360D01*
X33136000Y-37909935D01*
X33134904Y-37916558D01*
X33134903Y-37916560D01*
X33128925Y-37952674D01*
X33105819Y-38092244D01*
X32800500Y-38092244D01*
X32800500Y-35552244D01*
X33105819Y-35552244D01*
X33115490Y-35736781D01*
X33164562Y-35914936D01*
X33250746Y-36078398D01*
X33255077Y-36083523D01*
X33255079Y-36083526D01*
X33346799Y-36192062D01*
X33370020Y-36219540D01*
X33516820Y-36331777D01*
X33522907Y-36334616D01*
X33522908Y-36334616D01*
X33678214Y-36407037D01*
X33678218Y-36407039D01*
X33684297Y-36409873D01*
X33690845Y-36411337D01*
X33690846Y-36411337D01*
X33859674Y-36449074D01*
X33859678Y-36449075D01*
X33864637Y-36450183D01*
X33870307Y-36450500D01*
X34006164Y-36450500D01*
X34143709Y-36435558D01*
X34318848Y-36376617D01*
X34477244Y-36281443D01*
X34611507Y-36154476D01*
X34715375Y-36001640D01*
X34784000Y-35830065D01*
X34814181Y-35647756D01*
X34804510Y-35463219D01*
X34755438Y-35285064D01*
X34669254Y-35121602D01*
X34604964Y-35045524D01*
X34554313Y-34985587D01*
X34554311Y-34985585D01*
X34549980Y-34980460D01*
X34403180Y-34868223D01*
X34307021Y-34823383D01*
X34241786Y-34792963D01*
X34241782Y-34792961D01*
X34235703Y-34790127D01*
X34229155Y-34788663D01*
X34229154Y-34788663D01*
X34060326Y-34750926D01*
X34060322Y-34750925D01*
X34055363Y-34749817D01*
X34049693Y-34749500D01*
X33913836Y-34749500D01*
X33776291Y-34764442D01*
X33601152Y-34823383D01*
X33442756Y-34918557D01*
X33308493Y-35045524D01*
X33204625Y-35198360D01*
X33136000Y-35369935D01*
X33134904Y-35376558D01*
X33134903Y-35376560D01*
X33119640Y-35468760D01*
X33105819Y-35552244D01*
X32800500Y-35552244D01*
X32800500Y-33665100D01*
X91150001Y-33665100D01*
X91150091Y-33668451D01*
X91152868Y-33719734D01*
X91153927Y-33728268D01*
X91196817Y-33947895D01*
X91199687Y-33957971D01*
X91278636Y-34166353D01*
X91283159Y-34175794D01*
X91396096Y-34367906D01*
X91402135Y-34376435D01*
X91545832Y-34546779D01*
X91553221Y-34554168D01*
X91723565Y-34697865D01*
X91732094Y-34703904D01*
X91924206Y-34816841D01*
X91933647Y-34821364D01*
X92142029Y-34900313D01*
X92152105Y-34903183D01*
X92371745Y-34946075D01*
X92380252Y-34947131D01*
X92431551Y-34949910D01*
X92434898Y-34950000D01*
X93132170Y-34950000D01*
X93147169Y-34945596D01*
X93148356Y-34944226D01*
X93150000Y-34936668D01*
X93150000Y-34932169D01*
X93650000Y-34932169D01*
X93654404Y-34947168D01*
X93655774Y-34948355D01*
X93663332Y-34949999D01*
X94365100Y-34949999D01*
X94368451Y-34949909D01*
X94419734Y-34947132D01*
X94428268Y-34946073D01*
X94647895Y-34903183D01*
X94657971Y-34900313D01*
X94866353Y-34821364D01*
X94875794Y-34816841D01*
X95067906Y-34703904D01*
X95076435Y-34697865D01*
X95246779Y-34554168D01*
X95254168Y-34546779D01*
X95397865Y-34376435D01*
X95403904Y-34367906D01*
X95516841Y-34175794D01*
X95521364Y-34166353D01*
X95600313Y-33957971D01*
X95603183Y-33947895D01*
X95646075Y-33728255D01*
X95647131Y-33719748D01*
X95649910Y-33668449D01*
X95650000Y-33665102D01*
X95650000Y-32967830D01*
X95645596Y-32952831D01*
X95644226Y-32951644D01*
X95636668Y-32950000D01*
X93667830Y-32950000D01*
X93652831Y-32954404D01*
X93651644Y-32955774D01*
X93650000Y-32963332D01*
X93650000Y-34932169D01*
X93150000Y-34932169D01*
X93150000Y-32967830D01*
X93145596Y-32952831D01*
X93144226Y-32951644D01*
X93136668Y-32950000D01*
X91167831Y-32950000D01*
X91152832Y-32954404D01*
X91151645Y-32955774D01*
X91150001Y-32963332D01*
X91150001Y-33665100D01*
X32800500Y-33665100D01*
X32800500Y-32432170D01*
X91150000Y-32432170D01*
X91154404Y-32447169D01*
X91155774Y-32448356D01*
X91163332Y-32450000D01*
X93132170Y-32450000D01*
X93147169Y-32445596D01*
X93148356Y-32444226D01*
X93150000Y-32436668D01*
X93150000Y-32432170D01*
X93650000Y-32432170D01*
X93654404Y-32447169D01*
X93655774Y-32448356D01*
X93663332Y-32450000D01*
X95632169Y-32450000D01*
X95647168Y-32445596D01*
X95648355Y-32444226D01*
X95649999Y-32436668D01*
X95649999Y-31734900D01*
X95649909Y-31731549D01*
X95647132Y-31680266D01*
X95646073Y-31671732D01*
X95603183Y-31452105D01*
X95600313Y-31442029D01*
X95521364Y-31233647D01*
X95516841Y-31224206D01*
X95403904Y-31032094D01*
X95397865Y-31023565D01*
X95254168Y-30853221D01*
X95246779Y-30845832D01*
X95076435Y-30702135D01*
X95067906Y-30696096D01*
X94875794Y-30583159D01*
X94866353Y-30578636D01*
X94657971Y-30499687D01*
X94647895Y-30496817D01*
X94428255Y-30453925D01*
X94419748Y-30452869D01*
X94368449Y-30450090D01*
X94365102Y-30450000D01*
X93667830Y-30450000D01*
X93652831Y-30454404D01*
X93651644Y-30455774D01*
X93650000Y-30463332D01*
X93650000Y-32432170D01*
X93150000Y-32432170D01*
X93150000Y-30467831D01*
X93145596Y-30452832D01*
X93144226Y-30451645D01*
X93136668Y-30450001D01*
X92434900Y-30450001D01*
X92431549Y-30450091D01*
X92380266Y-30452868D01*
X92371732Y-30453927D01*
X92152105Y-30496817D01*
X92142029Y-30499687D01*
X91933647Y-30578636D01*
X91924206Y-30583159D01*
X91732094Y-30696096D01*
X91723565Y-30702135D01*
X91553221Y-30845832D01*
X91545832Y-30853221D01*
X91402135Y-31023565D01*
X91396096Y-31032094D01*
X91283159Y-31224206D01*
X91278636Y-31233647D01*
X91199687Y-31442029D01*
X91196817Y-31452105D01*
X91153925Y-31671745D01*
X91152869Y-31680252D01*
X91150090Y-31731551D01*
X91150000Y-31734898D01*
X91150000Y-32432170D01*
X32800500Y-32432170D01*
X32800500Y-29537139D01*
X32802384Y-29515606D01*
X32803252Y-29510683D01*
X32805136Y-29500000D01*
X32803252Y-29489316D01*
X32803252Y-29481158D01*
X32802301Y-29465622D01*
X32802357Y-29464565D01*
X32803970Y-29433789D01*
X34595996Y-29433789D01*
X34604913Y-29671295D01*
X34605990Y-29676430D01*
X34605991Y-29676435D01*
X34634571Y-29812645D01*
X34653719Y-29903904D01*
X34655648Y-29908788D01*
X34655649Y-29908792D01*
X34696013Y-30010997D01*
X34741020Y-30124963D01*
X34743741Y-30129447D01*
X34743743Y-30129451D01*
X34811233Y-30240670D01*
X34864319Y-30328153D01*
X35020090Y-30507664D01*
X35203880Y-30658362D01*
X35208441Y-30660958D01*
X35208442Y-30660959D01*
X35405875Y-30773345D01*
X35405880Y-30773347D01*
X35410433Y-30775939D01*
X35633844Y-30857034D01*
X35867725Y-30899326D01*
X35892619Y-30900500D01*
X36059680Y-30900500D01*
X36062296Y-30900278D01*
X36062297Y-30900278D01*
X36231590Y-30885913D01*
X36236823Y-30885469D01*
X36466874Y-30825760D01*
X36683576Y-30728143D01*
X36880732Y-30595409D01*
X37052705Y-30431355D01*
X37194579Y-30240670D01*
X37196958Y-30235991D01*
X37299913Y-30033493D01*
X37299915Y-30033488D01*
X37302295Y-30028807D01*
X37344162Y-29893972D01*
X41050000Y-29893972D01*
X41050363Y-29900669D01*
X41055803Y-29950744D01*
X41059371Y-29965753D01*
X41103817Y-30084311D01*
X41112212Y-30099646D01*
X41187516Y-30200124D01*
X41199876Y-30212484D01*
X41300354Y-30287788D01*
X41315689Y-30296183D01*
X41434247Y-30340629D01*
X41449256Y-30344197D01*
X41499331Y-30349637D01*
X41506028Y-30350000D01*
X42132170Y-30350000D01*
X42147169Y-30345596D01*
X42148356Y-30344226D01*
X42150000Y-30336668D01*
X42150000Y-30332170D01*
X42650000Y-30332170D01*
X42654404Y-30347169D01*
X42655774Y-30348356D01*
X42663332Y-30350000D01*
X43293972Y-30350000D01*
X43300669Y-30349637D01*
X43350744Y-30344197D01*
X43365753Y-30340629D01*
X43484311Y-30296183D01*
X43499646Y-30287788D01*
X43600124Y-30212484D01*
X43612484Y-30200124D01*
X43687788Y-30099646D01*
X43696183Y-30084311D01*
X43740629Y-29965753D01*
X43744197Y-29950744D01*
X43749637Y-29900669D01*
X43750000Y-29893972D01*
X43750000Y-29700070D01*
X43769685Y-29633031D01*
X43822489Y-29587276D01*
X43891647Y-29577332D01*
X43955203Y-29606357D01*
X43975263Y-29628503D01*
X43993595Y-29654442D01*
X44025842Y-29700070D01*
X44061405Y-29750391D01*
X44212865Y-29897937D01*
X44217588Y-29901093D01*
X44217592Y-29901096D01*
X44288663Y-29948584D01*
X44388677Y-30015411D01*
X44582953Y-30098878D01*
X44646283Y-30113208D01*
X44783638Y-30144289D01*
X44783642Y-30144290D01*
X44789186Y-30145544D01*
X44915651Y-30150513D01*
X44994789Y-30153623D01*
X44994791Y-30153623D01*
X45000470Y-30153846D01*
X45006090Y-30153031D01*
X45006092Y-30153031D01*
X45204103Y-30124320D01*
X45204104Y-30124320D01*
X45209730Y-30123504D01*
X45288890Y-30096633D01*
X45404565Y-30057367D01*
X45404568Y-30057366D01*
X45409955Y-30055537D01*
X45414916Y-30052759D01*
X45414922Y-30052756D01*
X45570275Y-29965753D01*
X45594442Y-29952219D01*
X45658723Y-29898758D01*
X45752645Y-29820644D01*
X45757012Y-29817012D01*
X45773978Y-29796612D01*
X45888584Y-29658813D01*
X45888585Y-29658811D01*
X45892219Y-29654442D01*
X45963987Y-29526292D01*
X45992756Y-29474922D01*
X45992759Y-29474916D01*
X45995537Y-29469955D01*
X46006035Y-29439031D01*
X46061675Y-29275118D01*
X46063504Y-29269730D01*
X46065954Y-29252831D01*
X46087820Y-29102033D01*
X46116921Y-29038512D01*
X46170225Y-29004346D01*
X46250974Y-29004346D01*
X46304347Y-29038736D01*
X46333296Y-29102327D01*
X46334271Y-29111707D01*
X46338796Y-29180749D01*
X46390845Y-29385690D01*
X46393219Y-29390841D01*
X46393221Y-29390845D01*
X46431981Y-29474922D01*
X46479369Y-29577714D01*
X46482647Y-29582352D01*
X46565842Y-29700070D01*
X46601405Y-29750391D01*
X46752865Y-29897937D01*
X46757588Y-29901093D01*
X46757592Y-29901096D01*
X46828663Y-29948584D01*
X46928677Y-30015411D01*
X47122953Y-30098878D01*
X47186283Y-30113208D01*
X47323638Y-30144289D01*
X47323642Y-30144290D01*
X47329186Y-30145544D01*
X47455651Y-30150513D01*
X47534789Y-30153623D01*
X47534791Y-30153623D01*
X47540470Y-30153846D01*
X47546090Y-30153031D01*
X47546092Y-30153031D01*
X47744103Y-30124320D01*
X47744104Y-30124320D01*
X47749730Y-30123504D01*
X47828890Y-30096633D01*
X47944565Y-30057367D01*
X47944568Y-30057366D01*
X47949955Y-30055537D01*
X47954916Y-30052759D01*
X47954922Y-30052756D01*
X48110275Y-29965753D01*
X48134442Y-29952219D01*
X48198723Y-29898758D01*
X48292645Y-29820644D01*
X48297012Y-29817012D01*
X48313978Y-29796612D01*
X48428584Y-29658813D01*
X48428585Y-29658811D01*
X48432219Y-29654442D01*
X48503987Y-29526292D01*
X48532756Y-29474922D01*
X48532759Y-29474916D01*
X48535537Y-29469955D01*
X48546035Y-29439031D01*
X48601675Y-29275118D01*
X48603504Y-29269730D01*
X48605954Y-29252831D01*
X48627820Y-29102033D01*
X48656921Y-29038512D01*
X48710225Y-29004346D01*
X48790974Y-29004346D01*
X48844347Y-29038736D01*
X48873296Y-29102327D01*
X48874271Y-29111707D01*
X48878796Y-29180749D01*
X48930845Y-29385690D01*
X48933219Y-29390841D01*
X48933221Y-29390845D01*
X48971981Y-29474922D01*
X49019369Y-29577714D01*
X49022647Y-29582352D01*
X49105842Y-29700070D01*
X49141405Y-29750391D01*
X49292865Y-29897937D01*
X49297588Y-29901093D01*
X49297592Y-29901096D01*
X49368663Y-29948584D01*
X49468677Y-30015411D01*
X49662953Y-30098878D01*
X49726283Y-30113208D01*
X49863638Y-30144289D01*
X49863642Y-30144290D01*
X49869186Y-30145544D01*
X49995651Y-30150513D01*
X50074789Y-30153623D01*
X50074791Y-30153623D01*
X50080470Y-30153846D01*
X50086090Y-30153031D01*
X50086092Y-30153031D01*
X50284103Y-30124320D01*
X50284104Y-30124320D01*
X50289730Y-30123504D01*
X50368890Y-30096633D01*
X50484565Y-30057367D01*
X50484568Y-30057366D01*
X50489955Y-30055537D01*
X50494916Y-30052759D01*
X50494922Y-30052756D01*
X50650275Y-29965753D01*
X50674442Y-29952219D01*
X50738723Y-29898758D01*
X50832645Y-29820644D01*
X50837012Y-29817012D01*
X50853978Y-29796612D01*
X50968584Y-29658813D01*
X50968585Y-29658811D01*
X50972219Y-29654442D01*
X51043987Y-29526292D01*
X51072756Y-29474922D01*
X51072759Y-29474916D01*
X51075537Y-29469955D01*
X51086035Y-29439031D01*
X51087814Y-29433789D01*
X99595996Y-29433789D01*
X99604913Y-29671295D01*
X99605990Y-29676430D01*
X99605991Y-29676435D01*
X99634571Y-29812645D01*
X99653719Y-29903904D01*
X99655648Y-29908788D01*
X99655649Y-29908792D01*
X99696013Y-30010997D01*
X99741020Y-30124963D01*
X99743741Y-30129447D01*
X99743743Y-30129451D01*
X99811233Y-30240670D01*
X99864319Y-30328153D01*
X100020090Y-30507664D01*
X100203880Y-30658362D01*
X100208441Y-30660958D01*
X100208442Y-30660959D01*
X100405875Y-30773345D01*
X100405880Y-30773347D01*
X100410433Y-30775939D01*
X100633844Y-30857034D01*
X100867725Y-30899326D01*
X100892619Y-30900500D01*
X101059680Y-30900500D01*
X101062296Y-30900278D01*
X101062297Y-30900278D01*
X101231590Y-30885913D01*
X101236823Y-30885469D01*
X101466874Y-30825760D01*
X101683576Y-30728143D01*
X101880732Y-30595409D01*
X102052705Y-30431355D01*
X102194579Y-30240670D01*
X102196958Y-30235991D01*
X102299913Y-30033493D01*
X102299915Y-30033488D01*
X102302295Y-30028807D01*
X102372775Y-29801824D01*
X102373466Y-29796612D01*
X102403315Y-29571412D01*
X102403315Y-29571408D01*
X102404004Y-29566211D01*
X102397420Y-29390845D01*
X102395284Y-29333949D01*
X102395284Y-29333948D01*
X102395087Y-29328705D01*
X102383844Y-29275118D01*
X102347361Y-29101242D01*
X102347360Y-29101239D01*
X102346281Y-29096096D01*
X102330775Y-29056831D01*
X102295103Y-28966507D01*
X102258980Y-28875037D01*
X102207039Y-28789440D01*
X102138408Y-28676341D01*
X102135681Y-28671847D01*
X101979910Y-28492336D01*
X101796120Y-28341638D01*
X101791558Y-28339041D01*
X101594125Y-28226655D01*
X101594120Y-28226653D01*
X101589567Y-28224061D01*
X101366156Y-28142966D01*
X101132275Y-28100674D01*
X101107381Y-28099500D01*
X100940320Y-28099500D01*
X100937704Y-28099722D01*
X100937703Y-28099722D01*
X100926484Y-28100674D01*
X100763177Y-28114531D01*
X100533126Y-28174240D01*
X100316424Y-28271857D01*
X100119268Y-28404591D01*
X99947295Y-28568645D01*
X99805421Y-28759330D01*
X99803042Y-28764008D01*
X99803042Y-28764009D01*
X99729188Y-28909271D01*
X99697705Y-28971193D01*
X99696146Y-28976213D01*
X99696145Y-28976216D01*
X99676802Y-29038512D01*
X99627225Y-29198176D01*
X99595996Y-29433789D01*
X51087814Y-29433789D01*
X51141675Y-29275118D01*
X51143504Y-29269730D01*
X51173846Y-29060470D01*
X51175429Y-29000000D01*
X51156081Y-28789440D01*
X51098686Y-28585931D01*
X51005165Y-28396290D01*
X50878651Y-28226867D01*
X50874481Y-28223012D01*
X50874478Y-28223009D01*
X50758554Y-28115851D01*
X50723381Y-28083337D01*
X50660811Y-28043858D01*
X50549363Y-27973539D01*
X50549361Y-27973538D01*
X50544554Y-27970505D01*
X50348160Y-27892152D01*
X50342579Y-27891042D01*
X50342576Y-27891041D01*
X50244468Y-27871527D01*
X50140775Y-27850901D01*
X50135088Y-27850827D01*
X50135083Y-27850826D01*
X49935034Y-27848207D01*
X49935029Y-27848207D01*
X49929346Y-27848133D01*
X49923742Y-27849096D01*
X49923741Y-27849096D01*
X49726550Y-27882979D01*
X49726547Y-27882980D01*
X49720953Y-27883941D01*
X49522575Y-27957127D01*
X49517697Y-27960029D01*
X49517695Y-27960030D01*
X49345740Y-28062332D01*
X49345737Y-28062334D01*
X49340856Y-28065238D01*
X49181881Y-28204655D01*
X49178362Y-28209119D01*
X49178359Y-28209122D01*
X49119731Y-28283492D01*
X49050976Y-28370708D01*
X48952523Y-28557836D01*
X48950837Y-28563267D01*
X48950835Y-28563271D01*
X48947858Y-28572859D01*
X48889820Y-28759773D01*
X48872851Y-28903140D01*
X48845425Y-28967398D01*
X48790974Y-29004346D01*
X48710225Y-29004346D01*
X48710667Y-29004063D01*
X48658057Y-28972081D01*
X48627453Y-28909271D01*
X48626232Y-28899909D01*
X48616601Y-28795100D01*
X48616081Y-28789440D01*
X48558686Y-28585931D01*
X48465165Y-28396290D01*
X48338651Y-28226867D01*
X48334481Y-28223012D01*
X48334478Y-28223009D01*
X48218554Y-28115851D01*
X48183381Y-28083337D01*
X48120811Y-28043858D01*
X48009363Y-27973539D01*
X48009361Y-27973538D01*
X48004554Y-27970505D01*
X47808160Y-27892152D01*
X47802579Y-27891042D01*
X47802576Y-27891041D01*
X47704468Y-27871527D01*
X47600775Y-27850901D01*
X47595088Y-27850827D01*
X47595083Y-27850826D01*
X47395034Y-27848207D01*
X47395029Y-27848207D01*
X47389346Y-27848133D01*
X47383742Y-27849096D01*
X47383741Y-27849096D01*
X47186550Y-27882979D01*
X47186547Y-27882980D01*
X47180953Y-27883941D01*
X46982575Y-27957127D01*
X46977697Y-27960029D01*
X46977695Y-27960030D01*
X46805740Y-28062332D01*
X46805737Y-28062334D01*
X46800856Y-28065238D01*
X46641881Y-28204655D01*
X46638362Y-28209119D01*
X46638359Y-28209122D01*
X46579731Y-28283492D01*
X46510976Y-28370708D01*
X46412523Y-28557836D01*
X46410837Y-28563267D01*
X46410835Y-28563271D01*
X46407858Y-28572859D01*
X46349820Y-28759773D01*
X46332851Y-28903140D01*
X46305425Y-28967398D01*
X46250974Y-29004346D01*
X46170225Y-29004346D01*
X46170667Y-29004063D01*
X46118057Y-28972081D01*
X46087453Y-28909271D01*
X46086232Y-28899909D01*
X46076601Y-28795100D01*
X46076081Y-28789440D01*
X46018686Y-28585931D01*
X45925165Y-28396290D01*
X45798651Y-28226867D01*
X45794481Y-28223012D01*
X45794478Y-28223009D01*
X45678554Y-28115851D01*
X45643381Y-28083337D01*
X45580811Y-28043858D01*
X45469363Y-27973539D01*
X45469361Y-27973538D01*
X45464554Y-27970505D01*
X45268160Y-27892152D01*
X45262579Y-27891042D01*
X45262576Y-27891041D01*
X45164468Y-27871527D01*
X45060775Y-27850901D01*
X45055088Y-27850827D01*
X45055083Y-27850826D01*
X44855034Y-27848207D01*
X44855029Y-27848207D01*
X44849346Y-27848133D01*
X44843742Y-27849096D01*
X44843741Y-27849096D01*
X44646550Y-27882979D01*
X44646547Y-27882980D01*
X44640953Y-27883941D01*
X44442575Y-27957127D01*
X44437697Y-27960029D01*
X44437695Y-27960030D01*
X44265740Y-28062332D01*
X44265737Y-28062334D01*
X44260856Y-28065238D01*
X44101881Y-28204655D01*
X43971377Y-28370199D01*
X43914417Y-28410658D01*
X43844623Y-28413900D01*
X43784155Y-28378893D01*
X43752213Y-28316753D01*
X43750000Y-28293430D01*
X43750000Y-28106028D01*
X43749637Y-28099331D01*
X43744197Y-28049256D01*
X43740629Y-28034247D01*
X43696183Y-27915689D01*
X43687788Y-27900354D01*
X43612484Y-27799876D01*
X43600124Y-27787516D01*
X43499646Y-27712212D01*
X43484311Y-27703817D01*
X43365753Y-27659371D01*
X43350744Y-27655803D01*
X43300669Y-27650363D01*
X43293972Y-27650000D01*
X42667830Y-27650000D01*
X42652831Y-27654404D01*
X42651644Y-27655774D01*
X42650000Y-27663332D01*
X42650000Y-30332170D01*
X42150000Y-30332170D01*
X42150000Y-29267830D01*
X42145596Y-29252831D01*
X42144226Y-29251644D01*
X42136668Y-29250000D01*
X41067830Y-29250000D01*
X41052831Y-29254404D01*
X41051644Y-29255774D01*
X41050000Y-29263332D01*
X41050000Y-29893972D01*
X37344162Y-29893972D01*
X37372775Y-29801824D01*
X37373466Y-29796612D01*
X37403315Y-29571412D01*
X37403315Y-29571408D01*
X37404004Y-29566211D01*
X37397420Y-29390845D01*
X37395284Y-29333949D01*
X37395284Y-29333948D01*
X37395087Y-29328705D01*
X37383844Y-29275118D01*
X37347361Y-29101242D01*
X37347360Y-29101239D01*
X37346281Y-29096096D01*
X37330775Y-29056831D01*
X37295103Y-28966507D01*
X37258980Y-28875037D01*
X37207039Y-28789440D01*
X37172286Y-28732170D01*
X41050000Y-28732170D01*
X41054404Y-28747169D01*
X41055774Y-28748356D01*
X41063332Y-28750000D01*
X42132170Y-28750000D01*
X42147169Y-28745596D01*
X42148356Y-28744226D01*
X42150000Y-28736668D01*
X42150000Y-27667830D01*
X42145596Y-27652831D01*
X42144226Y-27651644D01*
X42136668Y-27650000D01*
X41506028Y-27650000D01*
X41499331Y-27650363D01*
X41449256Y-27655803D01*
X41434247Y-27659371D01*
X41315689Y-27703817D01*
X41300354Y-27712212D01*
X41199876Y-27787516D01*
X41187516Y-27799876D01*
X41112212Y-27900354D01*
X41103817Y-27915689D01*
X41059371Y-28034247D01*
X41055803Y-28049256D01*
X41050363Y-28099331D01*
X41050000Y-28106028D01*
X41050000Y-28732170D01*
X37172286Y-28732170D01*
X37138408Y-28676341D01*
X37135681Y-28671847D01*
X36979910Y-28492336D01*
X36796120Y-28341638D01*
X36791558Y-28339041D01*
X36594125Y-28226655D01*
X36594120Y-28226653D01*
X36589567Y-28224061D01*
X36366156Y-28142966D01*
X36132275Y-28100674D01*
X36107381Y-28099500D01*
X35940320Y-28099500D01*
X35937704Y-28099722D01*
X35937703Y-28099722D01*
X35926484Y-28100674D01*
X35763177Y-28114531D01*
X35533126Y-28174240D01*
X35316424Y-28271857D01*
X35119268Y-28404591D01*
X34947295Y-28568645D01*
X34805421Y-28759330D01*
X34803042Y-28764008D01*
X34803042Y-28764009D01*
X34729188Y-28909271D01*
X34697705Y-28971193D01*
X34696146Y-28976213D01*
X34696145Y-28976216D01*
X34676802Y-29038512D01*
X34627225Y-29198176D01*
X34595996Y-29433789D01*
X32803970Y-29433789D01*
X32817687Y-29172047D01*
X32819044Y-29159140D01*
X32843671Y-29003653D01*
X32869401Y-28841201D01*
X32872095Y-28828525D01*
X32955416Y-28517565D01*
X32959425Y-28505229D01*
X32962850Y-28496307D01*
X33074784Y-28204708D01*
X33080055Y-28192869D01*
X33201929Y-27953678D01*
X33226204Y-27906036D01*
X33232694Y-27894796D01*
X33408009Y-27624834D01*
X33415638Y-27614333D01*
X33618221Y-27364164D01*
X33626906Y-27354519D01*
X33854519Y-27126906D01*
X33864164Y-27118221D01*
X34114333Y-26915638D01*
X34124834Y-26908009D01*
X34394796Y-26732694D01*
X34406036Y-26726204D01*
X34453678Y-26701929D01*
X34692869Y-26580055D01*
X34704708Y-26574784D01*
X35005236Y-26459423D01*
X35017565Y-26455416D01*
X35328525Y-26372095D01*
X35341201Y-26369401D01*
X35659140Y-26319044D01*
X35672047Y-26317687D01*
X35965626Y-26302301D01*
X35981158Y-26303252D01*
X35989316Y-26303252D01*
X36000000Y-26305136D01*
X36015609Y-26302384D01*
X36037139Y-26300500D01*
X100962861Y-26300500D01*
X100984391Y-26302384D01*
G37*
%TD.AperFunction*%
%TD*%
M02*
