%TF.GenerationSoftware,KiCad,Pcbnew,6.0.10-86aedd382b~118~ubuntu22.10.1*%
%TF.CreationDate,2023-02-13T13:29:29-05:00*%
%TF.ProjectId,WerfenMc_power_edit,57657266-656e-44d6-935f-706f7765725f,rev?*%
%TF.SameCoordinates,Original*%
%TF.FileFunction,Copper,L1,Top*%
%TF.FilePolarity,Positive*%
%FSLAX46Y46*%
G04 Gerber Fmt 4.6, Leading zero omitted, Abs format (unit mm)*
G04 Created by KiCad (PCBNEW 6.0.10-86aedd382b~118~ubuntu22.10.1) date 2023-02-13 13:29:29*
%MOMM*%
%LPD*%
G01*
G04 APERTURE LIST*
G04 Aperture macros list*
%AMRoundRect*
0 Rectangle with rounded corners*
0 $1 Rounding radius*
0 $2 $3 $4 $5 $6 $7 $8 $9 X,Y pos of 4 corners*
0 Add a 4 corners polygon primitive as box body*
4,1,4,$2,$3,$4,$5,$6,$7,$8,$9,$2,$3,0*
0 Add four circle primitives for the rounded corners*
1,1,$1+$1,$2,$3*
1,1,$1+$1,$4,$5*
1,1,$1+$1,$6,$7*
1,1,$1+$1,$8,$9*
0 Add four rect primitives between the rounded corners*
20,1,$1+$1,$2,$3,$4,$5,0*
20,1,$1+$1,$4,$5,$6,$7,0*
20,1,$1+$1,$6,$7,$8,$9,0*
20,1,$1+$1,$8,$9,$2,$3,0*%
G04 Aperture macros list end*
%TA.AperFunction,SMDPad,CuDef*%
%ADD10R,3.556000X3.505200*%
%TD*%
%TA.AperFunction,SMDPad,CuDef*%
%ADD11RoundRect,0.135000X-0.185000X0.135000X-0.185000X-0.135000X0.185000X-0.135000X0.185000X0.135000X0*%
%TD*%
%TA.AperFunction,SMDPad,CuDef*%
%ADD12RoundRect,0.250000X0.275000X-0.312500X0.275000X0.312500X-0.275000X0.312500X-0.275000X-0.312500X0*%
%TD*%
%TA.AperFunction,SMDPad,CuDef*%
%ADD13C,1.500000*%
%TD*%
%TA.AperFunction,SMDPad,CuDef*%
%ADD14RoundRect,0.135000X0.185000X-0.135000X0.185000X0.135000X-0.185000X0.135000X-0.185000X-0.135000X0*%
%TD*%
%TA.AperFunction,ComponentPad*%
%ADD15R,1.700000X1.700000*%
%TD*%
%TA.AperFunction,ComponentPad*%
%ADD16O,1.700000X1.700000*%
%TD*%
%TA.AperFunction,SMDPad,CuDef*%
%ADD17RoundRect,0.243750X0.456250X-0.243750X0.456250X0.243750X-0.456250X0.243750X-0.456250X-0.243750X0*%
%TD*%
%TA.AperFunction,ComponentPad*%
%ADD18R,2.200000X2.200000*%
%TD*%
%TA.AperFunction,ComponentPad*%
%ADD19C,2.200000*%
%TD*%
%TA.AperFunction,SMDPad,CuDef*%
%ADD20RoundRect,0.243750X-0.456250X0.243750X-0.456250X-0.243750X0.456250X-0.243750X0.456250X0.243750X0*%
%TD*%
%TA.AperFunction,SMDPad,CuDef*%
%ADD21RoundRect,0.140000X0.140000X0.170000X-0.140000X0.170000X-0.140000X-0.170000X0.140000X-0.170000X0*%
%TD*%
%TA.AperFunction,SMDPad,CuDef*%
%ADD22R,2.000000X1.500000*%
%TD*%
%TA.AperFunction,SMDPad,CuDef*%
%ADD23R,2.000000X3.800000*%
%TD*%
%TA.AperFunction,SMDPad,CuDef*%
%ADD24RoundRect,0.075000X-0.700000X-0.075000X0.700000X-0.075000X0.700000X0.075000X-0.700000X0.075000X0*%
%TD*%
%TA.AperFunction,SMDPad,CuDef*%
%ADD25RoundRect,0.075000X-0.075000X-0.700000X0.075000X-0.700000X0.075000X0.700000X-0.075000X0.700000X0*%
%TD*%
%TA.AperFunction,SMDPad,CuDef*%
%ADD26RoundRect,0.140000X-0.170000X0.140000X-0.170000X-0.140000X0.170000X-0.140000X0.170000X0.140000X0*%
%TD*%
%TA.AperFunction,SMDPad,CuDef*%
%ADD27RoundRect,0.250000X0.312500X0.275000X-0.312500X0.275000X-0.312500X-0.275000X0.312500X-0.275000X0*%
%TD*%
%TA.AperFunction,SMDPad,CuDef*%
%ADD28RoundRect,0.135000X-0.135000X-0.185000X0.135000X-0.185000X0.135000X0.185000X-0.135000X0.185000X0*%
%TD*%
%TA.AperFunction,ComponentPad*%
%ADD29C,2.400000*%
%TD*%
%TA.AperFunction,ComponentPad*%
%ADD30O,2.400000X2.400000*%
%TD*%
%TA.AperFunction,SMDPad,CuDef*%
%ADD31RoundRect,0.218750X-0.256250X0.218750X-0.256250X-0.218750X0.256250X-0.218750X0.256250X0.218750X0*%
%TD*%
%TA.AperFunction,SMDPad,CuDef*%
%ADD32RoundRect,0.243750X0.243750X0.456250X-0.243750X0.456250X-0.243750X-0.456250X0.243750X-0.456250X0*%
%TD*%
%TA.AperFunction,SMDPad,CuDef*%
%ADD33RoundRect,0.135000X0.135000X0.185000X-0.135000X0.185000X-0.135000X-0.185000X0.135000X-0.185000X0*%
%TD*%
%TA.AperFunction,SMDPad,CuDef*%
%ADD34R,1.100000X4.600000*%
%TD*%
%TA.AperFunction,SMDPad,CuDef*%
%ADD35R,10.800000X9.400000*%
%TD*%
%TA.AperFunction,SMDPad,CuDef*%
%ADD36R,2.200000X1.200000*%
%TD*%
%TA.AperFunction,SMDPad,CuDef*%
%ADD37R,6.400000X5.800000*%
%TD*%
%TA.AperFunction,SMDPad,CuDef*%
%ADD38RoundRect,0.250000X0.550000X-1.712500X0.550000X1.712500X-0.550000X1.712500X-0.550000X-1.712500X0*%
%TD*%
%TA.AperFunction,ComponentPad*%
%ADD39R,1.600000X1.600000*%
%TD*%
%TA.AperFunction,ComponentPad*%
%ADD40O,1.600000X1.600000*%
%TD*%
%TA.AperFunction,SMDPad,CuDef*%
%ADD41RoundRect,0.250000X-0.550000X1.712500X-0.550000X-1.712500X0.550000X-1.712500X0.550000X1.712500X0*%
%TD*%
%TA.AperFunction,SMDPad,CuDef*%
%ADD42RoundRect,0.140000X0.170000X-0.140000X0.170000X0.140000X-0.170000X0.140000X-0.170000X-0.140000X0*%
%TD*%
%TA.AperFunction,ComponentPad*%
%ADD43R,3.500000X3.500000*%
%TD*%
%TA.AperFunction,ComponentPad*%
%ADD44RoundRect,0.750000X0.750000X1.000000X-0.750000X1.000000X-0.750000X-1.000000X0.750000X-1.000000X0*%
%TD*%
%TA.AperFunction,ComponentPad*%
%ADD45RoundRect,0.875000X0.875000X0.875000X-0.875000X0.875000X-0.875000X-0.875000X0.875000X-0.875000X0*%
%TD*%
%TA.AperFunction,SMDPad,CuDef*%
%ADD46R,2.200000X1.300000*%
%TD*%
%TA.AperFunction,ComponentPad*%
%ADD47R,1.900000X1.900000*%
%TD*%
%TA.AperFunction,ComponentPad*%
%ADD48C,1.900000*%
%TD*%
%TA.AperFunction,SMDPad,CuDef*%
%ADD49RoundRect,0.200000X-0.275000X0.200000X-0.275000X-0.200000X0.275000X-0.200000X0.275000X0.200000X0*%
%TD*%
%TA.AperFunction,ComponentPad*%
%ADD50C,2.000000*%
%TD*%
%TA.AperFunction,SMDPad,CuDef*%
%ADD51RoundRect,0.140000X-0.140000X-0.170000X0.140000X-0.170000X0.140000X0.170000X-0.140000X0.170000X0*%
%TD*%
%TA.AperFunction,SMDPad,CuDef*%
%ADD52R,1.500000X1.000000*%
%TD*%
%TA.AperFunction,ViaPad*%
%ADD53C,0.800000*%
%TD*%
%TA.AperFunction,ViaPad*%
%ADD54C,0.700000*%
%TD*%
%TA.AperFunction,Conductor*%
%ADD55C,1.000000*%
%TD*%
%TA.AperFunction,Conductor*%
%ADD56C,0.300000*%
%TD*%
%TA.AperFunction,Conductor*%
%ADD57C,0.500000*%
%TD*%
%TA.AperFunction,Conductor*%
%ADD58C,1.500000*%
%TD*%
G04 APERTURE END LIST*
D10*
%TO.P,L1,2,2*%
%TO.N,+5V*%
X66025000Y-32800000D03*
%TO.P,L1,1,1*%
%TO.N,/L_IN*%
X74975000Y-32800000D03*
%TD*%
D11*
%TO.P,R5,1*%
%TO.N,MS3*%
X92000000Y-69490000D03*
%TO.P,R5,2*%
%TO.N,Net-(D3-Pad2)*%
X92000000Y-70510000D03*
%TD*%
D12*
%TO.P,C2,1*%
%TO.N,+3.3VA*%
X49750000Y-66887500D03*
%TO.P,C2,2*%
%TO.N,GND*%
X49750000Y-65112500D03*
%TD*%
D13*
%TO.P,TP8,1,1*%
%TO.N,+5V*%
X67950000Y-39800000D03*
%TD*%
D14*
%TO.P,R8,1*%
%TO.N,Net-(D5-Pad2)*%
X84250000Y-70510000D03*
%TO.P,R8,2*%
%TO.N,ENABLE*%
X84250000Y-69490000D03*
%TD*%
%TO.P,R10,1*%
%TO.N,Net-(D5-Pad2)*%
X96500000Y-80113641D03*
%TO.P,R10,2*%
%TO.N,GND*%
X96500000Y-79093641D03*
%TD*%
D15*
%TO.P,S2,1*%
%TO.N,GND*%
X75975000Y-81000000D03*
D16*
%TO.P,S2,2*%
%TO.N,Net-(D6-Pad2)*%
X78515000Y-81000000D03*
%TO.P,S2,3*%
%TO.N,+3.3V*%
X81055000Y-81000000D03*
%TD*%
D15*
%TO.P,J1,1,Pin_1*%
%TO.N,2A*%
X93900000Y-50800000D03*
D16*
%TO.P,J1,2,Pin_2*%
%TO.N,1B*%
X96440000Y-50800000D03*
%TO.P,J1,3,Pin_3*%
%TO.N,2B*%
X98980000Y-50800000D03*
%TO.P,J1,4,Pin_4*%
%TO.N,1A*%
X101520000Y-50800000D03*
%TD*%
D17*
%TO.P,D2,1,K*%
%TO.N,GND*%
X89300000Y-73937500D03*
%TO.P,D2,2,A*%
%TO.N,Net-(D2-Pad2)*%
X89300000Y-72062500D03*
%TD*%
D18*
%TO.P,D9,1,A*%
%TO.N,+5V*%
X36500000Y-35600000D03*
D19*
%TO.P,D9,2,K*%
%TO.N,Net-(D9-Pad2)*%
X36500000Y-38140000D03*
%TD*%
D15*
%TO.P,Q1,1,C*%
%TO.N,+3.3V*%
X43776453Y-72206402D03*
D16*
%TO.P,Q1,2,E*%
%TO.N,LIGHT_S*%
X43776453Y-74746402D03*
%TD*%
D13*
%TO.P,TP1,1,1*%
%TO.N,STEP*%
X99500000Y-71500000D03*
%TD*%
D20*
%TO.P,D5,1,K*%
%TO.N,Net-(D5-Pad1)*%
X94500000Y-79062500D03*
%TO.P,D5,2,A*%
%TO.N,Net-(D5-Pad2)*%
X94500000Y-80937500D03*
%TD*%
D21*
%TO.P,C16,1*%
%TO.N,+3.3V*%
X55030000Y-57450000D03*
%TO.P,C16,2*%
%TO.N,GND*%
X54070000Y-57450000D03*
%TD*%
D22*
%TO.P,Q2,1,B*%
%TO.N,Net-(Q2-Pad1)*%
X41650000Y-51300000D03*
%TO.P,Q2,2,C*%
%TO.N,/LIGHT_DRIVE*%
X41650000Y-49000000D03*
%TO.P,Q2,3,E*%
%TO.N,GND*%
X41650000Y-46700000D03*
D23*
%TO.P,Q2,4,C*%
%TO.N,/LIGHT_DRIVE*%
X35350000Y-49000000D03*
%TD*%
D24*
%TO.P,U1,1,VBAT*%
%TO.N,+3.3V*%
X55045200Y-58683200D03*
%TO.P,U1,2,PC13*%
%TO.N,unconnected-(U1-Pad2)*%
X55045200Y-59183200D03*
%TO.P,U1,3,PC14*%
%TO.N,unconnected-(U1-Pad3)*%
X55045200Y-59683200D03*
%TO.P,U1,4,PC15*%
%TO.N,unconnected-(U1-Pad4)*%
X55045200Y-60183200D03*
%TO.P,U1,5,PH0*%
%TO.N,/HSE_OSC_IN*%
X55045200Y-60683200D03*
%TO.P,U1,6,PH1*%
%TO.N,Net-(R7-Pad1)*%
X55045200Y-61183200D03*
%TO.P,U1,7,NRST*%
%TO.N,NRST*%
X55045200Y-61683200D03*
%TO.P,U1,8,PC0*%
%TO.N,unconnected-(U1-Pad8)*%
X55045200Y-62183200D03*
%TO.P,U1,9,PC1*%
%TO.N,unconnected-(U1-Pad9)*%
X55045200Y-62683200D03*
%TO.P,U1,10,PC2*%
%TO.N,unconnected-(U1-Pad10)*%
X55045200Y-63183200D03*
%TO.P,U1,11,PC3*%
%TO.N,unconnected-(U1-Pad11)*%
X55045200Y-63683200D03*
%TO.P,U1,12,VSSA*%
%TO.N,GND*%
X55045200Y-64183200D03*
%TO.P,U1,13,VDDA*%
%TO.N,+3.3VA*%
X55045200Y-64683200D03*
%TO.P,U1,14,PA0*%
%TO.N,unconnected-(U1-Pad14)*%
X55045200Y-65183200D03*
%TO.P,U1,15,PA1*%
%TO.N,unconnected-(U1-Pad15)*%
X55045200Y-65683200D03*
%TO.P,U1,16,PA2*%
%TO.N,unconnected-(U1-Pad16)*%
X55045200Y-66183200D03*
D25*
%TO.P,U1,17,PA3*%
%TO.N,unconnected-(U1-Pad17)*%
X56970200Y-68108200D03*
%TO.P,U1,18,VSS*%
%TO.N,GND*%
X57470200Y-68108200D03*
%TO.P,U1,19,VDD*%
%TO.N,+3.3V*%
X57970200Y-68108200D03*
%TO.P,U1,20,PA4*%
%TO.N,unconnected-(U1-Pad20)*%
X58470200Y-68108200D03*
%TO.P,U1,21,PA5*%
%TO.N,unconnected-(U1-Pad21)*%
X58970200Y-68108200D03*
%TO.P,U1,22,PA6*%
%TO.N,unconnected-(U1-Pad22)*%
X59470200Y-68108200D03*
%TO.P,U1,23,PA7*%
%TO.N,unconnected-(U1-Pad23)*%
X59970200Y-68108200D03*
%TO.P,U1,24,PC4*%
%TO.N,TX3*%
X60470200Y-68108200D03*
%TO.P,U1,25,PC5*%
%TO.N,RX3*%
X60970200Y-68108200D03*
%TO.P,U1,26,PB0*%
%TO.N,unconnected-(U1-Pad26)*%
X61470200Y-68108200D03*
%TO.P,U1,27,PB1*%
%TO.N,LIGHT_S*%
X61970200Y-68108200D03*
%TO.P,U1,28,PB2*%
%TO.N,unconnected-(U1-Pad28)*%
X62470200Y-68108200D03*
%TO.P,U1,29,PB10*%
%TO.N,unconnected-(U1-Pad29)*%
X62970200Y-68108200D03*
%TO.P,U1,30,PB11*%
%TO.N,unconnected-(U1-Pad30)*%
X63470200Y-68108200D03*
%TO.P,U1,31,VSS*%
%TO.N,GND*%
X63970200Y-68108200D03*
%TO.P,U1,32,VDD*%
%TO.N,+3.3V*%
X64470200Y-68108200D03*
D24*
%TO.P,U1,33,PB12*%
%TO.N,SWITCH2*%
X66395200Y-66183200D03*
%TO.P,U1,34,PB13*%
%TO.N,unconnected-(U1-Pad34)*%
X66395200Y-65683200D03*
%TO.P,U1,35,PB14*%
%TO.N,SWITCH1*%
X66395200Y-65183200D03*
%TO.P,U1,36,PB15*%
%TO.N,ENABLE*%
X66395200Y-64683200D03*
%TO.P,U1,37,PC6*%
%TO.N,unconnected-(U1-Pad37)*%
X66395200Y-64183200D03*
%TO.P,U1,38,PC7*%
%TO.N,unconnected-(U1-Pad38)*%
X66395200Y-63683200D03*
%TO.P,U1,39,PC8*%
%TO.N,STEP*%
X66395200Y-63183200D03*
%TO.P,U1,40,PC9*%
%TO.N,unconnected-(U1-Pad40)*%
X66395200Y-62683200D03*
%TO.P,U1,41,PA8*%
%TO.N,MS1*%
X66395200Y-62183200D03*
%TO.P,U1,42,PA9*%
%TO.N,MS2*%
X66395200Y-61683200D03*
%TO.P,U1,43,PA10*%
%TO.N,MS3*%
X66395200Y-61183200D03*
%TO.P,U1,44,PA11*%
%TO.N,DIR*%
X66395200Y-60683200D03*
%TO.P,U1,45,PA12*%
%TO.N,unconnected-(U1-Pad45)*%
X66395200Y-60183200D03*
%TO.P,U1,46,PA13*%
%TO.N,JTMS*%
X66395200Y-59683200D03*
%TO.P,U1,47,VSS*%
%TO.N,GND*%
X66395200Y-59183200D03*
%TO.P,U1,48,VDDUSB*%
%TO.N,+3.3V*%
X66395200Y-58683200D03*
D25*
%TO.P,U1,49,PA14*%
%TO.N,JTCK*%
X64470200Y-56758200D03*
%TO.P,U1,50,PA15*%
%TO.N,unconnected-(U1-Pad50)*%
X63970200Y-56758200D03*
%TO.P,U1,51,PC10*%
%TO.N,unconnected-(U1-Pad51)*%
X63470200Y-56758200D03*
%TO.P,U1,52,PC11*%
%TO.N,unconnected-(U1-Pad52)*%
X62970200Y-56758200D03*
%TO.P,U1,53,PC12*%
%TO.N,USR_LED*%
X62470200Y-56758200D03*
%TO.P,U1,54,PD2*%
%TO.N,unconnected-(U1-Pad54)*%
X61970200Y-56758200D03*
%TO.P,U1,55,PB3*%
%TO.N,SWO*%
X61470200Y-56758200D03*
%TO.P,U1,56,PB4*%
%TO.N,unconnected-(U1-Pad56)*%
X60970200Y-56758200D03*
%TO.P,U1,57,PB5*%
%TO.N,unconnected-(U1-Pad57)*%
X60470200Y-56758200D03*
%TO.P,U1,58,PB6*%
%TO.N,TX1*%
X59970200Y-56758200D03*
%TO.P,U1,59,PB7*%
%TO.N,RX1*%
X59470200Y-56758200D03*
%TO.P,U1,60,BOOT0*%
%TO.N,/BOOT0*%
X58970200Y-56758200D03*
%TO.P,U1,61,PB8*%
%TO.N,LIGHT*%
X58470200Y-56758200D03*
%TO.P,U1,62,PB9*%
%TO.N,unconnected-(U1-Pad62)*%
X57970200Y-56758200D03*
%TO.P,U1,63,VSS*%
%TO.N,GND*%
X57470200Y-56758200D03*
%TO.P,U1,64,VDD*%
%TO.N,+3.3V*%
X56970200Y-56758200D03*
%TD*%
D17*
%TO.P,D8,1,K*%
%TO.N,/L_IN*%
X78100000Y-31750000D03*
%TO.P,D8,2,A*%
%TO.N,GND*%
X78100000Y-29875000D03*
%TD*%
D26*
%TO.P,C10,1*%
%TO.N,GND*%
X50350000Y-61750000D03*
%TO.P,C10,2*%
%TO.N,/HSE_OSC_OUT*%
X50350000Y-62710000D03*
%TD*%
D14*
%TO.P,R17,1*%
%TO.N,+3.3V*%
X88750000Y-50702718D03*
%TO.P,R17,2*%
%TO.N,Net-(D10-Pad2)*%
X88750000Y-49682718D03*
%TD*%
D12*
%TO.P,C1,1*%
%TO.N,+3.3VA*%
X52000000Y-66887500D03*
%TO.P,C1,2*%
%TO.N,GND*%
X52000000Y-65112500D03*
%TD*%
D11*
%TO.P,R3,1*%
%TO.N,MS1*%
X86750000Y-69490000D03*
%TO.P,R3,2*%
%TO.N,Net-(D1-Pad2)*%
X86750000Y-70510000D03*
%TD*%
D18*
%TO.P,J6,1,Pin_1*%
%TO.N,+12V*%
X100460000Y-46770000D03*
D19*
%TO.P,J6,2,Pin_2*%
%TO.N,GND*%
X100460000Y-44230000D03*
%TD*%
D17*
%TO.P,D1,1,K*%
%TO.N,GND*%
X86700000Y-73937500D03*
%TO.P,D1,2,A*%
%TO.N,Net-(D1-Pad2)*%
X86700000Y-72062500D03*
%TD*%
D27*
%TO.P,C3,1*%
%TO.N,+3.3V*%
X58087500Y-72050000D03*
%TO.P,C3,2*%
%TO.N,GND*%
X56312500Y-72050000D03*
%TD*%
D28*
%TO.P,R2,1*%
%TO.N,Net-(R2-Pad1)*%
X46490000Y-75750000D03*
%TO.P,R2,2*%
%TO.N,/BOOT0*%
X47510000Y-75750000D03*
%TD*%
D29*
%TO.P,R1,1*%
%TO.N,LIGHT_S*%
X35000000Y-74620000D03*
D30*
%TO.P,R1,2*%
%TO.N,GND*%
X35000000Y-59380000D03*
%TD*%
D15*
%TO.P,J5,1,Pin_1*%
%TO.N,GND*%
X42400000Y-29000000D03*
D16*
%TO.P,J5,2,Pin_2*%
%TO.N,RX1*%
X44940000Y-29000000D03*
%TO.P,J5,3,Pin_3*%
%TO.N,TX1*%
X47480000Y-29000000D03*
%TO.P,J5,4,Pin_4*%
%TO.N,+5V*%
X50020000Y-29000000D03*
%TD*%
D31*
%TO.P,FB1,1*%
%TO.N,+3.3V*%
X47250000Y-65325000D03*
%TO.P,FB1,2*%
%TO.N,+3.3VA*%
X47250000Y-66900000D03*
%TD*%
D15*
%TO.P,J4,1,Pin_1*%
%TO.N,GND*%
X54650000Y-81000000D03*
D16*
%TO.P,J4,2,Pin_2*%
%TO.N,TX3*%
X57190000Y-81000000D03*
%TO.P,J4,3,Pin_3*%
%TO.N,RX3*%
X59730000Y-81000000D03*
%TO.P,J4,4,Pin_4*%
%TO.N,+3.3V*%
X62270000Y-81000000D03*
%TD*%
D13*
%TO.P,TP5,1,1*%
%TO.N,Net-(D6-Pad2)*%
X81250000Y-76000000D03*
%TD*%
D32*
%TO.P,D4,1,K*%
%TO.N,GND*%
X68537500Y-50600000D03*
%TO.P,D4,2,A*%
%TO.N,Net-(D4-Pad2)*%
X66662500Y-50600000D03*
%TD*%
D20*
%TO.P,D7,1,K*%
%TO.N,Net-(D7-Pad1)*%
X69250000Y-74312500D03*
%TO.P,D7,2,A*%
%TO.N,Net-(D7-Pad2)*%
X69250000Y-76187500D03*
%TD*%
D33*
%TO.P,R15,1*%
%TO.N,LIGHT*%
X47010000Y-53120000D03*
%TO.P,R15,2*%
%TO.N,Net-(Q2-Pad1)*%
X45990000Y-53120000D03*
%TD*%
D13*
%TO.P,TP3,1,1*%
%TO.N,+12V*%
X85000000Y-40800000D03*
%TD*%
D34*
%TO.P,U2,1,VIN*%
%TO.N,+12V*%
X80000000Y-41025000D03*
%TO.P,U2,2,OUT*%
%TO.N,/L_IN*%
X78300000Y-41025000D03*
%TO.P,U2,3,GND*%
%TO.N,GND*%
X76600000Y-41025000D03*
D35*
X76600000Y-50175000D03*
D34*
%TO.P,U2,4,FB*%
%TO.N,+5V*%
X74900000Y-41025000D03*
%TO.P,U2,5,~{ON}/OFF*%
%TO.N,GND*%
X73200000Y-41025000D03*
%TD*%
D13*
%TO.P,TP6,1,1*%
%TO.N,Net-(D7-Pad2)*%
X66750000Y-76000000D03*
%TD*%
%TO.P,TP2,1,1*%
%TO.N,+3.3V*%
X56500000Y-45000000D03*
%TD*%
D36*
%TO.P,U3,1,GND*%
%TO.N,GND*%
X67800000Y-47280000D03*
D37*
%TO.P,U3,2,VO*%
%TO.N,+3.3V*%
X61500000Y-45000000D03*
D36*
X67800000Y-45000000D03*
%TO.P,U3,3,VI*%
%TO.N,+5V*%
X67800000Y-42720000D03*
%TD*%
D38*
%TO.P,C14,1*%
%TO.N,+12V*%
X83800000Y-36200000D03*
%TO.P,C14,2*%
%TO.N,GND*%
X83800000Y-30025000D03*
%TD*%
D26*
%TO.P,C7,1*%
%TO.N,+3.3V*%
X68514000Y-58498800D03*
%TO.P,C7,2*%
%TO.N,GND*%
X68514000Y-59458800D03*
%TD*%
D39*
%TO.P,A1,1,GND*%
%TO.N,GND*%
X102000000Y-54500000D03*
D40*
%TO.P,A1,2,VDD*%
%TO.N,+3.3V*%
X99460000Y-54500000D03*
%TO.P,A1,3,1B*%
%TO.N,1B*%
X96920000Y-54500000D03*
%TO.P,A1,4,1A*%
%TO.N,1A*%
X94380000Y-54500000D03*
%TO.P,A1,5,2A*%
%TO.N,2A*%
X91840000Y-54500000D03*
%TO.P,A1,6,2B*%
%TO.N,2B*%
X89300000Y-54500000D03*
%TO.P,A1,7,GND*%
%TO.N,GND*%
X86760000Y-54500000D03*
%TO.P,A1,8,VMOT*%
%TO.N,+12V*%
X84220000Y-54500000D03*
%TO.P,A1,9,~{ENABLE}*%
%TO.N,ENABLE*%
X84220000Y-67200000D03*
%TO.P,A1,10,MS1*%
%TO.N,MS1*%
X86760000Y-67200000D03*
%TO.P,A1,11,MS2*%
%TO.N,MS2*%
X89300000Y-67200000D03*
%TO.P,A1,12,MS3*%
%TO.N,MS3*%
X91840000Y-67200000D03*
%TO.P,A1,13,~{RESET}*%
%TO.N,Net-(A1-Pad13)*%
X94380000Y-67200000D03*
%TO.P,A1,14,~{SLEEP}*%
X96920000Y-67200000D03*
%TO.P,A1,15,STEP*%
%TO.N,STEP*%
X99460000Y-67200000D03*
%TO.P,A1,16,DIR*%
%TO.N,DIR*%
X102000000Y-67200000D03*
%TD*%
D21*
%TO.P,C8,1*%
%TO.N,NRST*%
X41710000Y-56860000D03*
%TO.P,C8,2*%
%TO.N,GND*%
X40750000Y-56860000D03*
%TD*%
D41*
%TO.P,C15,1*%
%TO.N,+5V*%
X58900000Y-32712500D03*
%TO.P,C15,2*%
%TO.N,GND*%
X58900000Y-38887500D03*
%TD*%
D42*
%TO.P,C9,1*%
%TO.N,GND*%
X50350000Y-59360000D03*
%TO.P,C9,2*%
%TO.N,/HSE_OSC_IN*%
X50350000Y-58400000D03*
%TD*%
D17*
%TO.P,D3,1,K*%
%TO.N,GND*%
X92000000Y-73937500D03*
%TO.P,D3,2,A*%
%TO.N,Net-(D3-Pad2)*%
X92000000Y-72062500D03*
%TD*%
D21*
%TO.P,C4,1*%
%TO.N,+3.3V*%
X58080000Y-70300000D03*
%TO.P,C4,2*%
%TO.N,GND*%
X57120000Y-70300000D03*
%TD*%
D15*
%TO.P,S3,1*%
%TO.N,GND*%
X71750000Y-81000000D03*
D16*
%TO.P,S3,2*%
%TO.N,Net-(D7-Pad2)*%
X69210000Y-81000000D03*
%TO.P,S3,3*%
%TO.N,+3.3V*%
X66670000Y-81000000D03*
%TD*%
D43*
%TO.P,J3,1*%
%TO.N,+12V*%
X90400000Y-37400000D03*
D44*
%TO.P,J3,2*%
%TO.N,GND*%
X96400000Y-37400000D03*
D45*
%TO.P,J3,3*%
X93400000Y-32700000D03*
%TD*%
D11*
%TO.P,R4,1*%
%TO.N,MS2*%
X89300000Y-69490000D03*
%TO.P,R4,2*%
%TO.N,Net-(D2-Pad2)*%
X89300000Y-70510000D03*
%TD*%
D21*
%TO.P,C6,1*%
%TO.N,+3.3V*%
X64680000Y-70100000D03*
%TO.P,C6,2*%
%TO.N,GND*%
X63720000Y-70100000D03*
%TD*%
D17*
%TO.P,D10,1,K*%
%TO.N,GND*%
X86750000Y-51687500D03*
%TO.P,D10,2,A*%
%TO.N,Net-(D10-Pad2)*%
X86750000Y-49812500D03*
%TD*%
D14*
%TO.P,R12,1*%
%TO.N,Net-(D6-Pad1)*%
X78500000Y-72760000D03*
%TO.P,R12,2*%
%TO.N,GND*%
X78500000Y-71740000D03*
%TD*%
D15*
%TO.P,J2,1,Pin_1*%
%TO.N,JTCK*%
X48750000Y-35675000D03*
D16*
%TO.P,J2,2,Pin_2*%
%TO.N,GND*%
X48750000Y-38215000D03*
%TO.P,J2,3,Pin_3*%
%TO.N,JTMS*%
X48750000Y-40755000D03*
%TO.P,J2,4,Pin_4*%
%TO.N,NRST*%
X48750000Y-43295000D03*
%TO.P,J2,5,Pin_5*%
%TO.N,SWO*%
X48750000Y-45835000D03*
%TD*%
D14*
%TO.P,R13,1*%
%TO.N,Net-(D7-Pad2)*%
X71500000Y-74260000D03*
%TO.P,R13,2*%
%TO.N,SWITCH2*%
X71500000Y-73240000D03*
%TD*%
D46*
%TO.P,HSE1,1,1*%
%TO.N,/HSE_OSC_OUT*%
X48000000Y-62600000D03*
%TO.P,HSE1,2,2*%
%TO.N,/HSE_OSC_IN*%
X48000000Y-58400000D03*
%TD*%
D20*
%TO.P,D6,1,K*%
%TO.N,Net-(D6-Pad1)*%
X78500000Y-74312500D03*
%TO.P,D6,2,A*%
%TO.N,Net-(D6-Pad2)*%
X78500000Y-76187500D03*
%TD*%
D28*
%TO.P,R11,1*%
%TO.N,Net-(D5-Pad1)*%
X94465000Y-77120000D03*
%TO.P,R11,2*%
%TO.N,GND*%
X95485000Y-77120000D03*
%TD*%
D11*
%TO.P,R7,1*%
%TO.N,Net-(R7-Pad1)*%
X52300000Y-61740000D03*
%TO.P,R7,2*%
%TO.N,/HSE_OSC_OUT*%
X52300000Y-62760000D03*
%TD*%
D47*
%TO.P,S1,1*%
%TO.N,GND*%
X48950000Y-80530000D03*
D48*
%TO.P,S1,2*%
%TO.N,Net-(R2-Pad1)*%
X46450000Y-80530000D03*
%TO.P,S1,3*%
%TO.N,+3.3V*%
X43950000Y-80530000D03*
%TD*%
D49*
%TO.P,R16,1*%
%TO.N,Net-(D9-Pad2)*%
X36500000Y-41350000D03*
%TO.P,R16,2*%
%TO.N,/LIGHT_DRIVE*%
X36500000Y-43000000D03*
%TD*%
D50*
%TO.P,SW1,1,1*%
%TO.N,GND*%
X39000000Y-65760000D03*
X39000000Y-59260000D03*
%TO.P,SW1,2,2*%
%TO.N,NRST*%
X43500000Y-65760000D03*
X43500000Y-59260000D03*
%TD*%
D51*
%TO.P,C5,1*%
%TO.N,+3.3V*%
X56520000Y-55000000D03*
%TO.P,C5,2*%
%TO.N,GND*%
X57480000Y-55000000D03*
%TD*%
D14*
%TO.P,R14,1*%
%TO.N,Net-(D7-Pad1)*%
X69250000Y-72770000D03*
%TO.P,R14,2*%
%TO.N,GND*%
X69250000Y-71750000D03*
%TD*%
%TO.P,R9,1*%
%TO.N,Net-(D6-Pad2)*%
X76370000Y-74260000D03*
%TO.P,R9,2*%
%TO.N,SWITCH1*%
X76370000Y-73240000D03*
%TD*%
D15*
%TO.P,SW2,1,1*%
%TO.N,Net-(D5-Pad2)*%
X91100000Y-81000000D03*
D16*
%TO.P,SW2,2,2*%
%TO.N,+3.3V*%
X88560000Y-81000000D03*
%TD*%
D14*
%TO.P,R6,1*%
%TO.N,USR_LED*%
X65000000Y-51510000D03*
%TO.P,R6,2*%
%TO.N,Net-(D4-Pad2)*%
X65000000Y-50490000D03*
%TD*%
D52*
%TO.P,JP1,1,A*%
%TO.N,/LIGHT_DRIVE*%
X39000000Y-42825000D03*
%TO.P,JP1,2,B*%
%TO.N,Net-(D9-Pad2)*%
X39000000Y-41525000D03*
%TD*%
D53*
%TO.N,GND*%
X80750000Y-29750000D03*
X79000000Y-28500000D03*
D54*
X41000000Y-45000000D03*
X53300000Y-78300000D03*
X74800000Y-78800000D03*
D53*
X60700000Y-37600000D03*
X69800000Y-48200000D03*
X74600000Y-45000000D03*
D54*
X95450000Y-76150000D03*
D53*
X96200000Y-34800000D03*
X94000000Y-73500000D03*
X70000000Y-54000000D03*
D54*
X41500000Y-31000000D03*
D53*
X73000000Y-55800000D03*
X78500000Y-70500000D03*
D54*
X50170000Y-77580000D03*
D53*
X50350000Y-60650000D03*
X79600000Y-55800000D03*
X64000000Y-66500000D03*
X102000000Y-56500000D03*
X52850000Y-57450000D03*
X89600000Y-31500000D03*
D54*
X56000000Y-70250000D03*
X73100000Y-78850000D03*
D53*
X69250000Y-70500000D03*
X58206677Y-66456677D03*
X78000000Y-45000000D03*
X55500000Y-39200000D03*
X92600000Y-30000000D03*
X74000000Y-55800000D03*
D54*
X42250000Y-45000000D03*
D53*
X48500000Y-65500000D03*
X79800000Y-45000000D03*
X57500000Y-58500000D03*
D54*
X69650000Y-59450000D03*
D53*
X69800000Y-47200000D03*
X69600000Y-52400000D03*
D54*
X42900000Y-31000000D03*
D53*
X60700000Y-39200000D03*
X80600000Y-55800000D03*
D54*
X35000000Y-57000000D03*
D53*
X39000000Y-62480000D03*
X98600000Y-37000000D03*
X56900000Y-38200000D03*
X51000000Y-37000000D03*
X85600000Y-29600000D03*
D54*
X39740000Y-57240000D03*
D53*
X94200000Y-30000000D03*
X89600000Y-28600000D03*
X55500000Y-37200000D03*
X85600000Y-31200000D03*
%TO.N,+3.3V*%
X56500000Y-50000000D03*
X56500000Y-54000000D03*
%TO.N,STEP*%
X76250000Y-63200500D03*
X71028223Y-63238177D03*
D54*
%TO.N,NRST*%
X50000000Y-53949500D03*
D53*
X48000000Y-68750000D03*
D54*
X45500000Y-68750000D03*
D53*
X50000000Y-51500500D03*
%TO.N,TX3*%
X60000000Y-70750000D03*
X60000000Y-75000000D03*
%TO.N,RX3*%
X61000000Y-71000000D03*
X61000000Y-75000000D03*
%TO.N,USR_LED*%
X64950000Y-52850000D03*
X62745023Y-55054977D03*
%TO.N,/BOOT0*%
X51350688Y-72149312D03*
X49750000Y-73750000D03*
%TO.N,LIGHT_S*%
X62750000Y-73750000D03*
X62750000Y-70750000D03*
%TD*%
D55*
%TO.N,+5V*%
X50020000Y-29000000D02*
X55187500Y-29000000D01*
X55187500Y-29000000D02*
X58900000Y-32712500D01*
D56*
%TO.N,GND*%
X57470200Y-55009800D02*
X57480000Y-55000000D01*
D57*
X92000000Y-73937500D02*
X93562500Y-73937500D01*
X54650000Y-79650000D02*
X53300000Y-78300000D01*
X56800000Y-70300000D02*
X56312500Y-70787500D01*
D56*
X39000000Y-59260000D02*
X39000000Y-62480000D01*
X95485000Y-77120000D02*
X95485000Y-76185000D01*
D57*
X56312500Y-70787500D02*
X56312500Y-70562500D01*
D56*
X68514000Y-59458800D02*
X69641200Y-59458800D01*
X75975000Y-81000000D02*
X75975000Y-79975000D01*
D57*
X56312500Y-70787500D02*
X56312500Y-72050000D01*
D55*
X76600000Y-41025000D02*
X76600000Y-50175000D01*
D56*
X86750000Y-54490000D02*
X86760000Y-54500000D01*
X63970200Y-68108200D02*
X63970200Y-66529800D01*
X95485000Y-76185000D02*
X95450000Y-76150000D01*
D57*
X93562500Y-73937500D02*
X94000000Y-73500000D01*
X57120000Y-70300000D02*
X56800000Y-70300000D01*
D56*
X75975000Y-79975000D02*
X74800000Y-78800000D01*
X55045200Y-64183200D02*
X52929300Y-64183200D01*
X49785000Y-38215000D02*
X51000000Y-37000000D01*
X35000000Y-59380000D02*
X35000000Y-57000000D01*
X63970200Y-69029800D02*
X63720000Y-69280000D01*
X40120000Y-56860000D02*
X39740000Y-57240000D01*
X50350000Y-61750000D02*
X50350000Y-59360000D01*
D57*
X54070000Y-57450000D02*
X52850000Y-57450000D01*
D56*
X40750000Y-56860000D02*
X40120000Y-56860000D01*
X57100000Y-70280000D02*
X57120000Y-70300000D01*
D57*
X48950000Y-80530000D02*
X48950000Y-78800000D01*
X48950000Y-78800000D02*
X50170000Y-77580000D01*
D56*
X63720000Y-69280000D02*
X63720000Y-70100000D01*
X57470200Y-56758200D02*
X57470200Y-55009800D01*
X57470200Y-58470200D02*
X57500000Y-58500000D01*
D57*
X52000000Y-65112500D02*
X49750000Y-65112500D01*
D56*
X39740000Y-57240000D02*
X39000000Y-57980000D01*
X68537500Y-50600000D02*
X68962500Y-50175000D01*
X49750000Y-65112500D02*
X48887500Y-65112500D01*
X57470200Y-68108200D02*
X57470200Y-67193154D01*
X48887500Y-65112500D02*
X48500000Y-65500000D01*
X52929300Y-64183200D02*
X52000000Y-65112500D01*
D57*
X89300000Y-73937500D02*
X92000000Y-73937500D01*
D56*
X67433200Y-59183200D02*
X67750000Y-59500000D01*
X68472800Y-59500000D02*
X68514000Y-59458800D01*
X67750000Y-59500000D02*
X68472800Y-59500000D01*
X69250000Y-71750000D02*
X69250000Y-70500000D01*
X68962500Y-50175000D02*
X76600000Y-50175000D01*
D57*
X54650000Y-81000000D02*
X54650000Y-79650000D01*
D56*
X57100000Y-69500000D02*
X57100000Y-70280000D01*
D58*
X100460000Y-44230000D02*
X100460000Y-41460000D01*
D56*
X69641200Y-59458800D02*
X69650000Y-59450000D01*
X66395200Y-59183200D02*
X67433200Y-59183200D01*
X71750000Y-80200000D02*
X73100000Y-78850000D01*
X78500000Y-71740000D02*
X78500000Y-70500000D01*
D57*
X56312500Y-70562500D02*
X56000000Y-70250000D01*
D56*
X39000000Y-62480000D02*
X39000000Y-65760000D01*
X39000000Y-57980000D02*
X39000000Y-59260000D01*
X63970200Y-66529800D02*
X64000000Y-66500000D01*
X48750000Y-38215000D02*
X49785000Y-38215000D01*
X96500000Y-78135000D02*
X95485000Y-77120000D01*
X86750000Y-51687500D02*
X86750000Y-54490000D01*
D55*
X73200000Y-41025000D02*
X73200000Y-46775000D01*
D56*
X71750000Y-81000000D02*
X71750000Y-80200000D01*
X57470200Y-67193154D02*
X58206677Y-66456677D01*
D55*
X102000000Y-54500000D02*
X102000000Y-56500000D01*
D56*
X57470200Y-69129800D02*
X57100000Y-69500000D01*
X57470200Y-68108200D02*
X57470200Y-69129800D01*
D57*
X86700000Y-73937500D02*
X89300000Y-73937500D01*
D56*
X57470200Y-56758200D02*
X57470200Y-58470200D01*
X63970200Y-68108200D02*
X63970200Y-69029800D01*
D58*
X100460000Y-41460000D02*
X96400000Y-37400000D01*
D56*
X96500000Y-79093641D02*
X96500000Y-78135000D01*
D55*
X73200000Y-46775000D02*
X76600000Y-50175000D01*
D56*
%TO.N,+3.3V*%
X66395200Y-58683200D02*
X67316800Y-58683200D01*
D57*
X85751200Y-58498800D02*
X68514000Y-58498800D01*
X68514000Y-57664000D02*
X61500000Y-50650000D01*
X58087500Y-72050000D02*
X56637500Y-73500000D01*
D56*
X88150000Y-56100000D02*
X85751200Y-58498800D01*
D57*
X56637500Y-73500000D02*
X51500000Y-73500000D01*
X62270000Y-79680000D02*
X64680000Y-77270000D01*
X55030000Y-57450000D02*
X56278400Y-57450000D01*
X62270000Y-81000000D02*
X62270000Y-79680000D01*
D56*
X88150000Y-51302718D02*
X88150000Y-56100000D01*
D57*
X55030000Y-57450000D02*
X55030000Y-58583200D01*
X68070000Y-82400000D02*
X66670000Y-81000000D01*
X62270000Y-81000000D02*
X66670000Y-81000000D01*
X48750000Y-55000000D02*
X45600000Y-58150000D01*
X56278400Y-57450000D02*
X56870200Y-56858200D01*
D56*
X64470200Y-68970200D02*
X64750000Y-69250000D01*
D57*
X68514000Y-58498800D02*
X68514000Y-57664000D01*
X45600000Y-58150000D02*
X45600000Y-67600000D01*
X64680000Y-77270000D02*
X64680000Y-70100000D01*
D56*
X64470200Y-68108200D02*
X64470200Y-68970200D01*
X88750000Y-50702718D02*
X88150000Y-51302718D01*
D57*
X56870200Y-56120200D02*
X56520000Y-55770000D01*
X66670000Y-79260000D02*
X64680000Y-77270000D01*
X81055000Y-81000000D02*
X88560000Y-81000000D01*
D56*
X67316800Y-58683200D02*
X67501200Y-58498800D01*
D57*
X99460000Y-55631370D02*
X96592570Y-58498800D01*
X96592570Y-58498800D02*
X85751200Y-58498800D01*
X61500000Y-50650000D02*
X61500000Y-45000000D01*
X81055000Y-81000000D02*
X79655000Y-82400000D01*
X56520000Y-55000000D02*
X48750000Y-55000000D01*
D56*
X43776453Y-72206402D02*
X43793598Y-72206402D01*
X43793598Y-72206402D02*
X45500000Y-70500000D01*
X67501200Y-58498800D02*
X68514000Y-58498800D01*
X64750000Y-69250000D02*
X64750000Y-70030000D01*
X57970200Y-68108200D02*
X57970200Y-70190200D01*
D57*
X49000000Y-71000000D02*
X46500000Y-68500000D01*
X66670000Y-81000000D02*
X66670000Y-79260000D01*
X45720000Y-82300000D02*
X60970000Y-82300000D01*
X99460000Y-54500000D02*
X99460000Y-55631370D01*
X58080000Y-70300000D02*
X58080000Y-72042500D01*
D56*
X64750000Y-70030000D02*
X64680000Y-70100000D01*
X57970200Y-70190200D02*
X58080000Y-70300000D01*
D57*
X56870200Y-56858200D02*
X56870200Y-56120200D01*
X45600000Y-67600000D02*
X46500000Y-68500000D01*
X45720000Y-82300000D02*
X43950000Y-80530000D01*
X79655000Y-82400000D02*
X68070000Y-82400000D01*
D56*
X45500000Y-70500000D02*
X48500000Y-70500000D01*
D57*
X56520000Y-55770000D02*
X56520000Y-55000000D01*
X60970000Y-82300000D02*
X62270000Y-81000000D01*
X56520000Y-55000000D02*
X56520000Y-54020000D01*
D58*
X67800000Y-45000000D02*
X61500000Y-45000000D01*
D57*
X45600000Y-63675000D02*
X47250000Y-65325000D01*
X51500000Y-73500000D02*
X49000000Y-71000000D01*
X56500000Y-50000000D02*
X61500000Y-45000000D01*
X55030000Y-58583200D02*
X55045200Y-58583200D01*
D56*
X48500000Y-70500000D02*
X49000000Y-71000000D01*
D57*
X58080000Y-72042500D02*
X58087500Y-72050000D01*
X56520000Y-54020000D02*
X56500000Y-54000000D01*
%TO.N,1B*%
X96440000Y-54020000D02*
X96920000Y-54500000D01*
X96440000Y-50800000D02*
X96440000Y-54020000D01*
%TO.N,1A*%
X98170000Y-53930000D02*
X101300000Y-50800000D01*
X94380000Y-54500000D02*
X95630000Y-55750000D01*
X95630000Y-55750000D02*
X97437767Y-55750000D01*
X101300000Y-50800000D02*
X101520000Y-50800000D01*
X98170000Y-55017767D02*
X98170000Y-53930000D01*
X97437767Y-55750000D02*
X98170000Y-55017767D01*
%TO.N,2A*%
X91840000Y-54500000D02*
X91840000Y-52860000D01*
X91840000Y-52860000D02*
X93900000Y-50800000D01*
%TO.N,2B*%
X97680000Y-49500000D02*
X92500000Y-49500000D01*
X98980000Y-50800000D02*
X97680000Y-49500000D01*
X89300000Y-54500000D02*
X89300000Y-52700000D01*
X89300000Y-52700000D02*
X92500000Y-49500000D01*
D58*
%TO.N,+12V*%
X84220000Y-54500000D02*
X84220000Y-46780000D01*
X100460000Y-46770000D02*
X100440000Y-46750000D01*
X84220000Y-46780000D02*
X89000000Y-42000000D01*
X90400000Y-40600000D02*
X90400000Y-37400000D01*
X93750000Y-46750000D02*
X89000000Y-42000000D01*
X100440000Y-46750000D02*
X93750000Y-46750000D01*
X89000000Y-42000000D02*
X90400000Y-40600000D01*
D56*
%TO.N,ENABLE*%
X84220000Y-69460000D02*
X84250000Y-69490000D01*
X84220000Y-67200000D02*
X84220000Y-69460000D01*
X74050000Y-67200000D02*
X71533200Y-64683200D01*
X84220000Y-67200000D02*
X74050000Y-67200000D01*
X71533200Y-64683200D02*
X66395200Y-64683200D01*
%TO.N,MS1*%
X71033200Y-62183200D02*
X67271241Y-62183200D01*
X74550000Y-65700000D02*
X71033200Y-62183200D01*
X86760000Y-67200000D02*
X86760000Y-69480000D01*
X86760000Y-67200000D02*
X85260000Y-65700000D01*
X85260000Y-65700000D02*
X74550000Y-65700000D01*
X86760000Y-69480000D02*
X86750000Y-69490000D01*
%TO.N,MS2*%
X86950000Y-64850000D02*
X89300000Y-67200000D01*
X71783200Y-61683200D02*
X74950000Y-64850000D01*
X66395200Y-61683200D02*
X71783200Y-61683200D01*
X74950000Y-64850000D02*
X86950000Y-64850000D01*
X89300000Y-69490000D02*
X89300000Y-67200000D01*
%TO.N,MS3*%
X75650000Y-63950000D02*
X72883200Y-61183200D01*
X88590000Y-63950000D02*
X75650000Y-63950000D01*
X91840000Y-67200000D02*
X88590000Y-63950000D01*
X92000000Y-67360000D02*
X91840000Y-67200000D01*
X92000000Y-69490000D02*
X92000000Y-67360000D01*
X72883200Y-61183200D02*
X66395200Y-61183200D01*
%TO.N,STEP*%
X95460500Y-63200500D02*
X76250000Y-63200500D01*
X70973246Y-63183200D02*
X71028223Y-63238177D01*
X66395200Y-63183200D02*
X70973246Y-63183200D01*
X99460000Y-71460000D02*
X99500000Y-71500000D01*
X99460000Y-67200000D02*
X95460500Y-63200500D01*
X99460000Y-67200000D02*
X99460000Y-71460000D01*
%TO.N,DIR*%
X73933200Y-60683200D02*
X66395200Y-60683200D01*
X75250000Y-62000000D02*
X73933200Y-60683200D01*
X96800000Y-62000000D02*
X75250000Y-62000000D01*
X102000000Y-67200000D02*
X96800000Y-62000000D01*
%TO.N,+3.3VA*%
X54169159Y-64683200D02*
X52000000Y-66852359D01*
X52000000Y-66852359D02*
X52000000Y-66887500D01*
X55045200Y-64683200D02*
X54169159Y-64683200D01*
D57*
X49750000Y-66887500D02*
X47262500Y-66887500D01*
X52000000Y-66887500D02*
X49750000Y-66887500D01*
X47262500Y-66887500D02*
X47250000Y-66900000D01*
D56*
%TO.N,NRST*%
X57000000Y-62761959D02*
X57000000Y-65500000D01*
X47550000Y-44495000D02*
X48750000Y-43295000D01*
X47550000Y-44495000D02*
X47550000Y-49050500D01*
X42590000Y-56860000D02*
X43500000Y-57770000D01*
X57000000Y-65750000D02*
X54000000Y-68750000D01*
X55921241Y-61683200D02*
X57000000Y-62761959D01*
X43500000Y-59260000D02*
X43500000Y-65760000D01*
X54000000Y-68750000D02*
X48000000Y-68750000D01*
X50000000Y-53949500D02*
X48810500Y-53949500D01*
X43500000Y-57770000D02*
X43500000Y-59260000D01*
X41710000Y-56860000D02*
X42590000Y-56860000D01*
X55045200Y-61683200D02*
X55921241Y-61683200D01*
X47550000Y-49050500D02*
X50000000Y-51500500D01*
X48810500Y-53949500D02*
X43500000Y-59260000D01*
X43500000Y-66750000D02*
X43500000Y-65760000D01*
X45500000Y-68750000D02*
X43500000Y-66750000D01*
X57000000Y-65500000D02*
X57000000Y-65750000D01*
D55*
%TO.N,+5V*%
X49000000Y-27000000D02*
X41000000Y-27000000D01*
X41000000Y-27000000D02*
X39500000Y-28500000D01*
X50020000Y-29000000D02*
X50020000Y-28020000D01*
X39500000Y-32600000D02*
X36500000Y-35600000D01*
X50020000Y-28020000D02*
X49000000Y-27000000D01*
X39500000Y-28500000D02*
X39500000Y-32600000D01*
D56*
%TO.N,Net-(D1-Pad2)*%
X86750000Y-70510000D02*
X86750000Y-72012500D01*
X86750000Y-72012500D02*
X86700000Y-72062500D01*
%TO.N,Net-(D2-Pad2)*%
X89300000Y-70510000D02*
X89300000Y-72062500D01*
%TO.N,Net-(D3-Pad2)*%
X92000000Y-70510000D02*
X92000000Y-72062500D01*
%TO.N,Net-(D4-Pad2)*%
X65000000Y-50490000D02*
X66552500Y-50490000D01*
X66552500Y-50490000D02*
X66662500Y-50600000D01*
%TO.N,Net-(D5-Pad1)*%
X94500000Y-77155000D02*
X94465000Y-77120000D01*
X94500000Y-79062500D02*
X94500000Y-77155000D01*
%TO.N,Net-(D5-Pad2)*%
X91000000Y-81000000D02*
X91100000Y-81000000D01*
X84250000Y-74250000D02*
X91000000Y-81000000D01*
X91100000Y-81000000D02*
X94437500Y-81000000D01*
X95676141Y-80937500D02*
X96500000Y-80113641D01*
X94437500Y-81000000D02*
X94500000Y-80937500D01*
X94500000Y-80937500D02*
X95676141Y-80937500D01*
X84250000Y-70510000D02*
X84250000Y-74250000D01*
%TO.N,Net-(D6-Pad1)*%
X78500000Y-74312500D02*
X78500000Y-72760000D01*
%TO.N,Net-(D6-Pad2)*%
X78515000Y-76202500D02*
X78515000Y-81000000D01*
X81062500Y-76187500D02*
X81250000Y-76000000D01*
X78427500Y-76260000D02*
X78500000Y-76187500D01*
X78500000Y-76187500D02*
X81062500Y-76187500D01*
X78500000Y-76187500D02*
X78515000Y-76202500D01*
X78312500Y-76000000D02*
X78500000Y-76187500D01*
X78297500Y-76187500D02*
X76370000Y-74260000D01*
X78500000Y-76187500D02*
X78297500Y-76187500D01*
%TO.N,Net-(D7-Pad1)*%
X69250000Y-74312500D02*
X69250000Y-72770000D01*
%TO.N,Net-(D7-Pad2)*%
X69250000Y-76187500D02*
X66937500Y-76187500D01*
X69572500Y-76187500D02*
X71500000Y-74260000D01*
X69210000Y-81000000D02*
X69210000Y-76227500D01*
X69322500Y-76260000D02*
X69250000Y-76187500D01*
X69210000Y-76227500D02*
X69250000Y-76187500D01*
X69250000Y-76187500D02*
X69572500Y-76187500D01*
X66937500Y-76187500D02*
X66750000Y-76000000D01*
%TO.N,JTCK*%
X60000707Y-51250000D02*
X53207106Y-51250000D01*
X53207106Y-51250000D02*
X51500000Y-49542894D01*
X47250000Y-37175000D02*
X48750000Y-35675000D01*
X64470200Y-56758200D02*
X64470200Y-55719493D01*
X47955000Y-41955000D02*
X47250000Y-41250000D01*
X47250000Y-41250000D02*
X47250000Y-37175000D01*
X51500000Y-44250000D02*
X49205000Y-41955000D01*
X51500000Y-49542894D02*
X51500000Y-44250000D01*
X49205000Y-41955000D02*
X47955000Y-41955000D01*
X64470200Y-55719493D02*
X60000707Y-51250000D01*
%TO.N,JTMS*%
X65500000Y-57250000D02*
X65500000Y-55750000D01*
X52250000Y-44255000D02*
X48750000Y-40755000D01*
X64750000Y-58000000D02*
X65500000Y-57250000D01*
X65519159Y-59683200D02*
X64750000Y-58914041D01*
X53750000Y-50750000D02*
X52250000Y-49250000D01*
X66395200Y-59683200D02*
X65519159Y-59683200D01*
X64750000Y-58914041D02*
X64750000Y-58000000D01*
X60500000Y-50750000D02*
X53750000Y-50750000D01*
X52250000Y-49250000D02*
X52250000Y-44255000D01*
X65500000Y-55750000D02*
X60500000Y-50750000D01*
%TO.N,SWO*%
X48750000Y-47500000D02*
X48750000Y-45835000D01*
X58274873Y-51750000D02*
X53000000Y-51750000D01*
X61470200Y-54945327D02*
X58274873Y-51750000D01*
X61470200Y-56758200D02*
X61470200Y-54945327D01*
X53000000Y-51750000D02*
X48750000Y-47500000D01*
%TO.N,TX3*%
X60470200Y-70279800D02*
X60000000Y-70750000D01*
X60000000Y-75000000D02*
X60000000Y-78190000D01*
X60470200Y-68108200D02*
X60470200Y-70279800D01*
X60000000Y-78190000D02*
X57190000Y-81000000D01*
%TO.N,RX3*%
X61000000Y-79730000D02*
X59730000Y-81000000D01*
X60970200Y-70970200D02*
X61000000Y-71000000D01*
X60970200Y-68108200D02*
X60970200Y-70970200D01*
X61000000Y-75000000D02*
X61000000Y-79730000D01*
%TO.N,Net-(R2-Pad1)*%
X46450000Y-75790000D02*
X46490000Y-75750000D01*
X46450000Y-80530000D02*
X46450000Y-75790000D01*
%TO.N,USR_LED*%
X64950000Y-52850000D02*
X64950000Y-51560000D01*
X64950000Y-51560000D02*
X65000000Y-51510000D01*
X62470200Y-56758200D02*
X62470200Y-55329800D01*
X62470200Y-55329800D02*
X62745023Y-55054977D01*
%TO.N,SWITCH1*%
X70933200Y-65183200D02*
X66395200Y-65183200D01*
X76370000Y-70620000D02*
X70933200Y-65183200D01*
X76370000Y-70620000D02*
X76370000Y-73240000D01*
%TO.N,SWITCH2*%
X71500000Y-73240000D02*
X71500000Y-68000000D01*
X69683200Y-66183200D02*
X66395200Y-66183200D01*
X71500000Y-68000000D02*
X69683200Y-66183200D01*
%TO.N,/HSE_OSC_IN*%
X51700000Y-58400000D02*
X50350000Y-58400000D01*
X55045200Y-60683200D02*
X53983200Y-60683200D01*
X48000000Y-58400000D02*
X50350000Y-58400000D01*
X53983200Y-60683200D02*
X51700000Y-58400000D01*
%TO.N,/HSE_OSC_OUT*%
X52300000Y-62760000D02*
X50400000Y-62760000D01*
X50400000Y-62760000D02*
X50350000Y-62710000D01*
X48110000Y-62710000D02*
X48000000Y-62600000D01*
X50350000Y-62710000D02*
X48110000Y-62710000D01*
%TO.N,Net-(A1-Pad13)*%
X94380000Y-67200000D02*
X96920000Y-67200000D01*
%TO.N,/BOOT0*%
X58970200Y-64529800D02*
X58970200Y-56758200D01*
X47750000Y-75750000D02*
X47510000Y-75750000D01*
X51350688Y-72149312D02*
X58970200Y-64529800D01*
X49750000Y-73750000D02*
X47750000Y-75750000D01*
%TO.N,TX1*%
X49500000Y-52250000D02*
X46250000Y-49000000D01*
X58067767Y-52250000D02*
X49500000Y-52250000D01*
X59970200Y-54152433D02*
X58067767Y-52250000D01*
X46250000Y-49000000D02*
X46250000Y-33750000D01*
X47480000Y-32520000D02*
X47480000Y-29000000D01*
X59970200Y-56758200D02*
X59970200Y-54152433D01*
X46250000Y-33750000D02*
X47480000Y-32520000D01*
%TO.N,RX1*%
X57860661Y-52750000D02*
X48750000Y-52750000D01*
X44940000Y-48940000D02*
X44940000Y-29000000D01*
X59470200Y-54359539D02*
X57860661Y-52750000D01*
X48750000Y-52750000D02*
X44940000Y-48940000D01*
X59470200Y-56758200D02*
X59470200Y-54359539D01*
%TO.N,Net-(R7-Pad1)*%
X52856800Y-61183200D02*
X52300000Y-61740000D01*
X55045200Y-61183200D02*
X52856800Y-61183200D01*
%TO.N,LIGHT_S*%
X62250000Y-74250000D02*
X51401472Y-74250000D01*
X51401472Y-74250000D02*
X50151472Y-73000000D01*
X35126402Y-74746402D02*
X35000000Y-74620000D01*
X45522855Y-73000000D02*
X43776453Y-74746402D01*
X62500000Y-69750000D02*
X62750000Y-70000000D01*
X62750000Y-70000000D02*
X62750000Y-70750000D01*
X62750000Y-73750000D02*
X62250000Y-74250000D01*
X61970200Y-68108200D02*
X61970200Y-69220200D01*
X43776453Y-74746402D02*
X35126402Y-74746402D01*
X61970200Y-69220200D02*
X62500000Y-69750000D01*
X50151472Y-73000000D02*
X45522855Y-73000000D01*
%TO.N,Net-(Q2-Pad1)*%
X41650000Y-51300000D02*
X43600000Y-53250000D01*
X45860000Y-53250000D02*
X45990000Y-53120000D01*
X43600000Y-53250000D02*
X45860000Y-53250000D01*
%TO.N,LIGHT*%
X57653555Y-53250000D02*
X47140000Y-53250000D01*
X58470200Y-56758200D02*
X58470200Y-54066645D01*
X58470200Y-54066645D02*
X57653555Y-53250000D01*
X47140000Y-53250000D02*
X47010000Y-53120000D01*
D55*
%TO.N,/LIGHT_DRIVE*%
X35350000Y-49000000D02*
X35350000Y-44150000D01*
X35350000Y-44150000D02*
X36500000Y-43000000D01*
X39000000Y-42825000D02*
X39000000Y-46500000D01*
X39000000Y-46500000D02*
X36500000Y-49000000D01*
D58*
X41650000Y-49000000D02*
X36500000Y-49000000D01*
X36500000Y-49000000D02*
X35350000Y-49000000D01*
D55*
%TO.N,Net-(D9-Pad2)*%
X36500000Y-41350000D02*
X36500000Y-38140000D01*
X39000000Y-41525000D02*
X39000000Y-40640000D01*
X39000000Y-40640000D02*
X36500000Y-38140000D01*
D56*
%TO.N,Net-(D10-Pad2)*%
X86879782Y-49682718D02*
X86750000Y-49812500D01*
X88750000Y-49682718D02*
X86879782Y-49682718D01*
%TD*%
%TA.AperFunction,Conductor*%
%TO.N,+12V*%
G36*
X85415931Y-33820002D02*
G01*
X85436905Y-33836905D01*
X86800000Y-35200000D01*
X91761851Y-35200000D01*
X91831743Y-35221162D01*
X92943892Y-35962595D01*
X92989477Y-36017024D01*
X93000000Y-36067433D01*
X93000000Y-42146232D01*
X92979998Y-42214353D01*
X92961182Y-42237201D01*
X91931478Y-43224000D01*
X91836552Y-43314971D01*
X91773530Y-43347662D01*
X91749372Y-43350000D01*
X79576000Y-43350000D01*
X79507879Y-43329998D01*
X79461386Y-43276342D01*
X79450000Y-43224000D01*
X79450000Y-35223863D01*
X79458725Y-35177791D01*
X79968600Y-33879928D01*
X80012126Y-33823838D01*
X80085875Y-33800000D01*
X85347810Y-33800000D01*
X85415931Y-33820002D01*
G37*
%TD.AperFunction*%
%TD*%
%TA.AperFunction,Conductor*%
%TO.N,GND*%
G36*
X60925706Y-36219685D02*
G01*
X60933067Y-36224800D01*
X61650400Y-36762800D01*
X61692221Y-36818771D01*
X61700000Y-36862000D01*
X61700000Y-40348638D01*
X61680315Y-40415677D01*
X61663681Y-40436319D01*
X60936319Y-41163681D01*
X60874996Y-41197166D01*
X60848638Y-41200000D01*
X54562000Y-41200000D01*
X54494961Y-41180315D01*
X54462800Y-41150400D01*
X53924800Y-40433067D01*
X53900324Y-40367625D01*
X53900000Y-40358667D01*
X53900000Y-36862000D01*
X53919685Y-36794961D01*
X53949600Y-36762800D01*
X54666933Y-36224800D01*
X54732375Y-36200324D01*
X54741333Y-36200000D01*
X60858667Y-36200000D01*
X60925706Y-36219685D01*
G37*
%TD.AperFunction*%
%TD*%
%TA.AperFunction,Conductor*%
%TO.N,GND*%
G36*
X42943039Y-44519685D02*
G01*
X42988794Y-44572489D01*
X43000000Y-44624000D01*
X43000000Y-47376000D01*
X42980315Y-47443039D01*
X42927511Y-47488794D01*
X42876000Y-47500000D01*
X40374000Y-47500000D01*
X40306961Y-47480315D01*
X40261206Y-47427511D01*
X40250000Y-47376000D01*
X40250000Y-44624000D01*
X40269685Y-44556961D01*
X40322489Y-44511206D01*
X40374000Y-44500000D01*
X42876000Y-44500000D01*
X42943039Y-44519685D01*
G37*
%TD.AperFunction*%
%TD*%
%TA.AperFunction,Conductor*%
%TO.N,GND*%
G36*
X43095309Y-28020185D02*
G01*
X43101599Y-28024506D01*
X43619615Y-28404385D01*
X43662035Y-28459903D01*
X43667706Y-28529542D01*
X43666061Y-28536472D01*
X43615218Y-28726224D01*
X43604937Y-28764592D01*
X43604466Y-28769979D01*
X43604465Y-28769983D01*
X43584813Y-28994605D01*
X43584341Y-29000000D01*
X43584813Y-29005395D01*
X43592561Y-29093948D01*
X43604937Y-29235408D01*
X43606336Y-29240631D01*
X43606337Y-29240634D01*
X43617299Y-29281545D01*
X43666097Y-29463663D01*
X43668384Y-29468567D01*
X43668386Y-29468573D01*
X43738382Y-29618677D01*
X43750000Y-29671082D01*
X43750000Y-30793379D01*
X43730315Y-30860418D01*
X43707212Y-30887083D01*
X43591651Y-30987236D01*
X43034956Y-31469705D01*
X42971403Y-31498736D01*
X42953745Y-31500000D01*
X41542887Y-31500000D01*
X41475848Y-31480315D01*
X41466286Y-31473510D01*
X40847388Y-30987234D01*
X40806837Y-30930339D01*
X40800000Y-30889732D01*
X40800000Y-28666283D01*
X40819685Y-28599244D01*
X40836319Y-28578602D01*
X41331056Y-28083865D01*
X41342116Y-28074051D01*
X41402006Y-28026995D01*
X41466880Y-28001056D01*
X41478614Y-28000500D01*
X43028270Y-28000500D01*
X43095309Y-28020185D01*
G37*
%TD.AperFunction*%
%TD*%
%TA.AperFunction,Conductor*%
%TO.N,+3.3V*%
G36*
X65109106Y-69570002D02*
G01*
X65137781Y-69595337D01*
X65320796Y-69814955D01*
X65349040Y-69880092D01*
X65350000Y-69895618D01*
X65350000Y-72372128D01*
X65329998Y-72440249D01*
X65280350Y-72484825D01*
X64676650Y-72786675D01*
X64620204Y-72799977D01*
X57728969Y-72794622D01*
X57673950Y-72781926D01*
X57420315Y-72658533D01*
X57367809Y-72610745D01*
X57349474Y-72542157D01*
X57355844Y-72505564D01*
X57362742Y-72484766D01*
X57362743Y-72484761D01*
X57364910Y-72478228D01*
X57375500Y-72374866D01*
X57375500Y-71725134D01*
X57364641Y-71620481D01*
X57362820Y-71615023D01*
X57367961Y-71544652D01*
X57410594Y-71487881D01*
X57423435Y-71479466D01*
X57577044Y-71391689D01*
X57620948Y-71366601D01*
X57683462Y-71350000D01*
X59272401Y-71350000D01*
X59340522Y-71370002D01*
X59366037Y-71391689D01*
X59394129Y-71422888D01*
X59399468Y-71426767D01*
X59483585Y-71487881D01*
X59547270Y-71534151D01*
X59720197Y-71611144D01*
X59818212Y-71631978D01*
X59898897Y-71649128D01*
X59898901Y-71649128D01*
X59905354Y-71650500D01*
X60057501Y-71650500D01*
X60123091Y-71668918D01*
X60221133Y-71728692D01*
X60221135Y-71728692D01*
X60235881Y-71737683D01*
X60331108Y-71737926D01*
X60443424Y-71738213D01*
X60517163Y-71762277D01*
X60547270Y-71784151D01*
X60720197Y-71861144D01*
X60818212Y-71881978D01*
X60898897Y-71899128D01*
X60898901Y-71899128D01*
X60905354Y-71900500D01*
X61094646Y-71900500D01*
X61101099Y-71899128D01*
X61101103Y-71899128D01*
X61181788Y-71881978D01*
X61279803Y-71861144D01*
X61332436Y-71837710D01*
X61446694Y-71786839D01*
X61446698Y-71786837D01*
X61452730Y-71784151D01*
X61478938Y-71765110D01*
X61545806Y-71741252D01*
X61553320Y-71741047D01*
X63981887Y-71747247D01*
X63981888Y-71747247D01*
X64000000Y-71747293D01*
X64255312Y-71536837D01*
X64286020Y-71511524D01*
X64300000Y-71500000D01*
X64300000Y-70787994D01*
X64320002Y-70719873D01*
X64336905Y-70698899D01*
X64370117Y-70665687D01*
X64452494Y-70526395D01*
X64497643Y-70370993D01*
X64498741Y-70357042D01*
X64500307Y-70337148D01*
X64500307Y-70337137D01*
X64500500Y-70334690D01*
X64500500Y-69865310D01*
X64497643Y-69829007D01*
X64472205Y-69741450D01*
X64472408Y-69670454D01*
X64490672Y-69633060D01*
X64512313Y-69602763D01*
X64568184Y-69558958D01*
X64614843Y-69550000D01*
X65040985Y-69550000D01*
X65109106Y-69570002D01*
G37*
%TD.AperFunction*%
%TD*%
%TA.AperFunction,Conductor*%
%TO.N,+3.3V*%
G36*
X64415931Y-41820002D02*
G01*
X64436905Y-41836905D01*
X65163095Y-42563095D01*
X65197121Y-42625407D01*
X65200000Y-42652190D01*
X65200000Y-47542048D01*
X65179998Y-47610169D01*
X65156000Y-47637714D01*
X63865460Y-48743892D01*
X63835390Y-48769666D01*
X63770651Y-48798812D01*
X63753390Y-48800000D01*
X56267433Y-48800000D01*
X56199312Y-48779998D01*
X56162595Y-48743892D01*
X55421162Y-47631743D01*
X55400000Y-47561851D01*
X55400000Y-42660559D01*
X55420002Y-42592438D01*
X55447288Y-42562170D01*
X56365486Y-41827611D01*
X56431175Y-41800675D01*
X56444198Y-41800000D01*
X64347810Y-41800000D01*
X64415931Y-41820002D01*
G37*
%TD.AperFunction*%
%TD*%
%TA.AperFunction,Conductor*%
%TO.N,GND*%
G36*
X81590248Y-44220002D02*
G01*
X81634825Y-44269651D01*
X82386698Y-45773396D01*
X82400000Y-45829745D01*
X82400000Y-55547810D01*
X82379998Y-55615931D01*
X82363095Y-55636905D01*
X81436905Y-56563095D01*
X81374593Y-56597121D01*
X81347810Y-56600000D01*
X71636459Y-56600000D01*
X71569176Y-56580532D01*
X67858717Y-54237084D01*
X67811803Y-54183796D01*
X67800000Y-54130552D01*
X67800000Y-49000000D01*
X66910468Y-48351697D01*
X66879842Y-48319763D01*
X66421162Y-47631743D01*
X66400000Y-47561851D01*
X66400000Y-46852190D01*
X66420002Y-46784069D01*
X66436905Y-46763095D01*
X66763095Y-46436905D01*
X66825407Y-46402879D01*
X66852190Y-46400000D01*
X69800000Y-46400000D01*
X71000000Y-45800000D01*
X71569341Y-44281758D01*
X71611988Y-44224998D01*
X71678552Y-44200305D01*
X71687318Y-44200000D01*
X81522127Y-44200000D01*
X81590248Y-44220002D01*
G37*
%TD.AperFunction*%
%TD*%
%TA.AperFunction,Conductor*%
%TO.N,+5V*%
G36*
X69518653Y-29619398D02*
G01*
X69536191Y-29632572D01*
X70458952Y-30463057D01*
X70495613Y-30522535D01*
X70500000Y-30555225D01*
X70500000Y-34750000D01*
X70517900Y-34757195D01*
X70517901Y-34757196D01*
X73485595Y-35950092D01*
X75522248Y-36768747D01*
X75577108Y-36812013D01*
X75600000Y-36883799D01*
X75600000Y-38476969D01*
X75592109Y-38520495D01*
X75556149Y-38616420D01*
X75555310Y-38624145D01*
X75555309Y-38624148D01*
X75552680Y-38648354D01*
X75549500Y-38677623D01*
X75549500Y-40076000D01*
X75529815Y-40143039D01*
X75477011Y-40188794D01*
X75425500Y-40200000D01*
X74374499Y-40200000D01*
X74307460Y-40180315D01*
X74261705Y-40127511D01*
X74250499Y-40076000D01*
X74250499Y-38677624D01*
X74243851Y-38616420D01*
X74207891Y-38520495D01*
X74200000Y-38476969D01*
X74200000Y-38000000D01*
X74182561Y-37992734D01*
X74182560Y-37992733D01*
X73011331Y-37504721D01*
X73011330Y-37504721D01*
X73000000Y-37500000D01*
X70600000Y-37500000D01*
X69600000Y-38500000D01*
X69600000Y-42756503D01*
X69580315Y-42823542D01*
X69572828Y-42833965D01*
X68837230Y-43753462D01*
X68779979Y-43793514D01*
X68740402Y-43800000D01*
X68185095Y-43800000D01*
X68159949Y-43797424D01*
X67944310Y-43752767D01*
X67887651Y-43749500D01*
X66819198Y-43749500D01*
X66752159Y-43729815D01*
X66722370Y-43702962D01*
X66027172Y-42833965D01*
X66000664Y-42769319D01*
X66000000Y-42756503D01*
X66000000Y-36400000D01*
X65200000Y-35400000D01*
X57651362Y-35400000D01*
X57584323Y-35380315D01*
X57563681Y-35363681D01*
X56636319Y-34436319D01*
X56602834Y-34374996D01*
X56600000Y-34348638D01*
X56600000Y-29922092D01*
X56619685Y-29855053D01*
X56672489Y-29809298D01*
X56722076Y-29798107D01*
X64177775Y-29682515D01*
X69451317Y-29600755D01*
X69518653Y-29619398D01*
G37*
%TD.AperFunction*%
%TD*%
%TA.AperFunction,Conductor*%
%TO.N,GND*%
G36*
X95525706Y-27519685D02*
G01*
X95533067Y-27524800D01*
X96473176Y-28229882D01*
X96513029Y-28280892D01*
X97359063Y-30286811D01*
X99590254Y-35576893D01*
X99600000Y-35625082D01*
X99600000Y-38742968D01*
X99580315Y-38810007D01*
X99556698Y-38837116D01*
X98234827Y-39970148D01*
X98171116Y-39998831D01*
X98154129Y-40000000D01*
X95451362Y-40000000D01*
X95384323Y-39980315D01*
X95363681Y-39963681D01*
X94836319Y-39436319D01*
X94802834Y-39374996D01*
X94800000Y-39348638D01*
X94800000Y-36000000D01*
X94793543Y-35987087D01*
X94793543Y-35987085D01*
X94007974Y-34415947D01*
X94007973Y-34415946D01*
X94000000Y-34400000D01*
X91651362Y-34400000D01*
X91584323Y-34380315D01*
X91563681Y-34363681D01*
X89800000Y-32600000D01*
X82057184Y-32600000D01*
X81990145Y-32580315D01*
X81962874Y-32556509D01*
X80261575Y-30563559D01*
X80261574Y-30563559D01*
X80250000Y-30550000D01*
X77637544Y-30550000D01*
X77568761Y-30529174D01*
X77205217Y-30286811D01*
X77160356Y-30233246D01*
X77150000Y-30183637D01*
X77150000Y-28810481D01*
X77169685Y-28743442D01*
X77197660Y-28712766D01*
X78716355Y-27526285D01*
X78781303Y-27500524D01*
X78792695Y-27500000D01*
X95458667Y-27500000D01*
X95525706Y-27519685D01*
G37*
%TD.AperFunction*%
%TD*%
%TA.AperFunction,Conductor*%
%TO.N,/L_IN*%
G36*
X78423542Y-31119685D02*
G01*
X78433965Y-31127172D01*
X78853462Y-31462770D01*
X78893514Y-31520021D01*
X78900000Y-31559598D01*
X78900000Y-39376000D01*
X78880315Y-39443039D01*
X78827511Y-39488794D01*
X78776000Y-39500000D01*
X77774499Y-39500000D01*
X77707460Y-39480315D01*
X77661705Y-39427511D01*
X77650499Y-39376000D01*
X77650499Y-38677624D01*
X77643851Y-38616420D01*
X77593526Y-38482176D01*
X77524774Y-38390441D01*
X77500321Y-38324990D01*
X77500000Y-38316075D01*
X77500000Y-35750000D01*
X76750000Y-34750000D01*
X73801362Y-34750000D01*
X73734323Y-34730315D01*
X73713681Y-34713681D01*
X73036319Y-34036319D01*
X73002834Y-33974996D01*
X73000000Y-33948638D01*
X73000000Y-31559598D01*
X73019685Y-31492559D01*
X73046538Y-31462770D01*
X73466035Y-31127172D01*
X73530681Y-31100664D01*
X73543497Y-31100000D01*
X78356503Y-31100000D01*
X78423542Y-31119685D01*
G37*
%TD.AperFunction*%
%TD*%
M02*
