%TF.GenerationSoftware,KiCad,Pcbnew,6.0.10-86aedd382b~118~ubuntu22.10.1*%
%TF.CreationDate,2023-02-13T13:29:29-05:00*%
%TF.ProjectId,WerfenMc_power_edit,57657266-656e-44d6-935f-706f7765725f,rev?*%
%TF.SameCoordinates,Original*%
%TF.FileFunction,Soldermask,Top*%
%TF.FilePolarity,Negative*%
%FSLAX46Y46*%
G04 Gerber Fmt 4.6, Leading zero omitted, Abs format (unit mm)*
G04 Created by KiCad (PCBNEW 6.0.10-86aedd382b~118~ubuntu22.10.1) date 2023-02-13 13:29:29*
%MOMM*%
%LPD*%
G01*
G04 APERTURE LIST*
G04 Aperture macros list*
%AMRoundRect*
0 Rectangle with rounded corners*
0 $1 Rounding radius*
0 $2 $3 $4 $5 $6 $7 $8 $9 X,Y pos of 4 corners*
0 Add a 4 corners polygon primitive as box body*
4,1,4,$2,$3,$4,$5,$6,$7,$8,$9,$2,$3,0*
0 Add four circle primitives for the rounded corners*
1,1,$1+$1,$2,$3*
1,1,$1+$1,$4,$5*
1,1,$1+$1,$6,$7*
1,1,$1+$1,$8,$9*
0 Add four rect primitives between the rounded corners*
20,1,$1+$1,$2,$3,$4,$5,0*
20,1,$1+$1,$4,$5,$6,$7,0*
20,1,$1+$1,$6,$7,$8,$9,0*
20,1,$1+$1,$8,$9,$2,$3,0*%
G04 Aperture macros list end*
%ADD10R,3.556000X3.505200*%
%ADD11RoundRect,0.135000X-0.185000X0.135000X-0.185000X-0.135000X0.185000X-0.135000X0.185000X0.135000X0*%
%ADD12RoundRect,0.250000X0.275000X-0.312500X0.275000X0.312500X-0.275000X0.312500X-0.275000X-0.312500X0*%
%ADD13C,1.500000*%
%ADD14RoundRect,0.135000X0.185000X-0.135000X0.185000X0.135000X-0.185000X0.135000X-0.185000X-0.135000X0*%
%ADD15R,1.700000X1.700000*%
%ADD16O,1.700000X1.700000*%
%ADD17RoundRect,0.243750X0.456250X-0.243750X0.456250X0.243750X-0.456250X0.243750X-0.456250X-0.243750X0*%
%ADD18C,1.100000*%
%ADD19R,2.200000X2.200000*%
%ADD20C,2.200000*%
%ADD21RoundRect,0.243750X-0.456250X0.243750X-0.456250X-0.243750X0.456250X-0.243750X0.456250X0.243750X0*%
%ADD22RoundRect,0.140000X0.140000X0.170000X-0.140000X0.170000X-0.140000X-0.170000X0.140000X-0.170000X0*%
%ADD23R,2.000000X1.500000*%
%ADD24R,2.000000X3.800000*%
%ADD25RoundRect,0.075000X-0.700000X-0.075000X0.700000X-0.075000X0.700000X0.075000X-0.700000X0.075000X0*%
%ADD26RoundRect,0.075000X-0.075000X-0.700000X0.075000X-0.700000X0.075000X0.700000X-0.075000X0.700000X0*%
%ADD27RoundRect,0.140000X-0.170000X0.140000X-0.170000X-0.140000X0.170000X-0.140000X0.170000X0.140000X0*%
%ADD28RoundRect,0.250000X0.312500X0.275000X-0.312500X0.275000X-0.312500X-0.275000X0.312500X-0.275000X0*%
%ADD29RoundRect,0.135000X-0.135000X-0.185000X0.135000X-0.185000X0.135000X0.185000X-0.135000X0.185000X0*%
%ADD30C,2.400000*%
%ADD31O,2.400000X2.400000*%
%ADD32RoundRect,0.218750X-0.256250X0.218750X-0.256250X-0.218750X0.256250X-0.218750X0.256250X0.218750X0*%
%ADD33RoundRect,0.243750X0.243750X0.456250X-0.243750X0.456250X-0.243750X-0.456250X0.243750X-0.456250X0*%
%ADD34RoundRect,0.135000X0.135000X0.185000X-0.135000X0.185000X-0.135000X-0.185000X0.135000X-0.185000X0*%
%ADD35R,1.100000X4.600000*%
%ADD36R,10.800000X9.400000*%
%ADD37R,2.200000X1.200000*%
%ADD38R,6.400000X5.800000*%
%ADD39RoundRect,0.250000X0.550000X-1.712500X0.550000X1.712500X-0.550000X1.712500X-0.550000X-1.712500X0*%
%ADD40R,1.600000X1.600000*%
%ADD41O,1.600000X1.600000*%
%ADD42RoundRect,0.250000X-0.550000X1.712500X-0.550000X-1.712500X0.550000X-1.712500X0.550000X1.712500X0*%
%ADD43RoundRect,0.140000X0.170000X-0.140000X0.170000X0.140000X-0.170000X0.140000X-0.170000X-0.140000X0*%
%ADD44R,3.500000X3.500000*%
%ADD45RoundRect,0.750000X0.750000X1.000000X-0.750000X1.000000X-0.750000X-1.000000X0.750000X-1.000000X0*%
%ADD46RoundRect,0.875000X0.875000X0.875000X-0.875000X0.875000X-0.875000X-0.875000X0.875000X-0.875000X0*%
%ADD47R,2.200000X1.300000*%
%ADD48R,1.900000X1.900000*%
%ADD49C,1.900000*%
%ADD50RoundRect,0.200000X-0.275000X0.200000X-0.275000X-0.200000X0.275000X-0.200000X0.275000X0.200000X0*%
%ADD51C,2.000000*%
%ADD52RoundRect,0.140000X-0.140000X-0.170000X0.140000X-0.170000X0.140000X0.170000X-0.140000X0.170000X0*%
%ADD53R,1.500000X1.000000*%
G04 APERTURE END LIST*
D10*
%TO.C,L1*%
X66025000Y-32800000D03*
X74975000Y-32800000D03*
%TD*%
D11*
%TO.C,R5*%
X92000000Y-69490000D03*
X92000000Y-70510000D03*
%TD*%
D12*
%TO.C,C2*%
X49750000Y-66887500D03*
X49750000Y-65112500D03*
%TD*%
D13*
%TO.C,TP8*%
X67950000Y-39800000D03*
%TD*%
D14*
%TO.C,R8*%
X84250000Y-70510000D03*
X84250000Y-69490000D03*
%TD*%
%TO.C,R10*%
X96500000Y-80113641D03*
X96500000Y-79093641D03*
%TD*%
D15*
%TO.C,S2*%
X75975000Y-81000000D03*
D16*
X78515000Y-81000000D03*
X81055000Y-81000000D03*
%TD*%
D15*
%TO.C,J1*%
X93900000Y-50800000D03*
D16*
X96440000Y-50800000D03*
X98980000Y-50800000D03*
X101520000Y-50800000D03*
%TD*%
D17*
%TO.C,D2*%
X89300000Y-73937500D03*
X89300000Y-72062500D03*
%TD*%
D18*
%TO.C,D9*%
X33960000Y-35600000D03*
X33960000Y-38140000D03*
D19*
X36500000Y-35600000D03*
D20*
X36500000Y-38140000D03*
%TD*%
D15*
%TO.C,Q1*%
X43776453Y-72206402D03*
D16*
X43776453Y-74746402D03*
%TD*%
D13*
%TO.C,TP1*%
X99500000Y-71500000D03*
%TD*%
D21*
%TO.C,D5*%
X94500000Y-79062500D03*
X94500000Y-80937500D03*
%TD*%
D22*
%TO.C,C16*%
X55030000Y-57450000D03*
X54070000Y-57450000D03*
%TD*%
D20*
%TO.C,H2*%
X101000000Y-79500000D03*
%TD*%
D23*
%TO.C,Q2*%
X41650000Y-51300000D03*
X41650000Y-49000000D03*
X41650000Y-46700000D03*
D24*
X35350000Y-49000000D03*
%TD*%
D25*
%TO.C,U1*%
X55045200Y-58683200D03*
X55045200Y-59183200D03*
X55045200Y-59683200D03*
X55045200Y-60183200D03*
X55045200Y-60683200D03*
X55045200Y-61183200D03*
X55045200Y-61683200D03*
X55045200Y-62183200D03*
X55045200Y-62683200D03*
X55045200Y-63183200D03*
X55045200Y-63683200D03*
X55045200Y-64183200D03*
X55045200Y-64683200D03*
X55045200Y-65183200D03*
X55045200Y-65683200D03*
X55045200Y-66183200D03*
D26*
X56970200Y-68108200D03*
X57470200Y-68108200D03*
X57970200Y-68108200D03*
X58470200Y-68108200D03*
X58970200Y-68108200D03*
X59470200Y-68108200D03*
X59970200Y-68108200D03*
X60470200Y-68108200D03*
X60970200Y-68108200D03*
X61470200Y-68108200D03*
X61970200Y-68108200D03*
X62470200Y-68108200D03*
X62970200Y-68108200D03*
X63470200Y-68108200D03*
X63970200Y-68108200D03*
X64470200Y-68108200D03*
D25*
X66395200Y-66183200D03*
X66395200Y-65683200D03*
X66395200Y-65183200D03*
X66395200Y-64683200D03*
X66395200Y-64183200D03*
X66395200Y-63683200D03*
X66395200Y-63183200D03*
X66395200Y-62683200D03*
X66395200Y-62183200D03*
X66395200Y-61683200D03*
X66395200Y-61183200D03*
X66395200Y-60683200D03*
X66395200Y-60183200D03*
X66395200Y-59683200D03*
X66395200Y-59183200D03*
X66395200Y-58683200D03*
D26*
X64470200Y-56758200D03*
X63970200Y-56758200D03*
X63470200Y-56758200D03*
X62970200Y-56758200D03*
X62470200Y-56758200D03*
X61970200Y-56758200D03*
X61470200Y-56758200D03*
X60970200Y-56758200D03*
X60470200Y-56758200D03*
X59970200Y-56758200D03*
X59470200Y-56758200D03*
X58970200Y-56758200D03*
X58470200Y-56758200D03*
X57970200Y-56758200D03*
X57470200Y-56758200D03*
X56970200Y-56758200D03*
%TD*%
D17*
%TO.C,D8*%
X78100000Y-31750000D03*
X78100000Y-29875000D03*
%TD*%
D27*
%TO.C,C10*%
X50350000Y-61750000D03*
X50350000Y-62710000D03*
%TD*%
D14*
%TO.C,R17*%
X88750000Y-50702718D03*
X88750000Y-49682718D03*
%TD*%
D12*
%TO.C,C1*%
X52000000Y-66887500D03*
X52000000Y-65112500D03*
%TD*%
D11*
%TO.C,R3*%
X86750000Y-69490000D03*
X86750000Y-70510000D03*
%TD*%
D18*
%TO.C,J6*%
X103000000Y-44230000D03*
X103000000Y-46770000D03*
D19*
X100460000Y-46770000D03*
D20*
X100460000Y-44230000D03*
%TD*%
D17*
%TO.C,D1*%
X86700000Y-73937500D03*
X86700000Y-72062500D03*
%TD*%
D28*
%TO.C,C3*%
X58087500Y-72050000D03*
X56312500Y-72050000D03*
%TD*%
D29*
%TO.C,R2*%
X46490000Y-75750000D03*
X47510000Y-75750000D03*
%TD*%
D30*
%TO.C,R1*%
X35000000Y-74620000D03*
D31*
X35000000Y-59380000D03*
%TD*%
D15*
%TO.C,J5*%
X42400000Y-29000000D03*
D16*
X44940000Y-29000000D03*
X47480000Y-29000000D03*
X50020000Y-29000000D03*
%TD*%
D20*
%TO.C,H4*%
X36000000Y-79500000D03*
%TD*%
D32*
%TO.C,FB1*%
X47250000Y-65325000D03*
X47250000Y-66900000D03*
%TD*%
D15*
%TO.C,J4*%
X54650000Y-81000000D03*
D16*
X57190000Y-81000000D03*
X59730000Y-81000000D03*
X62270000Y-81000000D03*
%TD*%
D13*
%TO.C,TP5*%
X81250000Y-76000000D03*
%TD*%
D33*
%TO.C,D4*%
X68537500Y-50600000D03*
X66662500Y-50600000D03*
%TD*%
D21*
%TO.C,D7*%
X69250000Y-74312500D03*
X69250000Y-76187500D03*
%TD*%
D34*
%TO.C,R15*%
X47010000Y-53120000D03*
X45990000Y-53120000D03*
%TD*%
D20*
%TO.C,H3*%
X36000000Y-29500000D03*
%TD*%
D13*
%TO.C,TP3*%
X85000000Y-40800000D03*
%TD*%
D35*
%TO.C,U2*%
X80000000Y-41025000D03*
X78300000Y-41025000D03*
X76600000Y-41025000D03*
D36*
X76600000Y-50175000D03*
D35*
X74900000Y-41025000D03*
X73200000Y-41025000D03*
%TD*%
D13*
%TO.C,TP6*%
X66750000Y-76000000D03*
%TD*%
%TO.C,TP2*%
X56500000Y-45000000D03*
%TD*%
D37*
%TO.C,U3*%
X67800000Y-47280000D03*
D38*
X61500000Y-45000000D03*
D37*
X67800000Y-45000000D03*
X67800000Y-42720000D03*
%TD*%
D39*
%TO.C,C14*%
X83800000Y-36200000D03*
X83800000Y-30025000D03*
%TD*%
D27*
%TO.C,C7*%
X68514000Y-58498800D03*
X68514000Y-59458800D03*
%TD*%
D40*
%TO.C,A1*%
X102000000Y-54500000D03*
D41*
X99460000Y-54500000D03*
X96920000Y-54500000D03*
X94380000Y-54500000D03*
X91840000Y-54500000D03*
X89300000Y-54500000D03*
X86760000Y-54500000D03*
X84220000Y-54500000D03*
X84220000Y-67200000D03*
X86760000Y-67200000D03*
X89300000Y-67200000D03*
X91840000Y-67200000D03*
X94380000Y-67200000D03*
X96920000Y-67200000D03*
X99460000Y-67200000D03*
X102000000Y-67200000D03*
%TD*%
D22*
%TO.C,C8*%
X41710000Y-56860000D03*
X40750000Y-56860000D03*
%TD*%
D42*
%TO.C,C15*%
X58900000Y-32712500D03*
X58900000Y-38887500D03*
%TD*%
D43*
%TO.C,C9*%
X50350000Y-59360000D03*
X50350000Y-58400000D03*
%TD*%
D17*
%TO.C,D3*%
X92000000Y-73937500D03*
X92000000Y-72062500D03*
%TD*%
D22*
%TO.C,C4*%
X58080000Y-70300000D03*
X57120000Y-70300000D03*
%TD*%
D15*
%TO.C,S3*%
X71750000Y-81000000D03*
D16*
X69210000Y-81000000D03*
X66670000Y-81000000D03*
%TD*%
D44*
%TO.C,J3*%
X90400000Y-37400000D03*
D45*
X96400000Y-37400000D03*
D46*
X93400000Y-32700000D03*
%TD*%
D11*
%TO.C,R4*%
X89300000Y-69490000D03*
X89300000Y-70510000D03*
%TD*%
D22*
%TO.C,C6*%
X64680000Y-70100000D03*
X63720000Y-70100000D03*
%TD*%
D17*
%TO.C,D10*%
X86750000Y-51687500D03*
X86750000Y-49812500D03*
%TD*%
D20*
%TO.C,H1*%
X101000000Y-29500000D03*
%TD*%
D14*
%TO.C,R12*%
X78500000Y-72760000D03*
X78500000Y-71740000D03*
%TD*%
D15*
%TO.C,J2*%
X48750000Y-35675000D03*
D16*
X48750000Y-38215000D03*
X48750000Y-40755000D03*
X48750000Y-43295000D03*
X48750000Y-45835000D03*
%TD*%
D14*
%TO.C,R13*%
X71500000Y-74260000D03*
X71500000Y-73240000D03*
%TD*%
D47*
%TO.C,HSE1*%
X48000000Y-62600000D03*
X48000000Y-58400000D03*
%TD*%
D21*
%TO.C,D6*%
X78500000Y-74312500D03*
X78500000Y-76187500D03*
%TD*%
D29*
%TO.C,R11*%
X94465000Y-77120000D03*
X95485000Y-77120000D03*
%TD*%
D11*
%TO.C,R7*%
X52300000Y-61740000D03*
X52300000Y-62760000D03*
%TD*%
D48*
%TO.C,S1*%
X48950000Y-80530000D03*
D49*
X46450000Y-80530000D03*
X43950000Y-80530000D03*
%TD*%
D50*
%TO.C,R16*%
X36500000Y-41350000D03*
X36500000Y-43000000D03*
%TD*%
D51*
%TO.C,SW1*%
X39000000Y-65760000D03*
X39000000Y-59260000D03*
X43500000Y-65760000D03*
X43500000Y-59260000D03*
%TD*%
D52*
%TO.C,C5*%
X56520000Y-55000000D03*
X57480000Y-55000000D03*
%TD*%
D14*
%TO.C,R14*%
X69250000Y-72770000D03*
X69250000Y-71750000D03*
%TD*%
%TO.C,R9*%
X76370000Y-74260000D03*
X76370000Y-73240000D03*
%TD*%
D15*
%TO.C,SW2*%
X91100000Y-81000000D03*
D16*
X88560000Y-81000000D03*
%TD*%
D14*
%TO.C,R6*%
X65000000Y-51510000D03*
X65000000Y-50490000D03*
%TD*%
D53*
%TO.C,JP1*%
X39000000Y-42825000D03*
X39000000Y-41525000D03*
%TD*%
M02*
