M48
; DRILL file {KiCad 6.0.10-86aedd382b~118~ubuntu22.10.1} date Mon 13 Feb 2023 01:29:26 PM EST
; FORMAT={-:-/ absolute / inch / decimal}
; #@! TF.CreationDate,2023-02-13T13:29:26-05:00
; #@! TF.GenerationSoftware,Kicad,Pcbnew,6.0.10-86aedd382b~118~ubuntu22.10.1
; #@! TF.FileFunction,Plated,1,2,PTH
FMAT,2
INCH
; #@! TA.AperFunction,Plated,PTH,ViaDrill
T1C0.0118
; #@! TA.AperFunction,Plated,PTH,ViaDrill
T2C0.0157
; #@! TA.AperFunction,Plated,PTH,ComponentDrill
T3C0.0315
; #@! TA.AperFunction,Plated,PTH,ComponentDrill
T4C0.0354
; #@! TA.AperFunction,Plated,PTH,ComponentDrill
T5C0.0394
; #@! TA.AperFunction,Plated,PTH,ComponentDrill
T6C0.0433
; #@! TA.AperFunction,Plated,PTH,ComponentDrill
T7C0.0472
%
G90
G05
T1
X1.378Y-2.2441
X1.5646Y-2.2535
X1.6142Y-1.7717
X1.6339Y-1.2205
X1.6634Y-1.7717
X1.689Y-1.2205
X1.7913Y-2.7067
X1.9685Y-2.124
X1.9752Y-3.0543
X2.0984Y-3.0827
X2.2047Y-2.7657
X2.7421Y-2.3406
X2.878Y-3.1043
X2.9449Y-3.1024
X3.7579Y-2.998
T2
X1.5354Y-2.4598
X1.8898Y-2.7067
X1.9094Y-2.5787
X1.9587Y-2.9035
X1.9685Y-2.0276
X1.9823Y-2.3878
X2.0079Y-1.4567
X2.0217Y-2.8405
X2.0807Y-2.2618
X2.185Y-1.4646
X2.185Y-1.5433
X2.2244Y-1.9685
X2.2244Y-2.126
X2.2402Y-1.5039
X2.2638Y-2.3031
X2.2916Y-2.6164
X2.3622Y-2.7854
X2.3622Y-2.9528
X2.3898Y-1.4803
X2.3898Y-1.5433
X2.4016Y-2.7953
X2.4016Y-2.9528
X2.4703Y-2.1675
X2.4705Y-2.7854
X2.4705Y-2.9035
X2.5197Y-2.6181
X2.5571Y-2.0807
X2.7264Y-2.7756
X2.7402Y-2.063
X2.748Y-1.8583
X2.748Y-1.8976
X2.7559Y-2.126
X2.7964Y-2.4897
X2.874Y-2.1969
X2.9134Y-2.1969
X2.937Y-1.7717
X3.002Y-2.4882
X3.0709Y-1.7717
X3.0906Y-2.7756
X3.1102Y-1.122
X3.1339Y-2.1969
X3.1417Y-1.7717
X3.1732Y-2.1969
X3.1791Y-1.1713
X3.3701Y-1.1654
X3.3701Y-1.2283
X3.5276Y-1.126
X3.5276Y-1.2402
X3.6457Y-1.1811
X3.7008Y-2.8937
X3.7087Y-1.1811
X3.7874Y-1.3701
X3.8819Y-1.4567
X4.0157Y-2.2244
T3
X3.3157Y-2.1457
X3.3157Y-2.6457
X3.4157Y-2.1457
X3.4157Y-2.6457
X3.5157Y-2.1457
X3.5157Y-2.6457
X3.6157Y-2.1457
X3.6157Y-2.6457
X3.7157Y-2.1457
X3.7157Y-2.6457
X3.8157Y-2.1457
X3.8157Y-2.6457
X3.9157Y-2.1457
X3.9157Y-2.6457
X4.0157Y-2.1457
X4.0157Y-2.6457
T4
X1.7303Y-3.1705
X1.8287Y-3.1705
X1.9272Y-3.1705
T5
X1.6693Y-1.1417
X1.7235Y-2.8428
X1.7235Y-2.9428
X1.7693Y-1.1417
X1.8693Y-1.1417
X1.9193Y-1.4045
X1.9193Y-1.5045
X1.9193Y-1.6045
X1.9193Y-1.7045
X1.9193Y-1.8045
X1.9693Y-1.1417
X2.1516Y-3.189
X2.2516Y-3.189
X2.3516Y-3.189
X2.4516Y-3.189
X2.6248Y-3.189
X2.7248Y-3.189
X2.8248Y-3.189
X2.9911Y-3.189
X3.0911Y-3.189
X3.1911Y-3.189
X3.4866Y-3.189
X3.5866Y-3.189
X3.6969Y-2.0
X3.7969Y-2.0
X3.8969Y-2.0
X3.9969Y-2.0
T6
X1.437Y-1.4016
X1.437Y-1.5016
X1.5354Y-2.3331
X1.5354Y-2.589
X1.7126Y-2.3331
X1.7126Y-2.589
X3.9551Y-1.7413
X3.9551Y-1.8413
T7
X1.378Y-2.3378
X1.378Y-2.9378
T5
G00X3.5591Y-1.5118
M15
G01X3.5591Y-1.4331
M16
G05
G00X3.7165Y-1.2874
M15
G01X3.6378Y-1.2874
M16
G05
G00X3.7953Y-1.5118
M15
G01X3.7953Y-1.4331
M16
G05
T0
M30
