%TF.GenerationSoftware,KiCad,Pcbnew,6.0.10-86aedd382b~118~ubuntu22.10.1*%
%TF.CreationDate,2023-02-12T19:14:20-05:00*%
%TF.ProjectId,WerfenMc,57657266-656e-44d6-932e-6b696361645f,rev?*%
%TF.SameCoordinates,Original*%
%TF.FileFunction,Copper,L1,Top*%
%TF.FilePolarity,Positive*%
%FSLAX46Y46*%
G04 Gerber Fmt 4.6, Leading zero omitted, Abs format (unit mm)*
G04 Created by KiCad (PCBNEW 6.0.10-86aedd382b~118~ubuntu22.10.1) date 2023-02-12 19:14:20*
%MOMM*%
%LPD*%
G01*
G04 APERTURE LIST*
G04 Aperture macros list*
%AMRoundRect*
0 Rectangle with rounded corners*
0 $1 Rounding radius*
0 $2 $3 $4 $5 $6 $7 $8 $9 X,Y pos of 4 corners*
0 Add a 4 corners polygon primitive as box body*
4,1,4,$2,$3,$4,$5,$6,$7,$8,$9,$2,$3,0*
0 Add four circle primitives for the rounded corners*
1,1,$1+$1,$2,$3*
1,1,$1+$1,$4,$5*
1,1,$1+$1,$6,$7*
1,1,$1+$1,$8,$9*
0 Add four rect primitives between the rounded corners*
20,1,$1+$1,$2,$3,$4,$5,0*
20,1,$1+$1,$4,$5,$6,$7,0*
20,1,$1+$1,$6,$7,$8,$9,0*
20,1,$1+$1,$8,$9,$2,$3,0*%
G04 Aperture macros list end*
%TA.AperFunction,SMDPad,CuDef*%
%ADD10RoundRect,0.135000X-0.185000X0.135000X-0.185000X-0.135000X0.185000X-0.135000X0.185000X0.135000X0*%
%TD*%
%TA.AperFunction,SMDPad,CuDef*%
%ADD11RoundRect,0.250000X0.275000X-0.312500X0.275000X0.312500X-0.275000X0.312500X-0.275000X-0.312500X0*%
%TD*%
%TA.AperFunction,SMDPad,CuDef*%
%ADD12C,1.500000*%
%TD*%
%TA.AperFunction,SMDPad,CuDef*%
%ADD13RoundRect,0.135000X0.185000X-0.135000X0.185000X0.135000X-0.185000X0.135000X-0.185000X-0.135000X0*%
%TD*%
%TA.AperFunction,ComponentPad*%
%ADD14R,1.700000X1.700000*%
%TD*%
%TA.AperFunction,ComponentPad*%
%ADD15O,1.700000X1.700000*%
%TD*%
%TA.AperFunction,SMDPad,CuDef*%
%ADD16RoundRect,0.243750X0.456250X-0.243750X0.456250X0.243750X-0.456250X0.243750X-0.456250X-0.243750X0*%
%TD*%
%TA.AperFunction,ComponentPad*%
%ADD17R,2.200000X2.200000*%
%TD*%
%TA.AperFunction,ComponentPad*%
%ADD18C,2.200000*%
%TD*%
%TA.AperFunction,SMDPad,CuDef*%
%ADD19RoundRect,0.243750X-0.456250X0.243750X-0.456250X-0.243750X0.456250X-0.243750X0.456250X0.243750X0*%
%TD*%
%TA.AperFunction,SMDPad,CuDef*%
%ADD20RoundRect,0.140000X0.140000X0.170000X-0.140000X0.170000X-0.140000X-0.170000X0.140000X-0.170000X0*%
%TD*%
%TA.AperFunction,SMDPad,CuDef*%
%ADD21R,2.000000X1.500000*%
%TD*%
%TA.AperFunction,SMDPad,CuDef*%
%ADD22R,2.000000X3.800000*%
%TD*%
%TA.AperFunction,SMDPad,CuDef*%
%ADD23RoundRect,0.075000X-0.700000X-0.075000X0.700000X-0.075000X0.700000X0.075000X-0.700000X0.075000X0*%
%TD*%
%TA.AperFunction,SMDPad,CuDef*%
%ADD24RoundRect,0.075000X-0.075000X-0.700000X0.075000X-0.700000X0.075000X0.700000X-0.075000X0.700000X0*%
%TD*%
%TA.AperFunction,SMDPad,CuDef*%
%ADD25RoundRect,0.243750X0.243750X0.456250X-0.243750X0.456250X-0.243750X-0.456250X0.243750X-0.456250X0*%
%TD*%
%TA.AperFunction,SMDPad,CuDef*%
%ADD26RoundRect,0.140000X-0.170000X0.140000X-0.170000X-0.140000X0.170000X-0.140000X0.170000X0.140000X0*%
%TD*%
%TA.AperFunction,SMDPad,CuDef*%
%ADD27RoundRect,0.250000X0.312500X0.275000X-0.312500X0.275000X-0.312500X-0.275000X0.312500X-0.275000X0*%
%TD*%
%TA.AperFunction,SMDPad,CuDef*%
%ADD28RoundRect,0.135000X-0.135000X-0.185000X0.135000X-0.185000X0.135000X0.185000X-0.135000X0.185000X0*%
%TD*%
%TA.AperFunction,ComponentPad*%
%ADD29C,2.400000*%
%TD*%
%TA.AperFunction,ComponentPad*%
%ADD30O,2.400000X2.400000*%
%TD*%
%TA.AperFunction,SMDPad,CuDef*%
%ADD31R,3.556000X3.505200*%
%TD*%
%TA.AperFunction,SMDPad,CuDef*%
%ADD32RoundRect,0.218750X-0.256250X0.218750X-0.256250X-0.218750X0.256250X-0.218750X0.256250X0.218750X0*%
%TD*%
%TA.AperFunction,SMDPad,CuDef*%
%ADD33RoundRect,0.135000X0.135000X0.185000X-0.135000X0.185000X-0.135000X-0.185000X0.135000X-0.185000X0*%
%TD*%
%TA.AperFunction,SMDPad,CuDef*%
%ADD34R,1.100000X4.600000*%
%TD*%
%TA.AperFunction,SMDPad,CuDef*%
%ADD35R,10.800000X9.400000*%
%TD*%
%TA.AperFunction,SMDPad,CuDef*%
%ADD36R,2.200000X1.200000*%
%TD*%
%TA.AperFunction,SMDPad,CuDef*%
%ADD37R,6.400000X5.800000*%
%TD*%
%TA.AperFunction,SMDPad,CuDef*%
%ADD38RoundRect,0.250000X0.550000X-1.712500X0.550000X1.712500X-0.550000X1.712500X-0.550000X-1.712500X0*%
%TD*%
%TA.AperFunction,ComponentPad*%
%ADD39R,1.600000X1.600000*%
%TD*%
%TA.AperFunction,ComponentPad*%
%ADD40O,1.600000X1.600000*%
%TD*%
%TA.AperFunction,SMDPad,CuDef*%
%ADD41RoundRect,0.250000X-0.550000X1.712500X-0.550000X-1.712500X0.550000X-1.712500X0.550000X1.712500X0*%
%TD*%
%TA.AperFunction,SMDPad,CuDef*%
%ADD42RoundRect,0.140000X0.170000X-0.140000X0.170000X0.140000X-0.170000X0.140000X-0.170000X-0.140000X0*%
%TD*%
%TA.AperFunction,ComponentPad*%
%ADD43R,3.500000X3.500000*%
%TD*%
%TA.AperFunction,ComponentPad*%
%ADD44RoundRect,0.750000X0.750000X1.000000X-0.750000X1.000000X-0.750000X-1.000000X0.750000X-1.000000X0*%
%TD*%
%TA.AperFunction,ComponentPad*%
%ADD45RoundRect,0.875000X0.875000X0.875000X-0.875000X0.875000X-0.875000X-0.875000X0.875000X-0.875000X0*%
%TD*%
%TA.AperFunction,SMDPad,CuDef*%
%ADD46R,2.200000X1.300000*%
%TD*%
%TA.AperFunction,ComponentPad*%
%ADD47R,1.900000X1.900000*%
%TD*%
%TA.AperFunction,ComponentPad*%
%ADD48C,1.900000*%
%TD*%
%TA.AperFunction,SMDPad,CuDef*%
%ADD49RoundRect,0.200000X-0.275000X0.200000X-0.275000X-0.200000X0.275000X-0.200000X0.275000X0.200000X0*%
%TD*%
%TA.AperFunction,ComponentPad*%
%ADD50C,2.000000*%
%TD*%
%TA.AperFunction,SMDPad,CuDef*%
%ADD51RoundRect,0.140000X-0.140000X-0.170000X0.140000X-0.170000X0.140000X0.170000X-0.140000X0.170000X0*%
%TD*%
%TA.AperFunction,SMDPad,CuDef*%
%ADD52R,1.500000X1.000000*%
%TD*%
%TA.AperFunction,ViaPad*%
%ADD53C,0.700000*%
%TD*%
%TA.AperFunction,ViaPad*%
%ADD54C,0.800000*%
%TD*%
%TA.AperFunction,Conductor*%
%ADD55C,0.300000*%
%TD*%
%TA.AperFunction,Conductor*%
%ADD56C,0.500000*%
%TD*%
%TA.AperFunction,Conductor*%
%ADD57C,1.500000*%
%TD*%
%TA.AperFunction,Conductor*%
%ADD58C,1.000000*%
%TD*%
G04 APERTURE END LIST*
D10*
%TO.P,R5,1*%
%TO.N,MS3*%
X92000000Y-69490000D03*
%TO.P,R5,2*%
%TO.N,Net-(D3-Pad2)*%
X92000000Y-70510000D03*
%TD*%
D11*
%TO.P,C2,1*%
%TO.N,+3.3VA*%
X49750000Y-66887500D03*
%TO.P,C2,2*%
%TO.N,GND*%
X49750000Y-65112500D03*
%TD*%
D12*
%TO.P,TP8,1,1*%
%TO.N,+5V*%
X65750000Y-38750000D03*
%TD*%
D13*
%TO.P,R8,1*%
%TO.N,Net-(D5-Pad2)*%
X84250000Y-70510000D03*
%TO.P,R8,2*%
%TO.N,ENABLE*%
X84250000Y-69490000D03*
%TD*%
%TO.P,R10,1*%
%TO.N,Net-(D5-Pad2)*%
X96500000Y-80113641D03*
%TO.P,R10,2*%
%TO.N,GND*%
X96500000Y-79093641D03*
%TD*%
D14*
%TO.P,S2,1*%
%TO.N,GND*%
X75975000Y-81000000D03*
D15*
%TO.P,S2,2*%
%TO.N,Net-(D6-Pad2)*%
X78515000Y-81000000D03*
%TO.P,S2,3*%
%TO.N,+3.3V*%
X81055000Y-81000000D03*
%TD*%
D14*
%TO.P,J1,1,Pin_1*%
%TO.N,2A*%
X93900000Y-50800000D03*
D15*
%TO.P,J1,2,Pin_2*%
%TO.N,1B*%
X96440000Y-50800000D03*
%TO.P,J1,3,Pin_3*%
%TO.N,2B*%
X98980000Y-50800000D03*
%TO.P,J1,4,Pin_4*%
%TO.N,1A*%
X101520000Y-50800000D03*
%TD*%
D16*
%TO.P,D2,1,K*%
%TO.N,GND*%
X89300000Y-73937500D03*
%TO.P,D2,2,A*%
%TO.N,Net-(D2-Pad2)*%
X89300000Y-72062500D03*
%TD*%
D17*
%TO.P,D9,1,A*%
%TO.N,+5V*%
X36500000Y-36000000D03*
D18*
%TO.P,D9,2,K*%
%TO.N,Net-(D9-Pad2)*%
X36500000Y-38540000D03*
%TD*%
D14*
%TO.P,Q1,1,C*%
%TO.N,+3.3V*%
X43776453Y-72206402D03*
D15*
%TO.P,Q1,2,E*%
%TO.N,LIGHT_S*%
X43776453Y-74746402D03*
%TD*%
D12*
%TO.P,TP1,1,1*%
%TO.N,STEP*%
X99500000Y-71500000D03*
%TD*%
D19*
%TO.P,D5,1,K*%
%TO.N,Net-(D5-Pad1)*%
X94500000Y-79062500D03*
%TO.P,D5,2,A*%
%TO.N,Net-(D5-Pad2)*%
X94500000Y-80937500D03*
%TD*%
D20*
%TO.P,C16,1*%
%TO.N,+3.3V*%
X55030000Y-57450000D03*
%TO.P,C16,2*%
%TO.N,GND*%
X54070000Y-57450000D03*
%TD*%
D21*
%TO.P,Q2,1,B*%
%TO.N,Net-(Q2-Pad1)*%
X41650000Y-51300000D03*
%TO.P,Q2,2,C*%
%TO.N,/LIGHT_DRIVE*%
X41650000Y-49000000D03*
%TO.P,Q2,3,E*%
%TO.N,GND*%
X41650000Y-46700000D03*
D22*
%TO.P,Q2,4,C*%
%TO.N,/LIGHT_DRIVE*%
X35350000Y-49000000D03*
%TD*%
D23*
%TO.P,U1,1,VBAT*%
%TO.N,+3.3V*%
X55045200Y-58683200D03*
%TO.P,U1,2,PC13*%
%TO.N,unconnected-(U1-Pad2)*%
X55045200Y-59183200D03*
%TO.P,U1,3,PC14*%
%TO.N,unconnected-(U1-Pad3)*%
X55045200Y-59683200D03*
%TO.P,U1,4,PC15*%
%TO.N,unconnected-(U1-Pad4)*%
X55045200Y-60183200D03*
%TO.P,U1,5,PH0*%
%TO.N,/HSE_OSC_IN*%
X55045200Y-60683200D03*
%TO.P,U1,6,PH1*%
%TO.N,Net-(R7-Pad1)*%
X55045200Y-61183200D03*
%TO.P,U1,7,NRST*%
%TO.N,NRST*%
X55045200Y-61683200D03*
%TO.P,U1,8,PC0*%
%TO.N,unconnected-(U1-Pad8)*%
X55045200Y-62183200D03*
%TO.P,U1,9,PC1*%
%TO.N,unconnected-(U1-Pad9)*%
X55045200Y-62683200D03*
%TO.P,U1,10,PC2*%
%TO.N,unconnected-(U1-Pad10)*%
X55045200Y-63183200D03*
%TO.P,U1,11,PC3*%
%TO.N,unconnected-(U1-Pad11)*%
X55045200Y-63683200D03*
%TO.P,U1,12,VSSA*%
%TO.N,GND*%
X55045200Y-64183200D03*
%TO.P,U1,13,VDDA*%
%TO.N,+3.3VA*%
X55045200Y-64683200D03*
%TO.P,U1,14,PA0*%
%TO.N,unconnected-(U1-Pad14)*%
X55045200Y-65183200D03*
%TO.P,U1,15,PA1*%
%TO.N,unconnected-(U1-Pad15)*%
X55045200Y-65683200D03*
%TO.P,U1,16,PA2*%
%TO.N,unconnected-(U1-Pad16)*%
X55045200Y-66183200D03*
D24*
%TO.P,U1,17,PA3*%
%TO.N,unconnected-(U1-Pad17)*%
X56970200Y-68108200D03*
%TO.P,U1,18,VSS*%
%TO.N,GND*%
X57470200Y-68108200D03*
%TO.P,U1,19,VDD*%
%TO.N,+3.3V*%
X57970200Y-68108200D03*
%TO.P,U1,20,PA4*%
%TO.N,unconnected-(U1-Pad20)*%
X58470200Y-68108200D03*
%TO.P,U1,21,PA5*%
%TO.N,unconnected-(U1-Pad21)*%
X58970200Y-68108200D03*
%TO.P,U1,22,PA6*%
%TO.N,unconnected-(U1-Pad22)*%
X59470200Y-68108200D03*
%TO.P,U1,23,PA7*%
%TO.N,unconnected-(U1-Pad23)*%
X59970200Y-68108200D03*
%TO.P,U1,24,PC4*%
%TO.N,TX3*%
X60470200Y-68108200D03*
%TO.P,U1,25,PC5*%
%TO.N,RX3*%
X60970200Y-68108200D03*
%TO.P,U1,26,PB0*%
%TO.N,unconnected-(U1-Pad26)*%
X61470200Y-68108200D03*
%TO.P,U1,27,PB1*%
%TO.N,LIGHT_S*%
X61970200Y-68108200D03*
%TO.P,U1,28,PB2*%
%TO.N,unconnected-(U1-Pad28)*%
X62470200Y-68108200D03*
%TO.P,U1,29,PB10*%
%TO.N,unconnected-(U1-Pad29)*%
X62970200Y-68108200D03*
%TO.P,U1,30,PB11*%
%TO.N,unconnected-(U1-Pad30)*%
X63470200Y-68108200D03*
%TO.P,U1,31,VSS*%
%TO.N,GND*%
X63970200Y-68108200D03*
%TO.P,U1,32,VDD*%
%TO.N,+3.3V*%
X64470200Y-68108200D03*
D23*
%TO.P,U1,33,PB12*%
%TO.N,SWITCH2*%
X66395200Y-66183200D03*
%TO.P,U1,34,PB13*%
%TO.N,unconnected-(U1-Pad34)*%
X66395200Y-65683200D03*
%TO.P,U1,35,PB14*%
%TO.N,SWITCH1*%
X66395200Y-65183200D03*
%TO.P,U1,36,PB15*%
%TO.N,ENABLE*%
X66395200Y-64683200D03*
%TO.P,U1,37,PC6*%
%TO.N,unconnected-(U1-Pad37)*%
X66395200Y-64183200D03*
%TO.P,U1,38,PC7*%
%TO.N,unconnected-(U1-Pad38)*%
X66395200Y-63683200D03*
%TO.P,U1,39,PC8*%
%TO.N,STEP*%
X66395200Y-63183200D03*
%TO.P,U1,40,PC9*%
%TO.N,unconnected-(U1-Pad40)*%
X66395200Y-62683200D03*
%TO.P,U1,41,PA8*%
%TO.N,MS1*%
X66395200Y-62183200D03*
%TO.P,U1,42,PA9*%
%TO.N,MS2*%
X66395200Y-61683200D03*
%TO.P,U1,43,PA10*%
%TO.N,MS3*%
X66395200Y-61183200D03*
%TO.P,U1,44,PA11*%
%TO.N,DIR*%
X66395200Y-60683200D03*
%TO.P,U1,45,PA12*%
%TO.N,unconnected-(U1-Pad45)*%
X66395200Y-60183200D03*
%TO.P,U1,46,PA13*%
%TO.N,JTMS*%
X66395200Y-59683200D03*
%TO.P,U1,47,VSS*%
%TO.N,GND*%
X66395200Y-59183200D03*
%TO.P,U1,48,VDDUSB*%
%TO.N,+3.3V*%
X66395200Y-58683200D03*
D24*
%TO.P,U1,49,PA14*%
%TO.N,JTCK*%
X64470200Y-56758200D03*
%TO.P,U1,50,PA15*%
%TO.N,unconnected-(U1-Pad50)*%
X63970200Y-56758200D03*
%TO.P,U1,51,PC10*%
%TO.N,unconnected-(U1-Pad51)*%
X63470200Y-56758200D03*
%TO.P,U1,52,PC11*%
%TO.N,unconnected-(U1-Pad52)*%
X62970200Y-56758200D03*
%TO.P,U1,53,PC12*%
%TO.N,USR_LED*%
X62470200Y-56758200D03*
%TO.P,U1,54,PD2*%
%TO.N,unconnected-(U1-Pad54)*%
X61970200Y-56758200D03*
%TO.P,U1,55,PB3*%
%TO.N,SWO*%
X61470200Y-56758200D03*
%TO.P,U1,56,PB4*%
%TO.N,unconnected-(U1-Pad56)*%
X60970200Y-56758200D03*
%TO.P,U1,57,PB5*%
%TO.N,unconnected-(U1-Pad57)*%
X60470200Y-56758200D03*
%TO.P,U1,58,PB6*%
%TO.N,TX1*%
X59970200Y-56758200D03*
%TO.P,U1,59,PB7*%
%TO.N,RX1*%
X59470200Y-56758200D03*
%TO.P,U1,60,BOOT0*%
%TO.N,/BOOT0*%
X58970200Y-56758200D03*
%TO.P,U1,61,PB8*%
%TO.N,LIGHT*%
X58470200Y-56758200D03*
%TO.P,U1,62,PB9*%
%TO.N,unconnected-(U1-Pad62)*%
X57970200Y-56758200D03*
%TO.P,U1,63,VSS*%
%TO.N,GND*%
X57470200Y-56758200D03*
%TO.P,U1,64,VDD*%
%TO.N,+3.3V*%
X56970200Y-56758200D03*
%TD*%
D25*
%TO.P,D8,1,K*%
%TO.N,/L_IN*%
X78437500Y-38900000D03*
%TO.P,D8,2,A*%
%TO.N,GND*%
X76562500Y-38900000D03*
%TD*%
D26*
%TO.P,C10,1*%
%TO.N,GND*%
X50350000Y-61750000D03*
%TO.P,C10,2*%
%TO.N,/HSE_OSC_OUT*%
X50350000Y-62710000D03*
%TD*%
D13*
%TO.P,R17,1*%
%TO.N,+3.3V*%
X88750000Y-50702718D03*
%TO.P,R17,2*%
%TO.N,Net-(D10-Pad2)*%
X88750000Y-49682718D03*
%TD*%
D11*
%TO.P,C1,1*%
%TO.N,+3.3VA*%
X52000000Y-66887500D03*
%TO.P,C1,2*%
%TO.N,GND*%
X52000000Y-65112500D03*
%TD*%
D10*
%TO.P,R3,1*%
%TO.N,MS1*%
X86750000Y-69490000D03*
%TO.P,R3,2*%
%TO.N,Net-(D1-Pad2)*%
X86750000Y-70510000D03*
%TD*%
D17*
%TO.P,J6,1,Pin_1*%
%TO.N,+12V*%
X100460000Y-46770000D03*
D18*
%TO.P,J6,2,Pin_2*%
%TO.N,GND*%
X100460000Y-44230000D03*
%TD*%
D16*
%TO.P,D1,1,K*%
%TO.N,GND*%
X86700000Y-73937500D03*
%TO.P,D1,2,A*%
%TO.N,Net-(D1-Pad2)*%
X86700000Y-72062500D03*
%TD*%
D27*
%TO.P,C3,1*%
%TO.N,+3.3V*%
X58087500Y-72050000D03*
%TO.P,C3,2*%
%TO.N,GND*%
X56312500Y-72050000D03*
%TD*%
D28*
%TO.P,R2,1*%
%TO.N,Net-(R2-Pad1)*%
X46490000Y-75750000D03*
%TO.P,R2,2*%
%TO.N,/BOOT0*%
X47510000Y-75750000D03*
%TD*%
D29*
%TO.P,R1,1*%
%TO.N,LIGHT_S*%
X35000000Y-74620000D03*
D30*
%TO.P,R1,2*%
%TO.N,GND*%
X35000000Y-59380000D03*
%TD*%
D14*
%TO.P,J5,1,Pin_1*%
%TO.N,GND*%
X42400000Y-29000000D03*
D15*
%TO.P,J5,2,Pin_2*%
%TO.N,RX1*%
X44940000Y-29000000D03*
%TO.P,J5,3,Pin_3*%
%TO.N,TX1*%
X47480000Y-29000000D03*
%TO.P,J5,4,Pin_4*%
%TO.N,+5V*%
X50020000Y-29000000D03*
%TD*%
D31*
%TO.P,L1,1,1*%
%TO.N,/L_IN*%
X76775000Y-32100000D03*
%TO.P,L1,2,2*%
%TO.N,+5V*%
X67825000Y-32100000D03*
%TD*%
D32*
%TO.P,FB1,1*%
%TO.N,+3.3V*%
X47250000Y-65325000D03*
%TO.P,FB1,2*%
%TO.N,+3.3VA*%
X47250000Y-66900000D03*
%TD*%
D14*
%TO.P,J4,1,Pin_1*%
%TO.N,GND*%
X54650000Y-81000000D03*
D15*
%TO.P,J4,2,Pin_2*%
%TO.N,TX3*%
X57190000Y-81000000D03*
%TO.P,J4,3,Pin_3*%
%TO.N,RX3*%
X59730000Y-81000000D03*
%TO.P,J4,4,Pin_4*%
%TO.N,+3.3V*%
X62270000Y-81000000D03*
%TD*%
D12*
%TO.P,TP5,1,1*%
%TO.N,Net-(D6-Pad2)*%
X81250000Y-76000000D03*
%TD*%
D25*
%TO.P,D4,1,K*%
%TO.N,GND*%
X66937500Y-48500000D03*
%TO.P,D4,2,A*%
%TO.N,Net-(D4-Pad2)*%
X65062500Y-48500000D03*
%TD*%
D19*
%TO.P,D7,1,K*%
%TO.N,Net-(D7-Pad1)*%
X69250000Y-74312500D03*
%TO.P,D7,2,A*%
%TO.N,Net-(D7-Pad2)*%
X69250000Y-76187500D03*
%TD*%
D33*
%TO.P,R15,1*%
%TO.N,LIGHT*%
X47010000Y-53120000D03*
%TO.P,R15,2*%
%TO.N,Net-(Q2-Pad1)*%
X45990000Y-53120000D03*
%TD*%
D12*
%TO.P,TP3,1,1*%
%TO.N,+12V*%
X86000000Y-40750000D03*
%TD*%
D34*
%TO.P,U2,1,VIN*%
%TO.N,+12V*%
X79900000Y-42825000D03*
%TO.P,U2,2,OUT*%
%TO.N,/L_IN*%
X78200000Y-42825000D03*
%TO.P,U2,3,GND*%
%TO.N,GND*%
X76500000Y-42825000D03*
D35*
X76500000Y-51975000D03*
D34*
%TO.P,U2,4,FB*%
%TO.N,+5V*%
X74800000Y-42825000D03*
%TO.P,U2,5,~{ON}/OFF*%
%TO.N,GND*%
X73100000Y-42825000D03*
%TD*%
D12*
%TO.P,TP6,1,1*%
%TO.N,Net-(D7-Pad2)*%
X66750000Y-76000000D03*
%TD*%
%TO.P,TP2,1,1*%
%TO.N,+3.3V*%
X60000000Y-49000000D03*
%TD*%
D36*
%TO.P,U3,1,GND*%
%TO.N,GND*%
X65300000Y-45880000D03*
D37*
%TO.P,U3,2,VO*%
%TO.N,+3.3V*%
X59000000Y-43600000D03*
D36*
X65300000Y-43600000D03*
%TO.P,U3,3,VI*%
%TO.N,+5V*%
X65300000Y-41320000D03*
%TD*%
D38*
%TO.P,C14,1*%
%TO.N,+12V*%
X83750000Y-35337500D03*
%TO.P,C14,2*%
%TO.N,GND*%
X83750000Y-29162500D03*
%TD*%
D26*
%TO.P,C7,1*%
%TO.N,+3.3V*%
X68514000Y-58498800D03*
%TO.P,C7,2*%
%TO.N,GND*%
X68514000Y-59458800D03*
%TD*%
D39*
%TO.P,A1,1,GND*%
%TO.N,GND*%
X102000000Y-54500000D03*
D40*
%TO.P,A1,2,VDD*%
%TO.N,+3.3V*%
X99460000Y-54500000D03*
%TO.P,A1,3,1B*%
%TO.N,1B*%
X96920000Y-54500000D03*
%TO.P,A1,4,1A*%
%TO.N,1A*%
X94380000Y-54500000D03*
%TO.P,A1,5,2A*%
%TO.N,2A*%
X91840000Y-54500000D03*
%TO.P,A1,6,2B*%
%TO.N,2B*%
X89300000Y-54500000D03*
%TO.P,A1,7,GND*%
%TO.N,GND*%
X86760000Y-54500000D03*
%TO.P,A1,8,VMOT*%
%TO.N,+12V*%
X84220000Y-54500000D03*
%TO.P,A1,9,~{ENABLE}*%
%TO.N,ENABLE*%
X84220000Y-67200000D03*
%TO.P,A1,10,MS1*%
%TO.N,MS1*%
X86760000Y-67200000D03*
%TO.P,A1,11,MS2*%
%TO.N,MS2*%
X89300000Y-67200000D03*
%TO.P,A1,12,MS3*%
%TO.N,MS3*%
X91840000Y-67200000D03*
%TO.P,A1,13,~{RESET}*%
%TO.N,Net-(A1-Pad13)*%
X94380000Y-67200000D03*
%TO.P,A1,14,~{SLEEP}*%
X96920000Y-67200000D03*
%TO.P,A1,15,STEP*%
%TO.N,STEP*%
X99460000Y-67200000D03*
%TO.P,A1,16,DIR*%
%TO.N,DIR*%
X102000000Y-67200000D03*
%TD*%
D20*
%TO.P,C8,1*%
%TO.N,NRST*%
X41710000Y-56860000D03*
%TO.P,C8,2*%
%TO.N,GND*%
X40750000Y-56860000D03*
%TD*%
D41*
%TO.P,C15,1*%
%TO.N,+5V*%
X60376294Y-29247485D03*
%TO.P,C15,2*%
%TO.N,GND*%
X60376294Y-35422485D03*
%TD*%
D42*
%TO.P,C9,1*%
%TO.N,GND*%
X50350000Y-59360000D03*
%TO.P,C9,2*%
%TO.N,/HSE_OSC_IN*%
X50350000Y-58400000D03*
%TD*%
D16*
%TO.P,D3,1,K*%
%TO.N,GND*%
X92000000Y-73937500D03*
%TO.P,D3,2,A*%
%TO.N,Net-(D3-Pad2)*%
X92000000Y-72062500D03*
%TD*%
D20*
%TO.P,C4,1*%
%TO.N,+3.3V*%
X58080000Y-70300000D03*
%TO.P,C4,2*%
%TO.N,GND*%
X57120000Y-70300000D03*
%TD*%
D14*
%TO.P,S3,1*%
%TO.N,GND*%
X71750000Y-81000000D03*
D15*
%TO.P,S3,2*%
%TO.N,Net-(D7-Pad2)*%
X69210000Y-81000000D03*
%TO.P,S3,3*%
%TO.N,+3.3V*%
X66670000Y-81000000D03*
%TD*%
D43*
%TO.P,J3,1*%
%TO.N,+12V*%
X90400000Y-37400000D03*
D44*
%TO.P,J3,2*%
%TO.N,GND*%
X96400000Y-37400000D03*
D45*
%TO.P,J3,3*%
X93400000Y-32700000D03*
%TD*%
D10*
%TO.P,R4,1*%
%TO.N,MS2*%
X89300000Y-69490000D03*
%TO.P,R4,2*%
%TO.N,Net-(D2-Pad2)*%
X89300000Y-70510000D03*
%TD*%
D20*
%TO.P,C6,1*%
%TO.N,+3.3V*%
X64680000Y-70100000D03*
%TO.P,C6,2*%
%TO.N,GND*%
X63720000Y-70100000D03*
%TD*%
D16*
%TO.P,D10,1,K*%
%TO.N,GND*%
X86750000Y-51687500D03*
%TO.P,D10,2,A*%
%TO.N,Net-(D10-Pad2)*%
X86750000Y-49812500D03*
%TD*%
D13*
%TO.P,R12,1*%
%TO.N,Net-(D6-Pad1)*%
X78500000Y-72760000D03*
%TO.P,R12,2*%
%TO.N,GND*%
X78500000Y-71740000D03*
%TD*%
D14*
%TO.P,J2,1,Pin_1*%
%TO.N,JTCK*%
X48750000Y-35675000D03*
D15*
%TO.P,J2,2,Pin_2*%
%TO.N,GND*%
X48750000Y-38215000D03*
%TO.P,J2,3,Pin_3*%
%TO.N,JTMS*%
X48750000Y-40755000D03*
%TO.P,J2,4,Pin_4*%
%TO.N,NRST*%
X48750000Y-43295000D03*
%TO.P,J2,5,Pin_5*%
%TO.N,SWO*%
X48750000Y-45835000D03*
%TD*%
D13*
%TO.P,R13,1*%
%TO.N,Net-(D7-Pad2)*%
X71500000Y-74260000D03*
%TO.P,R13,2*%
%TO.N,SWITCH2*%
X71500000Y-73240000D03*
%TD*%
D46*
%TO.P,HSE1,1,1*%
%TO.N,/HSE_OSC_OUT*%
X48000000Y-62600000D03*
%TO.P,HSE1,2,2*%
%TO.N,/HSE_OSC_IN*%
X48000000Y-58400000D03*
%TD*%
D19*
%TO.P,D6,1,K*%
%TO.N,Net-(D6-Pad1)*%
X78500000Y-74312500D03*
%TO.P,D6,2,A*%
%TO.N,Net-(D6-Pad2)*%
X78500000Y-76187500D03*
%TD*%
D28*
%TO.P,R11,1*%
%TO.N,Net-(D5-Pad1)*%
X94465000Y-77120000D03*
%TO.P,R11,2*%
%TO.N,GND*%
X95485000Y-77120000D03*
%TD*%
D10*
%TO.P,R7,1*%
%TO.N,Net-(R7-Pad1)*%
X52300000Y-61740000D03*
%TO.P,R7,2*%
%TO.N,/HSE_OSC_OUT*%
X52300000Y-62760000D03*
%TD*%
D47*
%TO.P,S1,1*%
%TO.N,GND*%
X48950000Y-80530000D03*
D48*
%TO.P,S1,2*%
%TO.N,Net-(R2-Pad1)*%
X46450000Y-80530000D03*
%TO.P,S1,3*%
%TO.N,+3.3V*%
X43950000Y-80530000D03*
%TD*%
D49*
%TO.P,R16,1*%
%TO.N,Net-(D9-Pad2)*%
X36500000Y-41350000D03*
%TO.P,R16,2*%
%TO.N,/LIGHT_DRIVE*%
X36500000Y-43000000D03*
%TD*%
D50*
%TO.P,SW1,1,1*%
%TO.N,GND*%
X39000000Y-65760000D03*
X39000000Y-59260000D03*
%TO.P,SW1,2,2*%
%TO.N,NRST*%
X43500000Y-65760000D03*
X43500000Y-59260000D03*
%TD*%
D51*
%TO.P,C5,1*%
%TO.N,+3.3V*%
X56520000Y-55000000D03*
%TO.P,C5,2*%
%TO.N,GND*%
X57480000Y-55000000D03*
%TD*%
D13*
%TO.P,R14,1*%
%TO.N,Net-(D7-Pad1)*%
X69250000Y-72770000D03*
%TO.P,R14,2*%
%TO.N,GND*%
X69250000Y-71750000D03*
%TD*%
%TO.P,R9,1*%
%TO.N,Net-(D6-Pad2)*%
X76370000Y-74260000D03*
%TO.P,R9,2*%
%TO.N,SWITCH1*%
X76370000Y-73240000D03*
%TD*%
D14*
%TO.P,SW2,1,1*%
%TO.N,Net-(D5-Pad2)*%
X91100000Y-81000000D03*
D15*
%TO.P,SW2,2,2*%
%TO.N,+3.3V*%
X88560000Y-81000000D03*
%TD*%
D13*
%TO.P,R6,1*%
%TO.N,USR_LED*%
X65000000Y-51510000D03*
%TO.P,R6,2*%
%TO.N,Net-(D4-Pad2)*%
X65000000Y-50490000D03*
%TD*%
D52*
%TO.P,JP1,1,A*%
%TO.N,/LIGHT_DRIVE*%
X39000000Y-42825000D03*
%TO.P,JP1,2,B*%
%TO.N,Net-(D9-Pad2)*%
X39000000Y-41525000D03*
%TD*%
D53*
%TO.N,GND*%
X41000000Y-45000000D03*
X53300000Y-78300000D03*
X58776294Y-37334985D03*
D54*
X78500000Y-57350000D03*
D53*
X74800000Y-78800000D03*
X95450000Y-76150000D03*
D54*
X94000000Y-73500000D03*
D53*
X85600000Y-28600000D03*
X41500000Y-31000000D03*
D54*
X78500000Y-70500000D03*
D53*
X50170000Y-77580000D03*
D54*
X50350000Y-60650000D03*
X64000000Y-66500000D03*
X102000000Y-56500000D03*
D53*
X61976294Y-37334985D03*
D54*
X52850000Y-57450000D03*
D53*
X56000000Y-70250000D03*
X73100000Y-78850000D03*
X95200000Y-39600000D03*
D54*
X69250000Y-70500000D03*
D53*
X89600000Y-28400000D03*
D54*
X58206677Y-66456677D03*
D53*
X91800000Y-30200000D03*
X87000000Y-31200000D03*
X42250000Y-45000000D03*
D54*
X48500000Y-65500000D03*
X57500000Y-58500000D03*
D53*
X69650000Y-59450000D03*
D54*
X70350000Y-53550000D03*
D53*
X42900000Y-31000000D03*
D54*
X67200000Y-45950000D03*
D53*
X35000000Y-57000000D03*
D54*
X70400000Y-48200000D03*
X39000000Y-62480000D03*
D53*
X97600000Y-34800000D03*
D54*
X74700000Y-46750000D03*
D53*
X90800000Y-33400000D03*
D54*
X51000000Y-37000000D03*
X72950000Y-57400000D03*
D53*
X39740000Y-57240000D03*
D54*
X72950000Y-45900000D03*
X76400000Y-45950000D03*
D53*
X94800000Y-35000000D03*
D54*
%TO.N,+3.3V*%
X56500000Y-50000000D03*
X56500000Y-54000000D03*
%TO.N,STEP*%
X76250000Y-63200500D03*
X71028223Y-63238177D03*
D53*
%TO.N,NRST*%
X50000000Y-53949500D03*
D54*
X48000000Y-68750000D03*
D53*
X45500000Y-68750000D03*
D54*
X50000000Y-51500500D03*
%TO.N,TX3*%
X60000000Y-70750000D03*
X60000000Y-75000000D03*
%TO.N,RX3*%
X61000000Y-71000000D03*
X61000000Y-75000000D03*
%TO.N,USR_LED*%
X64950000Y-52850000D03*
X62745023Y-55054977D03*
%TO.N,/BOOT0*%
X51350688Y-72149312D03*
X49750000Y-73750000D03*
%TO.N,LIGHT_S*%
X62750000Y-73750000D03*
X62750000Y-70750000D03*
%TD*%
D55*
%TO.N,GND*%
X57470200Y-55009800D02*
X57480000Y-55000000D01*
D56*
X92000000Y-73937500D02*
X93562500Y-73937500D01*
X54650000Y-79650000D02*
X53300000Y-78300000D01*
X56800000Y-70300000D02*
X56312500Y-70787500D01*
D55*
X39000000Y-59260000D02*
X39000000Y-62480000D01*
X95485000Y-77120000D02*
X95485000Y-76185000D01*
D56*
X56312500Y-70787500D02*
X56312500Y-70562500D01*
D55*
X68514000Y-59458800D02*
X69641200Y-59458800D01*
X75975000Y-81000000D02*
X75975000Y-79975000D01*
D56*
X56312500Y-70787500D02*
X56312500Y-72050000D01*
D55*
X86750000Y-54490000D02*
X86760000Y-54500000D01*
X63970200Y-68108200D02*
X63970200Y-66529800D01*
X95485000Y-76185000D02*
X95450000Y-76150000D01*
D56*
X93562500Y-73937500D02*
X94000000Y-73500000D01*
X57120000Y-70300000D02*
X56800000Y-70300000D01*
D55*
X75975000Y-79975000D02*
X74800000Y-78800000D01*
D57*
X86000000Y-56650000D02*
X81175000Y-56650000D01*
D58*
X76500000Y-38962500D02*
X76562500Y-38900000D01*
D55*
X55045200Y-64183200D02*
X52929300Y-64183200D01*
X49785000Y-38215000D02*
X51000000Y-37000000D01*
D57*
X86760000Y-55890000D02*
X86000000Y-56650000D01*
D55*
X35000000Y-59380000D02*
X35000000Y-57000000D01*
X63970200Y-69029800D02*
X63720000Y-69280000D01*
X40120000Y-56860000D02*
X39740000Y-57240000D01*
X50350000Y-61750000D02*
X50350000Y-59360000D01*
D56*
X54070000Y-57450000D02*
X52850000Y-57450000D01*
D55*
X40750000Y-56860000D02*
X40120000Y-56860000D01*
X57100000Y-70280000D02*
X57120000Y-70300000D01*
D57*
X86760000Y-54500000D02*
X86760000Y-55890000D01*
D56*
X48950000Y-80530000D02*
X48950000Y-78800000D01*
X48950000Y-78800000D02*
X50170000Y-77580000D01*
D55*
X63720000Y-69280000D02*
X63720000Y-70100000D01*
X57470200Y-56758200D02*
X57470200Y-55009800D01*
X57470200Y-58470200D02*
X57500000Y-58500000D01*
D56*
X52000000Y-65112500D02*
X49750000Y-65112500D01*
D55*
X39740000Y-57240000D02*
X39000000Y-57980000D01*
X49750000Y-65112500D02*
X48887500Y-65112500D01*
X57470200Y-68108200D02*
X57470200Y-67193154D01*
X48887500Y-65112500D02*
X48500000Y-65500000D01*
X52929300Y-64183200D02*
X52000000Y-65112500D01*
D56*
X89300000Y-73937500D02*
X92000000Y-73937500D01*
D57*
X81175000Y-56650000D02*
X76500000Y-51975000D01*
D55*
X67433200Y-59183200D02*
X67750000Y-59500000D01*
X68472800Y-59500000D02*
X68514000Y-59458800D01*
X67750000Y-59500000D02*
X68472800Y-59500000D01*
X69250000Y-71750000D02*
X69250000Y-70500000D01*
D56*
X54650000Y-81000000D02*
X54650000Y-79650000D01*
D55*
X57100000Y-69500000D02*
X57100000Y-70280000D01*
D57*
X100460000Y-44230000D02*
X100460000Y-41460000D01*
D55*
X69641200Y-59458800D02*
X69650000Y-59450000D01*
X66395200Y-59183200D02*
X67433200Y-59183200D01*
X71750000Y-80200000D02*
X73100000Y-78850000D01*
X78500000Y-71740000D02*
X78500000Y-70500000D01*
D56*
X56312500Y-70562500D02*
X56000000Y-70250000D01*
D55*
X39000000Y-62480000D02*
X39000000Y-65760000D01*
X39000000Y-57980000D02*
X39000000Y-59260000D01*
X63970200Y-66529800D02*
X64000000Y-66500000D01*
X48750000Y-38215000D02*
X49785000Y-38215000D01*
X96500000Y-78135000D02*
X95485000Y-77120000D01*
X86750000Y-51687500D02*
X86750000Y-54490000D01*
X66937500Y-46212500D02*
X67200000Y-45950000D01*
X71750000Y-81000000D02*
X71750000Y-80200000D01*
X57470200Y-67193154D02*
X58206677Y-66456677D01*
D58*
X102000000Y-54500000D02*
X102000000Y-56500000D01*
D55*
X57470200Y-69129800D02*
X57100000Y-69500000D01*
X57470200Y-68108200D02*
X57470200Y-69129800D01*
D56*
X86700000Y-73937500D02*
X89300000Y-73937500D01*
D55*
X57470200Y-56758200D02*
X57470200Y-58470200D01*
X63970200Y-68108200D02*
X63970200Y-69029800D01*
D57*
X100460000Y-41460000D02*
X96400000Y-37400000D01*
D55*
X96500000Y-79093641D02*
X96500000Y-78135000D01*
X66937500Y-48500000D02*
X66937500Y-46212500D01*
D58*
X76500000Y-42825000D02*
X76500000Y-38962500D01*
D55*
%TO.N,+3.3V*%
X66395200Y-58683200D02*
X67316800Y-58683200D01*
D56*
X85751200Y-58498800D02*
X68514000Y-58498800D01*
X58087500Y-72050000D02*
X56637500Y-73500000D01*
D55*
X88150000Y-56100000D02*
X85751200Y-58498800D01*
D56*
X56637500Y-73500000D02*
X51500000Y-73500000D01*
X62270000Y-79680000D02*
X64680000Y-77270000D01*
X55030000Y-57450000D02*
X56278400Y-57450000D01*
X62270000Y-81000000D02*
X62270000Y-79680000D01*
D55*
X88150000Y-51302718D02*
X88150000Y-56100000D01*
D56*
X55030000Y-57450000D02*
X55030000Y-58583200D01*
X68070000Y-82400000D02*
X66670000Y-81000000D01*
X62270000Y-81000000D02*
X66670000Y-81000000D01*
X59000000Y-47500000D02*
X59000000Y-43600000D01*
X48750000Y-55000000D02*
X45600000Y-58150000D01*
X56278400Y-57450000D02*
X56870200Y-56858200D01*
D55*
X64470200Y-68970200D02*
X64750000Y-69250000D01*
D56*
X68514000Y-58498800D02*
X68514000Y-57664000D01*
X45600000Y-58150000D02*
X45600000Y-67600000D01*
X64680000Y-77270000D02*
X64680000Y-70100000D01*
D55*
X59000000Y-41700000D02*
X59000000Y-43600000D01*
X64470200Y-68108200D02*
X64470200Y-68970200D01*
X88750000Y-50702718D02*
X88150000Y-51302718D01*
D56*
X56870200Y-56120200D02*
X56520000Y-55770000D01*
X66670000Y-79260000D02*
X64680000Y-77270000D01*
X81055000Y-81000000D02*
X88560000Y-81000000D01*
D55*
X67316800Y-58683200D02*
X67501200Y-58498800D01*
D56*
X99460000Y-55631370D02*
X96592570Y-58498800D01*
X96592570Y-58498800D02*
X85751200Y-58498800D01*
X81055000Y-81000000D02*
X79655000Y-82400000D01*
X56520000Y-55000000D02*
X48750000Y-55000000D01*
D55*
X43776453Y-72206402D02*
X43793598Y-72206402D01*
X43793598Y-72206402D02*
X45500000Y-70500000D01*
X67501200Y-58498800D02*
X68514000Y-58498800D01*
X64750000Y-69250000D02*
X64750000Y-70030000D01*
X57970200Y-68108200D02*
X57970200Y-70190200D01*
D56*
X49000000Y-71000000D02*
X46500000Y-68500000D01*
X66670000Y-81000000D02*
X66670000Y-79260000D01*
X45720000Y-82300000D02*
X60970000Y-82300000D01*
X99460000Y-54500000D02*
X99460000Y-55631370D01*
X68514000Y-57664000D02*
X59000000Y-48150000D01*
X58080000Y-70300000D02*
X58080000Y-72042500D01*
D55*
X64750000Y-70030000D02*
X64680000Y-70100000D01*
D56*
X56500000Y-50000000D02*
X59000000Y-47500000D01*
D55*
X57970200Y-70190200D02*
X58080000Y-70300000D01*
D56*
X56870200Y-56858200D02*
X56870200Y-56120200D01*
X45600000Y-67600000D02*
X46500000Y-68500000D01*
X45720000Y-82300000D02*
X43950000Y-80530000D01*
X79655000Y-82400000D02*
X68070000Y-82400000D01*
D55*
X45500000Y-70500000D02*
X48500000Y-70500000D01*
D56*
X56520000Y-55770000D02*
X56520000Y-55000000D01*
X60970000Y-82300000D02*
X62270000Y-81000000D01*
X56520000Y-55000000D02*
X56520000Y-54020000D01*
X59000000Y-48150000D02*
X59000000Y-43600000D01*
X45600000Y-63675000D02*
X47250000Y-65325000D01*
X51500000Y-73500000D02*
X49000000Y-71000000D01*
X55030000Y-58583200D02*
X55045200Y-58583200D01*
D55*
X48500000Y-70500000D02*
X49000000Y-71000000D01*
D56*
X58080000Y-72042500D02*
X58087500Y-72050000D01*
X56520000Y-54020000D02*
X56500000Y-54000000D01*
%TO.N,1B*%
X96440000Y-54020000D02*
X96920000Y-54500000D01*
X96440000Y-50800000D02*
X96440000Y-54020000D01*
%TO.N,1A*%
X98170000Y-53930000D02*
X101300000Y-50800000D01*
X94380000Y-54500000D02*
X95630000Y-55750000D01*
X95630000Y-55750000D02*
X97437767Y-55750000D01*
X101300000Y-50800000D02*
X101520000Y-50800000D01*
X98170000Y-55017767D02*
X98170000Y-53930000D01*
X97437767Y-55750000D02*
X98170000Y-55017767D01*
%TO.N,2A*%
X91840000Y-54500000D02*
X91840000Y-52860000D01*
X91840000Y-52860000D02*
X93900000Y-50800000D01*
%TO.N,2B*%
X97680000Y-49500000D02*
X92500000Y-49500000D01*
X98980000Y-50800000D02*
X97680000Y-49500000D01*
X89300000Y-54500000D02*
X89300000Y-52700000D01*
X89300000Y-52700000D02*
X92500000Y-49500000D01*
D57*
%TO.N,+12V*%
X84220000Y-54500000D02*
X84220000Y-46780000D01*
X100460000Y-46770000D02*
X100440000Y-46750000D01*
X84220000Y-46780000D02*
X89000000Y-42000000D01*
X90400000Y-40600000D02*
X90400000Y-37400000D01*
X93750000Y-46750000D02*
X89000000Y-42000000D01*
X100440000Y-46750000D02*
X93750000Y-46750000D01*
X89000000Y-42000000D02*
X90400000Y-40600000D01*
D55*
%TO.N,ENABLE*%
X84220000Y-69460000D02*
X84250000Y-69490000D01*
X84220000Y-67200000D02*
X84220000Y-69460000D01*
X74050000Y-67200000D02*
X71533200Y-64683200D01*
X84220000Y-67200000D02*
X74050000Y-67200000D01*
X71533200Y-64683200D02*
X66395200Y-64683200D01*
%TO.N,MS1*%
X71033200Y-62183200D02*
X67271241Y-62183200D01*
X74550000Y-65700000D02*
X71033200Y-62183200D01*
X86760000Y-67200000D02*
X86760000Y-69480000D01*
X86760000Y-67200000D02*
X85260000Y-65700000D01*
X85260000Y-65700000D02*
X74550000Y-65700000D01*
X86760000Y-69480000D02*
X86750000Y-69490000D01*
%TO.N,MS2*%
X86950000Y-64850000D02*
X89300000Y-67200000D01*
X71783200Y-61683200D02*
X74950000Y-64850000D01*
X66395200Y-61683200D02*
X71783200Y-61683200D01*
X74950000Y-64850000D02*
X86950000Y-64850000D01*
X89300000Y-69490000D02*
X89300000Y-67200000D01*
%TO.N,MS3*%
X75650000Y-63950000D02*
X72883200Y-61183200D01*
X88590000Y-63950000D02*
X75650000Y-63950000D01*
X91840000Y-67200000D02*
X88590000Y-63950000D01*
X92000000Y-67360000D02*
X91840000Y-67200000D01*
X92000000Y-69490000D02*
X92000000Y-67360000D01*
X72883200Y-61183200D02*
X66395200Y-61183200D01*
%TO.N,STEP*%
X95460500Y-63200500D02*
X76250000Y-63200500D01*
X70973246Y-63183200D02*
X71028223Y-63238177D01*
X66395200Y-63183200D02*
X70973246Y-63183200D01*
X99460000Y-71460000D02*
X99500000Y-71500000D01*
X99460000Y-67200000D02*
X95460500Y-63200500D01*
X99460000Y-67200000D02*
X99460000Y-71460000D01*
%TO.N,DIR*%
X73933200Y-60683200D02*
X66395200Y-60683200D01*
X75250000Y-62000000D02*
X73933200Y-60683200D01*
X96800000Y-62000000D02*
X75250000Y-62000000D01*
X102000000Y-67200000D02*
X96800000Y-62000000D01*
%TO.N,+3.3VA*%
X54169159Y-64683200D02*
X52000000Y-66852359D01*
X52000000Y-66852359D02*
X52000000Y-66887500D01*
X55045200Y-64683200D02*
X54169159Y-64683200D01*
D56*
X49750000Y-66887500D02*
X47262500Y-66887500D01*
X52000000Y-66887500D02*
X49750000Y-66887500D01*
X47262500Y-66887500D02*
X47250000Y-66900000D01*
D55*
%TO.N,NRST*%
X57000000Y-62761959D02*
X57000000Y-65500000D01*
X47550000Y-44495000D02*
X48750000Y-43295000D01*
X47550000Y-44495000D02*
X47550000Y-49050500D01*
X42590000Y-56860000D02*
X43500000Y-57770000D01*
X57000000Y-65750000D02*
X54000000Y-68750000D01*
X55921241Y-61683200D02*
X57000000Y-62761959D01*
X43500000Y-59260000D02*
X43500000Y-65760000D01*
X54000000Y-68750000D02*
X48000000Y-68750000D01*
X50000000Y-53949500D02*
X48810500Y-53949500D01*
X43500000Y-57770000D02*
X43500000Y-59260000D01*
X41710000Y-56860000D02*
X42590000Y-56860000D01*
X55045200Y-61683200D02*
X55921241Y-61683200D01*
X47550000Y-49050500D02*
X50000000Y-51500500D01*
X48810500Y-53949500D02*
X43500000Y-59260000D01*
X43500000Y-66750000D02*
X43500000Y-65760000D01*
X45500000Y-68750000D02*
X43500000Y-66750000D01*
X57000000Y-65500000D02*
X57000000Y-65750000D01*
D58*
%TO.N,+5V*%
X49000000Y-27000000D02*
X41000000Y-27000000D01*
X41000000Y-27000000D02*
X39500000Y-28500000D01*
X39500000Y-28500000D02*
X39500000Y-32730000D01*
X39500000Y-32730000D02*
X36500000Y-35730000D01*
X50020000Y-29000000D02*
X50020000Y-28020000D01*
X50020000Y-28020000D02*
X49000000Y-27000000D01*
D55*
%TO.N,Net-(D1-Pad2)*%
X86750000Y-70510000D02*
X86750000Y-72012500D01*
X86750000Y-72012500D02*
X86700000Y-72062500D01*
%TO.N,Net-(D2-Pad2)*%
X89300000Y-70510000D02*
X89300000Y-72062500D01*
%TO.N,Net-(D3-Pad2)*%
X92000000Y-70510000D02*
X92000000Y-72062500D01*
%TO.N,Net-(D4-Pad2)*%
X65000000Y-48562500D02*
X65062500Y-48500000D01*
X65000000Y-50490000D02*
X65000000Y-48562500D01*
%TO.N,Net-(D5-Pad1)*%
X94500000Y-77155000D02*
X94465000Y-77120000D01*
X94500000Y-79062500D02*
X94500000Y-77155000D01*
%TO.N,Net-(D5-Pad2)*%
X91000000Y-81000000D02*
X91100000Y-81000000D01*
X84250000Y-74250000D02*
X91000000Y-81000000D01*
X91100000Y-81000000D02*
X94437500Y-81000000D01*
X95676141Y-80937500D02*
X96500000Y-80113641D01*
X94437500Y-81000000D02*
X94500000Y-80937500D01*
X94500000Y-80937500D02*
X95676141Y-80937500D01*
X84250000Y-70510000D02*
X84250000Y-74250000D01*
%TO.N,Net-(D6-Pad1)*%
X78500000Y-74312500D02*
X78500000Y-72760000D01*
%TO.N,Net-(D6-Pad2)*%
X78515000Y-76202500D02*
X78515000Y-81000000D01*
X81062500Y-76187500D02*
X81250000Y-76000000D01*
X78427500Y-76260000D02*
X78500000Y-76187500D01*
X78500000Y-76187500D02*
X81062500Y-76187500D01*
X78500000Y-76187500D02*
X78515000Y-76202500D01*
X78312500Y-76000000D02*
X78500000Y-76187500D01*
X78297500Y-76187500D02*
X76370000Y-74260000D01*
X78500000Y-76187500D02*
X78297500Y-76187500D01*
%TO.N,Net-(D7-Pad1)*%
X69250000Y-74312500D02*
X69250000Y-72770000D01*
%TO.N,Net-(D7-Pad2)*%
X69250000Y-76187500D02*
X66937500Y-76187500D01*
X69572500Y-76187500D02*
X71500000Y-74260000D01*
X69210000Y-81000000D02*
X69210000Y-76227500D01*
X69322500Y-76260000D02*
X69250000Y-76187500D01*
X69210000Y-76227500D02*
X69250000Y-76187500D01*
X69250000Y-76187500D02*
X69572500Y-76187500D01*
X66937500Y-76187500D02*
X66750000Y-76000000D01*
%TO.N,JTCK*%
X60000707Y-51250000D02*
X53207106Y-51250000D01*
X53207106Y-51250000D02*
X51500000Y-49542894D01*
X47250000Y-37175000D02*
X48750000Y-35675000D01*
X64470200Y-56758200D02*
X64470200Y-55719493D01*
X47955000Y-41955000D02*
X47250000Y-41250000D01*
X47250000Y-41250000D02*
X47250000Y-37175000D01*
X51500000Y-44250000D02*
X49205000Y-41955000D01*
X51500000Y-49542894D02*
X51500000Y-44250000D01*
X49205000Y-41955000D02*
X47955000Y-41955000D01*
X64470200Y-55719493D02*
X60000707Y-51250000D01*
%TO.N,JTMS*%
X65500000Y-57250000D02*
X65500000Y-55750000D01*
X52250000Y-44255000D02*
X48750000Y-40755000D01*
X64750000Y-58000000D02*
X65500000Y-57250000D01*
X65519159Y-59683200D02*
X64750000Y-58914041D01*
X53750000Y-50750000D02*
X52250000Y-49250000D01*
X66395200Y-59683200D02*
X65519159Y-59683200D01*
X64750000Y-58914041D02*
X64750000Y-58000000D01*
X60500000Y-50750000D02*
X53750000Y-50750000D01*
X52250000Y-49250000D02*
X52250000Y-44255000D01*
X65500000Y-55750000D02*
X60500000Y-50750000D01*
%TO.N,SWO*%
X48750000Y-47500000D02*
X48750000Y-45835000D01*
X58274873Y-51750000D02*
X53000000Y-51750000D01*
X61470200Y-54945327D02*
X58274873Y-51750000D01*
X61470200Y-56758200D02*
X61470200Y-54945327D01*
X53000000Y-51750000D02*
X48750000Y-47500000D01*
%TO.N,TX3*%
X60470200Y-70279800D02*
X60000000Y-70750000D01*
X60000000Y-75000000D02*
X60000000Y-78190000D01*
X60470200Y-68108200D02*
X60470200Y-70279800D01*
X60000000Y-78190000D02*
X57190000Y-81000000D01*
%TO.N,RX3*%
X61000000Y-79730000D02*
X59730000Y-81000000D01*
X60970200Y-70970200D02*
X61000000Y-71000000D01*
X60970200Y-68108200D02*
X60970200Y-70970200D01*
X61000000Y-75000000D02*
X61000000Y-79730000D01*
%TO.N,Net-(R2-Pad1)*%
X46450000Y-75790000D02*
X46490000Y-75750000D01*
X46450000Y-80530000D02*
X46450000Y-75790000D01*
%TO.N,USR_LED*%
X64950000Y-52850000D02*
X64950000Y-51560000D01*
X64950000Y-51560000D02*
X65000000Y-51510000D01*
X62470200Y-56758200D02*
X62470200Y-55329800D01*
X62470200Y-55329800D02*
X62745023Y-55054977D01*
%TO.N,SWITCH1*%
X70933200Y-65183200D02*
X66395200Y-65183200D01*
X76370000Y-70620000D02*
X70933200Y-65183200D01*
X76370000Y-70620000D02*
X76370000Y-73240000D01*
%TO.N,SWITCH2*%
X71500000Y-73240000D02*
X71500000Y-68000000D01*
X69683200Y-66183200D02*
X66395200Y-66183200D01*
X71500000Y-68000000D02*
X69683200Y-66183200D01*
%TO.N,/HSE_OSC_IN*%
X51700000Y-58400000D02*
X50350000Y-58400000D01*
X55045200Y-60683200D02*
X53983200Y-60683200D01*
X48000000Y-58400000D02*
X50350000Y-58400000D01*
X53983200Y-60683200D02*
X51700000Y-58400000D01*
%TO.N,/HSE_OSC_OUT*%
X52300000Y-62760000D02*
X50400000Y-62760000D01*
X50400000Y-62760000D02*
X50350000Y-62710000D01*
X48110000Y-62710000D02*
X48000000Y-62600000D01*
X50350000Y-62710000D02*
X48110000Y-62710000D01*
%TO.N,Net-(A1-Pad13)*%
X94380000Y-67200000D02*
X96920000Y-67200000D01*
%TO.N,/BOOT0*%
X58970200Y-64529800D02*
X58970200Y-56758200D01*
X47750000Y-75750000D02*
X47510000Y-75750000D01*
X51350688Y-72149312D02*
X58970200Y-64529800D01*
X49750000Y-73750000D02*
X47750000Y-75750000D01*
%TO.N,TX1*%
X49500000Y-52250000D02*
X46250000Y-49000000D01*
X58067767Y-52250000D02*
X49500000Y-52250000D01*
X59970200Y-54152433D02*
X58067767Y-52250000D01*
X46250000Y-49000000D02*
X46250000Y-33750000D01*
X47480000Y-32520000D02*
X47480000Y-29000000D01*
X59970200Y-56758200D02*
X59970200Y-54152433D01*
X46250000Y-33750000D02*
X47480000Y-32520000D01*
%TO.N,RX1*%
X57860661Y-52750000D02*
X48750000Y-52750000D01*
X44940000Y-48940000D02*
X44940000Y-29000000D01*
X59470200Y-54359539D02*
X57860661Y-52750000D01*
X48750000Y-52750000D02*
X44940000Y-48940000D01*
X59470200Y-56758200D02*
X59470200Y-54359539D01*
%TO.N,Net-(R7-Pad1)*%
X52856800Y-61183200D02*
X52300000Y-61740000D01*
X55045200Y-61183200D02*
X52856800Y-61183200D01*
%TO.N,LIGHT_S*%
X62250000Y-74250000D02*
X51401472Y-74250000D01*
X51401472Y-74250000D02*
X50151472Y-73000000D01*
X35126402Y-74746402D02*
X35000000Y-74620000D01*
X45522855Y-73000000D02*
X43776453Y-74746402D01*
X62500000Y-69750000D02*
X62750000Y-70000000D01*
X62750000Y-70000000D02*
X62750000Y-70750000D01*
X62750000Y-73750000D02*
X62250000Y-74250000D01*
X61970200Y-68108200D02*
X61970200Y-69220200D01*
X43776453Y-74746402D02*
X35126402Y-74746402D01*
X61970200Y-69220200D02*
X62500000Y-69750000D01*
X50151472Y-73000000D02*
X45522855Y-73000000D01*
%TO.N,Net-(Q2-Pad1)*%
X41650000Y-51300000D02*
X43600000Y-53250000D01*
X45860000Y-53250000D02*
X45990000Y-53120000D01*
X43600000Y-53250000D02*
X45860000Y-53250000D01*
%TO.N,LIGHT*%
X57653555Y-53250000D02*
X47140000Y-53250000D01*
X58470200Y-56758200D02*
X58470200Y-54066645D01*
X58470200Y-54066645D02*
X57653555Y-53250000D01*
X47140000Y-53250000D02*
X47010000Y-53120000D01*
D58*
%TO.N,/LIGHT_DRIVE*%
X35350000Y-49000000D02*
X35350000Y-44150000D01*
X35350000Y-44150000D02*
X36500000Y-43000000D01*
X39000000Y-42825000D02*
X39000000Y-46500000D01*
X39000000Y-46500000D02*
X36500000Y-49000000D01*
D57*
X41650000Y-49000000D02*
X36500000Y-49000000D01*
X36500000Y-49000000D02*
X35350000Y-49000000D01*
D58*
%TO.N,/L_IN*%
X78200000Y-39137500D02*
X78437500Y-38900000D01*
X78200000Y-42825000D02*
X78200000Y-39137500D01*
%TO.N,Net-(D9-Pad2)*%
X36500000Y-41350000D02*
X36500000Y-38270000D01*
X39000000Y-41040000D02*
X36500000Y-38540000D01*
X39000000Y-41525000D02*
X39000000Y-41040000D01*
D55*
%TO.N,Net-(D10-Pad2)*%
X86879782Y-49682718D02*
X86750000Y-49812500D01*
X88750000Y-49682718D02*
X86879782Y-49682718D01*
%TD*%
%TA.AperFunction,Conductor*%
%TO.N,+3.3V*%
G36*
X61915677Y-39619685D02*
G01*
X61936319Y-39636319D01*
X62663681Y-40363681D01*
X62697166Y-40425004D01*
X62700000Y-40451362D01*
X62700000Y-42000000D01*
X63300000Y-42750000D01*
X66264437Y-42750000D01*
X66330157Y-42768848D01*
X66641720Y-42963575D01*
X66688136Y-43015799D01*
X66700000Y-43068727D01*
X66700000Y-44138000D01*
X66680315Y-44205039D01*
X66650400Y-44237200D01*
X66333067Y-44475200D01*
X66267625Y-44499676D01*
X66258667Y-44500000D01*
X63500000Y-44500000D01*
X62900000Y-45000000D01*
X62900000Y-46348638D01*
X62880315Y-46415677D01*
X62863681Y-46436319D01*
X62136319Y-47163681D01*
X62074996Y-47197166D01*
X62048638Y-47200000D01*
X56134345Y-47200000D01*
X56070548Y-47182329D01*
X55160203Y-46636122D01*
X55112844Y-46584751D01*
X55100000Y-46529793D01*
X55100000Y-40451362D01*
X55119685Y-40384323D01*
X55136319Y-40363681D01*
X55863681Y-39636319D01*
X55925004Y-39602834D01*
X55951362Y-39600000D01*
X61848638Y-39600000D01*
X61915677Y-39619685D01*
G37*
%TD.AperFunction*%
%TD*%
%TA.AperFunction,Conductor*%
%TO.N,+12V*%
G36*
X85028311Y-33015925D02*
G01*
X89000000Y-35250000D01*
X91698638Y-35250000D01*
X91765677Y-35269685D01*
X91786319Y-35286319D01*
X92463681Y-35963681D01*
X92497166Y-36025004D01*
X92500000Y-36051362D01*
X92500000Y-43948638D01*
X92480315Y-44015677D01*
X92463681Y-44036319D01*
X91286319Y-45213681D01*
X91224996Y-45247166D01*
X91198638Y-45250000D01*
X79451656Y-45250000D01*
X79384617Y-45230315D01*
X79338862Y-45177511D01*
X79330064Y-45150319D01*
X79252908Y-44764541D01*
X79250500Y-44740222D01*
X79250499Y-40579196D01*
X79270184Y-40512157D01*
X79281594Y-40497070D01*
X79462984Y-40291874D01*
X79522133Y-40254683D01*
X79555889Y-40250000D01*
X81250000Y-40250000D01*
X82000000Y-39500000D01*
X82000000Y-33551362D01*
X82019685Y-33484323D01*
X82036319Y-33463681D01*
X82463681Y-33036319D01*
X82525004Y-33002834D01*
X82551362Y-33000000D01*
X84967519Y-33000000D01*
X85028311Y-33015925D01*
G37*
%TD.AperFunction*%
%TD*%
%TA.AperFunction,Conductor*%
%TO.N,+5V*%
G36*
X69430957Y-26519348D02*
G01*
X70140909Y-26963068D01*
X70187325Y-27015292D01*
X70199180Y-27069679D01*
X70151040Y-31161640D01*
X70100000Y-35500000D01*
X71000000Y-36700000D01*
X71009014Y-36705912D01*
X71009015Y-36705912D01*
X74877165Y-39242564D01*
X74914430Y-39280716D01*
X75241859Y-39806617D01*
X75281609Y-39870461D01*
X75300338Y-39934796D01*
X75322144Y-42180315D01*
X75349258Y-44972530D01*
X75330225Y-45039757D01*
X75280711Y-45084646D01*
X75276173Y-45086915D01*
X75220731Y-45100000D01*
X74437544Y-45100000D01*
X74368761Y-45079174D01*
X74305217Y-45036811D01*
X74260356Y-44983245D01*
X74250000Y-44933637D01*
X74249983Y-40316233D01*
X74249983Y-40298404D01*
X73700000Y-39800000D01*
X72900452Y-39443955D01*
X68998690Y-39412489D01*
X67450000Y-39400000D01*
X66650000Y-40000000D01*
X66650000Y-41748638D01*
X66630315Y-41815677D01*
X66613681Y-41836319D01*
X66286319Y-42163681D01*
X66224996Y-42197166D01*
X66198638Y-42200000D01*
X64293497Y-42200000D01*
X64226458Y-42180315D01*
X64216035Y-42172828D01*
X64046538Y-42037230D01*
X64006486Y-41979979D01*
X64000000Y-41940402D01*
X64000000Y-39627382D01*
X64011531Y-39575164D01*
X65294303Y-36812271D01*
X65294303Y-36812270D01*
X65300000Y-36800000D01*
X65300000Y-32600000D01*
X64129593Y-31819632D01*
X64114574Y-31809618D01*
X64114573Y-31809618D01*
X64099256Y-31799405D01*
X64080848Y-31799432D01*
X64080847Y-31799432D01*
X53122687Y-31815730D01*
X50520159Y-31819601D01*
X50479497Y-31812808D01*
X48933518Y-31278846D01*
X48876578Y-31238354D01*
X48850569Y-31173506D01*
X48850000Y-31161640D01*
X48850000Y-27081300D01*
X48869685Y-27014261D01*
X48924557Y-26967584D01*
X49975199Y-26510783D01*
X50024641Y-26500500D01*
X69365237Y-26500500D01*
X69430957Y-26519348D01*
G37*
%TD.AperFunction*%
%TD*%
%TA.AperFunction,Conductor*%
%TO.N,GND*%
G36*
X42943039Y-44519685D02*
G01*
X42988794Y-44572489D01*
X43000000Y-44624000D01*
X43000000Y-47376000D01*
X42980315Y-47443039D01*
X42927511Y-47488794D01*
X42876000Y-47500000D01*
X40374000Y-47500000D01*
X40306961Y-47480315D01*
X40261206Y-47427511D01*
X40250000Y-47376000D01*
X40250000Y-44624000D01*
X40269685Y-44556961D01*
X40322489Y-44511206D01*
X40374000Y-44500000D01*
X42876000Y-44500000D01*
X42943039Y-44519685D01*
G37*
%TD.AperFunction*%
%TD*%
%TA.AperFunction,Conductor*%
%TO.N,GND*%
G36*
X91132380Y-27019685D02*
G01*
X91151400Y-27034726D01*
X92065807Y-27916212D01*
X98462059Y-34082182D01*
X98496663Y-34142882D01*
X98500000Y-34171456D01*
X98500000Y-39441239D01*
X98480315Y-39508278D01*
X98454524Y-39537207D01*
X97434256Y-40371972D01*
X97369908Y-40399188D01*
X97355737Y-40400000D01*
X94660647Y-40400000D01*
X94593608Y-40380315D01*
X94562767Y-40352129D01*
X94276120Y-39983583D01*
X94250500Y-39918580D01*
X94250000Y-39907454D01*
X94250000Y-35271577D01*
X93750000Y-34765829D01*
X91478922Y-34494779D01*
X91435888Y-34481395D01*
X90846705Y-34171456D01*
X89000000Y-33200000D01*
X88351495Y-33003940D01*
X84708727Y-31902638D01*
X84708724Y-31902638D01*
X84700000Y-31900000D01*
X81974658Y-31900000D01*
X81907619Y-31880315D01*
X81865068Y-31834018D01*
X81464410Y-31077219D01*
X81450000Y-31019201D01*
X81450000Y-27993048D01*
X81469685Y-27926009D01*
X81476675Y-27916212D01*
X82162765Y-27047164D01*
X82219755Y-27006743D01*
X82260090Y-27000000D01*
X91065341Y-27000000D01*
X91132380Y-27019685D01*
G37*
%TD.AperFunction*%
%TD*%
%TA.AperFunction,Conductor*%
%TO.N,GND*%
G36*
X43095309Y-28020185D02*
G01*
X43101599Y-28024506D01*
X43619615Y-28404385D01*
X43662035Y-28459903D01*
X43667706Y-28529542D01*
X43666061Y-28536472D01*
X43615218Y-28726224D01*
X43604937Y-28764592D01*
X43604466Y-28769979D01*
X43604465Y-28769983D01*
X43584813Y-28994605D01*
X43584341Y-29000000D01*
X43584813Y-29005395D01*
X43592561Y-29093948D01*
X43604937Y-29235408D01*
X43606336Y-29240631D01*
X43606337Y-29240634D01*
X43617299Y-29281545D01*
X43666097Y-29463663D01*
X43668384Y-29468567D01*
X43668386Y-29468573D01*
X43738382Y-29618677D01*
X43750000Y-29671082D01*
X43750000Y-30793379D01*
X43730315Y-30860418D01*
X43707212Y-30887083D01*
X43591651Y-30987236D01*
X43034956Y-31469705D01*
X42971403Y-31498736D01*
X42953745Y-31500000D01*
X41542887Y-31500000D01*
X41475848Y-31480315D01*
X41466286Y-31473510D01*
X40847388Y-30987234D01*
X40806837Y-30930339D01*
X40800000Y-30889732D01*
X40800000Y-28666283D01*
X40819685Y-28599244D01*
X40836319Y-28578602D01*
X41331056Y-28083865D01*
X41342116Y-28074051D01*
X41402006Y-28026995D01*
X41466880Y-28001056D01*
X41478614Y-28000500D01*
X43028270Y-28000500D01*
X43095309Y-28020185D01*
G37*
%TD.AperFunction*%
%TD*%
%TA.AperFunction,Conductor*%
%TO.N,+3.3V*%
G36*
X65109106Y-69570002D02*
G01*
X65137781Y-69595337D01*
X65320796Y-69814955D01*
X65349040Y-69880092D01*
X65350000Y-69895618D01*
X65350000Y-72372128D01*
X65329998Y-72440249D01*
X65280350Y-72484825D01*
X64676650Y-72786675D01*
X64620204Y-72799977D01*
X57728969Y-72794622D01*
X57673950Y-72781926D01*
X57420315Y-72658533D01*
X57367809Y-72610745D01*
X57349474Y-72542157D01*
X57355844Y-72505564D01*
X57362742Y-72484766D01*
X57362743Y-72484761D01*
X57364910Y-72478228D01*
X57375500Y-72374866D01*
X57375500Y-71725134D01*
X57364641Y-71620481D01*
X57362820Y-71615023D01*
X57367961Y-71544652D01*
X57410594Y-71487881D01*
X57423435Y-71479466D01*
X57577044Y-71391689D01*
X57620948Y-71366601D01*
X57683462Y-71350000D01*
X59272401Y-71350000D01*
X59340522Y-71370002D01*
X59366037Y-71391689D01*
X59394129Y-71422888D01*
X59399468Y-71426767D01*
X59483585Y-71487881D01*
X59547270Y-71534151D01*
X59720197Y-71611144D01*
X59818212Y-71631978D01*
X59898897Y-71649128D01*
X59898901Y-71649128D01*
X59905354Y-71650500D01*
X60057501Y-71650500D01*
X60123091Y-71668918D01*
X60221133Y-71728692D01*
X60221135Y-71728692D01*
X60235881Y-71737683D01*
X60331108Y-71737926D01*
X60443424Y-71738213D01*
X60517163Y-71762277D01*
X60547270Y-71784151D01*
X60720197Y-71861144D01*
X60818212Y-71881978D01*
X60898897Y-71899128D01*
X60898901Y-71899128D01*
X60905354Y-71900500D01*
X61094646Y-71900500D01*
X61101099Y-71899128D01*
X61101103Y-71899128D01*
X61181788Y-71881978D01*
X61279803Y-71861144D01*
X61332436Y-71837710D01*
X61446694Y-71786839D01*
X61446698Y-71786837D01*
X61452730Y-71784151D01*
X61478938Y-71765110D01*
X61545806Y-71741252D01*
X61553320Y-71741047D01*
X63981887Y-71747247D01*
X63981888Y-71747247D01*
X64000000Y-71747293D01*
X64255312Y-71536837D01*
X64286020Y-71511524D01*
X64300000Y-71500000D01*
X64300000Y-70787994D01*
X64320002Y-70719873D01*
X64336905Y-70698899D01*
X64370117Y-70665687D01*
X64452494Y-70526395D01*
X64497643Y-70370993D01*
X64498741Y-70357042D01*
X64500307Y-70337148D01*
X64500307Y-70337137D01*
X64500500Y-70334690D01*
X64500500Y-69865310D01*
X64497643Y-69829007D01*
X64472205Y-69741450D01*
X64472408Y-69670454D01*
X64490672Y-69633060D01*
X64512313Y-69602763D01*
X64568184Y-69558958D01*
X64614843Y-69550000D01*
X65040985Y-69550000D01*
X65109106Y-69570002D01*
G37*
%TD.AperFunction*%
%TD*%
%TA.AperFunction,Conductor*%
%TO.N,GND*%
G36*
X73606338Y-44520002D02*
G01*
X73652831Y-44573658D01*
X73663318Y-44610985D01*
X73800000Y-45750000D01*
X75750000Y-45750000D01*
X75978428Y-44699233D01*
X76012443Y-44636917D01*
X76074751Y-44602883D01*
X76101551Y-44600000D01*
X76819381Y-44600000D01*
X76887502Y-44620002D01*
X76933784Y-44673199D01*
X77124726Y-45086905D01*
X77137904Y-45115458D01*
X77148913Y-45165583D01*
X77149317Y-45165561D01*
X77149451Y-45168030D01*
X77149501Y-45168259D01*
X77149501Y-45172376D01*
X77156149Y-45233580D01*
X77206474Y-45367824D01*
X77211854Y-45375003D01*
X77211856Y-45375006D01*
X77287073Y-45475367D01*
X77287075Y-45475369D01*
X77292454Y-45482546D01*
X77299631Y-45487925D01*
X77302647Y-45490941D01*
X77327953Y-45527233D01*
X77792407Y-46533550D01*
X77792408Y-46533552D01*
X77800000Y-46550000D01*
X81644834Y-46550000D01*
X81712955Y-46570002D01*
X81737418Y-46590536D01*
X81884616Y-46750000D01*
X82266585Y-47163800D01*
X82298093Y-47227422D01*
X82300000Y-47249263D01*
X82300000Y-55662861D01*
X82279857Y-55731201D01*
X81014871Y-57690640D01*
X80961119Y-57737022D01*
X80909014Y-57748300D01*
X70623600Y-57748300D01*
X70555479Y-57728298D01*
X70533219Y-57710092D01*
X70514325Y-57690640D01*
X69486691Y-56632701D01*
X69453575Y-56569901D01*
X69451072Y-56544923D01*
X69450002Y-47218116D01*
X69450000Y-47200000D01*
X69000000Y-46750000D01*
X64348619Y-46700970D01*
X64280714Y-46680251D01*
X64269846Y-46672238D01*
X64045898Y-46487800D01*
X64006031Y-46429054D01*
X64000000Y-46390539D01*
X64000000Y-45452190D01*
X64020002Y-45384069D01*
X64036905Y-45363095D01*
X64313095Y-45086905D01*
X64375407Y-45052879D01*
X64402190Y-45050000D01*
X71600000Y-45050000D01*
X72367751Y-44522171D01*
X72439134Y-44500000D01*
X73538217Y-44500000D01*
X73606338Y-44520002D01*
G37*
%TD.AperFunction*%
%TD*%
%TA.AperFunction,Conductor*%
%TO.N,/L_IN*%
G36*
X78843037Y-29919685D02*
G01*
X78888792Y-29972489D01*
X78899998Y-30024000D01*
X78899926Y-35103845D01*
X79080499Y-36185343D01*
X79296965Y-37481821D01*
X79297616Y-37518280D01*
X79014082Y-39692038D01*
X78985892Y-39755968D01*
X78927614Y-39794509D01*
X78891124Y-39800000D01*
X77724000Y-39800000D01*
X77656961Y-39780315D01*
X77611206Y-39727511D01*
X77600000Y-39676000D01*
X77600000Y-36200000D01*
X76800000Y-34900000D01*
X74724000Y-34900000D01*
X74656961Y-34880315D01*
X74611206Y-34827511D01*
X74600000Y-34776000D01*
X74600000Y-30024000D01*
X74619685Y-29956961D01*
X74672489Y-29911206D01*
X74724000Y-29900000D01*
X78775998Y-29900000D01*
X78843037Y-29919685D01*
G37*
%TD.AperFunction*%
%TD*%
%TA.AperFunction,Conductor*%
%TO.N,GND*%
G36*
X62920784Y-33004670D02*
G01*
X62966539Y-33057474D01*
X62977736Y-33107526D01*
X63025813Y-37194084D01*
X63006919Y-37261351D01*
X63002348Y-37268141D01*
X62414494Y-38082094D01*
X62413416Y-38083586D01*
X62358207Y-38126408D01*
X62312892Y-38134985D01*
X58640855Y-38134985D01*
X58573816Y-38115300D01*
X58539270Y-38082094D01*
X57898709Y-37167006D01*
X57876294Y-37095897D01*
X57876294Y-33108985D01*
X57895979Y-33041946D01*
X57948783Y-32996191D01*
X58000294Y-32984985D01*
X62853745Y-32984985D01*
X62920784Y-33004670D01*
G37*
%TD.AperFunction*%
%TD*%
M02*
