%TF.GenerationSoftware,KiCad,Pcbnew,6.0.10-86aedd382b~118~ubuntu22.10.1*%
%TF.CreationDate,2023-02-12T19:14:21-05:00*%
%TF.ProjectId,WerfenMc,57657266-656e-44d6-932e-6b696361645f,rev?*%
%TF.SameCoordinates,Original*%
%TF.FileFunction,Paste,Top*%
%TF.FilePolarity,Positive*%
%FSLAX46Y46*%
G04 Gerber Fmt 4.6, Leading zero omitted, Abs format (unit mm)*
G04 Created by KiCad (PCBNEW 6.0.10-86aedd382b~118~ubuntu22.10.1) date 2023-02-12 19:14:21*
%MOMM*%
%LPD*%
G01*
G04 APERTURE LIST*
G04 Aperture macros list*
%AMRoundRect*
0 Rectangle with rounded corners*
0 $1 Rounding radius*
0 $2 $3 $4 $5 $6 $7 $8 $9 X,Y pos of 4 corners*
0 Add a 4 corners polygon primitive as box body*
4,1,4,$2,$3,$4,$5,$6,$7,$8,$9,$2,$3,0*
0 Add four circle primitives for the rounded corners*
1,1,$1+$1,$2,$3*
1,1,$1+$1,$4,$5*
1,1,$1+$1,$6,$7*
1,1,$1+$1,$8,$9*
0 Add four rect primitives between the rounded corners*
20,1,$1+$1,$2,$3,$4,$5,0*
20,1,$1+$1,$4,$5,$6,$7,0*
20,1,$1+$1,$6,$7,$8,$9,0*
20,1,$1+$1,$8,$9,$2,$3,0*%
G04 Aperture macros list end*
%ADD10RoundRect,0.135000X-0.185000X0.135000X-0.185000X-0.135000X0.185000X-0.135000X0.185000X0.135000X0*%
%ADD11RoundRect,0.250000X0.275000X-0.312500X0.275000X0.312500X-0.275000X0.312500X-0.275000X-0.312500X0*%
%ADD12RoundRect,0.135000X0.185000X-0.135000X0.185000X0.135000X-0.185000X0.135000X-0.185000X-0.135000X0*%
%ADD13RoundRect,0.243750X0.456250X-0.243750X0.456250X0.243750X-0.456250X0.243750X-0.456250X-0.243750X0*%
%ADD14RoundRect,0.243750X-0.456250X0.243750X-0.456250X-0.243750X0.456250X-0.243750X0.456250X0.243750X0*%
%ADD15RoundRect,0.140000X0.140000X0.170000X-0.140000X0.170000X-0.140000X-0.170000X0.140000X-0.170000X0*%
%ADD16R,2.000000X1.500000*%
%ADD17R,2.000000X3.800000*%
%ADD18RoundRect,0.075000X-0.700000X-0.075000X0.700000X-0.075000X0.700000X0.075000X-0.700000X0.075000X0*%
%ADD19RoundRect,0.075000X-0.075000X-0.700000X0.075000X-0.700000X0.075000X0.700000X-0.075000X0.700000X0*%
%ADD20RoundRect,0.243750X0.243750X0.456250X-0.243750X0.456250X-0.243750X-0.456250X0.243750X-0.456250X0*%
%ADD21RoundRect,0.140000X-0.170000X0.140000X-0.170000X-0.140000X0.170000X-0.140000X0.170000X0.140000X0*%
%ADD22RoundRect,0.250000X0.312500X0.275000X-0.312500X0.275000X-0.312500X-0.275000X0.312500X-0.275000X0*%
%ADD23RoundRect,0.135000X-0.135000X-0.185000X0.135000X-0.185000X0.135000X0.185000X-0.135000X0.185000X0*%
%ADD24R,3.556000X3.505200*%
%ADD25RoundRect,0.218750X-0.256250X0.218750X-0.256250X-0.218750X0.256250X-0.218750X0.256250X0.218750X0*%
%ADD26RoundRect,0.135000X0.135000X0.185000X-0.135000X0.185000X-0.135000X-0.185000X0.135000X-0.185000X0*%
%ADD27R,5.250000X4.550000*%
%ADD28R,1.100000X4.600000*%
%ADD29R,3.050000X2.750000*%
%ADD30R,2.200000X1.200000*%
%ADD31RoundRect,0.250000X0.550000X-1.712500X0.550000X1.712500X-0.550000X1.712500X-0.550000X-1.712500X0*%
%ADD32RoundRect,0.250000X-0.550000X1.712500X-0.550000X-1.712500X0.550000X-1.712500X0.550000X1.712500X0*%
%ADD33RoundRect,0.140000X0.170000X-0.140000X0.170000X0.140000X-0.170000X0.140000X-0.170000X-0.140000X0*%
%ADD34R,2.200000X1.300000*%
%ADD35RoundRect,0.200000X-0.275000X0.200000X-0.275000X-0.200000X0.275000X-0.200000X0.275000X0.200000X0*%
%ADD36RoundRect,0.140000X-0.140000X-0.170000X0.140000X-0.170000X0.140000X0.170000X-0.140000X0.170000X0*%
G04 APERTURE END LIST*
D10*
%TO.C,R5*%
X92000000Y-69490000D03*
X92000000Y-70510000D03*
%TD*%
D11*
%TO.C,C2*%
X49750000Y-66887500D03*
X49750000Y-65112500D03*
%TD*%
D12*
%TO.C,R8*%
X84250000Y-70510000D03*
X84250000Y-69490000D03*
%TD*%
%TO.C,R10*%
X96500000Y-80113641D03*
X96500000Y-79093641D03*
%TD*%
D13*
%TO.C,D2*%
X89300000Y-73937500D03*
X89300000Y-72062500D03*
%TD*%
D14*
%TO.C,D5*%
X94500000Y-79062500D03*
X94500000Y-80937500D03*
%TD*%
D15*
%TO.C,C16*%
X55030000Y-57450000D03*
X54070000Y-57450000D03*
%TD*%
D16*
%TO.C,Q2*%
X41650000Y-51300000D03*
X41650000Y-49000000D03*
X41650000Y-46700000D03*
D17*
X35350000Y-49000000D03*
%TD*%
D18*
%TO.C,U1*%
X55045200Y-58683200D03*
X55045200Y-59183200D03*
X55045200Y-59683200D03*
X55045200Y-60183200D03*
X55045200Y-60683200D03*
X55045200Y-61183200D03*
X55045200Y-61683200D03*
X55045200Y-62183200D03*
X55045200Y-62683200D03*
X55045200Y-63183200D03*
X55045200Y-63683200D03*
X55045200Y-64183200D03*
X55045200Y-64683200D03*
X55045200Y-65183200D03*
X55045200Y-65683200D03*
X55045200Y-66183200D03*
D19*
X56970200Y-68108200D03*
X57470200Y-68108200D03*
X57970200Y-68108200D03*
X58470200Y-68108200D03*
X58970200Y-68108200D03*
X59470200Y-68108200D03*
X59970200Y-68108200D03*
X60470200Y-68108200D03*
X60970200Y-68108200D03*
X61470200Y-68108200D03*
X61970200Y-68108200D03*
X62470200Y-68108200D03*
X62970200Y-68108200D03*
X63470200Y-68108200D03*
X63970200Y-68108200D03*
X64470200Y-68108200D03*
D18*
X66395200Y-66183200D03*
X66395200Y-65683200D03*
X66395200Y-65183200D03*
X66395200Y-64683200D03*
X66395200Y-64183200D03*
X66395200Y-63683200D03*
X66395200Y-63183200D03*
X66395200Y-62683200D03*
X66395200Y-62183200D03*
X66395200Y-61683200D03*
X66395200Y-61183200D03*
X66395200Y-60683200D03*
X66395200Y-60183200D03*
X66395200Y-59683200D03*
X66395200Y-59183200D03*
X66395200Y-58683200D03*
D19*
X64470200Y-56758200D03*
X63970200Y-56758200D03*
X63470200Y-56758200D03*
X62970200Y-56758200D03*
X62470200Y-56758200D03*
X61970200Y-56758200D03*
X61470200Y-56758200D03*
X60970200Y-56758200D03*
X60470200Y-56758200D03*
X59970200Y-56758200D03*
X59470200Y-56758200D03*
X58970200Y-56758200D03*
X58470200Y-56758200D03*
X57970200Y-56758200D03*
X57470200Y-56758200D03*
X56970200Y-56758200D03*
%TD*%
D20*
%TO.C,D8*%
X78437500Y-38900000D03*
X76562500Y-38900000D03*
%TD*%
D21*
%TO.C,C10*%
X50350000Y-61750000D03*
X50350000Y-62710000D03*
%TD*%
D12*
%TO.C,R17*%
X88750000Y-50702718D03*
X88750000Y-49682718D03*
%TD*%
D11*
%TO.C,C1*%
X52000000Y-66887500D03*
X52000000Y-65112500D03*
%TD*%
D10*
%TO.C,R3*%
X86750000Y-69490000D03*
X86750000Y-70510000D03*
%TD*%
D13*
%TO.C,D1*%
X86700000Y-73937500D03*
X86700000Y-72062500D03*
%TD*%
D22*
%TO.C,C3*%
X58087500Y-72050000D03*
X56312500Y-72050000D03*
%TD*%
D23*
%TO.C,R2*%
X46490000Y-75750000D03*
X47510000Y-75750000D03*
%TD*%
D24*
%TO.C,L1*%
X76775000Y-32100000D03*
X67825000Y-32100000D03*
%TD*%
D25*
%TO.C,FB1*%
X47250000Y-65325000D03*
X47250000Y-66900000D03*
%TD*%
D20*
%TO.C,D4*%
X66937500Y-48500000D03*
X65062500Y-48500000D03*
%TD*%
D14*
%TO.C,D7*%
X69250000Y-74312500D03*
X69250000Y-76187500D03*
%TD*%
D26*
%TO.C,R15*%
X47010000Y-53120000D03*
X45990000Y-53120000D03*
%TD*%
D27*
%TO.C,U2*%
X73725000Y-49550000D03*
X73725000Y-54400000D03*
X79275000Y-49550000D03*
X79275000Y-54400000D03*
D28*
X79900000Y-42825000D03*
X78200000Y-42825000D03*
X76500000Y-42825000D03*
X74800000Y-42825000D03*
X73100000Y-42825000D03*
%TD*%
D29*
%TO.C,U3*%
X57325000Y-45125000D03*
X60675000Y-45125000D03*
X60675000Y-42075000D03*
X57325000Y-42075000D03*
D30*
X65300000Y-45880000D03*
X65300000Y-43600000D03*
X65300000Y-41320000D03*
%TD*%
D31*
%TO.C,C14*%
X83750000Y-35337500D03*
X83750000Y-29162500D03*
%TD*%
D21*
%TO.C,C7*%
X68514000Y-58498800D03*
X68514000Y-59458800D03*
%TD*%
D15*
%TO.C,C8*%
X41710000Y-56860000D03*
X40750000Y-56860000D03*
%TD*%
D32*
%TO.C,C15*%
X60376294Y-29247485D03*
X60376294Y-35422485D03*
%TD*%
D33*
%TO.C,C9*%
X50350000Y-59360000D03*
X50350000Y-58400000D03*
%TD*%
D13*
%TO.C,D3*%
X92000000Y-73937500D03*
X92000000Y-72062500D03*
%TD*%
D15*
%TO.C,C4*%
X58080000Y-70300000D03*
X57120000Y-70300000D03*
%TD*%
D10*
%TO.C,R4*%
X89300000Y-69490000D03*
X89300000Y-70510000D03*
%TD*%
D15*
%TO.C,C6*%
X64680000Y-70100000D03*
X63720000Y-70100000D03*
%TD*%
D13*
%TO.C,D10*%
X86750000Y-51687500D03*
X86750000Y-49812500D03*
%TD*%
D12*
%TO.C,R12*%
X78500000Y-72760000D03*
X78500000Y-71740000D03*
%TD*%
%TO.C,R13*%
X71500000Y-74260000D03*
X71500000Y-73240000D03*
%TD*%
D34*
%TO.C,HSE1*%
X48000000Y-62600000D03*
X48000000Y-58400000D03*
%TD*%
D14*
%TO.C,D6*%
X78500000Y-74312500D03*
X78500000Y-76187500D03*
%TD*%
D23*
%TO.C,R11*%
X94465000Y-77120000D03*
X95485000Y-77120000D03*
%TD*%
D10*
%TO.C,R7*%
X52300000Y-61740000D03*
X52300000Y-62760000D03*
%TD*%
D35*
%TO.C,R16*%
X36500000Y-41350000D03*
X36500000Y-43000000D03*
%TD*%
D36*
%TO.C,C5*%
X56520000Y-55000000D03*
X57480000Y-55000000D03*
%TD*%
D12*
%TO.C,R14*%
X69250000Y-72770000D03*
X69250000Y-71750000D03*
%TD*%
%TO.C,R9*%
X76370000Y-74260000D03*
X76370000Y-73240000D03*
%TD*%
%TO.C,R6*%
X65000000Y-51510000D03*
X65000000Y-50490000D03*
%TD*%
M02*
